<?xml version="1.0" encoding="utf-8"?>
<!-- Generator: Adobe Illustrator 28.3.0, SVG Export Plug-In . SVG Version: 6.00 Build 0)  -->
<svg version="1.1" id="Layer_1" xmlns="http://www.w3.org/2000/svg" xmlns:xlink="http://www.w3.org/1999/xlink" x="0px" y="0px"
	 viewBox="250.86 230.63 688.84 429.05" style="enable-background:new 250.86 230.63 688.84 429.05;" xml:space="preserve">
<style type="text/css">
	.st0{fill:#FFFFFF;}
	.st1{fill:#1A1A1A;}
	.st2{fill:#FFFFFE;}
</style>
<g>
	<g>
		<g>
			<path class="st2" d="M532.54,237.09l-2.42,0.06l0.04,1.75c0.28,0.06,0.48,0.13,0.61,0.23l0.03,1.05
				c-0.71-0.23-1.45-0.34-2.21-0.32c-0.55,0.01-1.08,0.12-1.59,0.31c-0.68,0.26-1.02,0.62-1.01,1.07c0,0.48,0.68,0.7,2.03,0.67
				c0.03,0,0.22-0.01,0.58-0.04l0.53-0.04l0.02,0.82c-0.8,0.04-1.31,0.08-1.51,0.1c-1.41,0.16-2.11,0.58-2.09,1.28
				c0.01,0.38,0.26,0.68,0.76,0.89c0.39,0.16,0.81,0.24,1.25,0.23c1.92-0.05,3.46-0.93,4.61-2.67l0.05,2.24
				c-1,0.67-2.2,1.02-3.59,1.05c-1.52,0.04-2.84-0.28-3.96-0.96c-0.55-0.33-0.83-0.72-0.84-1.16c-0.01-0.43,0.17-0.81,0.54-1.14
				c0.23-0.2,0.6-0.44,1.13-0.7l-0.59-0.32c-0.35-0.19-0.53-0.46-0.54-0.8c-0.02-0.73,0.52-1.27,1.62-1.62
				c0.83-0.26,1.77-0.41,2.82-0.43l-0.03-1.44l-5.69,0.13l-0.03-1.06l9.47-0.22L532.54,237.09z"/>
			<path class="st2" d="M541.45,236.88l-0.97,0.02l0.08,3.37c-0.35-0.2-0.86-0.36-1.52-0.5c-0.62-0.13-1.15-0.19-1.6-0.17
				c-1.08,0.03-1.99,0.24-2.71,0.64c-0.41,0.23-0.61,0.52-0.6,0.88c0.01,0.47,0.26,0.7,0.76,0.69c0.3-0.01,0.69-0.11,1.17-0.29
				c0.31-0.12,0.71-0.27,1.2-0.45c0.2-0.08,0.57-0.12,1.1-0.13c1.02-0.02,1.79,0.27,2.31,0.89c0.25,0.3,0.38,0.65,0.39,1.06
				c0.02,0.94-0.55,1.69-1.72,2.26c-0.49,0.24-0.95,0.37-1.39,0.41c0.43,0.42,0.85,0.62,1.23,0.61c0.12,0,0.26-0.02,0.4-0.06
				l0.93,1.44c-0.18,0.16-0.55,0.25-1.12,0.27c-0.46,0.01-0.86-0.14-1.18-0.44c-0.17-0.17-0.43-0.52-0.75-1.06
				c-0.28-0.46-0.5-0.69-0.68-0.69c-1.1,0-1.94-0.18-2.54-0.53c-0.38-0.22-0.57-0.53-0.58-0.94c-0.01-0.5,0.28-0.75,0.87-0.77
				c0.22-0.01,0.68,0.15,1.38,0.48c0.7,0.32,1.28,0.48,1.73,0.47c0.9-0.02,1.74-0.25,2.51-0.7c0.38-0.22,0.57-0.48,0.56-0.78
				c-0.01-0.45-0.37-0.66-1.08-0.65c-0.22,0.01-0.92,0.18-2.11,0.53c-0.7,0.21-1.13,0.31-1.29,0.31c-0.94,0.02-1.73-0.4-2.36-1.27
				c-0.31-0.42-0.46-0.87-0.48-1.37c-0.03-1,0.64-1.69,2-2.07c0.56-0.16,1.09-0.24,1.58-0.25c0.57-0.01,1.38,0.11,2.42,0.36
				l-0.04-1.52l-7.06,0.17l-0.03-1.06l9.16-0.22L541.45,236.88z"/>
			<path class="st2" d="M549.2,236.69l-4.49,0.11l0.17,7.15c0.01,0.2,0.07,0.4,0.21,0.58c0.14,0.2,0.31,0.3,0.5,0.3
				c0.88-0.02,1.3-0.94,1.26-2.76l1.81,0.98c-0.65,1.53-1.68,2.3-3.11,2.33c-0.83,0.01-1.48-0.35-1.96-1.09
				c-0.21-0.32-0.32-0.64-0.33-0.97l-0.15-6.47l-1.85,0.04l-0.03-1.06l1.85-0.04l-0.07-2.97l1.62,1.07l0.04,1.87l4.49-0.11
				L549.2,236.69z"/>
			<path class="st2" d="M552.41,236.62L549,236.7l-0.03-1.06l3.42-0.08L552.41,236.62z M551.98,244.6
				c-0.08,0.09-0.27,0.23-0.57,0.42c-0.3,0.2-0.48,0.29-0.56,0.3c-0.03,0-0.19-0.1-0.47-0.31c-0.26-0.19-0.42-0.32-0.49-0.38
				l0.96-0.8C550.92,243.83,551.3,244.08,551.98,244.6z"/>
			<path class="st2" d="M560.73,236.42l-3.71,0.09l-0.03-1.06l3.71-0.09L560.73,236.42z M559.79,245.91l-1.41-0.87l-0.15-6.29
				c-0.01-0.25-0.05-0.48-0.14-0.71l-0.01-0.27l1.5-0.35L559.79,245.91z"/>
			<path class="st2" d="M568.93,236.23l-5.27,0.12l0.04,1.5c0.53-0.26,1-0.39,1.41-0.4c2.07-0.05,3.13,1.02,3.18,3.22
				c0.04,1.65-0.64,2.87-2.04,3.67c-0.64,0.36-1.31,0.55-2,0.57c-0.86,0.02-1.72-0.22-2.6-0.74l1.2-0.86
				c0.91,0.44,1.72,0.65,2.42,0.64c1.19-0.03,1.77-1.03,1.72-3.01c-0.63,0.87-1.52,1.32-2.68,1.35c-0.76,0.02-1.41-0.13-1.94-0.43
				c-0.63-0.36-0.96-0.91-0.98-1.63c-0.01-0.56,0.36-1.13,1.11-1.7l-0.05-2.15l-1.91,0.05l-0.03-1.06l8.39-0.2L568.93,236.23z
				 M566.9,240.51c-0.02-0.74-0.51-1.34-1.47-1.81c-0.43-0.21-0.86-0.31-1.29-0.3c-1.12,0.03-1.68,0.39-1.66,1.08
				c0.02,0.72,0.46,1.27,1.33,1.63c0.38,0.16,0.75,0.23,1.11,0.22c0.33-0.01,0.71-0.07,1.14-0.2
				C566.63,240.98,566.9,240.77,566.9,240.51z"/>
			<path class="st2" d="M577.18,236.03l-5.27,0.12l0.04,1.5c0.53-0.26,1-0.39,1.41-0.4c2.07-0.05,3.13,1.02,3.18,3.22
				c0.04,1.65-0.64,2.87-2.04,3.67c-0.64,0.36-1.31,0.55-2,0.57c-0.86,0.02-1.72-0.22-2.6-0.74l1.2-0.86
				c0.91,0.44,1.72,0.65,2.42,0.64c1.2-0.03,1.77-1.03,1.72-3.01c-0.62,0.87-1.52,1.32-2.68,1.35c-0.76,0.02-1.41-0.13-1.94-0.43
				c-0.63-0.36-0.96-0.91-0.98-1.63c-0.01-0.56,0.36-1.13,1.11-1.7l-0.05-2.15l-1.91,0.05l-0.03-1.06l8.39-0.2L577.18,236.03z
				 M575.15,240.31c-0.02-0.74-0.51-1.34-1.47-1.81c-0.43-0.21-0.86-0.31-1.29-0.3c-1.12,0.03-1.68,0.39-1.66,1.08
				c0.02,0.72,0.46,1.27,1.34,1.63c0.38,0.16,0.74,0.23,1.11,0.22c0.33-0.01,0.71-0.07,1.14-0.2
				C574.88,240.78,575.16,240.57,575.15,240.31z"/>
			<path class="st2" d="M586.67,235.8l-5.92,0.14l0.03,1.46c0.24-0.22,0.69-0.35,1.35-0.36c1.49-0.04,2.61,0.47,3.37,1.53
				c0.36,0.5,0.55,1.08,0.56,1.73c0.02,0.83-0.32,1.7-1.02,2.59c-0.82,1.04-1.92,1.57-3.31,1.61c-1.56,0.04-2.69-0.45-3.39-1.47
				c-0.34-0.49-0.51-1.04-0.53-1.66c-0.03-1.33,0.57-2.42,1.8-3.27l-0.05-2.13l-2.52,0.06l-0.03-1.06l9.63-0.23L586.67,235.8z
				 M584.73,241.07c-0.03-1.29-0.64-2.21-1.83-2.75c-0.56-0.25-1.2-0.37-1.92-0.35c-0.61,0.01-1.13,0.46-1.57,1.33
				c-0.2,0.4-0.29,0.82-0.28,1.27c0.02,0.93,0.39,1.68,1.11,2.27c0.68,0.55,1.49,0.82,2.43,0.79c0.84-0.02,1.44-0.42,1.81-1.21
				C584.66,242.03,584.74,241.59,584.73,241.07z"/>
		</g>
		<g>
			<path class="st2" d="M738.22,312.23c-2.11,9.83-6.74,16.64-13.9,20.43c-7.31,3.93-18.89,5.9-34.76,5.9h-5.74
				c0.06,4.6,0.11,9.25,0.17,13.91h18.63c23.03,0,34.9,11.09,35.6,33.29h4.64v-6.95c0-3.51-0.28-9.27-0.84-17.28
				c-0.42-8.42-0.63-14.39-0.63-17.91c0-5.76,0.49-16.22,1.48-31.39H738.22z"/>
			<path class="st2" d="M724.76,267.96c4.88,0,9.87,0,14.93,0c-0.04-10.92,0.11-23.33,0.48-37.33c-3.64,0.29-8.41,0.56-14.3,0.81
				c-3.37,0.14-9.69,0.2-18.97,0.16c-10.26,0.01-15.6,0.02-16.02,0.04l-5.47,0.23l0.18,4.42
				C709.9,239.04,722.94,249.61,724.76,267.96z"/>
		</g>
		<g>
			<path class="st2" d="M521.7,346.88c-10.71-16.97-16.06-35.66-16.06-56.09c0-16.61,4.95-33.28,14.78-50.02
				c-0.02-1.44-0.05-2.89-0.07-4.34c-25.77,12.08-38.68,30.44-38.68,55.1C481.67,317.72,495.01,336.17,521.7,346.88z"/>
			<path class="st2" d="M671.59,236.08v-3.79c-8.99,0.98-25.14,1.82-48.46,2.53v222.05h9.06c3.51,0,9.06,0.42,16.64,1.26
				c6.46,0.84,14.05,1.26,22.75,1.26v-3.79c-8.99-0.98-16.43-5.41-22.33-13.27c-5.9-7.86-8.85-23.03-8.85-45.51V288.54
				C640.41,257.92,650.81,240.44,671.59,236.08z"/>
			<path class="st2" d="M490.2,392.4c22.3-23.02,44.08-36.18,65.36-39.55c-9.33,0.08-18.67-0.55-26.8-2.91
				c-9.98,1.93-18.61,5.21-25.7,10.02c-8.85,6.04-22.26,18.12-40.24,36.24c-27.39,27.81-49.72,41.71-67,41.71
				c-3.51,0-7.09-1.19-10.74-3.58l-0.84,3.79c5.62,7.31,13.41,10.96,23.38,10.96c10.68,0,21.84-4,33.5-12.01
				C452.07,429.48,468.43,414.59,490.2,392.4z"/>
			<path class="st2" d="M589.22,351.3c-7.06,0.13-15.63,0.88-24.58,1.3c-15.12,5.44-35.21,21.28-60.32,47.6
				c-18.4,19.1-33.14,33.01-44.24,41.71c-11.23,8.71-21.98,13.06-32.23,13.06v1.9c4.77,1.69,9.48,2.53,14.12,2.53
				c13.63,0,25.42-3.44,35.39-10.32c5.34-3.79,12.12-9.59,20.33-17.38c8.21-7.79,18.08-17.87,29.6-30.23
				c16.85-17.98,29.36-30.2,37.5-36.66C573.12,358.48,581.27,354.01,589.22,351.3z"/>
			<path class="st2" d="M590.58,234.35c0.66,58.95,0.89,116.92,0.71,116.92c-0.33,0-0.69,0.01-1.03,0.01v49.55
				c0,33.57-10.11,51.82-30.34,54.77v3.79c16.86-1.69,30.76-2.53,41.71-2.53h6.11V234.82C602.28,234.82,596.54,234.65,590.58,234.35
				z"/>
		</g>
		<g>
			<path class="st2" d="M629.06,237.12h-24.02c-2.22,0-4.03,2.76-4.03,6.17v204.86c0,3.41,1.8,6.17,4.03,6.17h24.02
				c2.22,0,4.03-2.76,4.03-6.17V243.3C633.09,239.89,631.28,237.12,629.06,237.12z"/>
			<path class="st2" d="M629.06,456.87h-24.02c-3.14,0-5.69-3.91-5.69-8.72V243.3c0-4.81,2.55-8.72,5.69-8.72h24.02
				c3.14,0,5.69,3.91,5.69,8.72v204.86C634.75,452.96,632.2,456.87,629.06,456.87z M605.04,239.67c-1.3,0-2.37,1.63-2.37,3.63
				v204.86c0,2,1.06,3.63,2.37,3.63h24.02c1.3,0,2.37-1.63,2.37-3.63V243.3c0-2-1.06-3.63-2.37-3.63H605.04z"/>
		</g>
		<g>
			<g>
				<path class="st2" d="M622.47,307.27c-0.18,0-0.35-0.15-0.51-0.47c-7.71-15.41-19.91-47.02-24.91-62.01
					c-0.38-1.14-0.39-3.04-0.03-4.23c0.37-1.19,0.97-1.23,1.35-0.09c4.83,14.48,17.11,46.31,24.61,61.29
					c0.45,0.89,0.58,2.74,0.29,4.13C623.09,306.78,622.78,307.27,622.47,307.27z"/>
			</g>
			<g>
				<path class="st2" d="M595.73,348.52c-0.45,0-0.85-0.99-0.94-2.42c-0.1-1.62,0.24-3.19,0.76-3.51
					c16.25-9.88,34.61-52.55,42.98-88.1c0.31-1.33,0.91-1.62,1.34-0.64c0.43,0.98,0.52,2.85,0.2,4.18
					c-8.58,36.47-27.44,80.27-44.15,90.42C595.85,348.5,595.79,348.52,595.73,348.52z"/>
			</g>
			<g>
				<path class="st2" d="M595.73,373.75c-0.43,0-0.82-0.91-0.93-2.27c-0.13-1.6,0.18-3.23,0.7-3.63
					c17.52-13.75,33.76-50.43,43.12-80.17c0.37-1.18,0.98-1.19,1.35-0.03c0.38,1.16,0.38,3.06,0.01,4.23
					c-9.54,30.32-26.11,67.73-44.01,81.78C595.88,373.72,595.8,373.75,595.73,373.75z"/>
			</g>
			<g>
				<path class="st2" d="M595.73,396.08c-0.44,0-0.83-0.94-0.93-2.33c-0.12-1.61,0.21-3.22,0.72-3.58
					c12.53-8.92,31.47-43.53,43.11-78.81c0.38-1.15,0.99-1.12,1.35,0.07s0.36,3.08-0.02,4.23c-11.86,35.93-31.2,71.22-44.02,80.35
					C595.87,396.06,595.8,396.08,595.73,396.08z"/>
			</g>
			<g>
				<path class="st2" d="M595.73,419.58c-0.42,0-0.81-0.87-0.92-2.21c-0.14-1.59,0.16-3.24,0.67-3.68
					c13.35-11.39,33.63-42.09,43.14-71.83c0.37-1.17,0.98-1.17,1.35,0c0.37,1.17,0.37,3.06,0,4.23
					c-9.73,30.43-30.41,61.78-43.99,73.37C595.9,419.55,595.81,419.58,595.73,419.58z"/>
			</g>
			<g>
				<path class="st2" d="M628.09,293.72c-0.14,0-0.28-0.09-0.41-0.29c-5.51-8.25-17.53-40.5-21.22-51.87
					c-0.38-1.16-0.38-3.05-0.01-4.23c0.37-1.18,0.98-1.19,1.35-0.04c3.82,11.75,15.61,43.11,20.71,50.74
					c0.48,0.71,0.68,2.5,0.45,3.99C628.79,293.1,628.44,293.72,628.09,293.72z"/>
			</g>
			<g>
				<path class="st2" d="M616.53,319.91c-0.16,0-0.32-0.13-0.47-0.39c-6.03-10.76-17.13-38.54-21.02-51.41
					c-0.36-1.2-0.35-3.1,0.04-4.23c0.38-1.13,0.99-1.08,1.35,0.12c3.72,12.33,14.78,39.98,20.58,50.33
					c0.46,0.82,0.62,2.65,0.36,4.08C617.18,319.37,616.86,319.91,616.53,319.91z"/>
			</g>
			<g>
				<path class="st2" d="M610.82,330.54c-0.13,0-0.25-0.08-0.38-0.24c-2.39-3.19-12.74-26-15.43-35.25
					c-0.36-1.22-0.33-3.12,0.06-4.23c0.39-1.11,1-1.02,1.35,0.2c2.46,8.47,12.64,30.94,14.76,33.77c0.49,0.65,0.71,2.41,0.5,3.93
					C611.55,329.86,611.2,330.54,610.82,330.54z"/>
			</g>
			<g>
				<path class="st2" d="M604.38,340.57c-0.16,0-0.33-0.13-0.48-0.41c-0.24-0.45-6.02-11-8.78-18.05c-0.41-1.04-0.47-2.93-0.14-4.21
					c0.33-1.28,0.94-1.47,1.35-0.43c2.65,6.75,8.47,17.41,8.53,17.52c0.46,0.83,0.61,2.67,0.34,4.09
					C605.03,340.04,604.71,340.57,604.38,340.57z"/>
			</g>
			<g>
				<path class="st2" d="M633.82,277.82c-0.1,0-0.21-0.05-0.31-0.16c-5.46-5.9-14.86-23.41-18.33-36.3
					c-0.34-1.26-0.29-3.15,0.11-4.22c0.4-1.07,1.01-0.9,1.35,0.36c3.2,11.85,12.29,28.88,17.49,34.5c0.5,0.54,0.76,2.24,0.59,3.81
					C634.58,277.04,634.21,277.82,633.82,277.82z"/>
			</g>
			<g>
				<path class="st2" d="M638.17,263.48c-0.13,0-0.26-0.09-0.39-0.26c-0.37-0.52-9.14-12.91-11.98-21.66
					c-0.38-1.16-0.38-3.05-0.01-4.23c0.37-1.18,0.98-1.19,1.35-0.04c2.6,8,11.33,20.34,11.42,20.47c0.48,0.68,0.7,2.45,0.48,3.96
					C638.88,262.82,638.53,263.48,638.17,263.48z"/>
			</g>
			<g>
				<path class="st2" d="M617.51,455.94c-0.2,0-0.4-0.2-0.57-0.6c-2.81-6.59-9.08-31.12-11.89-48.14c-0.24-1.47-0.06-3.27,0.41-4.03
					c0.47-0.76,1.05-0.18,1.29,1.28c2.85,17.26,8.99,40.59,11.34,46.1c0.42,0.99,0.51,2.87,0.19,4.19
					C618.09,455.53,617.8,455.94,617.51,455.94z"/>
			</g>
			<g>
				<path class="st2" d="M626.75,455.94c-0.17,0-0.35-0.15-0.5-0.45c-3.7-7.17-11.85-40.18-14.58-57.14
					c-0.24-1.48-0.05-3.28,0.42-4.02c0.47-0.74,1.05-0.15,1.29,1.33c2.8,17.4,10.71,48.61,13.87,54.74
					c0.45,0.87,0.59,2.72,0.31,4.12C627.39,455.44,627.08,455.94,626.75,455.94z"/>
			</g>
			<g>
				<path class="st2" d="M635.99,452.97c-0.18,0-0.36-0.16-0.52-0.49c-4.19-8.59-13.87-40.2-17.89-62.93
					c-0.26-1.45-0.09-3.27,0.38-4.07c0.46-0.8,1.05-0.27,1.3,1.17c3.82,21.63,13.32,52.74,17.26,60.82
					c0.44,0.91,0.57,2.76,0.28,4.14C636.61,452.49,636.3,452.97,635.99,452.97z"/>
			</g>
			<g>
				<path class="st2" d="M639.29,432.85c-0.16,0-0.33-0.13-0.48-0.41c-3.54-6.5-12.35-38.08-15.22-53.01
					c-0.27-1.42-0.13-3.26,0.33-4.11c0.45-0.85,1.04-0.39,1.31,1.03c2.95,15.37,11.51,45.35,14.54,50.93
					c0.46,0.84,0.61,2.67,0.34,4.1C639.94,432.32,639.62,432.85,639.29,432.85z"/>
			</g>
			<g>
				<path class="st2" d="M608.15,455.94c-0.18,0-0.36-0.16-0.52-0.49c-3.06-6.26-8.42-30.15-9.79-40.48
					c-0.2-1.53,0.03-3.28,0.52-3.91c0.49-0.63,1.05,0.09,1.25,1.62c1.35,10.19,6.54,32.6,9.07,37.76c0.44,0.9,0.57,2.76,0.28,4.14
					C608.76,455.46,608.46,455.94,608.15,455.94z"/>
			</g>
			<g>
				<path class="st2" d="M639.29,405.62c-0.3,0-0.59-0.43-0.78-1.25c-0.28-1.21-6.82-29.8-8.37-37.78
					c-0.27-1.41-0.13-3.25,0.32-4.11c0.45-0.86,1.04-0.41,1.32,1c1.51,7.79,8.23,37.11,8.29,37.41c0.31,1.34,0.21,3.21-0.22,4.18
					C639.68,405.44,639.49,405.62,639.29,405.62z"/>
			</g>
		</g>
	</g>
	<g>
		<path class="st2" d="M288.67,593.35c0,0.23-0.08,0.35-0.23,0.35h-9.45c-0.21,0-0.46-0.12-0.73-0.35
			c-0.74-0.64-2.09-2.27-4.07-4.89c-1.05-1.41-2.09-2.83-3.14-4.25c-1.16-1.75-2.77-4.46-4.83-8.14c-0.14-0.33-0.29-0.49-0.47-0.49
			c-0.91,0-2.52-0.12-4.83-0.35c-0.31-0.1-0.47,0-0.47,0.29c0,0.37,0.01,1.6,0.03,3.68c0.02,2.08,0.03,4.28,0.03,6.59
			c0,4.25,0.44,6.37,1.31,6.37H267c0.19,0,0.29,0.1,0.29,0.29v0.96c0,0.19-0.08,0.29-0.23,0.29h-15.42c-0.17,0-0.28-0.03-0.32-0.09
			c-0.04-0.06-0.06-0.13-0.06-0.2v-0.9c0-0.17,0.03-0.28,0.09-0.31c0.06-0.03,0.14-0.04,0.23-0.04h3.81c0.31,0,0.47-0.3,0.47-0.9
			v-15.53v-12.04c-0.04-5.33-0.38-8-1.02-8h-3.69c-0.19,0-0.29-0.08-0.29-0.23v-1.08c0-0.15,0.08-0.23,0.23-0.23h8.7
			c0.27,0,1.38-0.04,3.33-0.12c1.95-0.08,3.04-0.12,3.27-0.12c1.26,0,2.49,0.1,3.69,0.29c2.68,0.43,4.83,1.43,6.46,3
			c1.9,1.8,2.85,4.08,2.85,6.84c0,3.14-0.93,5.72-2.79,7.74c-1.14,1.24-3.02,2.3-5.61,3.17c-0.16,0.08-0.21,0.19-0.17,0.35
			c0.85,2.23,2.82,5.09,5.9,8.58c1.61,1.82,2.78,3.13,3.52,3.93c1.3,1.36,2.4,2.38,3.32,3.05c1.24,0.91,2.79,1.37,4.65,1.37
			c0.31,0,0.47,0.08,0.47,0.23V593.35z M274.56,565.58c0-2.58-0.85-4.68-2.56-6.31c-2.39-2.25-5.84-3.37-10.36-3.37
			c-0.66,0-1.02,0.14-1.08,0.41c0,5.57-0.04,9.04-0.12,10.41v6.63c0,0.21,0.14,0.35,0.41,0.41c0.45,0.08,1.68,0.12,3.69,0.12
			c0.83,0,1.77-0.08,2.81-0.23c1.04-0.16,1.51-0.23,1.41-0.23C272.63,572.39,274.56,569.78,274.56,565.58z"/>
		<path class="st2" d="M334.32,555.34c0,0.23-0.06,0.35-0.17,0.35h-1.66c-1.49,0-2.33,0.02-2.5,0.06c-0.1,0.37-0.15,0.8-0.15,1.28
			c-0.08,1.24-0.14,3.18-0.17,5.82c-0.02,3.74,0.03,8.73,0.15,14.95c0.19,11.17-4.4,16.75-13.79,16.75c-4.05,0-7.34-0.44-9.86-1.31
			c-2.52-0.87-4.33-2.4-5.44-4.6c-0.91-1.82-1.43-4.57-1.54-8.23c-0.08-2.38-0.12-8.36-0.12-17.92c0-4.54-0.38-6.81-1.13-6.81H294
			c-0.21,0-0.32-0.1-0.32-0.29v-0.9c0-0.23,0.11-0.35,0.32-0.35h14.28c0.23,0,0.35,0.08,0.35,0.23v0.9c0,0.27-0.08,0.41-0.23,0.41
			h-4.04c-0.23,0-0.37,0.16-0.41,0.49c-0.12,0.8-0.17,7.19-0.17,19.17c0,4.17,0.12,6.99,0.35,8.46c0.45,2.77,1.74,4.88,3.87,6.31
			c2.13,1.43,5.03,2.15,8.7,2.15c3.65,0,6.56-1.09,8.76-3.29c1.67-1.67,2.5-4.96,2.5-9.89c0-6.52-0.06-11.33-0.17-14.46
			c-0.23-5.97-0.85-8.96-1.86-8.96h-3.75c-0.16,0-0.25-0.03-0.29-0.09c-0.04-0.06-0.06-0.13-0.06-0.2v-0.96
			c0-0.19,0.12-0.29,0.35-0.29h11.87c0.19,0,0.29,0.1,0.29,0.29V555.34z"/>
		<path class="st2" d="M357.25,593.47c0,0.16-0.06,0.23-0.17,0.23h-14.11c-0.17,0-0.28-0.03-0.32-0.09
			c-0.04-0.06-0.06-0.13-0.06-0.2v-0.9c0-0.17,0.03-0.28,0.09-0.31c0.06-0.03,0.13-0.04,0.2-0.04h3.96c0.27,0,0.41-0.28,0.41-0.84
			l-0.06-30.08c0-3.66-0.34-5.5-1.02-5.5h-3.69c-0.27,0-0.41-0.1-0.41-0.29v-1.02c0-0.16,0.1-0.23,0.29-0.23h14.11
			c0.17,0,0.26,0.08,0.26,0.23v1.08c0,0.16-0.11,0.23-0.32,0.23h-4.1c-0.35,0-0.52,0.2-0.52,0.61c-0.04,17.61-0.06,26.7-0.06,27.28
			c0,2.87,0.01,4.51,0.03,4.92c0.14,2.4,0.52,3.61,1.16,3.61h4.1c0.15,0,0.23,0.08,0.23,0.23V593.47z"/>
		<path class="st2" d="M400.98,593.41c0,0.19-0.06,0.29-0.18,0.29H387.4c-0.19,0-0.29-0.12-0.29-0.35v-0.79
			c0-0.27,0.1-0.41,0.29-0.41h3.99c0.31,0,0.44-0.17,0.38-0.52c-0.18-0.62-0.84-2.64-2.01-6.07c-1.16-3.42-1.8-5.26-1.92-5.51
			c-0.16-0.39-0.36-0.58-0.61-0.58h-14.05c-0.18,0.04-0.32,0.16-0.44,0.35c-0.27,0.52-0.74,1.75-1.4,3.68
			c-0.66,1.93-1.07,3.24-1.22,3.94c-0.31,1.55-0.47,2.48-0.47,2.79c0,1.28,0.15,1.92,0.47,1.92h4.42c0.23,0,0.35,0.14,0.35,0.41
			v0.84c0,0.19-0.1,0.29-0.29,0.29h-11.75c-0.19,0-0.29-0.1-0.29-0.29v-0.96c0-0.19,0.08-0.29,0.23-0.29h2.5
			c0.43,0,1-0.91,1.73-2.73c0.73-1.82,2.89-7.09,6.5-15.79c2.31-5.49,5.11-12.14,8.41-19.95c0.21-0.6,0.43-0.94,0.64-1.02
			c0.54-0.15,1.24-0.4,2.09-0.73c0.14-0.06,0.29,0.04,0.47,0.31c0.17,0.26,0.1,0.56-0.23,0.89c-0.58,0.6-0.87,1.18-0.87,1.74
			c-0.02,0.58,0.12,1.31,0.41,2.18c1.05,2.91,2.94,8.35,5.67,16.33c2.73,7.98,4.63,13.14,5.7,15.49c1.03,2.19,1.76,3.29,2.21,3.29
			h2.73c0.15,0,0.23,0.14,0.23,0.41V593.41z M386.58,576.83c-0.8-2.31-1.65-4.84-2.56-7.59c-0.91-2.75-1.85-5.62-2.82-8.61
			c-0.06-0.25-0.14-0.41-0.23-0.46c-0.08,0.08-0.17,0.23-0.29,0.46c-2.42,5.93-4.16,10.14-5.22,12.62
			c-1.06,2.48-1.59,3.76-1.59,3.84c0,0.12,0.09,0.17,0.26,0.17h12.3C386.63,577.27,386.68,577.12,386.58,576.83z"/>
		<path class="st2" d="M452.26,554.55c0-0.12-0.16,0.47-0.47,1.74c-0.19,0.72-0.42,1.63-0.67,2.73c-0.04,0.27-0.16,0.41-0.35,0.41
			c-0.14,0-0.25-0.1-0.35-0.29c-0.23-0.39-0.53-0.77-0.9-1.13c-0.68-0.64-1.77-1.04-3.29-1.19c-0.33-0.02-2.65-0.14-6.95-0.36
			c-4.3-0.22-6.57-0.33-6.81-0.33s-0.35,0.1-0.35,0.29c-0.23,1.07-0.35,5.77-0.35,14.11c0,0.52,0.19,0.79,0.58,0.79h14.49
			c0.33,0,0.5-0.1,0.52-0.29c0.1-1.11,0.21-2.34,0.35-3.69c0.04-0.25,0.18-0.38,0.44-0.38h0.52c0.19,0,0.29,0.15,0.29,0.44
			c0,0.06-0.04,0.91-0.12,2.56c-0.08,1.65-0.12,2.6-0.12,2.85c0,0.27,0.01,1.3,0.03,3.1c0.02,1.79,0.03,2.75,0.03,2.87
			c0,0.52-0.12,0.79-0.35,0.79h-0.61c-0.14,0-0.23-0.13-0.29-0.38c0-0.1-0.04-0.93-0.12-2.49c-0.08-1.56-0.12-2.38-0.12-2.46
			c0-0.19-0.14-0.31-0.41-0.35c-1.2-0.19-6.07-0.29-14.6-0.29c-0.27,0-0.43,0.14-0.47,0.41v10.5c0,5.12,0.51,7.68,1.54,7.68h5.76
			c0.17,0,0.26,0.08,0.26,0.23v0.96c0,0.23-0.11,0.35-0.32,0.35h-15.77c-0.21,0-0.32-0.1-0.32-0.29v-0.84
			c0-0.27,0.11-0.41,0.32-0.41h3.58c0.31,0,0.48-0.18,0.52-0.54c0.04-0.36,0.06-6.75,0.06-19.18v-10.12c0-4.38-0.34-6.57-1.02-6.57
			h-3.69c-0.23,0-0.35-0.08-0.35-0.23v-1.02c0-0.19,0.1-0.29,0.29-0.29h9.48c0.29,0,3.09,0.02,8.39,0.06
			c5.3,0.04,8.1,0.06,8.39,0.06c0.39,0,0.96-0.02,1.72-0.06c0.76-0.04,1.14-0.06,1.16-0.06
			C452.12,554.2,452.26,554.32,452.26,554.55z"/>
		<path class="st2" d="M495.09,593.41c0,0.19-0.06,0.29-0.17,0.29H481.5c-0.19,0-0.29-0.12-0.29-0.35v-0.79
			c0-0.27,0.1-0.41,0.29-0.41h3.98c0.31,0,0.44-0.17,0.38-0.52c-0.17-0.62-0.84-2.64-2.01-6.07c-1.16-3.42-1.8-5.26-1.92-5.51
			c-0.16-0.39-0.36-0.58-0.61-0.58h-14.05c-0.17,0.04-0.32,0.16-0.44,0.35c-0.27,0.52-0.74,1.75-1.4,3.68
			c-0.66,1.93-1.07,3.24-1.22,3.94c-0.31,1.55-0.47,2.48-0.47,2.79c0,1.28,0.16,1.92,0.47,1.92h4.42c0.23,0,0.35,0.14,0.35,0.41
			v0.84c0,0.19-0.1,0.29-0.29,0.29h-11.75c-0.19,0-0.29-0.1-0.29-0.29v-0.96c0-0.19,0.08-0.29,0.23-0.29h2.5
			c0.43,0,1-0.91,1.73-2.73c0.73-1.82,2.89-7.09,6.5-15.79c2.31-5.49,5.11-12.14,8.41-19.95c0.21-0.6,0.43-0.94,0.64-1.02
			c0.54-0.15,1.24-0.4,2.09-0.73c0.14-0.06,0.29,0.04,0.47,0.31c0.17,0.26,0.1,0.56-0.23,0.89c-0.58,0.6-0.87,1.18-0.87,1.74
			c-0.02,0.58,0.12,1.31,0.41,2.18c1.05,2.91,2.94,8.35,5.67,16.33c2.73,7.98,4.63,13.14,5.7,15.49c1.03,2.19,1.76,3.29,2.21,3.29
			h2.73c0.16,0,0.23,0.14,0.23,0.41V593.41z M480.69,576.83c-0.8-2.31-1.65-4.84-2.56-7.59c-0.91-2.75-1.85-5.62-2.82-8.61
			c-0.06-0.25-0.14-0.41-0.23-0.46c-0.08,0.08-0.17,0.23-0.29,0.46c-2.42,5.93-4.16,10.14-5.22,12.62
			c-1.06,2.48-1.59,3.76-1.59,3.84c0,0.12,0.09,0.17,0.26,0.17h12.3C480.74,577.27,480.78,577.12,480.69,576.83z"/>
		<path class="st2" d="M528.98,583.41c0,3.05-1.1,5.53-3.29,7.45c-2.44,2.13-5.8,3.2-10.06,3.2c-0.47,0-1.97-0.06-4.51-0.17
			c-2.54-0.12-4.41-0.17-5.61-0.17h-4.48c-0.16,0-0.23-0.08-0.23-0.23v-1.02c0-0.19,0.08-0.29,0.23-0.29h4.04
			c0.48,0,0.73-0.34,0.73-1.02c0-0.23-0.04-3.15-0.12-8.76c-0.08-5.6-0.12-8.69-0.12-9.25v-11.72c-0.17-3.61-0.55-5.41-1.13-5.41
			h-4.42c-0.16,0-0.23-0.11-0.23-0.32v-0.93c0-0.17,0.1-0.26,0.29-0.26h8.7c0.27,0,1.31-0.03,3.13-0.09
			c1.81-0.06,2.88-0.09,3.18-0.09h2.82c0.91,0.04,2.16,0.26,3.75,0.67c1.49,0.58,2.75,1.48,3.78,2.71c1.2,1.43,1.8,3.19,1.8,5.26
			c0,1.55-0.27,2.88-0.81,3.98c-0.23,0.47-0.76,1.22-1.57,2.27c-1.07,1.4-2.55,2.61-4.45,3.64c-0.39,0.21-0.41,0.38-0.06,0.49
			c2.15,0.66,4.09,1.76,5.82,3.32C528.04,578.33,528.98,580.58,528.98,583.41z M522.79,565.28c0-2.52-0.88-4.69-2.65-6.5
			c-1.76-1.81-4.12-2.72-7.07-2.72c-1.32,0-2.17,0.06-2.56,0.17c-0.29,0.08-0.46,0.27-0.49,0.58c-0.04,0.37-0.06,5.39-0.06,15.07
			c0,0.37,0.11,0.55,0.32,0.55c-0.06,0,0.33-0.01,1.18-0.03c0.84-0.02,1.68-0.03,2.52-0.03c0.37,0,1.11,0.05,2.24,0.15
			c1.34,0.14,2.04,0.2,2.09,0.2c0.16,0.02,0.4-0.06,0.73-0.23c1.12-0.58,2.02-1.51,2.68-2.79
			C522.43,568.31,522.79,566.84,522.79,565.28z M524.04,584.16c0-2.7-0.89-4.93-2.68-6.72c-2.5-2.5-5.85-3.75-10.04-3.75
			c-0.5,0-0.87,0.06-1.11,0.17c-0.14,0.04-0.2,0.23-0.2,0.58v12.77c0.1,2.99,0.42,4.6,0.96,4.83c1.05,0.43,2.6,0.64,4.65,0.64
			c2.54,0,4.51-0.63,5.91-1.89C523.21,589.26,524.04,587.05,524.04,584.16z"/>
		<path class="st2" d="M574.84,593.35c0,0.23-0.08,0.35-0.23,0.35h-9.45c-0.21,0-0.46-0.12-0.73-0.35
			c-0.74-0.64-2.09-2.27-4.07-4.89c-1.05-1.41-2.09-2.83-3.14-4.25c-1.16-1.75-2.77-4.46-4.83-8.14c-0.14-0.33-0.29-0.49-0.47-0.49
			c-0.91,0-2.52-0.12-4.83-0.35c-0.31-0.1-0.47,0-0.47,0.29c0,0.37,0.01,1.6,0.03,3.68c0.02,2.08,0.03,4.28,0.03,6.59
			c0,4.25,0.44,6.37,1.31,6.37h5.18c0.19,0,0.29,0.1,0.29,0.29v0.96c0,0.19-0.08,0.29-0.23,0.29h-15.42c-0.18,0-0.28-0.03-0.32-0.09
			c-0.04-0.06-0.06-0.13-0.06-0.2v-0.9c0-0.17,0.03-0.28,0.09-0.31c0.06-0.03,0.14-0.04,0.23-0.04h3.81c0.31,0,0.47-0.3,0.47-0.9
			v-15.53v-12.04c-0.04-5.33-0.38-8-1.02-8h-3.69c-0.19,0-0.29-0.08-0.29-0.23v-1.08c0-0.15,0.08-0.23,0.23-0.23h8.7
			c0.27,0,1.38-0.04,3.33-0.12c1.95-0.08,3.04-0.12,3.27-0.12c1.26,0,2.49,0.1,3.69,0.29c2.68,0.43,4.83,1.43,6.46,3
			c1.9,1.8,2.85,4.08,2.85,6.84c0,3.14-0.93,5.72-2.79,7.74c-1.14,1.24-3.02,2.3-5.61,3.17c-0.16,0.08-0.21,0.19-0.18,0.35
			c0.85,2.23,2.82,5.09,5.9,8.58c1.61,1.82,2.78,3.13,3.52,3.93c1.3,1.36,2.4,2.38,3.32,3.05c1.24,0.91,2.79,1.37,4.65,1.37
			c0.31,0,0.47,0.08,0.47,0.23V593.35z M560.73,565.58c0-2.58-0.85-4.68-2.56-6.31c-2.38-2.25-5.84-3.37-10.36-3.37
			c-0.66,0-1.02,0.14-1.08,0.41c0,5.57-0.04,9.04-0.12,10.41v6.63c0,0.21,0.14,0.35,0.41,0.41c0.45,0.08,1.68,0.12,3.69,0.12
			c0.83,0,1.77-0.08,2.81-0.23c1.04-0.16,1.51-0.23,1.41-0.23C558.8,572.39,560.73,569.78,560.73,565.58z"/>
		<path class="st2" d="M595.53,593.47c0,0.16-0.06,0.23-0.18,0.23h-14.11c-0.18,0-0.28-0.03-0.32-0.09
			c-0.04-0.06-0.06-0.13-0.06-0.2v-0.9c0-0.17,0.03-0.28,0.09-0.31c0.06-0.03,0.13-0.04,0.2-0.04h3.96c0.27,0,0.41-0.28,0.41-0.84
			l-0.06-30.08c0-3.66-0.34-5.5-1.02-5.5h-3.69c-0.27,0-0.41-0.1-0.41-0.29v-1.02c0-0.16,0.1-0.23,0.29-0.23h14.11
			c0.18,0,0.26,0.08,0.26,0.23v1.08c0,0.16-0.11,0.23-0.32,0.23h-4.1c-0.35,0-0.52,0.2-0.52,0.61c-0.04,17.61-0.06,26.7-0.06,27.28
			c0,2.87,0.01,4.51,0.03,4.92c0.14,2.4,0.52,3.61,1.16,3.61h4.1c0.16,0,0.23,0.08,0.23,0.23V593.47z"/>
		<path class="st2" d="M638.74,587.97c0.1,0.17,0.08,0.34-0.06,0.49c-1.45,1.57-3.86,2.96-7.21,4.16c-2.64,0.95-5.95,1.43-9.95,1.43
			c-3.39,0-6.08-0.34-8.06-1.02c-2.04-0.7-4.01-1.99-5.93-3.87c-3.18-3.08-4.77-7.79-4.77-14.11c0-3.51,0.91-7.03,2.73-10.56
			c1.47-2.83,3.71-5.23,6.72-7.18c3.92-2.54,8.95-3.81,15.1-3.81c2.31,0,4.41,0.1,6.31,0.29c2.23,0.23,3.64,0.51,4.22,0.84
			c0.12,0.04,0.17,0.14,0.17,0.29c-0.02,0.31-0.12,1.12-0.29,2.44c-0.12,1.07-0.21,2-0.29,2.79c-0.04,0.23-0.12,0.35-0.23,0.35
			c-0.17,0-0.28-0.09-0.31-0.26c-0.03-0.17-0.14-0.45-0.32-0.81c-0.18-0.37-0.99-1.04-2.43-2.01c-2.06-1.03-5.09-1.54-9.11-1.54
			c-5.16,0-9.27,1.58-12.33,4.74c-3.45,3.59-5.18,8.08-5.18,13.47c0,5.92,1.82,10.54,5.47,13.88c1.84,1.69,3.7,2.83,5.58,3.43
			c1.69,0.54,3.96,0.81,6.81,0.81c2.11,0,4.16-0.46,6.14-1.38c1.98-0.92,3.45-2.13,4.42-3.62c0.54-0.87,0.87-1.69,0.99-2.44
			c0-0.33,0.06-0.49,0.17-0.49c0.08,0,0.15,0.09,0.2,0.26c0.14,0.64,0.35,1.25,0.64,1.83C638.15,586.82,638.41,587.35,638.74,587.97
			z"/>
		<path class="st2" d="M671.07,582.8c0,3.22-1.03,5.87-3.08,7.94c-2.19,2.17-5.37,3.26-9.54,3.26c-4.89,0-8.34-0.89-10.36-2.68
			c-0.23-0.21-0.35-0.61-0.35-1.19c0-0.14-0.01-1.27-0.03-3.4c-0.02-2.13-0.03-3.28-0.03-3.43c0-0.25,0.14-0.38,0.41-0.38h1.19
			c0.23,0,0.37,0.13,0.41,0.38c0.04,0.25,0.1,0.86,0.17,1.83c0.12,2.09,0.89,3.8,2.33,5.12c0.68,0.62,1.65,1.14,2.91,1.57
			c1.26,0.43,2.39,0.64,3.4,0.64c3.88,0,6.47-1.29,7.77-3.87c0.58-1.2,0.87-2.69,0.87-4.48c0-1.59-0.55-2.96-1.66-4.1
			c-1.24-1.28-3.4-2.47-6.49-3.58c-3.49-1.24-5.97-2.49-7.45-3.75c-1.96-1.65-2.94-4.23-2.94-7.74c0-3.3,1.34-6.08,4.01-8.35
			c2.04-1.75,4.71-2.62,8.03-2.62c2.19,0,4.23,0.37,6.11,1.11c1.2,0.47,2.08,0.95,2.65,1.45c0.27,0.19,0.43,0.46,0.47,0.79
			c0.21,1.47,0.32,3.45,0.32,5.93c0,0.41-0.06,0.61-0.17,0.61h-1.4c-0.14,0-0.23-0.12-0.29-0.35c-0.12-0.56-0.25-1.3-0.41-2.21
			c-0.29-1.34-0.97-2.31-2.04-2.91c-1.96-1.12-4.22-1.69-6.78-1.69c-2.31,0-4.01,0.49-5.12,1.48c-1.16,1.03-1.75,2.84-1.75,5.44
			c0,1.59,0.54,2.98,1.63,4.16c0.52,0.58,1.54,1.2,3.05,1.86c1.26,0.5,2.52,1.02,3.78,1.54c2.5,1.09,3.98,1.76,4.42,2.01
			c1.45,0.8,2.69,1.76,3.69,2.88C670.32,577.76,671.07,580,671.07,582.8z"/>
		<path class="st2" d="M724.44,566.01c0,2.95-1.01,5.49-3.03,7.62c-2.11,2.23-5.24,3.35-9.37,3.35c-1.92,0-4.16-0.34-6.72-1.02
			c-0.16-0.04-0.23,0.02-0.23,0.17v9.45c0,4.42,0.4,6.63,1.19,6.63h5.24c0.23,0,0.35,0.12,0.35,0.35v0.79
			c0,0.23-0.06,0.35-0.17,0.35h-15.68c-0.16,0-0.23-0.08-0.23-0.23v-0.9c0-0.23,0.1-0.35,0.29-0.35h4.01c0.31,0,0.47-0.24,0.47-0.73
			v-29.96c0-3.61-0.24-5.41-0.73-5.41h-3.98c-0.27,0-0.41-0.08-0.41-0.23v-1.02c0-0.21,0.12-0.32,0.35-0.32h7.27
			c0.33,0,1.61-0.03,3.85-0.09c2.24-0.06,3.42-0.09,3.53-0.09c2.13,0,3.88,0.15,5.24,0.44c2.23,0.45,4.18,1.53,5.85,3.26
			C723.47,560.09,724.44,562.73,724.44,566.01z M719.87,566.42c0-2.58-0.96-4.82-2.88-6.72c-2.25-2.27-5.4-3.4-9.45-3.4
			c-1.13,0-1.76,0.02-1.92,0.06c-0.16,0.04-0.25,0.23-0.29,0.58c-0.12,1.03-0.18,4.01-0.18,8.96c0,0.18-0.01,1.55-0.03,4.12
			c-0.02,2.57-0.03,3.91-0.03,4.03c0,0.25,0.14,0.44,0.41,0.55c1.24,0.47,3.1,0.7,5.58,0.7c2.91,0,5.06-0.7,6.46-2.09
			C719.09,571.67,719.87,569.41,719.87,566.42z"/>
		<path class="st2" d="M767.38,555.39c0,0.19-0.06,0.29-0.17,0.29h-1.86c-0.35,0-0.62,0.15-0.81,0.44c-2,5-4.23,10.54-6.69,16.61
			c-2.15,5.33-4.89,12.06-8.2,20.19c-0.39,0.91-0.69,1.37-0.9,1.37c-0.25,0-0.51-0.33-0.79-0.99c-3.96-9.91-6.69-16.56-8.2-19.95
			c-1.07-2.58-2.13-5.15-3.2-7.71c-1.86-4.42-3.3-7.4-4.3-8.93c-0.54-0.68-1.09-1.02-1.63-1.02h-0.99c-0.17,0-0.28-0.03-0.32-0.09
			c-0.04-0.06-0.06-0.13-0.06-0.2v-0.96c0-0.19,0.1-0.29,0.29-0.29h12.71c0.23,0,0.35,0.08,0.35,0.23v0.96
			c0,0.23-0.08,0.35-0.23,0.35h-3.58c-0.48,0-0.73,0.24-0.73,0.73c0,0.35,0.11,0.81,0.32,1.37c1.78,4.32,3.68,8.93,5.7,13.82
			c3.57,9.08,5.52,13.94,5.85,14.6c0.16,0.41,0.3,0.61,0.44,0.61c0.12,0,0.25-0.13,0.41-0.38c0.37-0.62,1.49-3.35,3.37-8.2
			c0.95-2.5,1.91-5.01,2.88-7.53c0.14-0.29,0.76-1.93,1.86-4.93c1.11-3,1.74-4.73,1.89-5.19c0.47-1.51,0.7-2.76,0.7-3.75
			c0-0.76-0.3-1.13-0.9-1.13h-3.26c-0.27,0-0.41-0.1-0.41-0.29v-0.96c0-0.19,0.08-0.29,0.23-0.29h9.95c0.19,0,0.29,0.08,0.29,0.23
			V555.39z"/>
		<path class="st2" d="M806.6,554.55c-0.17,1.22-0.48,2.64-0.9,4.25c-0.08,0.27-0.19,0.41-0.35,0.41c-0.19,0-0.38-0.16-0.55-0.46
			c-0.45-0.87-1.22-1.43-2.33-1.69c-1.92-0.43-5.37-0.64-10.35-0.64c-0.31,0-0.48,0.13-0.49,0.38c-0.02,0.25-0.08,4.77-0.18,13.55
			c-0.12,8.44-0.17,12.94-0.17,13.53c0,5.53,0.48,8.29,1.43,8.29h5c0.14,0,0.2,0.08,0.2,0.23v1.02c0,0.19-0.07,0.29-0.2,0.29h-16
			c-0.21,0-0.32-0.1-0.32-0.29v-0.96c0-0.19,0.11-0.29,0.32-0.29h4.68c0.37,0,0.55-0.25,0.55-0.76c-0.08-4.07-0.12-6.3-0.12-6.69
			c0-0.33,0.05-3.6,0.14-9.82c0.1-6.21,0.15-9.46,0.15-9.73c0-5.84-0.34-8.76-1.02-8.76c-5,0-8.53,0.28-10.59,0.84
			c-1.49,0.39-2.45,0.92-2.88,1.6c-0.21,0.35-0.41,0.52-0.58,0.52c-0.25,0-0.38-0.08-0.38-0.23c0-0.21,0.07-0.47,0.2-0.76
			c0.54-1.96,0.98-3.41,1.31-4.36c0.08-0.25,0.29-0.35,0.64-0.29c0.41,0.06,2.4,0.17,5.99,0.35c4.19,0.19,7.57,0.29,10.15,0.29
			c8.3,0,13.01-0.02,14.14-0.06c0.52-0.02,1.01-0.06,1.47-0.13c0.46-0.07,0.67-0.1,0.66-0.1
			C806.48,554.09,806.6,554.24,806.6,554.55z"/>
		<path class="st2" d="M858.98,589.6c0,0.17-0.31,0.79-0.93,1.83c-0.16,0.41-0.49,1.05-1.02,1.92c-0.16,0.23-0.32,0.35-0.49,0.35
			h-27.69c-0.23,0-0.35-0.1-0.35-0.29v-0.96c0-0.19,0.1-0.29,0.29-0.29h4.36c0.35,0,0.52-0.2,0.52-0.61c0-0.17-0.03-1.35-0.09-3.52
			c-0.06-2.17-0.05-6.98,0.03-14.43c0.08-7.45,0.12-11.35,0.12-11.72c0-4.13-0.38-6.2-1.13-6.2h-3.29c-0.27,0-0.41-0.12-0.41-0.35
			v-0.84c0-0.23,0.12-0.35,0.35-0.35h15.74c0.19,0,0.29,0.08,0.29,0.23v1.02c0,0.19-0.08,0.29-0.23,0.29h-5.85
			c-0.29,0-0.47,0.14-0.52,0.41c-0.06,0.27-0.16,5-0.29,14.19c-0.12,8.65-0.18,13.57-0.18,14.78c0,4.48,0.51,6.72,1.54,6.72
			c6.26,0,9.86-0.04,10.79-0.12c3.03-0.25,5.46-0.94,7.3-2.06c0.47-0.29,0.75-0.44,0.84-0.44
			C858.89,589.3,858.98,589.45,858.98,589.6z"/>
		<path class="st2" d="M897.42,554.55c-0.17,1.22-0.48,2.64-0.9,4.25c-0.08,0.27-0.19,0.41-0.35,0.41c-0.19,0-0.38-0.16-0.55-0.46
			c-0.45-0.87-1.22-1.43-2.33-1.69c-1.92-0.43-5.37-0.64-10.35-0.64c-0.31,0-0.48,0.13-0.49,0.38c-0.02,0.25-0.08,4.77-0.18,13.55
			c-0.12,8.44-0.17,12.94-0.17,13.53c0,5.53,0.48,8.29,1.43,8.29h5c0.14,0,0.2,0.08,0.2,0.23v1.02c0,0.19-0.07,0.29-0.2,0.29h-16
			c-0.21,0-0.32-0.1-0.32-0.29v-0.96c0-0.19,0.11-0.29,0.32-0.29h4.68c0.37,0,0.55-0.25,0.55-0.76c-0.08-4.07-0.12-6.3-0.12-6.69
			c0-0.33,0.05-3.6,0.14-9.82c0.1-6.21,0.15-9.46,0.15-9.73c0-5.84-0.34-8.76-1.02-8.76c-5,0-8.53,0.28-10.59,0.84
			c-1.49,0.39-2.45,0.92-2.88,1.6c-0.21,0.35-0.41,0.52-0.58,0.52c-0.25,0-0.38-0.08-0.38-0.23c0-0.21,0.07-0.47,0.2-0.76
			c0.54-1.96,0.98-3.41,1.31-4.36c0.08-0.25,0.29-0.35,0.64-0.29c0.41,0.06,2.4,0.17,5.99,0.35c4.19,0.19,7.57,0.29,10.15,0.29
			c8.3,0,13.01-0.02,14.14-0.06c0.52-0.02,1.01-0.06,1.47-0.13c0.46-0.07,0.67-0.1,0.66-0.1
			C897.29,554.09,897.42,554.24,897.42,554.55z"/>
		<path class="st2" d="M939.7,573.63c0,8.05-2.69,13.87-8.06,17.45c-1.94,1.3-4.16,2.15-6.66,2.56c-1.47,0.23-3.69,0.35-6.66,0.35
			c-1.38,0-3.17-0.05-5.37-0.14c-2.2-0.1-4.03-0.15-5.48-0.15h-3.23c-0.19,0-0.29-0.1-0.29-0.29c0-0.06-0.01-0.2-0.03-0.42
			c-0.02-0.22-0.03-0.4-0.03-0.54c0-0.19,0.12-0.29,0.35-0.29h4.07c0.31,0,0.47-0.3,0.47-0.9c0-0.29-0.03-2.85-0.09-7.66
			c-0.06-4.82-0.09-7.44-0.09-7.87l0.03-7.16c0.04-4.23,0.05-6.55,0.03-6.98c-0.12-3.94-0.48-5.9-1.08-5.9h-4.1
			c-0.21,0-0.32-0.1-0.32-0.29v-0.96c0-0.19,0.13-0.29,0.38-0.29h17.98c2.99,0,5.35,0.38,7.1,1.13c1.16,0.5,2.02,0.92,2.56,1.25
			c1.22,0.72,2.41,1.65,3.58,2.79C938.05,562.62,939.7,567.39,939.7,573.63z M935.65,577.56c0-5.84-1.51-10.65-4.54-14.43
			c-2.13-2.66-4.48-4.5-7.04-5.53c-2.66-1.07-5.27-1.6-7.85-1.6c-1.09,0-1.84,0.05-2.27,0.15c-0.43,0.1-0.64,0.48-0.64,1.16
			c0,0.29-0.01,2.69-0.03,7.18c-0.02,4.5-0.03,7.05-0.03,7.65v11.78c0,5.04,0.31,7.62,0.93,7.74c1.53,0.29,4.14,0.44,7.82,0.44
			c4.07,0,7.2-1.06,9.4-3.17C934.24,586.24,935.65,582.45,935.65,577.56z"/>
	</g>
	<g>
		<path class="st2" d="M350.07,627.32c-0.12,0.76-0.32,1.65-0.6,2.66c-0.05,0.17-0.13,0.25-0.23,0.25c-0.13,0-0.25-0.1-0.37-0.29
			c-0.3-0.55-0.82-0.9-1.55-1.06c-1.28-0.27-3.59-0.4-6.92-0.4c-0.21,0-0.32,0.08-0.33,0.24c-0.01,0.16-0.05,2.99-0.12,8.49
			c-0.08,5.28-0.12,8.11-0.12,8.47c0,3.46,0.32,5.19,0.95,5.19h3.34c0.09,0,0.14,0.05,0.14,0.15v0.64c0,0.12-0.05,0.18-0.14,0.18
			h-10.69c-0.14,0-0.21-0.06-0.21-0.18v-0.6c0-0.12,0.07-0.18,0.21-0.18h3.13c0.25,0,0.37-0.16,0.37-0.47
			c-0.05-2.55-0.08-3.95-0.08-4.19c0-0.21,0.03-2.26,0.1-6.15s0.1-5.92,0.1-6.09c0-3.66-0.23-5.48-0.68-5.48
			c-3.34,0-5.7,0.18-7.07,0.53c-1,0.24-1.64,0.58-1.92,1c-0.14,0.22-0.27,0.33-0.39,0.33c-0.17,0-0.25-0.05-0.25-0.15
			c0-0.13,0.04-0.29,0.14-0.47c0.36-1.23,0.65-2.14,0.88-2.73c0.05-0.16,0.19-0.22,0.43-0.18c0.27,0.04,1.61,0.11,4,0.22
			c2.8,0.12,5.06,0.18,6.78,0.18c5.54,0,8.69-0.01,9.44-0.04c0.35-0.01,0.68-0.04,0.98-0.08c0.3-0.04,0.45-0.06,0.44-0.06
			C349.99,627.03,350.07,627.12,350.07,627.32z"/>
		<path class="st2" d="M383.72,651.62c0,0.15-0.05,0.22-0.16,0.22h-10.03c-0.17,0-0.25-0.06-0.25-0.18v-0.6
			c0-0.12,0.1-0.18,0.29-0.18h2.82c0.23,0,0.38-0.06,0.43-0.18c0.05-0.12,0.08-0.51,0.1-1.17c0.03-1.32,0.04-4.67,0.04-10.04
			c0-0.22-0.11-0.33-0.33-0.33h-13.64c-0.23,0-0.35,0.13-0.35,0.4c0,3.93,0.01,6.35,0.04,7.25c0.08,2.71,0.37,4.06,0.87,4.06h3.26
			c0.1,0,0.16,0.07,0.16,0.22v0.56c0,0.12-0.05,0.18-0.16,0.18h-10.08c-0.16,0-0.23-0.06-0.23-0.18v-0.56
			c0-0.15,0.08-0.22,0.23-0.22h2.43c0.31,0,0.5-0.06,0.55-0.18c0.06-0.12,0.09-0.51,0.09-1.17c0-0.21-0.01-1.86-0.04-4.96
			c-0.03-3.1-0.04-4.82-0.04-5.16s-0.01-1.65-0.04-3.95c-0.03-2.3-0.04-3.53-0.04-3.69c0-2.47-0.21-3.7-0.64-3.7h-2.74
			c-0.16,0-0.23-0.06-0.23-0.18v-0.6c0-0.12,0.08-0.18,0.23-0.18h9.91c0.16,0,0.23,0.09,0.23,0.27v0.51c0,0.12-0.08,0.18-0.23,0.18
			h-2.92c-0.3,0-0.47,0.02-0.51,0.06c-0.05,0.04-0.07,0.19-0.07,0.43c0,6.47-0.01,9.41-0.04,8.8c0.01,0.28,0.12,0.42,0.31,0.42
			h13.64c0.22,0,0.33-0.12,0.33-0.35c0-0.08-0.01-1.05-0.02-2.91c-0.01-1.85-0.02-2.87-0.02-3.05c0-2.27-0.25-3.41-0.76-3.41h-2.99
			c-0.13,0-0.19-0.07-0.19-0.22v-0.57c0-0.12,0.09-0.18,0.27-0.18h9.95c0.17,0,0.25,0.09,0.25,0.27v0.47c0,0.15-0.08,0.22-0.25,0.22
			h-2.54c-0.38,0-0.6,0.03-0.66,0.09s-0.1,0.25-0.1,0.58v9.89c0,4.92,0.01,7.77,0.04,8.54c0.09,2.47,0.34,3.7,0.76,3.7h2.84
			c0.16,0,0.23,0.07,0.23,0.22V651.62z"/>
		<path class="st2" d="M410.73,649.24c-0.36,0.69-0.8,1.49-1.3,2.39c-0.1,0.15-0.24,0.22-0.41,0.22h-18.38
			c-0.13,0-0.19-0.07-0.19-0.22v-0.56c0-0.12,0.05-0.18,0.16-0.18h2.88c0.26,0,0.39-0.13,0.39-0.38c0-0.11-0.01-1.98-0.04-5.6
			c-0.03-3.63-0.04-5.5-0.04-5.61s-0.01-1.37-0.02-3.75s-0.02-3.65-0.02-3.8c0-2.47-0.25-3.7-0.76-3.7h-2.35
			c-0.13,0-0.19-0.06-0.19-0.18v-0.6c0-0.12,0.08-0.18,0.23-0.18h17.39c0.23,0,0.55-0.01,0.94-0.04c0.4-0.02,0.59-0.04,0.57-0.04
			c0.17,0,0.23,0.06,0.19,0.18c-0.18,0.67-0.41,1.44-0.68,2.31c-0.1,0.28-0.21,0.42-0.31,0.42l-0.27-0.27
			c-0.48-0.44-1.24-0.75-2.27-0.93c-1.45-0.24-4.53-0.39-9.23-0.44c-0.16,0-0.26,0.07-0.32,0.22s-0.09,3.16-0.09,9.04
			c0,0.24,0.11,0.36,0.33,0.36h9.5c0.18,0,0.29-0.09,0.32-0.27c0.03-0.18,0.08-0.57,0.16-1.17c0.07-0.6,0.11-0.92,0.13-0.98
			c0-0.23,0.08-0.35,0.23-0.35h0.29c0.16,0,0.23,0.1,0.23,0.31c0,0.05-0.03,0.56-0.08,1.52c-0.05,0.96-0.08,1.54-0.08,1.72
			c0,0.18,0.01,0.82,0.04,1.91c0.03,1.09,0.04,1.68,0.04,1.75c0,0.27-0.07,0.4-0.21,0.4h-0.31c-0.13,0-0.21-0.08-0.23-0.25
			c-0.05-0.78-0.12-1.7-0.19-2.77c-0.04-0.24-0.16-0.36-0.37-0.36c-0.12,0-1.71-0.02-4.79-0.07c-3.08-0.05-4.65-0.07-4.71-0.07
			c-0.17,0-0.25,0.11-0.25,0.33v6.87c0,2.92,0.34,4.37,1.01,4.37c6.06,0,10.09-0.44,12.09-1.31c0.48-0.25,0.77-0.41,0.88-0.46
			C410.74,649,410.78,649.08,410.73,649.24z"/>
		<path class="st2" d="M454.64,651.62c0,0.15-0.07,0.22-0.19,0.22h-5.42c-0.25,0-0.4-0.06-0.47-0.18c-0.05-0.05-1.2-1.4-3.44-4.06
			c-1.45-1.75-2.88-3.28-4.29-4.59c-1.36-1.29-2.26-2.1-2.7-2.42c-0.21-0.13-0.38-0.15-0.53-0.05l-1.38,1.13
			c-0.08,0.17-0.12,0.29-0.12,0.36c0,0.04,0.01,0.81,0.02,2.33c0.01,1.52,0.02,2.42,0.02,2.71c0,2.54,0.17,3.81,0.51,3.81h3.23
			c0.1,0,0.16,0.07,0.16,0.22v0.56c0,0.12-0.07,0.18-0.19,0.18h-9.39c-0.19,0-0.29-0.05-0.29-0.15v-0.64c0-0.06,0.01-0.11,0.04-0.14
			c0.03-0.03,0.1-0.05,0.21-0.05h2.43c0.21,0,0.31-0.13,0.31-0.38c0-0.05-0.01-1.88-0.02-5.49s-0.02-5.52-0.02-5.73
			c0-0.21-0.01-1.51-0.02-3.91c-0.01-2.4-0.02-3.63-0.02-3.71c0-2.42-0.21-3.63-0.64-3.63h-2.82c-0.14,0-0.21-0.06-0.21-0.18v-0.64
			c0-0.1,0.07-0.15,0.21-0.15h9.46c0.1,0,0.16,0.05,0.16,0.15v0.6c0,0.15-0.05,0.22-0.16,0.22h-2.7c-0.13,0-0.19,0.09-0.19,0.27
			c-0.08,0.36-0.12,4.28-0.12,11.75c0,0.33,0.06,0.46,0.19,0.4c2.4-2.09,4.86-4.21,7.4-6.38c1.22-1.01,2.42-2.17,3.61-3.5
			c0.85-0.96,1.28-1.69,1.28-2.2c0-0.23-0.15-0.35-0.45-0.35h-2.43c-0.1,0-0.16-0.06-0.16-0.18v-0.64c0-0.1,0.06-0.15,0.19-0.15
			h8.12c0.16,0,0.23,0.05,0.23,0.15v0.6c0,0.15-0.05,0.22-0.16,0.22h-1.94c-0.35,0-0.67,0.15-0.95,0.46
			c-2.46,2.48-4.32,4.22-5.58,5.23c-0.88,0.71-2.59,2.25-5.13,4.63c-0.21,0.24-0.27,0.4-0.17,0.47c0.82,0.59,1.77,1.39,2.88,2.39
			c1.45,1.31,3.28,3.27,5.5,5.87c1.45,1.71,2.29,2.62,2.51,2.71c0.79,0.75,1.42,1.13,1.9,1.13h1.52c0.13,0,0.19,0.06,0.19,0.18
			V651.62z"/>
		<path class="st2" d="M480.88,649.27c0,0.11-0.21,0.49-0.62,1.15c-0.1,0.25-0.33,0.66-0.68,1.2c-0.1,0.15-0.21,0.22-0.33,0.22
			h-18.5c-0.16,0-0.23-0.06-0.23-0.18v-0.6c0-0.12,0.06-0.18,0.19-0.18h2.92c0.23,0,0.35-0.13,0.35-0.38c0-0.11-0.02-0.84-0.06-2.2
			s-0.03-4.37,0.02-9.04s0.08-7.11,0.08-7.34c0-2.59-0.25-3.88-0.76-3.88h-2.2c-0.18,0-0.27-0.07-0.27-0.22v-0.53
			c0-0.15,0.08-0.22,0.23-0.22h10.51c0.13,0,0.19,0.05,0.19,0.15v0.64c0,0.12-0.05,0.18-0.16,0.18h-3.91
			c-0.19,0-0.31,0.09-0.35,0.26c-0.04,0.17-0.1,3.13-0.19,8.89c-0.08,5.42-0.12,8.5-0.12,9.25c0,2.81,0.34,4.21,1.03,4.21
			c4.18,0,6.59-0.02,7.21-0.07c2.02-0.16,3.65-0.59,4.88-1.29c0.31-0.18,0.5-0.27,0.56-0.27
			C480.82,649.08,480.88,649.18,480.88,649.27z"/>
		<path class="st2" d="M510.69,651.66c0,0.12-0.04,0.18-0.12,0.18h-8.96c-0.13,0-0.19-0.07-0.19-0.22v-0.49
			c0-0.17,0.06-0.25,0.19-0.25h2.66c0.21,0,0.29-0.11,0.25-0.33c-0.12-0.39-0.56-1.65-1.34-3.8c-0.78-2.14-1.21-3.29-1.28-3.45
			c-0.1-0.24-0.24-0.36-0.41-0.36h-9.38c-0.12,0.02-0.21,0.1-0.29,0.22c-0.18,0.33-0.49,1.1-0.93,2.3
			c-0.44,1.21-0.71,2.03-0.82,2.47c-0.21,0.97-0.31,1.55-0.31,1.75c0,0.8,0.1,1.2,0.31,1.2h2.95c0.16,0,0.23,0.08,0.23,0.25v0.53
			c0,0.12-0.07,0.18-0.19,0.18h-7.85c-0.13,0-0.19-0.06-0.19-0.18v-0.6c0-0.12,0.05-0.18,0.16-0.18h1.67c0.29,0,0.67-0.57,1.16-1.71
			c0.49-1.14,1.93-4.44,4.34-9.89c1.54-3.44,3.41-7.6,5.62-12.5c0.14-0.38,0.29-0.59,0.43-0.64c0.36-0.1,0.83-0.25,1.4-0.46
			c0.09-0.04,0.19,0.03,0.31,0.19c0.12,0.16,0.06,0.35-0.16,0.56c-0.39,0.38-0.58,0.74-0.58,1.09c-0.01,0.36,0.08,0.82,0.27,1.37
			c0.7,1.82,1.96,5.23,3.79,10.23c1.83,5,3.1,8.23,3.81,9.7c0.69,1.37,1.18,2.06,1.48,2.06h1.83c0.1,0,0.16,0.08,0.16,0.25V651.66z
			 M501.07,641.27c-0.53-1.45-1.1-3.03-1.71-4.75c-0.61-1.72-1.24-3.52-1.88-5.39c-0.04-0.16-0.09-0.25-0.16-0.29
			c-0.05,0.05-0.12,0.15-0.19,0.29c-1.62,3.72-2.78,6.35-3.49,7.91s-1.06,2.36-1.06,2.4c0,0.07,0.06,0.11,0.17,0.11h8.22
			C501.1,641.55,501.13,641.46,501.07,641.27z"/>
		<path class="st2" d="M532.64,645.01c0,2.02-0.69,3.67-2.06,4.97c-1.46,1.36-3.59,2.04-6.37,2.04c-3.26,0-5.57-0.56-6.92-1.68
			c-0.16-0.13-0.23-0.38-0.23-0.75c0-0.08-0.01-0.79-0.02-2.13c-0.01-1.34-0.02-2.05-0.02-2.15c0-0.16,0.09-0.24,0.27-0.24h0.8
			c0.16,0,0.25,0.08,0.27,0.24c0.03,0.16,0.06,0.54,0.12,1.15c0.08,1.31,0.6,2.38,1.55,3.21c0.45,0.39,1.1,0.72,1.94,0.98
			c0.84,0.27,1.6,0.4,2.27,0.4c2.59,0,4.32-0.81,5.19-2.42c0.39-0.75,0.58-1.69,0.58-2.81c0-1-0.37-1.85-1.11-2.57
			c-0.83-0.8-2.27-1.55-4.33-2.24c-2.33-0.78-3.99-1.56-4.97-2.35c-1.31-1.03-1.96-2.65-1.96-4.85c0-2.06,0.89-3.81,2.68-5.23
			c1.36-1.09,3.15-1.64,5.36-1.64c1.46,0,2.82,0.23,4.08,0.69c0.8,0.29,1.39,0.59,1.77,0.91c0.18,0.12,0.29,0.29,0.31,0.49
			c0.14,0.92,0.21,2.16,0.21,3.72c0,0.25-0.04,0.38-0.12,0.38h-0.93c-0.09,0-0.16-0.07-0.19-0.22c-0.08-0.35-0.17-0.81-0.27-1.38
			c-0.19-0.84-0.65-1.45-1.36-1.82c-1.31-0.7-2.82-1.06-4.53-1.06c-1.54,0-2.68,0.31-3.42,0.93c-0.78,0.64-1.17,1.78-1.17,3.41
			c0,1,0.36,1.86,1.09,2.6c0.35,0.36,1.03,0.75,2.04,1.17c0.84,0.32,1.68,0.64,2.53,0.97c1.67,0.68,2.66,1.1,2.95,1.26
			c0.97,0.5,1.79,1.1,2.47,1.8C532.14,641.86,532.64,643.26,532.64,645.01z"/>
		<path class="st2" d="M556.64,645.01c0,2.02-0.69,3.67-2.06,4.97c-1.46,1.36-3.59,2.04-6.37,2.04c-3.26,0-5.57-0.56-6.92-1.68
			c-0.16-0.13-0.23-0.38-0.23-0.75c0-0.08-0.01-0.79-0.02-2.13c-0.01-1.34-0.02-2.05-0.02-2.15c0-0.16,0.09-0.24,0.27-0.24h0.8
			c0.16,0,0.25,0.08,0.27,0.24c0.03,0.16,0.06,0.54,0.12,1.15c0.08,1.31,0.6,2.38,1.55,3.21c0.45,0.39,1.1,0.72,1.94,0.98
			c0.84,0.27,1.6,0.4,2.27,0.4c2.59,0,4.32-0.81,5.19-2.42c0.39-0.75,0.58-1.69,0.58-2.81c0-1-0.37-1.85-1.11-2.57
			c-0.83-0.8-2.27-1.55-4.33-2.24c-2.33-0.78-3.99-1.56-4.97-2.35c-1.31-1.03-1.96-2.65-1.96-4.85c0-2.06,0.89-3.81,2.68-5.23
			c1.36-1.09,3.15-1.64,5.36-1.64c1.46,0,2.82,0.23,4.08,0.69c0.8,0.29,1.39,0.59,1.77,0.91c0.18,0.12,0.29,0.29,0.31,0.49
			c0.14,0.92,0.21,2.16,0.21,3.72c0,0.25-0.04,0.38-0.12,0.38H555c-0.09,0-0.16-0.07-0.19-0.22c-0.08-0.35-0.17-0.81-0.27-1.38
			c-0.19-0.84-0.65-1.45-1.36-1.82c-1.31-0.7-2.82-1.06-4.53-1.06c-1.54,0-2.68,0.31-3.42,0.93c-0.78,0.64-1.17,1.78-1.17,3.41
			c0,1,0.36,1.86,1.09,2.6c0.35,0.36,1.03,0.75,2.04,1.17c0.84,0.32,1.68,0.64,2.53,0.97c1.67,0.68,2.66,1.1,2.95,1.26
			c0.97,0.5,1.79,1.1,2.47,1.8C556.14,641.86,556.64,643.26,556.64,645.01z"/>
		<path class="st2" d="M574.51,651.7c0,0.1-0.04,0.15-0.12,0.15h-9.42c-0.12,0-0.19-0.02-0.21-0.05c-0.03-0.04-0.04-0.08-0.04-0.13
			v-0.56c0-0.11,0.02-0.17,0.06-0.19c0.04-0.02,0.08-0.03,0.14-0.03h2.64c0.18,0,0.27-0.18,0.27-0.53l-0.04-18.84
			c0-2.3-0.23-3.44-0.68-3.44h-2.47c-0.18,0-0.27-0.06-0.27-0.18v-0.64c0-0.1,0.06-0.15,0.19-0.15h9.42c0.12,0,0.17,0.05,0.17,0.15
			v0.67c0,0.1-0.07,0.15-0.21,0.15h-2.74c-0.23,0-0.35,0.13-0.35,0.38c-0.03,11.03-0.04,16.73-0.04,17.09c0,1.8,0.01,2.82,0.02,3.08
			c0.09,1.51,0.35,2.26,0.78,2.26h2.74c0.1,0,0.16,0.05,0.16,0.15V651.7z"/>
		<path class="st2" d="M609.93,658.97c0,0.07-0.07,0.12-0.19,0.15c-1.75,0.38-3.85,0.56-6.3,0.56c-0.6,0-1.11-0.11-1.54-0.33
			c-1.31-0.68-2.81-1.71-4.51-3.1c-1.55-1.29-2.91-2.58-4.06-3.88c-0.19-0.23-0.56-0.35-1.11-0.35c-1.89,0-3.56-0.32-5.01-0.97
			c-1.18-0.52-2.16-1.2-2.95-2.02c-1.96-2.05-2.93-5.03-2.93-8.95c0-1.89,0.27-3.6,0.8-5.12c0.63-1.81,1.52-3.29,2.66-4.43
			c1.09-1.11,2.55-2,4.37-2.7c1.7-0.64,3.52-0.97,5.46-0.97c2.9,0,5.14,0.36,6.72,1.08c1.35,0.62,2.55,1.64,3.61,3.06
			c1.49,1.99,2.23,4.55,2.23,7.69c0,4.02-0.95,7.09-2.86,9.22c-1.17,1.29-2.44,2.26-3.83,2.92c-0.74,0.34-1.23,0.56-1.48,0.66
			c-0.45,0.16-1.09,0.32-1.9,0.49c-0.34,0.04-0.43,0.14-0.29,0.31c0.95,0.96,2.55,2.13,4.82,3.5c1.66,1,2.97,1.68,3.95,2.06
			c1.05,0.39,2.02,0.58,2.91,0.58c0.34,0,0.75-0.04,1.22-0.11c0.13,0,0.19,0.07,0.19,0.2V658.97z M604.12,639.87
			c0-1.46-0.27-2.88-0.8-4.26c-0.48-1.26-0.74-1.94-0.78-2.02c-0.36-0.77-0.86-1.48-1.48-2.15c-0.92-0.98-1.9-1.73-2.95-2.24
			c-1.41-0.69-3.02-1.04-4.82-1.04s-3.17,0.26-4.1,0.78c-1.85,1.04-3.12,2.31-3.81,3.79c-0.8,1.74-1.21,3.72-1.21,5.94
			c0,1.81,0.19,3.36,0.56,4.66c0.58,2.05,1.46,3.67,2.62,4.85c0.96,0.97,1.83,1.65,2.62,2.02c1.39,0.64,2.99,0.97,4.82,0.97
			c1.61,0,2.87-0.21,3.79-0.64c1.9-0.88,3.35-2.31,4.33-4.32C603.72,644.58,604.12,642.47,604.12,639.87z"/>
		<path class="st2" d="M643.11,645.01c0,2.02-0.69,3.67-2.06,4.97c-1.46,1.36-3.59,2.04-6.37,2.04c-3.26,0-5.57-0.56-6.92-1.68
			c-0.16-0.13-0.23-0.38-0.23-0.75c0-0.08-0.01-0.79-0.02-2.13c-0.01-1.34-0.02-2.05-0.02-2.15c0-0.16,0.09-0.24,0.27-0.24h0.8
			c0.16,0,0.25,0.08,0.27,0.24c0.03,0.16,0.06,0.54,0.12,1.15c0.08,1.31,0.6,2.38,1.55,3.21c0.45,0.39,1.1,0.72,1.94,0.98
			c0.84,0.27,1.6,0.4,2.27,0.4c2.59,0,4.32-0.81,5.19-2.42c0.39-0.75,0.58-1.69,0.58-2.81c0-1-0.37-1.85-1.11-2.57
			c-0.83-0.8-2.27-1.55-4.33-2.24c-2.33-0.78-3.99-1.56-4.97-2.35c-1.31-1.03-1.96-2.65-1.96-4.85c0-2.06,0.89-3.81,2.68-5.23
			c1.36-1.09,3.15-1.64,5.36-1.64c1.46,0,2.82,0.23,4.08,0.69c0.8,0.29,1.39,0.59,1.77,0.91c0.18,0.12,0.29,0.29,0.31,0.49
			c0.14,0.92,0.21,2.16,0.21,3.72c0,0.25-0.04,0.38-0.12,0.38h-0.93c-0.09,0-0.16-0.07-0.19-0.22c-0.08-0.35-0.17-0.81-0.27-1.38
			c-0.19-0.84-0.65-1.45-1.36-1.82c-1.31-0.7-2.82-1.06-4.53-1.06c-1.54,0-2.68,0.31-3.42,0.93c-0.78,0.64-1.17,1.78-1.17,3.41
			c0,1,0.36,1.86,1.09,2.6c0.35,0.36,1.03,0.75,2.04,1.17c0.84,0.32,1.68,0.64,2.53,0.97c1.67,0.68,2.66,1.1,2.95,1.26
			c0.97,0.5,1.79,1.1,2.47,1.8C642.61,641.86,643.11,643.26,643.11,645.01z"/>
		<path class="st2" d="M660.98,651.7c0,0.1-0.04,0.15-0.12,0.15h-9.42c-0.12,0-0.19-0.02-0.21-0.05c-0.03-0.04-0.04-0.08-0.04-0.13
			v-0.56c0-0.11,0.02-0.17,0.06-0.19c0.04-0.02,0.08-0.03,0.14-0.03h2.64c0.18,0,0.27-0.18,0.27-0.53l-0.04-18.84
			c0-2.3-0.23-3.44-0.68-3.44h-2.47c-0.18,0-0.27-0.06-0.27-0.18v-0.64c0-0.1,0.06-0.15,0.19-0.15h9.42c0.12,0,0.17,0.05,0.17,0.15
			v0.67c0,0.1-0.07,0.15-0.21,0.15h-2.74c-0.23,0-0.35,0.13-0.35,0.38c-0.03,11.03-0.04,16.73-0.04,17.09c0,1.8,0.01,2.82,0.02,3.08
			c0.09,1.51,0.35,2.26,0.78,2.26h2.74c0.1,0,0.16,0.05,0.16,0.15V651.7z"/>
		<path class="st2" d="M688.2,649.27c0,0.11-0.21,0.49-0.62,1.15c-0.1,0.25-0.33,0.66-0.68,1.2c-0.1,0.15-0.21,0.22-0.33,0.22h-18.5
			c-0.16,0-0.23-0.06-0.23-0.18v-0.6c0-0.12,0.06-0.18,0.19-0.18h2.92c0.23,0,0.35-0.13,0.35-0.38c0-0.11-0.02-0.84-0.06-2.2
			s-0.03-4.37,0.02-9.04s0.08-7.11,0.08-7.34c0-2.59-0.25-3.88-0.76-3.88h-2.2c-0.18,0-0.27-0.07-0.27-0.22v-0.53
			c0-0.15,0.08-0.22,0.23-0.22h10.51c0.13,0,0.19,0.05,0.19,0.15v0.64c0,0.12-0.05,0.18-0.16,0.18h-3.91
			c-0.19,0-0.31,0.09-0.35,0.26c-0.04,0.17-0.1,3.13-0.19,8.89c-0.08,5.42-0.12,8.5-0.12,9.25c0,2.81,0.34,4.21,1.03,4.21
			c4.18,0,6.59-0.02,7.21-0.07c2.02-0.16,3.65-0.59,4.88-1.29c0.31-0.18,0.5-0.27,0.56-0.27
			C688.14,649.08,688.2,649.18,688.2,649.27z"/>
		<path class="st2" d="M718.61,651.62c0,0.15-0.07,0.22-0.19,0.22h-5.42c-0.25,0-0.4-0.06-0.47-0.18c-0.05-0.05-1.2-1.4-3.44-4.06
			c-1.45-1.75-2.88-3.28-4.29-4.59c-1.36-1.29-2.26-2.1-2.7-2.42c-0.21-0.13-0.38-0.15-0.53-0.05l-1.38,1.13
			c-0.08,0.17-0.12,0.29-0.12,0.36c0,0.04,0.01,0.81,0.02,2.33c0.01,1.52,0.02,2.42,0.02,2.71c0,2.54,0.17,3.81,0.51,3.81h3.23
			c0.1,0,0.16,0.07,0.16,0.22v0.56c0,0.12-0.07,0.18-0.19,0.18h-9.39c-0.19,0-0.29-0.05-0.29-0.15v-0.64c0-0.06,0.01-0.11,0.04-0.14
			c0.03-0.03,0.1-0.05,0.21-0.05h2.43c0.21,0,0.31-0.13,0.31-0.38c0-0.05-0.01-1.88-0.02-5.49s-0.02-5.52-0.02-5.73
			c0-0.21-0.01-1.51-0.02-3.91c-0.01-2.4-0.02-3.63-0.02-3.71c0-2.42-0.21-3.63-0.64-3.63h-2.82c-0.14,0-0.21-0.06-0.21-0.18v-0.64
			c0-0.1,0.07-0.15,0.21-0.15h9.46c0.1,0,0.16,0.05,0.16,0.15v0.6c0,0.15-0.05,0.22-0.16,0.22h-2.7c-0.13,0-0.19,0.09-0.19,0.27
			c-0.08,0.36-0.12,4.28-0.12,11.75c0,0.33,0.06,0.46,0.19,0.4c2.4-2.09,4.86-4.21,7.4-6.38c1.22-1.01,2.42-2.17,3.61-3.5
			c0.85-0.96,1.28-1.69,1.28-2.2c0-0.23-0.15-0.35-0.45-0.35h-2.43c-0.1,0-0.16-0.06-0.16-0.18v-0.64c0-0.1,0.06-0.15,0.19-0.15
			h8.12c0.16,0,0.23,0.05,0.23,0.15v0.6c0,0.15-0.05,0.22-0.16,0.22h-1.94c-0.35,0-0.67,0.15-0.95,0.46
			c-2.46,2.48-4.32,4.22-5.58,5.23c-0.88,0.71-2.59,2.25-5.13,4.63c-0.21,0.24-0.27,0.4-0.17,0.47c0.82,0.59,1.77,1.39,2.88,2.39
			c1.45,1.31,3.28,3.27,5.5,5.87c1.45,1.71,2.29,2.62,2.51,2.71c0.79,0.75,1.42,1.13,1.9,1.13h1.52c0.13,0,0.19,0.06,0.19,0.18
			V651.62z"/>
		<path class="st2" d="M770.17,651.66c0,0.12-0.07,0.18-0.19,0.18h-8.88c-0.18,0-0.27-0.06-0.27-0.18v-0.6
			c0-0.12,0.06-0.18,0.19-0.18h2.1c0.32,0,0.49-0.15,0.49-0.46v-9.33c0-4.8-0.05-8-0.16-9.62c-0.03-0.35-0.09-0.53-0.19-0.53
			c-0.08,0-0.17,0.12-0.29,0.35c-0.27,0.52-2.9,6.1-7.87,16.74c-0.75,1.58-1.35,2.92-1.79,4.03c-0.13,0.21-0.24,0.31-0.33,0.31
			c-0.18,0-0.3-0.09-0.35-0.27c-1.79-3.42-3.63-6.98-5.54-10.66c-1.06-2.16-2.53-5.02-4.41-8.58c-0.12-0.21-0.22-0.31-0.31-0.31
			c-0.1,0-0.16,0.13-0.17,0.38c-0.35,4.85-0.53,8.39-0.53,10.62v4.12c0,2.14,0.31,3.21,0.93,3.21h2.29c0.14,0,0.21,0.05,0.21,0.15
			v0.64c0,0.12-0.04,0.18-0.14,0.18h-7.03c-0.16,0-0.23-0.05-0.23-0.15v-0.57c0-0.17,0.06-0.25,0.19-0.25h2.02
			c0.35,0,0.52-0.27,0.52-0.82c0-1.9,0.09-5.37,0.27-10.42c0.07-0.95,0.12-1.9,0.18-2.86c0.1-1.88,0.16-3.5,0.16-4.86
			c0-1.77-0.65-2.96-1.96-3.57c-0.29-0.13-0.87-0.24-1.75-0.31c-0.1,0-0.16-0.05-0.16-0.15v-0.67c0-0.1,0.05-0.15,0.16-0.15h5.13
			c0.23,0,0.4,0.08,0.49,0.25c1.2,2.23,2.51,4.66,3.91,7.29c2.05,4.13,4.26,8.48,6.65,13.06c0.22,0.3,0.39,0.35,0.51,0.15
			c1.45-3.1,3-6.38,4.66-9.86c1.61-3.47,3.25-6.99,4.94-10.55c0.13-0.23,0.33-0.35,0.6-0.35h4.97c0.13,0,0.19,0.05,0.19,0.15v0.64
			c0,0.12-0.04,0.18-0.12,0.18h-1.92c-0.39,0-0.62,0.41-0.7,1.24c-0.09,0.78-0.14,3.83-0.14,9.15c0,3.91,0.04,6.71,0.14,8.4
			c0.13,2.71,0.51,4.06,1.15,4.06h2.24c0.1,0,0.16,0.06,0.16,0.18V651.66z"/>
		<path class="st2" d="M787.21,651.7c0,0.1-0.04,0.15-0.12,0.15h-9.42c-0.12,0-0.19-0.02-0.21-0.05c-0.03-0.04-0.04-0.08-0.04-0.13
			v-0.56c0-0.11,0.02-0.17,0.06-0.19c0.04-0.02,0.08-0.03,0.14-0.03h2.64c0.18,0,0.27-0.18,0.27-0.53l-0.04-18.84
			c0-2.3-0.23-3.44-0.68-3.44h-2.47c-0.18,0-0.27-0.06-0.27-0.18v-0.64c0-0.1,0.06-0.15,0.19-0.15h9.42c0.12,0,0.17,0.05,0.17,0.15
			v0.67c0,0.1-0.07,0.15-0.21,0.15h-2.74c-0.23,0-0.35,0.13-0.35,0.38c-0.03,11.03-0.04,16.73-0.04,17.09c0,1.8,0.01,2.82,0.02,3.08
			c0.09,1.51,0.35,2.26,0.78,2.26h2.74c0.1,0,0.16,0.05,0.16,0.15V651.7z"/>
		<path class="st2" d="M814.43,649.27c0,0.11-0.21,0.49-0.62,1.15c-0.1,0.25-0.33,0.66-0.68,1.2c-0.1,0.15-0.21,0.22-0.33,0.22
			h-18.5c-0.16,0-0.23-0.06-0.23-0.18v-0.6c0-0.12,0.06-0.18,0.19-0.18h2.92c0.23,0,0.35-0.13,0.35-0.38c0-0.11-0.02-0.84-0.06-2.2
			s-0.03-4.37,0.02-9.04s0.08-7.11,0.08-7.34c0-2.59-0.25-3.88-0.76-3.88h-2.2c-0.18,0-0.27-0.07-0.27-0.22v-0.53
			c0-0.15,0.08-0.22,0.23-0.22h10.51c0.13,0,0.19,0.05,0.19,0.15v0.64c0,0.12-0.05,0.18-0.16,0.18h-3.91
			c-0.19,0-0.31,0.09-0.35,0.26c-0.04,0.17-0.1,3.13-0.19,8.89c-0.08,5.42-0.12,8.5-0.12,9.25c0,2.81,0.34,4.21,1.03,4.21
			c4.18,0,6.59-0.02,7.21-0.07c2.02-0.16,3.65-0.59,4.88-1.29c0.31-0.18,0.5-0.27,0.56-0.27
			C814.37,649.08,814.43,649.18,814.43,649.27z"/>
		<path class="st2" d="M840.25,649.27c0,0.11-0.21,0.49-0.62,1.15c-0.1,0.25-0.33,0.66-0.68,1.2c-0.1,0.15-0.21,0.22-0.33,0.22
			h-18.5c-0.16,0-0.23-0.06-0.23-0.18v-0.6c0-0.12,0.06-0.18,0.19-0.18H823c0.23,0,0.35-0.13,0.35-0.38c0-0.11-0.02-0.84-0.06-2.2
			s-0.03-4.37,0.02-9.04s0.08-7.11,0.08-7.34c0-2.59-0.25-3.88-0.76-3.88h-2.2c-0.18,0-0.27-0.07-0.27-0.22v-0.53
			c0-0.15,0.08-0.22,0.23-0.22h10.51c0.13,0,0.19,0.05,0.19,0.15v0.64c0,0.12-0.05,0.18-0.16,0.18h-3.91
			c-0.19,0-0.31,0.09-0.35,0.26c-0.04,0.17-0.1,3.13-0.19,8.89c-0.08,5.42-0.12,8.5-0.12,9.25c0,2.81,0.34,4.21,1.03,4.21
			c4.18,0,6.59-0.02,7.21-0.07c2.02-0.16,3.65-0.59,4.88-1.29c0.31-0.18,0.5-0.27,0.56-0.27
			C840.19,649.08,840.25,649.18,840.25,649.27z"/>
		<path class="st2" d="M861.97,645.01c0,2.02-0.69,3.67-2.06,4.97c-1.46,1.36-3.59,2.04-6.37,2.04c-3.26,0-5.57-0.56-6.92-1.68
			c-0.16-0.13-0.23-0.38-0.23-0.75c0-0.08-0.01-0.79-0.02-2.13c-0.01-1.34-0.02-2.05-0.02-2.15c0-0.16,0.09-0.24,0.27-0.24h0.8
			c0.16,0,0.25,0.08,0.27,0.24c0.03,0.16,0.06,0.54,0.12,1.15c0.08,1.31,0.6,2.38,1.55,3.21c0.45,0.39,1.1,0.72,1.94,0.98
			c0.84,0.27,1.6,0.4,2.27,0.4c2.59,0,4.32-0.81,5.19-2.42c0.39-0.75,0.58-1.69,0.58-2.81c0-1-0.37-1.85-1.11-2.57
			c-0.83-0.8-2.27-1.55-4.33-2.24c-2.33-0.78-3.99-1.56-4.97-2.35c-1.31-1.03-1.96-2.65-1.96-4.85c0-2.06,0.89-3.81,2.68-5.23
			c1.36-1.09,3.15-1.64,5.36-1.64c1.46,0,2.82,0.23,4.08,0.69c0.8,0.29,1.39,0.59,1.77,0.91c0.18,0.12,0.29,0.29,0.31,0.49
			c0.14,0.92,0.21,2.16,0.21,3.72c0,0.25-0.04,0.38-0.12,0.38h-0.93c-0.09,0-0.16-0.07-0.19-0.22c-0.08-0.35-0.17-0.81-0.27-1.38
			c-0.19-0.84-0.65-1.45-1.36-1.82c-1.31-0.7-2.82-1.06-4.53-1.06c-1.54,0-2.68,0.31-3.42,0.93c-0.78,0.64-1.17,1.78-1.17,3.41
			c0,1,0.36,1.86,1.09,2.6c0.35,0.36,1.03,0.75,2.04,1.17c0.84,0.32,1.68,0.64,2.53,0.97c1.67,0.68,2.66,1.1,2.95,1.26
			c0.97,0.5,1.79,1.1,2.47,1.8C861.47,641.86,861.97,643.26,861.97,645.01z"/>
	</g>
</g>
<g>
	<path class="st2" d="M418.81,481.92h1.95l5.22,15.57l2.27-6.7l-2.95-8.87h1.95l2.1,6.35l2-6.35h0.58l-2.42,6.8l2.92,8.77
		l5.17-15.57h0.57l-6.47,18.12h-0.35l-2.95-8.85l-3.15,8.85h-0.35L418.81,481.92z"/>
	<path class="st2" d="M442.86,481.92h1.87v10.22c0.35-1.05,1.35-2.5,3.52-2.5c2.42,0,3.37,1.8,3.37,3.8v6.25h-1.87v-6.72
		c0-1.85-0.55-3.08-2.02-3.08c-1.83,0-3,2.05-3,3.08v6.72h-1.87V481.92z"/>
	<path class="st2" d="M456.56,494.92c0-3.15,1.75-5.27,4.95-5.27c2.62,0,4.62,1.75,4.62,4.25v0.43h-7.55v1.7
		c0,1.9,0.42,3.8,3.02,3.8c1.92,0,4.05-1.05,4.05-3.32c0-0.17,0-0.3-0.03-0.47l0.17-0.03c0.03,0.18,0.03,0.33,0.03,0.5
		c0,2.35-2.15,3.5-4.22,3.5C458.49,499.99,456.56,497.74,456.56,494.92z M464.16,493.89v-0.42c0-1.77-0.67-3.65-2.65-3.65
		c-2.2,0-2.92,1.8-2.92,3.87v0.45L464.16,493.89z"/>
	<path class="st2" d="M471.04,489.94h1.87v2.3c0.28-1.07,1.12-2.6,3.15-2.6c0.92,0,1.4,0.5,1.4,1.15c0,0.62-0.52,1.12-1.15,1.12
		c-0.65,0-1.15-0.5-1.15-1.12c0-0.38,0.22-0.7,0.47-0.9c-1.72,0-2.72,2.17-2.72,3.6v6.2h-1.87V489.94z"/>
	<path class="st2" d="M480.66,494.92c0-3.15,1.75-5.27,4.95-5.27c2.62,0,4.62,1.75,4.62,4.25v0.43h-7.55v1.7
		c0,1.9,0.42,3.8,3.02,3.8c1.92,0,4.05-1.05,4.05-3.32c0-0.17,0-0.3-0.03-0.47l0.18-0.03c0.02,0.18,0.02,0.33,0.02,0.5
		c0,2.35-2.15,3.5-4.22,3.5C482.59,499.99,480.66,497.74,480.66,494.92z M488.26,493.89v-0.42c0-1.77-0.67-3.65-2.65-3.65
		c-2.2,0-2.92,1.8-2.92,3.87v0.45L488.26,493.89z"/>
	<path class="st2" d="M509.84,497.56c-0.28,0.97-1.15,2.42-3.37,2.42c-2.9,0-4.67-2.07-4.67-5.15c0-2.82,2-5.2,4.95-5.2
		c1.28,0,2.4,0.55,3.1,1.47v-1.17h1.88v16.95h-1.88V497.56z M509.84,496.47v-2.7c0-1.9-0.83-3.95-3.07-3.95
		c-2.52,0-2.95,2.12-2.95,3.95v1.9c0,2.17,0.75,4.07,3.07,4.07C508.96,499.74,509.84,497.56,509.84,496.47z"/>
	<path class="st2" d="M517.56,496.19v-6.25h1.87v6.72c0,1.85,0.55,3.07,2,3.07c1.85,0,2.97-2.02,2.97-3.05v-6.75h1.9v9.75h-1.9v-2.3
		c-0.27,1.1-1.32,2.6-3.47,2.6C518.44,499.99,517.56,498.11,517.56,496.19z"/>
	<path class="st2" d="M539.03,497.52c-0.77,1.77-2.27,2.47-3.42,2.47c-2.55,0-3.92-0.97-3.92-2.9c0-2.62,3.62-3.3,6.17-3.3h0.53
		v-0.85c0-1.7-0.25-3.12-2.07-3.12c-1.78,0-3.45,1.05-3.45,3.35c0,0.2,0,0.3,0.02,0.45l-0.17,0.03c-0.02-0.15-0.02-0.25-0.02-0.48
		c0-2.37,1.7-3.52,3.62-3.52c2.87,0,3.97,1.37,3.97,3.8v6.57h-0.17L539.03,497.52z M538.39,495.99v-2.02
		c-2.6,0.12-4.72,0.83-4.72,3.12c0,1.17,0.27,2.72,1.95,2.72C537.73,499.81,538.39,497.41,538.39,495.99z"/>
	<path class="st2" d="M546.14,481.92h1.87v17.77h-1.87V481.92z"/>
	<path class="st2" d="M553.66,486.24c0-0.65,0.52-1.15,1.15-1.15c0.65,0,1.15,0.5,1.15,1.15c0,0.62-0.5,1.15-1.15,1.15
		C554.19,487.39,553.66,486.87,553.66,486.24z M553.89,489.94h1.88v9.75h-1.88V489.94z"/>
	<path class="st2" d="M561.71,497.14v-6.7h-1.83v-0.12l1.83-0.38l1.77-3.2h0.12v3.2h2.35v0.5h-2.35v7.1c0,1.17,0.1,2.27,0.9,2.27
		c1.22,0,2.05-1.07,2.05-3.35c0-0.18,0-0.3-0.03-0.48l0.18-0.02c0.02,0.17,0.02,0.32,0.02,0.5c0,2.35-0.85,3.52-2.22,3.52
		C563.06,499.99,561.71,499.29,561.71,497.14z"/>
	<path class="st2" d="M568.39,505.61c0-0.67,0.45-1.2,1.12-1.2s1.17,0.48,1.17,1.15c0,0.27-0.15,0.65-0.4,0.88
		c0.75-0.03,1.57-0.78,2.17-2.1l1.97-4.45l-4.47-9.95h2.05l3.42,7.87l3.12-7.87h0.58l-6.52,14.65c-0.55,1.22-1.35,2.3-2.8,2.3
		C568.86,506.89,568.39,506.29,568.39,505.61z"/>
	<path class="st2" d="M591.01,489.94h1.87v2.22c0.3-1.08,1.3-2.52,3.25-2.52c2.1,0,2.85,1.15,3.05,2.57
		c0.33-1.12,1.5-2.57,3.42-2.57c2.67,0,3.17,1.87,3.17,3.8v6.25h-1.9v-6.72c0-1.85-0.23-3.08-1.83-3.08c-1.47,0-2.7,1.72-2.82,2.75
		c0.05,0.7,0.08,1.2,0.08,1.47v5.57h-1.9v-6.72c0-1.85-0.2-3.08-1.83-3.08c-1.57,0-2.7,2.03-2.7,3.05v6.75h-1.87V489.94z"/>
	<path class="st2" d="M610.69,494.92c0-3.15,1.75-5.27,4.95-5.27c2.62,0,4.62,1.75,4.62,4.25v0.43h-7.55v1.7
		c0,1.9,0.42,3.8,3.02,3.8c1.92,0,4.05-1.05,4.05-3.32c0-0.17,0-0.3-0.03-0.47l0.17-0.03c0.03,0.18,0.03,0.33,0.03,0.5
		c0,2.35-2.15,3.5-4.22,3.5C612.61,499.99,610.69,497.74,610.69,494.92z M618.28,493.89v-0.42c0-1.77-0.67-3.65-2.65-3.65
		c-2.2,0-2.92,1.8-2.92,3.87v0.45L618.28,493.89z"/>
	<path class="st2" d="M624.74,494.92c0-3.15,1.75-5.27,4.95-5.27c2.62,0,4.62,1.75,4.62,4.25v0.43h-7.55v1.7
		c0,1.9,0.42,3.8,3.02,3.8c1.92,0,4.05-1.05,4.05-3.32c0-0.17,0-0.3-0.03-0.47l0.17-0.03c0.03,0.18,0.03,0.33,0.03,0.5
		c0,2.35-2.15,3.5-4.22,3.5C626.66,499.99,624.74,497.74,624.74,494.92z M632.34,493.89v-0.42c0-1.77-0.67-3.65-2.65-3.65
		c-2.2,0-2.92,1.8-2.92,3.87v0.45L632.34,493.89z"/>
	<path class="st2" d="M639.34,497.14v-6.7h-1.83v-0.12l1.83-0.38l1.77-3.2h0.12v3.2h2.35v0.5h-2.35v7.1c0,1.17,0.1,2.27,0.9,2.27
		c1.22,0,2.05-1.07,2.05-3.35c0-0.18,0-0.3-0.03-0.48l0.18-0.02c0.02,0.17,0.02,0.32,0.02,0.5c0,2.35-0.85,3.52-2.22,3.52
		C640.69,499.99,639.34,499.29,639.34,497.14z"/>
	<path class="st2" d="M647.39,496.47c0-0.15,0-0.33,0.03-0.48l0.17,0.03c-0.02,0.15-0.02,0.27-0.02,0.45c0,2.27,1.8,3.35,3.62,3.35
		c1.82,0,2.8-0.97,2.8-1.87c0-1.1-0.67-1.45-2.45-2.2l-1.17-0.47c-1.4-0.58-2.57-1.2-2.57-2.8c0-1.55,1.17-2.82,3.3-2.82
		c1.95,0,3.32,0.92,3.32,3.27c0,0.15,0,0.33-0.02,0.48l-0.17-0.03c0.02-0.15,0.02-0.28,0.02-0.45c0-2.27-1.35-3.1-3.15-3.1
		c-1.5,0-2.5,0.87-2.5,1.72c0,1.02,1,1.47,2.47,2.05l1.1,0.45c1.92,0.77,2.82,1.57,2.82,3.07c0,1.85-1.82,2.87-3.8,2.87
		S647.39,498.81,647.39,496.47z"/>
	<path class="st2" d="M666.34,494.92c0-3.17,1.95-5.27,5.12-5.27c1.95,0,3.72,1.17,3.72,3.52c0,0.23,0,0.33-0.03,0.48l-0.17-0.03
		c0.03-0.15,0.03-0.25,0.03-0.45c0-2.27-1.75-3.35-3.55-3.35c-2.28,0-3.1,1.75-3.1,3.97v2.12c0,2,0.58,3.9,2.95,3.9
		c1.77,0,3.77-1.07,3.77-3.35c0-0.18,0-0.3-0.03-0.45l0.17-0.03c0.03,0.15,0.03,0.33,0.03,0.48c0,2.35-2.02,3.52-3.95,3.52
		C668.56,499.99,666.34,497.79,666.34,494.92z"/>
	<path class="st2" d="M679.96,489.94h1.87v2.3c0.28-1.07,1.12-2.6,3.15-2.6c0.92,0,1.4,0.5,1.4,1.15c0,0.62-0.52,1.12-1.15,1.12
		c-0.65,0-1.15-0.5-1.15-1.12c0-0.38,0.22-0.7,0.47-0.9c-1.72,0-2.72,2.17-2.72,3.6v6.2h-1.87V489.94z"/>
	<path class="st2" d="M689.59,494.92c0-3.15,1.75-5.27,4.95-5.27c2.62,0,4.62,1.75,4.62,4.25v0.43h-7.55v1.7
		c0,1.9,0.42,3.8,3.02,3.8c1.92,0,4.05-1.05,4.05-3.32c0-0.17,0-0.3-0.03-0.47l0.17-0.03c0.03,0.18,0.03,0.33,0.03,0.5
		c0,2.35-2.15,3.5-4.22,3.5C691.51,499.99,689.59,497.74,689.59,494.92z M697.19,493.89v-0.42c0-1.77-0.67-3.65-2.65-3.65
		c-2.2,0-2.92,1.8-2.92,3.87v0.45L697.19,493.89z"/>
	<path class="st2" d="M710.61,497.52c-0.77,1.77-2.27,2.47-3.42,2.47c-2.55,0-3.92-0.97-3.92-2.9c0-2.62,3.62-3.3,6.17-3.3h0.53
		v-0.85c0-1.7-0.25-3.12-2.07-3.12c-1.78,0-3.45,1.05-3.45,3.35c0,0.2,0,0.3,0.02,0.45l-0.17,0.03c-0.02-0.15-0.02-0.25-0.02-0.48
		c0-2.37,1.7-3.52,3.62-3.52c2.87,0,3.97,1.37,3.97,3.8v6.57h-0.17L710.61,497.52z M709.96,495.99v-2.02
		c-2.6,0.12-4.72,0.83-4.72,3.12c0,1.17,0.27,2.72,1.95,2.72C709.31,499.81,709.96,497.41,709.96,495.99z"/>
	<path class="st2" d="M717.84,497.14v-6.7h-1.83v-0.12l1.83-0.38l1.77-3.2h0.12v3.2h2.35v0.5h-2.35v7.1c0,1.17,0.1,2.27,0.9,2.27
		c1.22,0,2.05-1.07,2.05-3.35c0-0.18,0-0.3-0.03-0.48l0.18-0.02c0.02,0.17,0.02,0.32,0.02,0.5c0,2.35-0.85,3.52-2.22,3.52
		C719.19,499.99,717.84,499.29,717.84,497.14z"/>
	<path class="st2" d="M726.84,486.24c0-0.65,0.52-1.15,1.15-1.15c0.65,0,1.15,0.5,1.15,1.15c0,0.62-0.5,1.15-1.15,1.15
		C727.36,487.39,726.84,486.87,726.84,486.24z M727.06,489.94h1.88v9.75h-1.88V489.94z"/>
	<path class="st2" d="M733.31,489.94h2.05l3.47,7.82l3.12-7.82h0.57l-4.5,10.02h-0.23L733.31,489.94z"/>
	<path class="st2" d="M746.74,486.24c0-0.65,0.53-1.15,1.15-1.15c0.65,0,1.15,0.5,1.15,1.15c0,0.62-0.5,1.15-1.15,1.15
		C747.26,487.39,746.74,486.87,746.74,486.24z M746.96,489.94h1.88v9.75h-1.88V489.94z"/>
	<path class="st2" d="M754.79,497.14v-6.7h-1.83v-0.12l1.83-0.38l1.77-3.2h0.12v3.2h2.35v0.5h-2.35v7.1c0,1.17,0.1,2.27,0.9,2.27
		c1.22,0,2.05-1.07,2.05-3.35c0-0.18,0-0.3-0.03-0.48l0.17-0.02c0.03,0.17,0.03,0.32,0.03,0.5c0,2.35-0.85,3.52-2.22,3.52
		C756.14,499.99,754.79,499.29,754.79,497.14z"/>
	<path class="st2" d="M761.46,505.61c0-0.67,0.45-1.2,1.12-1.2s1.17,0.48,1.17,1.15c0,0.27-0.15,0.65-0.4,0.88
		c0.75-0.03,1.57-0.78,2.17-2.1l1.97-4.45l-4.47-9.95h2.05l3.42,7.87l3.12-7.87h0.58l-6.52,14.65c-0.55,1.22-1.35,2.3-2.8,2.3
		C761.94,506.89,761.46,506.29,761.46,505.61z"/>
</g>
</svg>
