<?xml version="1.0" encoding="UTF-8"?>
<svg id="Layer_2" data-name="Layer 2" xmlns="http://www.w3.org/2000/svg" viewBox="0 0 220.41 140.6">
  <defs>
    <style>
      .cls-1 {
        fill: #4c473d;
      }

      .cls-2 {
        fill: none;
        stroke: #4c473d;
        stroke-miterlimit: 10;
      }
    </style>
  </defs>
  <g id="Layer_1-2" data-name="Layer 1">
    <path class="cls-1" d="m91.15,3.97l-1.49.04.02,1.08c.17.04.3.08.37.14l.02.65c-.44-.14-.89-.21-1.36-.2-.34,0-.66.07-.98.19-.42.16-.62.38-.62.66,0,.29.42.43,1.25.41.02,0,.14,0,.35-.02l.33-.02v.5c-.48.03-.79.05-.91.06-.87.1-1.3.36-1.29.78,0,.24.16.42.47.55.24.1.49.15.77.14,1.18-.03,2.12-.57,2.83-1.64l.03,1.38c-.62.41-1.35.63-2.21.65-.93.02-1.75-.17-2.44-.59-.34-.2-.51-.44-.51-.71,0-.27.1-.5.33-.7.14-.12.37-.27.69-.43l-.36-.2c-.22-.12-.33-.28-.33-.49-.01-.45.32-.78,1-.99.51-.16,1.09-.25,1.73-.27l-.02-.88-3.49.08-.02-.65,5.82-.14.02.65Z"/>
    <path class="cls-1" d="m96.62,3.84h-.59s.05,2.09.05,2.09c-.22-.12-.53-.22-.93-.31-.38-.08-.71-.11-.98-.11-.67.02-1.22.15-1.67.4-.25.14-.38.32-.37.54,0,.29.16.43.47.42.18,0,.43-.07.72-.18.19-.07.44-.17.74-.28.13-.05.35-.07.67-.08.63-.02,1.1.17,1.42.55.15.18.23.4.24.65.01.58-.34,1.04-1.06,1.39-.3.15-.58.23-.86.25.27.26.52.38.76.38.08,0,.16-.01.24-.04l.57.89c-.11.1-.34.16-.69.16-.28,0-.53-.08-.73-.27-.11-.1-.26-.32-.46-.65-.17-.28-.31-.42-.42-.43-.67,0-1.19-.11-1.56-.33-.23-.14-.35-.33-.36-.58,0-.31.17-.46.53-.47.14,0,.42.1.85.29.43.2.79.3,1.06.29.55-.01,1.07-.16,1.54-.43.23-.13.35-.29.34-.48,0-.28-.23-.41-.66-.4-.13,0-.57.11-1.3.32-.43.13-.69.19-.79.19-.58.01-1.06-.25-1.45-.78-.19-.26-.29-.54-.29-.84-.02-.61.39-1.04,1.23-1.27.34-.1.67-.15.97-.15.35,0,.85.07,1.49.22l-.02-.93-4.34.1-.02-.66,5.63-.13.02.65Z"/>
    <path class="cls-1" d="m101.39,3.72l-2.76.07.1,4.39c0,.12.05.24.13.36.09.12.19.19.31.18.54-.01.8-.58.77-1.7l1.11.6c-.4.94-1.03,1.41-1.91,1.43-.51,0-.91-.21-1.21-.67-.13-.2-.2-.4-.2-.6l-.09-3.98-1.14.03v-.65s1.12-.03,1.12-.03l-.04-1.83,1,.66.03,1.15,2.76-.07.02.65Z"/>
    <path class="cls-1" d="m103.36,3.68l-2.1.05v-.65s2.08-.05,2.08-.05l.02.65Zm-.27,4.91c-.05.05-.17.14-.35.26-.18.12-.3.18-.34.18-.02,0-.11-.06-.29-.19-.16-.12-.26-.19-.3-.23l.59-.49s.27.16.69.47"/>
    <path class="cls-1" d="m108.47,3.56l-2.28.05-.02-.65,2.28-.05v.65Zm-.58,5.83l-.86-.54-.09-3.87c0-.15-.03-.3-.09-.43v-.16s.92-.21.92-.21l.12,5.21Z"/>
    <path class="cls-1" d="m113.51,3.44l-3.24.08.02.92c.32-.16.61-.24.87-.24,1.27-.03,1.93.63,1.96,1.98.02,1.01-.39,1.77-1.26,2.26-.39.22-.8.34-1.23.35-.53.01-1.06-.14-1.6-.45l.74-.53c.56.27,1.05.4,1.49.39.73-.02,1.09-.63,1.06-1.85-.38.54-.93.81-1.64.83-.47.01-.87-.08-1.19-.27-.39-.22-.59-.56-.6-1,0-.35.22-.69.68-1.04l-.03-1.32-1.17.03-.02-.65,5.16-.12.02.65Zm-1.25,2.63c-.01-.45-.31-.82-.91-1.11-.26-.13-.53-.19-.79-.18-.69.02-1.03.24-1.02.66.01.45.28.78.82,1.01.23.1.46.14.68.14.2,0,.44-.05.7-.12.35-.1.52-.23.52-.39"/>
    <path class="cls-1" d="m118.58,3.32l-3.24.08.02.92c.32-.16.61-.24.87-.24,1.27-.03,1.93.63,1.96,1.98.02,1.01-.4,1.77-1.26,2.26-.39.22-.8.34-1.23.35-.53.01-1.06-.14-1.6-.45l.74-.53c.56.27,1.05.4,1.49.39.74-.02,1.09-.63,1.06-1.85-.38.54-.93.81-1.64.83-.47.01-.87-.08-1.19-.27-.39-.22-.59-.56-.6-1,0-.35.22-.69.68-1.04l-.03-1.32-1.17.03-.02-.65,5.16-.12.02.65Zm-1.25,2.63c-.01-.45-.31-.82-.91-1.11-.26-.13-.53-.19-.79-.18-.69.02-1.03.24-1.02.66,0,.45.28.78.82,1.01.23.1.46.14.68.14.2,0,.44-.05.7-.12.35-.1.52-.23.52-.39"/>
    <path class="cls-1" d="m124.42,3.18l-3.64.09.02.9c.15-.14.42-.21.83-.22.91-.02,1.6.29,2.07.94.22.31.34.66.35,1.06.01.51-.2,1.04-.63,1.59-.5.64-1.18.97-2.03.99-.96.02-1.65-.28-2.08-.9-.21-.3-.32-.64-.32-1.02-.02-.82.35-1.48,1.1-2.01l-.03-1.31-1.55.04-.02-.66,5.92-.14.02.65Zm-1.19,3.23c-.02-.79-.39-1.36-1.13-1.69-.34-.15-.74-.23-1.18-.22-.37,0-.7.28-.96.82-.12.25-.18.51-.17.78.01.57.24,1.04.68,1.4.42.34.91.5,1.5.49.52-.01.89-.26,1.11-.75.11-.23.16-.51.15-.83"/>
    <path class="cls-1" d="m217.56,50.15c-1.29,6.04-4.14,10.23-8.54,12.56-4.49,2.42-11.61,3.63-21.37,3.63h-3.53c.04,2.83.07,5.68.1,8.55h11.45c14.16,0,21.45,6.82,21.88,20.46h2.85v-4.27c0-2.16-.17-5.7-.52-10.62-.26-5.18-.39-8.85-.39-11.01,0-3.54.3-9.97.91-19.29h-2.85Z"/>
    <path class="cls-1" d="m209.29,22.94c3,0,6.07,0,9.18,0-.03-6.71.07-14.34.29-22.94-2.24.18-5.17.34-8.79.5-2.07.09-5.96.12-11.66.1-6.31,0-9.59.01-9.85.02l-3.36.14.11,2.72c14.95,1.69,22.96,8.19,24.08,19.47"/>
    <path class="cls-1" d="m84.49,71.45c-6.58-10.43-9.87-21.92-9.87-34.47,0-10.21,3.04-20.45,9.08-30.74-.01-.89-.03-1.77-.04-2.67-15.83,7.42-23.77,18.71-23.77,33.86,0,16.1,8.2,27.44,24.6,34.02"/>
    <path class="cls-1" d="m176.61,3.35V1.02c-5.52.6-15.45,1.12-29.78,1.55v136.47h5.57c2.16,0,5.57.26,10.23.78,3.97.52,8.63.78,13.98.78v-2.33c-5.52-.6-10.1-3.32-13.72-8.16-3.63-4.83-5.44-14.16-5.44-27.97V35.59c0-18.82,6.39-29.57,19.16-32.24"/>
    <path class="cls-1" d="m65.13,99.42c13.7-14.15,27.09-22.23,40.17-24.3-5.74.05-11.47-.34-16.47-1.79-6.13,1.18-11.44,3.2-15.8,6.16-5.44,3.71-13.68,11.14-24.73,22.27-16.83,17.09-30.56,25.64-41.18,25.64-2.16,0-4.36-.73-6.6-2.2l-.52,2.33c3.45,4.49,8.24,6.73,14.37,6.73,6.56,0,13.42-2.46,20.59-7.38,6.73-4.66,16.79-13.81,30.17-27.45"/>
    <path class="cls-1" d="m125.98,74.16c-4.34.08-9.61.54-15.11.8-9.29,3.34-21.64,13.08-37.07,29.26-11.31,11.74-20.37,20.28-27.19,25.64-6.9,5.35-13.51,8.03-19.81,8.03v1.16c2.93,1.04,5.82,1.55,8.68,1.55,8.37,0,15.62-2.11,21.75-6.34,3.28-2.33,7.45-5.89,12.5-10.68,5.05-4.79,11.11-10.98,18.19-18.58,10.36-11.05,18.04-18.56,23.05-22.53,5.13-3.89,10.13-6.63,15.02-8.3"/>
    <path class="cls-1" d="m126.82,2.29c.41,36.23.55,71.86.44,71.86-.21,0-.42,0-.63,0v30.45c0,20.63-6.21,31.85-18.64,33.66v2.33c10.36-1.04,18.9-1.55,25.64-1.55h3.76V2.57c-3.37,0-6.9-.1-10.55-.29"/>
    <path class="cls-2" d="m150.47,138.55h-14.76c-1.93,0-3.5-2.39-3.5-5.33V8.05c0-2.94,1.57-5.33,3.5-5.33h14.76c1.93,0,3.49,2.39,3.49,5.33v125.17c0,2.94-1.57,5.33-3.49,5.33Z"/>
    <path class="cls-1" d="m146.42,47.1c-.11,0-.22-.09-.32-.29-4.74-9.47-12.23-28.9-15.31-38.11-.23-.7-.24-1.87-.02-2.6.22-.73.6-.76.83-.06,2.97,8.9,10.52,28.46,15.13,37.67.27.55.35,1.68.18,2.54-.11.55-.3.85-.5.85"/>
    <path class="cls-1" d="m129.98,72.45c-.28,0-.52-.61-.58-1.49-.06-1,.15-1.96.46-2.16,9.99-6.07,21.27-32.3,26.41-54.14.19-.82.56-.99.82-.39.26.6.32,1.75.12,2.57-5.27,22.41-16.87,49.33-27.14,55.57-.04.02-.08.03-.11.03"/>
    <path class="cls-1" d="m129.98,87.96c-.26,0-.5-.56-.57-1.39-.08-.99.11-1.98.43-2.23,10.77-8.45,20.75-30.99,26.5-49.27.23-.72.6-.73.83-.02.23.71.24,1.88,0,2.6-5.86,18.64-16.05,41.63-27.05,50.26-.05.04-.1.06-.14.06"/>
    <path class="cls-1" d="m129.98,101.68c-.27,0-.51-.58-.57-1.43-.07-.99.13-1.98.44-2.2,7.7-5.48,19.34-26.76,26.5-48.44.23-.71.61-.69.83.04.23.73.22,1.9-.01,2.6-7.29,22.08-19.17,43.77-27.05,49.38-.04.03-.09.05-.13.05"/>
    <path class="cls-1" d="m129.98,116.13c-.26,0-.5-.54-.57-1.36-.09-.98.1-1.99.41-2.26,8.2-7,20.67-25.87,26.51-44.14.23-.72.6-.72.83,0,.23.72.23,1.88,0,2.6-5.98,18.7-18.69,37.97-27.04,45.09-.05.04-.1.06-.15.06"/>
    <path class="cls-1" d="m149.87,38.77c-.09,0-.17-.06-.25-.18-3.39-5.07-10.77-24.89-13.04-31.88-.23-.71-.24-1.88,0-2.6.23-.73.6-.73.83-.02,2.35,7.22,9.59,26.49,12.73,31.18.29.44.42,1.54.28,2.45-.1.66-.31,1.05-.53,1.05"/>
    <path class="cls-1" d="m142.77,54.87c-.1,0-.2-.08-.29-.24-3.71-6.62-10.53-23.69-12.92-31.6-.22-.74-.21-1.9.02-2.6.24-.7.61-.66.83.08,2.29,7.58,9.09,24.57,12.65,30.93.28.5.38,1.63.22,2.51-.11.6-.31.93-.51.93"/>
    <path class="cls-1" d="m139.26,61.4c-.08,0-.16-.05-.23-.15-1.47-1.96-7.83-15.98-9.48-21.67-.22-.75-.2-1.92.04-2.6.24-.68.61-.63.83.12,1.51,5.21,7.77,19.02,9.07,20.76.3.4.44,1.48.31,2.41-.09.7-.31,1.12-.54,1.12"/>
    <path class="cls-1" d="m135.3,67.57c-.1,0-.2-.08-.3-.25-.15-.27-3.7-6.76-5.4-11.09-.25-.64-.29-1.8-.08-2.59.21-.79.58-.91.83-.26,1.63,4.15,5.21,10.7,5.25,10.77.28.51.38,1.64.21,2.52-.11.59-.31.91-.51.91"/>
    <path class="cls-1" d="m153.39,29c-.06,0-.13-.03-.19-.1-3.36-3.63-9.13-14.39-11.27-22.31-.21-.78-.18-1.94.07-2.59.25-.65.62-.55.83.22,1.96,7.28,7.55,17.75,10.75,21.2.31.33.47,1.38.36,2.34-.08.76-.31,1.24-.56,1.24"/>
    <path class="cls-1" d="m156.07,20.19c-.08,0-.16-.05-.24-.16-.23-.32-5.62-7.94-7.36-13.31-.23-.71-.23-1.88,0-2.6.23-.72.6-.73.83-.02,1.6,4.92,6.97,12.5,7.02,12.58.3.42.43,1.51.3,2.43-.1.68-.31,1.08-.54,1.08"/>
    <path class="cls-1" d="m143.37,138.47c-.12,0-.25-.12-.35-.37-1.72-4.05-5.58-19.13-7.31-29.59-.15-.9-.04-2.01.25-2.48.29-.47.64-.11.79.79,1.75,10.61,5.53,24.95,6.97,28.33.26.61.31,1.76.12,2.58-.12.48-.29.73-.47.73"/>
    <path class="cls-1" d="m149.05,138.47c-.11,0-.21-.09-.31-.28-2.27-4.41-7.28-24.69-8.96-35.12-.15-.91-.03-2.01.26-2.47.29-.46.64-.09.79.82,1.72,10.7,6.58,29.88,8.53,33.64.28.54.36,1.67.19,2.53-.11.56-.3.87-.5.87"/>
    <path class="cls-1" d="m154.73,136.65c-.11,0-.22-.1-.32-.3-2.58-5.28-8.53-24.71-10.99-38.68-.16-.89-.05-2.01.23-2.5.29-.49.64-.17.8.72,2.35,13.29,8.18,32.41,10.61,37.38.27.56.35,1.7.17,2.55-.11.54-.3.83-.49.83"/>
    <path class="cls-1" d="m156.76,124.28c-.1,0-.2-.08-.3-.25-2.17-4-7.59-23.41-9.35-32.58-.17-.87-.08-2,.2-2.52.28-.52.64-.24.81.63,1.81,9.45,7.08,27.87,8.94,31.3.28.52.37,1.64.21,2.52-.11.58-.31.91-.51.91"/>
    <path class="cls-1" d="m137.62,138.47c-.11,0-.22-.1-.32-.3-1.88-3.84-5.17-18.53-6.01-24.88-.12-.94.02-2.02.32-2.41.3-.39.64.05.77.99.83,6.26,4.02,20.04,5.57,23.21.27.56.35,1.7.17,2.55-.11.54-.3.83-.49.83"/>
    <path class="cls-1" d="m156.76,107.55c-.18,0-.36-.27-.48-.77-.17-.75-4.19-18.32-5.15-23.22-.17-.87-.08-2,.2-2.53.28-.53.64-.25.81.62.93,4.79,5.06,22.81,5.1,22.99.19.83.13,1.97-.14,2.57-.1.23-.22.34-.34.34"/>
  </g>
</svg>