<?xml version="1.0" encoding="utf-8"?>
<!-- Generator: Adobe Illustrator 28.3.0, SVG Export Plug-In . SVG Version: 6.00 Build 0)  -->
<svg version="1.1" id="Layer_1" xmlns="http://www.w3.org/2000/svg" xmlns:xlink="http://www.w3.org/1999/xlink" x="0px" y="0px"
	 viewBox="240.48 423.31 228.65 233.38" style="enable-background:new 240.48 423.31 228.65 233.38;" xml:space="preserve">
<style type="text/css">
	.st0{fill:#D3DFD5;}
	.st1{fill:#A8AEBF;}
	.st2{fill:url(#SVGID_1_);}
	.st3{fill:url(#SVGID_00000110448371726533181090000005068529834511741590_);}
	.st4{opacity:0.4;}
	.st5{fill:#838BA4;}
	.st6{fill:url(#SVGID_00000136398150593556309100000005200687995430569639_);}
	.st7{fill:#EB9288;}
	.st8{fill-rule:evenodd;clip-rule:evenodd;fill:#E16253;}
	.st9{fill:#E07C70;}
	.st10{fill:#D2D4DE;}
	.st11{fill:#E6E8ED;}
	.st12{fill:#B0AB83;}
	.st13{fill:url(#SVGID_00000119807432438244398980000017338716875093995709_);}
	.st14{fill:url(#SVGID_00000057843322002531546130000002025874927767215807_);}
	.st15{fill:#C9CDD7;}
	.st16{fill:url(#SVGID_00000107586364501078444200000006211933100058552979_);}
	.st17{fill:url(#SVGID_00000078736774337061851190000003634058509369974178_);}
	.st18{fill:url(#SVGID_00000060715650533670802210000000152274877529044376_);}
	.st19{opacity:0.13;fill:#AC969B;}
	.st20{fill:#F6EEF0;}
	.st21{fill:#FFFFFF;}
	.st22{fill:#BDC1CE;}
	.st23{fill:#EADADE;}
	.st24{fill:#EEB3AC;}
	.st25{fill:url(#SVGID_00000131369070940969958560000001882064724875180209_);}
	.st26{fill:url(#SVGID_00000057865844376546022500000008606981504412205497_);}
	.st27{fill:url(#SVGID_00000046305066326867137340000014750940010871837579_);}
	.st28{fill:url(#SVGID_00000030449181013180908980000002138280543812856238_);}
	.st29{fill:url(#SVGID_00000117662764861900005530000005481087321915703975_);}
	.st30{fill:url(#SVGID_00000125590036276494749020000004010225230983239573_);}
	.st31{fill:#231F20;}
	.st32{fill:#EBAAA2;}
	.st33{fill:#E89A91;}
	.st34{fill:#E28175;}
	.st35{fill:#F3CDC8;}
	.st36{fill:#F9E6E3;}
	.st37{fill:#F9F9FA;}
	.st38{fill:#F5F5F7;}
	.st39{fill:#F3F3F6;}
	.st40{fill:#ECEEF1;}
	.st41{fill:#A0596B;}
	.st42{fill:#AC969B;}
	.st43{fill:#B98491;}
	.st44{fill:url(#SVGID_00000151514529103485092820000015642700529327316148_);}
	.st45{fill:#D4B4BC;}
	.st46{fill:#E3CDD3;}
	.st47{fill:#F1E6E9;}
	.st48{fill:#E4887D;}
	.st49{fill:#EBA8A0;}
	.st50{fill:#F9E4E2;}
	.st51{fill:#FAEAE8;}
	.st52{fill:#FBEEED;}
	.st53{fill:#FCF4F3;}
	.st54{fill:#FEF9F9;}
	.st55{fill:#444E75;}
	.st56{fill:#5C6687;}
	.st57{fill:#717996;}
	.st58{fill:#969CB1;}
	.st59{fill:#F1F1F4;}
	.st60{fill:#A46969;}
	.st61{fill-rule:evenodd;clip-rule:evenodd;fill:#A19B6F;}
	.st62{fill-rule:evenodd;clip-rule:evenodd;fill:url(#SVGID_00000039852723169784258970000003024946845569360020_);}
	.st63{fill:#FCB4AC;}
	.st64{opacity:0.22;}
	.st65{fill:#B57070;}
	.st66{fill:#F7A197;}
	.st67{fill-rule:evenodd;clip-rule:evenodd;fill:url(#SVGID_00000013177920962966575410000011085520384780203425_);}
	.st68{fill:#02384C;}
	.st69{fill-rule:evenodd;clip-rule:evenodd;fill:#B0AB83;}
	.st70{fill:#948F6A;}
	.st71{fill:url(#SVGID_00000066501411325299039080000002077786257247652764_);}
	.st72{fill:#F0A39A;}
	.st73{fill:url(#SVGID_00000083795686943316486420000004422039243944405173_);}
	.st74{fill:url(#SVGID_00000037652913236033404050000001718998227104761998_);}
	.st75{fill:#FDDAC6;}
	.st76{opacity:0.41;}
	.st77{fill:url(#SVGID_00000067924060994887906140000004351591571930073250_);}
	.st78{fill:url(#SVGID_00000156573592671723013530000009207787760179025070_);}
	.st79{fill:url(#SVGID_00000181063927859958620950000017051814419545703081_);}
	.st80{fill:url(#SVGID_00000170245397276467005900000006721393665852938683_);}
	.st81{fill:url(#SVGID_00000004511384673587686120000001305726685131242639_);}
	.st82{fill:url(#SVGID_00000047748035107615019010000013214230439113002420_);}
	.st83{fill:url(#SVGID_00000160894622264689412670000015228998733424958109_);}
	.st84{fill:url(#SVGID_00000134223802343019097870000011229686461523289991_);}
	.st85{fill:url(#SVGID_00000129169078602305160260000014963659877794665612_);}
	.st86{fill-rule:evenodd;clip-rule:evenodd;fill:#C396A2;}
	.st87{fill-rule:evenodd;clip-rule:evenodd;fill:#B67F8D;}
	.st88{fill:url(#SVGID_00000163776486616861499340000017745873098954615485_);}
	.st89{fill:url(#SVGID_00000163035838189862005850000005333763673824287629_);}
	.st90{fill:#7D859F;}
	.st91{opacity:0.25;fill:#AC969B;}
	.st92{fill:url(#SVGID_00000092417515352680834480000018090793635134945939_);}
	.st93{fill:url(#SVGID_00000149377072460055789570000015084931980114887599_);}
	.st94{fill:#BD8B97;}
	.st95{fill:url(#SVGID_00000028285028845099238550000005899710047332605056_);}
	.st96{fill:url(#SVGID_00000008118692709544110360000001996392111618371996_);}
	.st97{fill:url(#SVGID_00000152225901343369142650000002433974507898143406_);}
	.st98{fill:#858DA5;}
	.st99{fill:#F6D6D3;}
	.st100{fill:url(#SVGID_00000155854545980571570650000015791215314628612543_);}
	
		.st101{opacity:0.33;clip-path:url(#SVGID_00000018942112924196333220000012216742067579146651_);fill:url(#SVGID_00000076603524330024699530000004994766233497297849_);}
	
		.st102{opacity:0.33;clip-path:url(#SVGID_00000171677260590839085650000009809236250288403083_);fill:url(#SVGID_00000183933703038972727060000013461631752914403244_);}
	
		.st103{opacity:0.33;clip-path:url(#SVGID_00000085218707769141158570000011982195821827856569_);fill:url(#SVGID_00000155139697308444182190000012653767235059610286_);}
	.st104{fill:url(#SVGID_00000109015760066837695680000011315758687687182989_);}
	.st105{clip-path:url(#SVGID_00000000908756534395189500000016442958983961090955_);}
	.st106{opacity:0.31;fill:#F5EDEF;}
	.st107{fill:url(#SVGID_00000035515079252110976370000017313641802924342952_);}
	.st108{fill:#35416A;}
	.st109{fill:#697190;}
	.st110{fill:#9AA0B5;}
	.st111{fill:#CCCFD9;}
	.st112{clip-path:url(#SVGID_00000034074052439444875230000012837697623943938238_);fill:#D2D4DE;}
	.st113{opacity:0.08;fill:#AC969B;}
	.st114{fill:#BFA3AA;}
	.st115{fill:#DEC5CC;}
	.st116{fill:#EBDCE0;}
	.st117{clip-path:url(#SVGID_00000057126020330449092000000015598540618848650905_);fill:#8A5F5A;}
	.st118{clip-path:url(#SVGID_00000057126020330449092000000015598540618848650905_);}
	.st119{fill:#B0AB7F;}
	.st120{fill:#969166;}
	.st121{clip-path:url(#SVGID_00000057126020330449092000000015598540618848650905_);fill:#B0AB7F;}
	.st122{clip-path:url(#SVGID_00000057126020330449092000000015598540618848650905_);fill:#969166;}
	.st123{opacity:0.72;clip-path:url(#SVGID_00000080166828227719774430000015095105231976200099_);}
	.st124{fill:#D98C66;}
	.st125{fill:#EFAD8D;}
	.st126{opacity:0.72;clip-path:url(#SVGID_00000025440414577946864380000003654468918286094997_);}
	.st127{clip-path:url(#SVGID_00000137115447148912695790000016699191836123167367_);fill:#8A5F5A;}
	.st128{clip-path:url(#SVGID_00000137115447148912695790000016699191836123167367_);fill:#B0AB7F;}
	.st129{clip-path:url(#SVGID_00000137115447148912695790000016699191836123167367_);fill:#969166;}
	.st130{opacity:0.72;clip-path:url(#SVGID_00000121976183676709849760000007343253843529835673_);}
	.st131{clip-path:url(#SVGID_00000021111954649705869490000006937038278265960832_);fill:#8A5F5A;}
	.st132{clip-path:url(#SVGID_00000021111954649705869490000006937038278265960832_);fill:#B0AB7F;}
	.st133{clip-path:url(#SVGID_00000021111954649705869490000006937038278265960832_);fill:#969166;}
	.st134{fill:url(#SVGID_00000054256940515554806660000012166984912589122747_);}
	.st135{fill:#FAABA2;}
	.st136{fill-rule:evenodd;clip-rule:evenodd;fill:#BD8B97;}
	.st137{opacity:0.12;fill:#AC969B;}
	.st138{fill:url(#SVGID_00000158717759387080483320000005764639349246497955_);}
	.st139{fill:#F5D5D1;}
	.st140{fill:url(#SVGID_00000124844388898083268440000012256195967084228507_);}
	.st141{fill:#E79A71;}
	.st142{fill:#F5B593;}
	
		.st143{opacity:0.39;clip-path:url(#SVGID_00000057835537755669064440000009702156975619324093_);fill:url(#SVGID_00000038394135073027123300000010302446523311025837_);}
	.st144{fill:url(#SVGID_00000062871656072126673800000008265534373963136947_);}
	.st145{fill:url(#SVGID_00000070113616757820905900000015340741601318926771_);}
	.st146{fill:#F6C8C2;}
	.st147{fill-rule:evenodd;clip-rule:evenodd;fill:#D3DFD5;}
	.st148{fill:url(#SVGID_00000080893875624647011090000005510769473454842023_);}
	.st149{opacity:0.46;}
	.st150{opacity:0.25;clip-path:url(#SVGID_00000157303941957338346410000010199761081274290853_);}
	.st151{fill:url(#SVGID_00000108281656014538073230000000840402096055288497_);}
	
		.st152{clip-path:url(#SVGID_00000010285988281537632160000000007343626008483235_);fill:url(#SVGID_00000006699827515748647160000012534983123752261802_);}
	.st153{fill:#492B23;}
	.st154{fill:#BC8779;}
	.st155{fill:#AA7065;}
	.st156{fill:#331B18;}
	.st157{fill:#9E5F5F;}
	.st158{fill:#C93F3F;}
	.st159{fill:#D84C4C;}
	.st160{fill:#B2C1B4;}
	.st161{fill:#844B45;}
	.st162{fill:#A86B65;}
	.st163{fill:#6B443E;}
	.st164{fill:#FFC255;}
	.st165{fill:#353D3B;}
	.st166{fill:url(#SVGID_00000093149560094461889150000008443611533434827185_);}
	.st167{fill:url(#SVGID_00000148630925801633928860000003240593712880035519_);}
	.st168{fill:url(#SVGID_00000102542107463964744590000002676122693754138249_);}
	.st169{fill:url(#SVGID_00000098900668034652030380000004425994748956602771_);}
	.st170{fill:url(#SVGID_00000148659406289034565350000004953635063670995331_);}
	.st171{fill:url(#SVGID_00000037667195504794999550000007926312966392013742_);}
	
		.st172{opacity:0.33;clip-path:url(#SVGID_00000073707694516105571940000008616074594324730297_);fill:url(#SVGID_00000170262844509528481350000016596823772243335082_);}
	
		.st173{opacity:0.33;clip-path:url(#SVGID_00000158737568384151741290000002324343678646831530_);fill:url(#SVGID_00000076562854420400044220000018332176714809412282_);}
	
		.st174{opacity:0.33;clip-path:url(#SVGID_00000106855550824137319120000010780662906234403234_);fill:url(#SVGID_00000030446560870281648840000016233734803170604683_);}
	.st175{fill:url(#SVGID_00000116929507898682829280000008483346096179820956_);}
	.st176{clip-path:url(#SVGID_00000032622308034588601810000014246483364494154661_);}
	.st177{fill:url(#SVGID_00000038383637978849870810000005581997814527378333_);}
	.st178{clip-path:url(#SVGID_00000139288666781150468000000006767471820023533952_);fill:#D2D4DE;}
	.st179{clip-path:url(#SVGID_00000075871331556089453680000015538916717024184984_);fill:#8A5F5A;}
	.st180{clip-path:url(#SVGID_00000075871331556089453680000015538916717024184984_);}
	.st181{clip-path:url(#SVGID_00000075871331556089453680000015538916717024184984_);fill:#B0AB7F;}
	.st182{clip-path:url(#SVGID_00000075871331556089453680000015538916717024184984_);fill:#969166;}
	.st183{opacity:0.72;clip-path:url(#SVGID_00000059286773333959558390000001922742794587629474_);}
	.st184{opacity:0.72;clip-path:url(#SVGID_00000171720360844790849790000000329593319282493873_);}
	.st185{clip-path:url(#SVGID_00000106144796452310201310000002273442037366421132_);fill:#8A5F5A;}
	.st186{clip-path:url(#SVGID_00000106144796452310201310000002273442037366421132_);fill:#B0AB7F;}
	.st187{clip-path:url(#SVGID_00000106144796452310201310000002273442037366421132_);fill:#969166;}
	.st188{opacity:0.72;clip-path:url(#SVGID_00000176743840848835139180000004647966593741230997_);}
	.st189{clip-path:url(#SVGID_00000085225902084897786830000003149650042493377417_);fill:#8A5F5A;}
	.st190{clip-path:url(#SVGID_00000085225902084897786830000003149650042493377417_);fill:#B0AB7F;}
	.st191{clip-path:url(#SVGID_00000085225902084897786830000003149650042493377417_);fill:#969166;}
	.st192{fill:url(#SVGID_00000083048338244065283450000017070110292503871646_);}
	.st193{fill:url(#SVGID_00000104701399055683191630000010092266426780151982_);}
	.st194{fill:url(#SVGID_00000052090229441728480620000004045163431141538956_);}
	
		.st195{opacity:0.39;clip-path:url(#SVGID_00000168809872187561279320000013781819441094182826_);fill:url(#SVGID_00000142136994137790943960000002740679977917471662_);}
	.st196{fill:url(#SVGID_00000124160662084721274210000008860487507078744485_);}
	.st197{fill:url(#SVGID_00000077312895351970623180000010142969555766690967_);}
	.st198{fill:url(#SVGID_00000172418764064411022790000000832903881685650100_);}
	.st199{opacity:0.25;clip-path:url(#SVGID_00000047782872577546919240000015496584931013292942_);}
	.st200{fill:url(#SVGID_00000049197828129377227130000004926672533194205339_);}
	
		.st201{clip-path:url(#SVGID_00000101806322243537920290000016254553068292553887_);fill:url(#SVGID_00000085933493814648084420000002215028124468650423_);}
	.st202{fill:url(#SVGID_00000040539128464655793030000009139696943055537806_);}
	.st203{fill:url(#SVGID_00000139982985029589271990000009815768873664384913_);}
	.st204{fill:url(#SVGID_00000024682784246675261190000011159487169889055411_);}
	.st205{fill:url(#SVGID_00000015347458568839086740000011281737275267703981_);}
	.st206{fill:url(#SVGID_00000001632844714823094000000016714593611776959872_);}
	.st207{fill:url(#SVGID_00000055708759523864746100000017798296665351504817_);}
	.st208{fill:url(#SVGID_00000021111497818686595040000004729248243990308777_);}
	.st209{fill:url(#SVGID_00000179618447706009469520000003700337607780550292_);}
	.st210{fill:url(#SVGID_00000026876947716342294220000007501414546854071429_);}
	.st211{fill:url(#SVGID_00000115479199540398082000000013463086339188232612_);}
	.st212{fill:url(#SVGID_00000151503134646008224810000003424001312907473032_);}
	.st213{fill:url(#SVGID_00000163775468198058317830000003954380473118345919_);}
	.st214{fill:url(#SVGID_00000077300428957630536620000014896781390118291365_);}
	.st215{fill:url(#SVGID_00000176001634926799676720000010919843441353028799_);}
	.st216{fill:url(#SVGID_00000132776459917886562170000018170899180170201498_);}
	.st217{fill:url(#SVGID_00000121993602881323398560000010600985628631422344_);}
	.st218{fill:url(#SVGID_00000130626069258980887450000001039217406884587668_);}
	.st219{fill:url(#SVGID_00000067917453000281755590000015807451467282721436_);}
	.st220{fill:url(#SVGID_00000052796626312009026790000008415221503241997464_);}
	.st221{fill:url(#SVGID_00000093134834965060930080000015400277993583373479_);}
	.st222{fill:url(#SVGID_00000091014999610280925030000012259834798462495415_);}
	.st223{fill:url(#SVGID_00000057870929742936939040000012920479185843174546_);}
	.st224{fill:url(#SVGID_00000119100003427969971930000014152182988306034345_);}
	.st225{fill:url(#SVGID_00000116918284369913506670000001800833741621719176_);}
	.st226{fill:url(#SVGID_00000170277720946445020690000004786646043793414794_);}
	.st227{fill:url(#SVGID_00000135688388059792005890000012177806399781253564_);}
	.st228{fill:url(#SVGID_00000031886688584930033260000005103210904244638344_);}
	.st229{fill:url(#SVGID_00000183232620764855107750000013142214155112338066_);}
	.st230{fill:url(#SVGID_00000067236327472104021180000004778147122398893457_);}
	.st231{fill-rule:evenodd;clip-rule:evenodd;fill:url(#SVGID_00000170985274209230219850000017637240720096229775_);}
	.st232{fill-rule:evenodd;clip-rule:evenodd;fill:url(#SVGID_00000083792184317755465640000003704310848263636102_);}
</style>
<g>
	<g>
		<polygon class="st20" points="255.85,580.48 258.67,582.1 318.37,547.66 315.55,546.03 		"/>
		<polygon class="st21" points="295.39,474.15 298.21,475.77 318.37,547.67 315.55,546.05 		"/>
		<polygon class="st22" points="258.67,582.09 258.67,588.95 325.15,550.62 303.43,473.14 298.21,475.77 318.37,547.67 		"/>
		<polygon class="st21" points="313.9,525.83 431.23,593.57 424.9,570.81 307.57,503.07 		"/>
		<polygon class="st20" points="307.57,503.07 421.81,569.06 424.21,567.68 309.96,501.69 		"/>
		<polygon class="st21" points="258.67,588.95 255.85,587.33 255.85,580.48 258.67,582.1 		"/>
		<polygon class="st21" points="375.99,656.69 373.18,655.06 373.18,648.21 375.99,649.84 		"/>
		<polygon class="st5" points="403.39,633.65 288.54,567.68 288.54,564.82 403.39,630.79 		"/>
		<polygon class="st20" points="373.18,648.21 375.99,649.83 435.7,615.41 432.88,613.79 		"/>
		<polygon class="st21" points="412.72,541.89 415.54,543.51 435.7,615.41 432.88,613.79 		"/>
		<polygon class="st22" points="375.99,649.83 375.99,656.69 442.48,618.35 420.76,540.88 415.54,543.51 435.7,615.41 		"/>
		<polygon class="st1" points="406.3,632.46 285.73,563.22 290.9,560.23 411.47,629.48 		"/>
		<polygon class="st23" points="423.39,622.79 431.49,600.36 430.41,596.34 420.21,624.37 		"/>
		<polygon class="st20" points="420.21,624.37 430.41,596.34 427.68,594.77 417.48,622.79 		"/>
		<polygon class="st23" points="305.79,555.11 313.89,532.68 312.81,528.66 302.61,556.69 		"/>
		<polygon class="st20" points="302.61,556.69 312.81,528.66 310.08,527.09 299.88,555.11 		"/>
		<polygon class="st20" points="377.14,581.31 240.48,502.41 332.47,423.31 469.13,502.21 		"/>
		<g>
			<polygon class="st1" points="377.14,582.83 240.48,503.93 240.48,502.41 377.14,581.31 			"/>
			<polygon class="st1" points="433.11,487.4 361.91,446.29 366.08,442.72 437.28,483.82 			"/>
			<polygon class="st22" points="377.14,582.83 469.13,503.74 469.13,502.21 377.14,581.31 			"/>
		</g>
		<polygon class="st5" points="435.08,484.01 364.11,442.72 361.91,446.29 433.11,487.4 		"/>
		<polygon class="st1" points="364.11,442.72 366.08,442.72 437.28,483.82 435.08,484.01 		"/>
		<polygon class="st5" points="240.48,502.41 377.14,581.31 380.23,578.65 243.22,500.05 		"/>
	</g>
	<g>
		<polygon class="st21" points="296.41,480.17 334.05,447.56 367.2,466.56 329.55,499.17 		"/>
		<polygon class="st21" points="331.8,501.08 369.45,468.47 402.59,487.48 364.95,520.08 		"/>
		<polygon class="st24" points="351.67,487.75 369.98,471.9 386.09,481.14 367.79,497 		"/>
		
			<linearGradient id="SVGID_1_" gradientUnits="userSpaceOnUse" x1="872.7989" y1="503.0724" x2="907.2197" y2="503.0724" gradientTransform="matrix(1 0 0 1 -485.1043 0)">
			<stop  offset="0" style="stop-color:#858163"/>
			<stop  offset="0.5" style="stop-color:#858163"/>
			<stop  offset="1" style="stop-color:#858163"/>
		</linearGradient>
		<polygon class="st2" points="387.69,506.38 406,490.52 422.12,499.77 403.81,515.62 		"/>
		
			<linearGradient id="SVGID_00000093883107589040467880000015221014212438640535_" gradientUnits="userSpaceOnUse" x1="857.1833" y1="521.1555" x2="893.149" y2="521.1555" gradientTransform="matrix(1 0 0 1 -485.1043 0)">
			<stop  offset="0" style="stop-color:#858163"/>
			<stop  offset="0.5" style="stop-color:#858163"/>
			<stop  offset="1" style="stop-color:#858163"/>
		</linearGradient>
		<polygon style="fill:url(#SVGID_00000093883107589040467880000015221014212438640535_);" points="372.08,520.08 384.96,508.98 
			408.04,522.23 395.17,533.33 		"/>
		
			<linearGradient id="SVGID_00000021076901097561779580000016258435313910150827_" gradientUnits="userSpaceOnUse" x1="-3980.2488" y1="-6558.7383" x2="-3980.2488" y2="-6581.9043" gradientTransform="matrix(-0.603 0.4486 -0.8466 -0.3868 -7620.2085 -287.766)">
			<stop  offset="0" style="stop-color:#FFFFFF"/>
			<stop  offset="1" style="stop-color:#E28175"/>
		</linearGradient>
		<polygon style="fill:url(#SVGID_00000021076901097561779580000016258435313910150827_);" points="331.58,464.79 335.54,461.36 
			353.08,471.42 349.12,474.85 		"/>
		
			<linearGradient id="SVGID_00000034064903598990571000000007523573655457577873_" gradientUnits="userSpaceOnUse" x1="-3989.426" y1="-6558.2466" x2="-3989.426" y2="-6581.4126" gradientTransform="matrix(-0.603 0.4486 -0.8466 -0.3868 -7620.2085 -287.766)">
			<stop  offset="0" style="stop-color:#FFFFFF"/>
			<stop  offset="1" style="stop-color:#616B3E"/>
		</linearGradient>
		<polygon style="fill:url(#SVGID_00000034064903598990571000000007523573655457577873_);" points="336.7,460.48 340.66,457.05 
			358.2,467.11 354.24,470.54 		"/>
		
			<linearGradient id="SVGID_00000158715780914294465210000011174703355090237334_" gradientUnits="userSpaceOnUse" x1="-3971.0383" y1="-6559.0674" x2="-3971.0383" y2="-6582.644" gradientTransform="matrix(-0.603 0.4486 -0.8466 -0.3868 -7620.2085 -287.766)">
			<stop  offset="0" style="stop-color:#FFFFFF"/>
			<stop  offset="0.3192" style="stop-color:#EFE3E6"/>
			<stop  offset="1" style="stop-color:#C69BA6"/>
		</linearGradient>
		<polygon style="fill:url(#SVGID_00000158715780914294465210000011174703355090237334_);" points="326.54,469.16 330.5,465.72 
			348.04,475.78 344.08,479.21 		"/>
		
			<linearGradient id="SVGID_00000124858927770198199980000000849075245980066965_" gradientUnits="userSpaceOnUse" x1="-3961.8276" y1="-6559.6733" x2="-3961.8276" y2="-6584.0151" gradientTransform="matrix(-0.603 0.4486 -0.8466 -0.3868 -7620.2085 -287.766)">
			<stop  offset="0" style="stop-color:#FFFFFF"/>
			<stop  offset="0.9214" style="stop-color:#FAE5E3"/>
			<stop  offset="1" style="stop-color:#F9E3E0"/>
		</linearGradient>
		<polygon style="fill:url(#SVGID_00000124858927770198199980000000849075245980066965_);" points="321.5,473.52 325.46,470.09 
			343,480.15 339.04,483.58 		"/>
		<g>
			<polygon class="st31" points="323.69,488.77 325.34,489.71 324.12,490.77 322.47,489.82 			"/>
			<polygon class="st32" points="322.03,487.82 323.69,488.77 322.47,489.82 320.82,488.87 			"/>
			<polygon class="st33" points="320.38,486.87 322.03,487.82 320.82,488.87 319.17,487.92 			"/>
			<polygon class="st34" points="318.73,485.92 320.38,486.87 319.17,487.92 317.51,486.98 			"/>
			<polygon class="st33" points="317.08,484.98 318.73,485.92 317.51,486.98 315.86,486.03 			"/>
			<polygon class="st24" points="315.43,484.03 317.08,484.98 315.86,486.03 314.21,485.08 			"/>
			<polygon class="st35" points="313.77,483.08 315.43,484.03 314.21,485.08 312.56,484.13 			"/>
			<polygon class="st36" points="312.12,482.13 313.77,483.08 312.56,484.13 310.91,483.19 			"/>
			<polygon class="st37" points="313.34,481.08 314.99,482.03 313.77,483.08 312.12,482.13 			"/>
			<polygon class="st38" points="314.99,482.03 316.64,482.98 315.43,484.03 313.77,483.08 			"/>
			<polygon class="st39" points="316.64,482.98 318.29,483.92 317.08,484.98 315.43,484.03 			"/>
			<polygon class="st39" points="318.29,483.92 319.95,484.87 318.73,485.92 317.08,484.98 			"/>
			<polygon class="st40" points="319.95,484.87 321.6,485.82 320.38,486.87 318.73,485.92 			"/>
		</g>
		<g>
			<polygon class="st31" points="327.33,485.61 328.98,486.55 327.77,487.61 326.12,486.66 			"/>
			<polygon class="st41" points="325.68,484.66 327.33,485.61 326.12,486.66 324.47,485.71 			"/>
			<polygon class="st42" points="324.03,483.71 325.68,484.66 324.47,485.71 322.81,484.76 			"/>
			<polygon class="st43" points="322.38,482.76 324.03,483.71 322.81,484.76 321.16,483.82 			"/>
			
				<linearGradient id="SVGID_00000083793293397306599690000016322602583364250046_" gradientUnits="userSpaceOnUse" x1="804.6141" y1="482.8172" x2="807.4816" y2="482.8172" gradientTransform="matrix(1 0 0 1 -485.1043 0)">
				<stop  offset="0" style="stop-color:#B17786"/>
				<stop  offset="0.5" style="stop-color:#B17786"/>
				<stop  offset="1" style="stop-color:#B17786"/>
			</linearGradient>
			<polygon style="fill:url(#SVGID_00000083793293397306599690000016322602583364250046_);" points="320.73,481.82 322.38,482.76 
				321.16,483.82 319.51,482.87 			"/>
			<polygon class="st45" points="319.07,480.87 320.73,481.82 319.51,482.87 317.86,481.92 			"/>
			<polygon class="st46" points="317.42,479.92 319.07,480.87 317.86,481.92 316.21,480.98 			"/>
			<polygon class="st47" points="315.77,478.98 317.42,479.92 316.21,480.98 314.55,480.03 			"/>
			<polygon class="st37" points="316.99,477.92 318.64,478.87 317.42,479.92 315.77,478.98 			"/>
			<polygon class="st38" points="318.64,478.87 320.29,479.82 319.07,480.87 317.42,479.92 			"/>
			<polygon class="st39" points="320.29,479.82 321.94,480.76 320.73,481.82 319.07,480.87 			"/>
			<polygon class="st39" points="321.94,480.76 323.59,481.71 322.38,482.76 320.73,481.82 			"/>
			<polygon class="st40" points="323.59,481.71 325.24,482.66 324.03,483.71 322.38,482.76 			"/>
		</g>
		<g>
			<polygon class="st31" points="330.98,482.45 332.63,483.39 331.42,484.45 329.76,483.5 			"/>
			<polygon class="st48" points="329.33,481.5 330.98,482.45 329.76,483.5 328.11,482.55 			"/>
			<polygon class="st49" points="327.68,480.55 329.33,481.5 328.11,482.55 326.46,481.61 			"/>
			<polygon class="st50" points="326.02,479.61 327.68,480.55 326.46,481.61 324.81,480.66 			"/>
			<polygon class="st51" points="324.37,478.66 326.02,479.61 324.81,480.66 323.16,479.71 			"/>
			<polygon class="st52" points="322.72,477.71 324.37,478.66 323.16,479.71 321.5,478.76 			"/>
			<polygon class="st53" points="321.07,476.76 322.72,477.71 321.5,478.76 319.85,477.82 			"/>
			<polygon class="st54" points="319.42,475.82 321.07,476.76 319.85,477.82 318.2,476.87 			"/>
			<polygon class="st37" points="320.63,474.76 322.28,475.71 321.07,476.76 319.42,475.82 			"/>
			<polygon class="st38" points="322.28,475.71 323.94,476.66 322.72,477.71 321.07,476.76 			"/>
			<polygon class="st39" points="323.94,476.66 325.59,477.61 324.37,478.66 322.72,477.71 			"/>
			<polygon class="st39" points="325.59,477.61 327.24,478.55 326.02,479.61 324.37,478.66 			"/>
			<polygon class="st40" points="327.24,478.55 328.89,479.5 327.68,480.55 326.02,479.61 			"/>
		</g>
		<g>
			<polygon class="st31" points="317.51,469.79 319.16,468.36 321.85,469.9 320.2,471.33 			"/>
			<polygon class="st55" points="319.16,468.36 320.81,466.93 323.5,468.47 321.85,469.9 			"/>
			<polygon class="st56" points="320.81,466.93 322.46,465.5 325.15,467.04 323.5,468.47 			"/>
			<polygon class="st57" points="322.46,465.5 324.11,464.07 326.8,465.61 325.15,467.04 			"/>
			<polygon class="st5" points="324.11,464.07 325.76,462.64 328.45,464.18 326.8,465.61 			"/>
			<polygon class="st58" points="325.76,462.64 327.41,461.21 330.1,462.75 328.45,464.18 			"/>
			<polygon class="st1" points="327.41,461.21 329.06,459.78 331.75,461.32 330.1,462.75 			"/>
			<polygon class="st22" points="329.06,459.78 330.71,458.35 333.4,459.89 331.75,461.32 			"/>
			<polygon class="st10" points="330.71,458.35 332.36,456.92 335.05,458.46 333.4,459.89 			"/>
			<polygon class="st11" points="332.36,456.92 334.01,455.49 336.7,457.03 335.05,458.46 			"/>
			<polygon class="st59" points="334.01,455.49 335.66,454.06 338.35,455.6 336.7,457.03 			"/>
		</g>
		<g>
			<path class="st31" d="M310.05,476.55c0.46-0.4,1.34-0.43,1.97-0.07c0.62,0.36,0.76,0.97,0.3,1.37c-0.46,0.4-1.34,0.43-1.97,0.07
				C309.72,477.57,309.59,476.95,310.05,476.55z M312.14,477.75c0.39-0.34,0.28-0.86-0.25-1.16c-0.53-0.3-1.28-0.28-1.67,0.06
				c-0.39,0.34-0.28,0.86,0.25,1.16C311,478.12,311.75,478.09,312.14,477.75z"/>
		</g>
		<g>
			<polygon class="st31" points="309.49,476.32 309.61,476.21 312.87,478.08 312.75,478.19 			"/>
		</g>
		<g>
			<polygon class="st31" points="309.89,478.19 312.29,476.11 312.47,476.21 310.07,478.29 			"/>
		</g>
		<g>
			<polygon class="st31" points="310.77,475.81 310.98,475.8 311.59,478.6 311.38,478.6 			"/>
		</g>
		<g>
			<path class="st31" d="M308.09,479.03c0.24-0.21,0.7-0.22,1.03-0.04c0.33,0.19,0.4,0.51,0.16,0.72c-0.24,0.21-0.7,0.22-1.03,0.04
				C307.92,479.56,307.85,479.24,308.09,479.03z M309.19,479.66c0.21-0.18,0.15-0.45-0.13-0.61c-0.28-0.16-0.67-0.15-0.88,0.03
				c-0.21,0.18-0.15,0.45,0.13,0.61C308.59,479.85,308.98,479.84,309.19,479.66z"/>
		</g>
		<g>
			<polygon class="st31" points="307.8,478.91 307.86,478.85 309.57,479.83 309.5,479.89 			"/>
		</g>
		<g>
			<polygon class="st31" points="308.01,479.89 309.27,478.8 309.35,478.85 308.09,479.94 			"/>
		</g>
		<g>
			<path class="st31" d="M313.77,473.36c0.45-0.39,1.32-0.42,1.93-0.07c0.61,0.35,0.74,0.95,0.29,1.35
				c-0.45,0.39-1.32,0.42-1.93,0.07C313.45,474.36,313.32,473.75,313.77,473.36z M315.86,474.56c0.4-0.35,0.28-0.88-0.26-1.19
				c-0.54-0.31-1.31-0.28-1.71,0.06c-0.4,0.35-0.28,0.88,0.26,1.19C314.7,474.94,315.46,474.91,315.86,474.56z"/>
		</g>
		<g>
			<polygon class="st31" points="312.51,472.73 312.64,472.62 317.25,475.27 317.12,475.38 			"/>
		</g>
		<g>
			<polygon class="st31" points="313.06,475.45 316.52,472.45 316.69,472.55 313.24,475.55 			"/>
		</g>
		<g>
			<path class="st31" d="M313.16,473.01c0.7-0.6,2.03-0.65,2.98-0.11c0.95,0.54,1.15,1.47,0.45,2.08c-0.7,0.6-2.03,0.65-2.98,0.11
				C312.67,474.55,312.47,473.62,313.16,473.01z M316.42,474.88c0.63-0.54,0.44-1.38-0.41-1.87c-0.85-0.49-2.05-0.44-2.68,0.1
				c-0.63,0.54-0.44,1.38,0.41,1.87C314.59,475.47,315.8,475.43,316.42,474.88z"/>
		</g>
	</g>
</g>
</svg>
