<?xml version="1.0" encoding="utf-8"?>
<!-- Generator: Adobe Illustrator 28.3.0, SVG Export Plug-In . SVG Version: 6.00 Build 0)  -->
<svg version="1.1" id="Layer_1" xmlns="http://www.w3.org/2000/svg" xmlns:xlink="http://www.w3.org/1999/xlink" x="0px" y="0px"
	 viewBox="225.12 383.59 262.05 254.75" style="enable-background:new 225.12 383.59 262.05 254.75;" xml:space="preserve">
<style type="text/css">
	.st0{fill:#D3DFD5;}
	.st1{fill:#A8AEBF;}
	.st2{fill:url(#SVGID_1_);}
	.st3{fill:url(#SVGID_00000049910210082240409350000011298768431674115738_);}
	.st4{opacity:0.4;}
	.st5{fill:#838BA4;}
	.st6{fill:url(#SVGID_00000096030162913692475090000009903748491856027268_);}
	.st7{fill:#EB9288;}
	.st8{fill-rule:evenodd;clip-rule:evenodd;fill:#E16253;}
	.st9{fill:#E07C70;}
	.st10{fill:#D2D4DE;}
	.st11{fill:#E6E8ED;}
	.st12{fill:#B0AB83;}
	.st13{fill:url(#SVGID_00000154422222456577461080000016184461438580738459_);}
	.st14{fill:url(#SVGID_00000151525549394390710190000002186991053188421298_);}
	.st15{fill:#C9CDD7;}
	.st16{fill:url(#SVGID_00000038387657787667246620000009655127040799713205_);}
	.st17{fill:url(#SVGID_00000076592566273913578550000006877763947081687693_);}
	.st18{fill:url(#SVGID_00000118375023036571991530000002456548134422053764_);}
	.st19{opacity:0.13;fill:#AC969B;}
	.st20{fill:#F6EEF0;}
	.st21{fill:#FFFFFF;}
	.st22{fill:#BDC1CE;}
	.st23{fill:#EADADE;}
	.st24{fill:#EEB3AC;}
	.st25{fill:url(#SVGID_00000024704065301990258890000011701345530976503937_);}
	.st26{fill:url(#SVGID_00000041272652306938660540000005088627961811120033_);}
	.st27{fill:url(#SVGID_00000138548600655571304790000017916790345696788903_);}
	.st28{fill:url(#SVGID_00000061436700705772111230000009793646103901641600_);}
	.st29{fill:url(#SVGID_00000181794338324145519370000003994257570676593074_);}
	.st30{fill:url(#SVGID_00000181084841600624595570000006311631904819631750_);}
	.st31{fill:#231F20;}
	.st32{fill:#EBAAA2;}
	.st33{fill:#E89A91;}
	.st34{fill:#E28175;}
	.st35{fill:#F3CDC8;}
	.st36{fill:#F9E6E3;}
	.st37{fill:#F9F9FA;}
	.st38{fill:#F5F5F7;}
	.st39{fill:#F3F3F6;}
	.st40{fill:#ECEEF1;}
	.st41{fill:#A0596B;}
	.st42{fill:#AC969B;}
	.st43{fill:#B98491;}
	.st44{fill:url(#SVGID_00000129904659337334070730000016351839011303629442_);}
	.st45{fill:#D4B4BC;}
	.st46{fill:#E3CDD3;}
	.st47{fill:#F1E6E9;}
	.st48{fill:#E4887D;}
	.st49{fill:#EBA8A0;}
	.st50{fill:#F9E4E2;}
	.st51{fill:#FAEAE8;}
	.st52{fill:#FBEEED;}
	.st53{fill:#FCF4F3;}
	.st54{fill:#FEF9F9;}
	.st55{fill:#444E75;}
	.st56{fill:#5C6687;}
	.st57{fill:#717996;}
	.st58{fill:#969CB1;}
	.st59{fill:#F1F1F4;}
	.st60{fill:#A46969;}
	.st61{fill-rule:evenodd;clip-rule:evenodd;fill:#A19B6F;}
	.st62{fill-rule:evenodd;clip-rule:evenodd;fill:url(#SVGID_00000001661517730748692120000014437892469969075604_);}
	.st63{fill:#FCB4AC;}
	.st64{opacity:0.22;}
	.st65{fill:#B57070;}
	.st66{fill:#F7A197;}
	.st67{fill-rule:evenodd;clip-rule:evenodd;fill:url(#SVGID_00000150101229228729912520000012861332654165252254_);}
	.st68{fill:#02384C;}
	.st69{fill-rule:evenodd;clip-rule:evenodd;fill:#B0AB83;}
	.st70{fill:#948F6A;}
	.st71{fill:url(#SVGID_00000029036866781421372020000010509776877801406116_);}
	.st72{fill:#F0A39A;}
	.st73{fill:url(#SVGID_00000069391640429584585440000007860568030680434853_);}
	.st74{fill:url(#SVGID_00000095312370475390040990000009138604192137659326_);}
	.st75{fill:#FDDAC6;}
	.st76{opacity:0.41;}
	.st77{fill:url(#SVGID_00000078026509209948457560000004361480937007669165_);}
	.st78{fill:url(#SVGID_00000077291174396834009190000012742205700483511438_);}
	.st79{fill:url(#SVGID_00000068663687881394239960000012406644882712529824_);}
	.st80{fill:url(#SVGID_00000076571485081993036710000003678028185965954480_);}
	.st81{fill:url(#SVGID_00000103947002045979521520000010834080390641780361_);}
	.st82{fill:url(#SVGID_00000163757701802802740260000016590843789148821132_);}
	.st83{fill:url(#SVGID_00000159444137981137496910000017899175802581564550_);}
	.st84{fill:url(#SVGID_00000088093235440863730890000015781077732540754101_);}
	.st85{fill:url(#SVGID_00000007387990604115461250000017030530912878727052_);}
	.st86{fill-rule:evenodd;clip-rule:evenodd;fill:#C396A2;}
	.st87{fill-rule:evenodd;clip-rule:evenodd;fill:#B67F8D;}
	.st88{fill:url(#SVGID_00000180350453172864470990000015062389076330521993_);}
	.st89{fill:url(#SVGID_00000159461972779043973240000010589879684634794942_);}
	.st90{fill:#7D859F;}
	.st91{opacity:0.25;fill:#AC969B;}
	.st92{fill:url(#SVGID_00000109005812855195488830000000979043195850880655_);}
	.st93{fill:url(#SVGID_00000182502121344235826490000003190451421656736399_);}
	.st94{fill:#BD8B97;}
	.st95{fill:url(#SVGID_00000091017733317820690730000007643808164813013930_);}
	.st96{fill:url(#SVGID_00000128483966977659526940000011857991854547344516_);}
	.st97{fill:url(#SVGID_00000018224498169392496280000017895709907592822410_);}
	.st98{fill:#858DA5;}
	.st99{fill:#F6D6D3;}
	.st100{fill:url(#SVGID_00000027569910861626468260000009893083203875615104_);}
	
		.st101{opacity:0.33;clip-path:url(#SVGID_00000127035384742443999400000018100453628100127634_);fill:url(#SVGID_00000103951864145512935480000005675841063215568002_);}
	
		.st102{opacity:0.33;clip-path:url(#SVGID_00000181794259988283401510000006253861924537449130_);fill:url(#SVGID_00000110428592413704162870000008482225539031348909_);}
	
		.st103{opacity:0.33;clip-path:url(#SVGID_00000109720157239398613780000006951249617924203922_);fill:url(#SVGID_00000138547562786143103460000001777925604760648587_);}
	.st104{fill:url(#SVGID_00000066488096635987922040000009024559526298439843_);}
	.st105{clip-path:url(#SVGID_00000136400030595838779490000012521375624034501275_);}
	.st106{opacity:0.31;fill:#F5EDEF;}
	.st107{fill:url(#SVGID_00000147217475127446393620000018062599880868640684_);}
	.st108{fill:#35416A;}
	.st109{fill:#697190;}
	.st110{fill:#9AA0B5;}
	.st111{fill:#CCCFD9;}
	.st112{clip-path:url(#SVGID_00000077295513799884634210000014096016660768370820_);fill:#D2D4DE;}
	.st113{opacity:0.08;fill:#AC969B;}
	.st114{fill:#BFA3AA;}
	.st115{fill:#DEC5CC;}
	.st116{fill:#EBDCE0;}
	.st117{clip-path:url(#SVGID_00000056391520988781927150000001481350993149534622_);fill:#8A5F5A;}
	.st118{clip-path:url(#SVGID_00000056391520988781927150000001481350993149534622_);}
	.st119{fill:#B0AB7F;}
	.st120{fill:#969166;}
	.st121{clip-path:url(#SVGID_00000056391520988781927150000001481350993149534622_);fill:#B0AB7F;}
	.st122{clip-path:url(#SVGID_00000056391520988781927150000001481350993149534622_);fill:#969166;}
	.st123{opacity:0.72;clip-path:url(#SVGID_00000031176848694000333910000017653709875140074172_);}
	.st124{fill:#D98C66;}
	.st125{fill:#EFAD8D;}
	.st126{opacity:0.72;clip-path:url(#SVGID_00000144326174268323954550000013723621927647339429_);}
	.st127{clip-path:url(#SVGID_00000164513880108188551830000014505898981855018632_);fill:#8A5F5A;}
	.st128{clip-path:url(#SVGID_00000164513880108188551830000014505898981855018632_);fill:#B0AB7F;}
	.st129{clip-path:url(#SVGID_00000164513880108188551830000014505898981855018632_);fill:#969166;}
	.st130{opacity:0.72;clip-path:url(#SVGID_00000130609956645981442000000000979847769373800379_);}
	.st131{clip-path:url(#SVGID_00000085950430362160116930000015402309498389617546_);fill:#8A5F5A;}
	.st132{clip-path:url(#SVGID_00000085950430362160116930000015402309498389617546_);fill:#B0AB7F;}
	.st133{clip-path:url(#SVGID_00000085950430362160116930000015402309498389617546_);fill:#969166;}
	.st134{fill:url(#SVGID_00000137118687307211655020000014975971859444625326_);}
	.st135{fill:#FAABA2;}
	.st136{fill-rule:evenodd;clip-rule:evenodd;fill:#BD8B97;}
	.st137{opacity:0.12;fill:#AC969B;}
	.st138{fill:url(#SVGID_00000099645469427893167960000006076839495702614938_);}
	.st139{fill:#F5D5D1;}
	.st140{fill:url(#SVGID_00000128485584238745457730000004045065445623189943_);}
	.st141{fill:#E79A71;}
	.st142{fill:#F5B593;}
	
		.st143{opacity:0.39;clip-path:url(#SVGID_00000048476035419894298380000012105718095305433749_);fill:url(#SVGID_00000018943086576874020290000004709485807214561697_);}
	.st144{fill:url(#SVGID_00000051345994036038973470000010013717230636821134_);}
	.st145{fill:url(#SVGID_00000049900529948759160600000008487501247140577671_);}
	.st146{fill:#F6C8C2;}
	.st147{fill-rule:evenodd;clip-rule:evenodd;fill:#D3DFD5;}
	.st148{fill:url(#SVGID_00000129197228472207425850000008944477278196008071_);}
	.st149{opacity:0.46;}
	.st150{opacity:0.25;clip-path:url(#SVGID_00000176016532718419333540000011298775857149842366_);}
	.st151{fill:url(#SVGID_00000161612158637877658190000014104445454352427670_);}
	
		.st152{clip-path:url(#SVGID_00000180338403882758530690000000992122093508877219_);fill:url(#SVGID_00000125568872391844742640000009431817710734431652_);}
	.st153{fill:#492B23;}
	.st154{fill:#BC8779;}
	.st155{fill:#AA7065;}
	.st156{fill:#331B18;}
	.st157{fill:#9E5F5F;}
	.st158{fill:#C93F3F;}
	.st159{fill:#D84C4C;}
	.st160{fill:#B2C1B4;}
	.st161{fill:#844B45;}
	.st162{fill:#A86B65;}
	.st163{fill:#6B443E;}
	.st164{fill:#FFC255;}
	.st165{fill:#353D3B;}
	.st166{fill:url(#SVGID_00000137823480269508941890000002194753413764200619_);}
	.st167{fill:url(#SVGID_00000002365365755110293940000012317997601972032952_);}
	.st168{fill:url(#SVGID_00000144322797216027476550000002956725665104025259_);}
	.st169{fill:url(#SVGID_00000131349145287512269630000003851853443932234380_);}
	.st170{fill:url(#SVGID_00000045619802246711114110000015063514172227604378_);}
	.st171{fill:url(#SVGID_00000165235599843465389750000017994215185783901846_);}
	
		.st172{opacity:0.33;clip-path:url(#SVGID_00000178918021277122062460000018195080199065996476_);fill:url(#SVGID_00000144302452089498672340000011003372101520027544_);}
	
		.st173{opacity:0.33;clip-path:url(#SVGID_00000071529750565974246560000014212819564760749491_);fill:url(#SVGID_00000021841341484508325990000000919692376794500272_);}
	
		.st174{opacity:0.33;clip-path:url(#SVGID_00000058566118959648648010000012871319988132753839_);fill:url(#SVGID_00000119816129760782703250000009504255916346692483_);}
	.st175{fill:url(#SVGID_00000148637896285739420490000005501874431963869072_);}
	.st176{clip-path:url(#SVGID_00000093151951105985427190000015677814582697664951_);}
	.st177{fill:url(#SVGID_00000080927273928594313650000015063623196364532372_);}
	.st178{clip-path:url(#SVGID_00000183222749166489354020000016748516413519715250_);fill:#D2D4DE;}
	.st179{clip-path:url(#SVGID_00000088099027072885400390000004188853215054468014_);fill:#8A5F5A;}
	.st180{clip-path:url(#SVGID_00000088099027072885400390000004188853215054468014_);}
	.st181{clip-path:url(#SVGID_00000088099027072885400390000004188853215054468014_);fill:#B0AB7F;}
	.st182{clip-path:url(#SVGID_00000088099027072885400390000004188853215054468014_);fill:#969166;}
	.st183{opacity:0.72;clip-path:url(#SVGID_00000016064614611700838870000007053493143362080665_);}
	.st184{opacity:0.72;clip-path:url(#SVGID_00000021101025193117857900000006183297652272997803_);}
	.st185{clip-path:url(#SVGID_00000045596682875195177170000006393016663539724941_);fill:#8A5F5A;}
	.st186{clip-path:url(#SVGID_00000045596682875195177170000006393016663539724941_);fill:#B0AB7F;}
	.st187{clip-path:url(#SVGID_00000045596682875195177170000006393016663539724941_);fill:#969166;}
	.st188{opacity:0.72;clip-path:url(#SVGID_00000093141812107765772030000009132806638112637318_);}
	.st189{clip-path:url(#SVGID_00000052820607561103375980000001413204264028978588_);fill:#8A5F5A;}
	.st190{clip-path:url(#SVGID_00000052820607561103375980000001413204264028978588_);fill:#B0AB7F;}
	.st191{clip-path:url(#SVGID_00000052820607561103375980000001413204264028978588_);fill:#969166;}
	.st192{fill:url(#SVGID_00000011727906481958624740000001769194374925592997_);}
	.st193{fill:url(#SVGID_00000121978840411185251430000009821791395321214611_);}
	.st194{fill:url(#SVGID_00000024000760484761962260000012004584512300916881_);}
	
		.st195{opacity:0.39;clip-path:url(#SVGID_00000002345051155652448430000000601181154028085685_);fill:url(#SVGID_00000150073834494842118110000017486221882432434590_);}
	.st196{fill:url(#SVGID_00000018948217926175718300000002850276600170250890_);}
	.st197{fill:url(#SVGID_00000163754377552158141070000017594927406181836707_);}
	.st198{fill:url(#SVGID_00000011710476275074085480000000060945743357877421_);}
	.st199{opacity:0.25;clip-path:url(#SVGID_00000179606566839304564460000016447991256048480429_);}
	.st200{fill:url(#SVGID_00000040545443280166044170000000729171690538114983_);}
	
		.st201{clip-path:url(#SVGID_00000118371713413221810590000004005764674616149670_);fill:url(#SVGID_00000168099302787476690900000005910296159944623018_);}
	.st202{fill:url(#SVGID_00000048478206911677952270000004550825773320047758_);}
	.st203{fill:url(#SVGID_00000096773141800003205650000008159996053087752862_);}
	.st204{fill:url(#SVGID_00000152973137642366234790000009734846369639867320_);}
	.st205{fill:url(#SVGID_00000124162340533239691010000005844017102577565107_);}
	.st206{fill:url(#SVGID_00000130643732240270792000000001976951227849376182_);}
	.st207{fill:url(#SVGID_00000170237776703014986320000004197187290609109669_);}
	.st208{fill:url(#SVGID_00000160883700352137436090000004631169353046207111_);}
	.st209{fill:url(#SVGID_00000080200093294049558030000008201321776009821627_);}
	.st210{fill:url(#SVGID_00000168103484519253180170000018382558483072915620_);}
	.st211{fill:url(#SVGID_00000041282838839725710760000006272462700729677738_);}
	.st212{fill:url(#SVGID_00000148640973521947760450000004465135518518014892_);}
	.st213{fill:url(#SVGID_00000183220771377292300800000016136627166019410324_);}
	.st214{fill:url(#SVGID_00000082326134539715691580000011069304465401898675_);}
	.st215{fill:url(#SVGID_00000145027187380226748160000007737604628549455002_);}
	.st216{fill:url(#SVGID_00000173881621061938617490000016456548277978873252_);}
	.st217{fill:url(#SVGID_00000181805103024606426160000015806174087590583995_);}
	.st218{fill:url(#SVGID_00000036246039026355532420000010998675094921100932_);}
	.st219{fill:url(#SVGID_00000134961244760655562860000015259056145910121638_);}
	.st220{fill:url(#SVGID_00000097473026533112643010000015383052145751196073_);}
	.st221{fill:url(#SVGID_00000139281409943848350440000014702037849499578036_);}
	.st222{fill:url(#SVGID_00000049204832604794682920000017198698036942823835_);}
	.st223{fill:url(#SVGID_00000005224228052423860990000001651552127802610335_);}
	.st224{fill:url(#SVGID_00000178183658437594904870000010797332044680387507_);}
	.st225{fill:url(#SVGID_00000083801881117745508950000001212593351379420606_);}
	.st226{fill:url(#SVGID_00000142171665951336997660000017212472530642772905_);}
	.st227{fill:url(#SVGID_00000054238463902425227900000003577283020166012034_);}
	.st228{fill:url(#SVGID_00000066509559662789266110000013476945589145049258_);}
	.st229{fill:url(#SVGID_00000000928580007532580640000011993384585082783878_);}
	.st230{fill:url(#SVGID_00000096757874753048696050000015058880762709462929_);}
	.st231{fill-rule:evenodd;clip-rule:evenodd;fill:url(#SVGID_00000094586148975862794240000002951823910817129400_);}
	.st232{fill-rule:evenodd;clip-rule:evenodd;fill:url(#SVGID_00000098178602521062839780000008462463077644157866_);}
</style>
<g>
	<g>
		<path class="st19" d="M267.04,570.71l6.2-3.38l-34.7-18.74l89.94-49.1l158.69,85.69l-89.94,49.1l-60.96-32.92l-8.1,4.42
			c-7.14,3.9-15.8,3.75-22.8-0.38l0,0l-21.23,11.59l-35.99-21.25l28.89-5.25l-10.25-4.92C261.08,582.18,261.22,573.88,267.04,570.71
			z"/>
		<g>
			<g>
				<g>
					<defs>
						<path id="SVGID_00000074418122623489504580000013622691544258109326_" d="M481.78,509.97h-7.24l6.08,77.24
							c0,0.51,0.25,1.02,0.75,1.41c1,0.78,2.62,0.78,3.62,0c0.5-0.39,0.75-0.9,0.75-1.41L481.78,509.97z"/>
					</defs>
					
						<linearGradient id="SVGID_00000071548473010108068760000018284893535719664052_" gradientUnits="userSpaceOnUse" x1="-4631.7588" y1="549.5918" x2="-4620.561" y2="549.5918" gradientTransform="matrix(-1 0 0 1 -4146.0205 0)">
						<stop  offset="0" style="stop-color:#313D67"/>
						<stop  offset="0.5" style="stop-color:#313D67"/>
						<stop  offset="1" style="stop-color:#313D67"/>
					</linearGradient>
					
						<use xlink:href="#SVGID_00000074418122623489504580000013622691544258109326_"  style="overflow:visible;fill:url(#SVGID_00000071548473010108068760000018284893535719664052_);"/>
					<clipPath id="SVGID_00000054231268627148007050000012301136297203926718_">
						<use xlink:href="#SVGID_00000074418122623489504580000013622691544258109326_"  style="overflow:visible;"/>
					</clipPath>
					
						<linearGradient id="SVGID_1_" gradientUnits="userSpaceOnUse" x1="686.7236" y1="582.9113" x2="697.9205" y2="582.9113" gradientTransform="matrix(0.9999 -0.0138 0.0138 0.9999 -223.4297 -21.4688)">
						<stop  offset="0" style="stop-color:#EAECF0"/>
						<stop  offset="1" style="stop-color:#EAECF0"/>
					</linearGradient>
					
						<path style="opacity:0.33;clip-path:url(#SVGID_00000054231268627148007050000012301136297203926718_);fill:url(#SVGID_1_);" d="
						M477.96,512.19l-7.24,0.1l7.15,77.15c0.01,0.51,0.26,1.02,0.77,1.4c1.01,0.77,2.63,0.74,3.62-0.05
						c0.49-0.4,0.74-0.91,0.73-1.42L477.96,512.19z"/>
				</g>
			</g>
			<g>
				<defs>
					<path id="SVGID_00000156563144194072191640000001029373211810395794_" d="M398.38,557.03h-7.24l6.08,77.24l0,0
						c0,0.51,0.25,1.02,0.75,1.41c1,0.78,2.62,0.78,3.62,0c0.5-0.39,0.75-0.9,0.75-1.41L398.38,557.03z"/>
				</defs>
				
					<linearGradient id="SVGID_00000155111078999181109790000016091678453409126052_" gradientUnits="userSpaceOnUse" x1="-4548.3589" y1="596.6512" x2="-4537.1611" y2="596.6512" gradientTransform="matrix(-1 0 0 1 -4146.0205 0)">
					<stop  offset="0" style="stop-color:#313D67"/>
					<stop  offset="0.5" style="stop-color:#313D67"/>
					<stop  offset="1" style="stop-color:#313D67"/>
				</linearGradient>
				
					<use xlink:href="#SVGID_00000156563144194072191640000001029373211810395794_"  style="overflow:visible;fill:url(#SVGID_00000155111078999181109790000016091678453409126052_);"/>
				<clipPath id="SVGID_00000106133958127604840950000001253691979674565287_">
					<use xlink:href="#SVGID_00000156563144194072191640000001029373211810395794_"  style="overflow:visible;"/>
				</clipPath>
				
					<linearGradient id="SVGID_00000088110447920847358310000013908292132738167193_" gradientUnits="userSpaceOnUse" x1="599.9077" y1="598.7159" x2="611.1057" y2="598.7159" gradientTransform="matrix(1 0 0 1 -212.1494 0)">
					<stop  offset="0" style="stop-color:#EAECF0"/>
					<stop  offset="1" style="stop-color:#EAECF0"/>
				</linearGradient>
				
					<path style="opacity:0.33;clip-path:url(#SVGID_00000106133958127604840950000001253691979674565287_);fill:url(#SVGID_00000088110447920847358310000013908292132738167193_);" d="
					M394.99,559.1h-7.24l6.08,77.24l0,0c0,0.51,0.25,1.02,0.75,1.41c1,0.78,2.62,0.78,3.62,0c0.5-0.39,0.75-0.9,0.75-1.41
					L394.99,559.1z"/>
			</g>
			<g>
				<g>
					<defs>
						<path id="SVGID_00000080900675600320491000000012662563568874632837_" d="M242.5,471.35h7.24l-6.08,77.24l0,0
							c0,0.51-0.25,1.02-0.75,1.41c-1,0.78-2.62,0.78-3.62,0c-0.5-0.39-0.75-0.9-0.75-1.41L242.5,471.35z"/>
					</defs>
					
						<linearGradient id="SVGID_00000123401039312621018420000010857966867935985538_" gradientUnits="userSpaceOnUse" x1="-4395.7515" y1="510.9659" x2="-4384.5537" y2="510.9659" gradientTransform="matrix(-1 0 0 1 -4146.0205 0)">
						<stop  offset="0" style="stop-color:#313D67"/>
						<stop  offset="0.5" style="stop-color:#313D67"/>
						<stop  offset="1" style="stop-color:#313D67"/>
					</linearGradient>
					
						<use xlink:href="#SVGID_00000080900675600320491000000012662563568874632837_"  style="overflow:visible;fill:url(#SVGID_00000123401039312621018420000010857966867935985538_);"/>
					<clipPath id="SVGID_00000051370274314848915560000010275103437922468760_">
						<use xlink:href="#SVGID_00000080900675600320491000000012662563568874632837_"  style="overflow:visible;"/>
					</clipPath>
					
						<linearGradient id="SVGID_00000129901853838542708920000007701789826391413143_" gradientUnits="userSpaceOnUse" x1="447.9196" y1="512.7136" x2="457.8951" y2="512.7136" gradientTransform="matrix(1 0 0 1 -212.1494 0)">
						<stop  offset="0" style="stop-color:#EAECF0"/>
						<stop  offset="1" style="stop-color:#EAECF0"/>
					</linearGradient>
					
						<path style="opacity:0.33;clip-path:url(#SVGID_00000051370274314848915560000010275103437922468760_);fill:url(#SVGID_00000129901853838542708920000007701789826391413143_);" d="
						M238.51,473.15l7.23-0.11l-4.86,77.33l0,0c0.01,0.51-0.23,1.03-0.73,1.42c-0.99,0.8-2.61,0.82-3.62,0.06
						c-0.51-0.38-0.76-0.89-0.77-1.4L238.51,473.15z"/>
				</g>
			</g>
			<path class="st57" d="M389.53,564.15l-150.37-86.82c-2.35-1.36-2.35-4.75,0-6.11l84.7-48.9c2.42-1.4,5.4-1.4,7.82,0l151.41,87.42
				c2.7,1.56,2.7,5.47,0,7.03l-82.08,47.39C397.47,566.2,393.09,566.2,389.53,564.15z"/>
			<path class="st5" d="M389.53,561.43l-150.37-86.82c-2.35-1.36-2.35-4.75,0-6.11l84.7-48.9c2.42-1.4,5.4-1.4,7.82,0l151.42,87.42
				c2.7,1.56,2.7,5.47,0,7.03l-82.08,47.39C397.47,563.49,393.09,563.49,389.53,561.43z"/>
		</g>
		
			<linearGradient id="SVGID_00000012462603078978048790000016958917178523024293_" gradientUnits="userSpaceOnUse" x1="-4447.0225" y1="473.702" x2="-4416.1245" y2="473.702" gradientTransform="matrix(-1 0 0 1 -4146.0205 0)">
			<stop  offset="0" style="stop-color:#B17786"/>
			<stop  offset="0.5" style="stop-color:#B17786"/>
			<stop  offset="1" style="stop-color:#B17786"/>
		</linearGradient>
		<path style="fill:url(#SVGID_00000012462603078978048790000016958917178523024293_);" d="M283.25,482.5l-12.69-7.33
			c-0.61-0.35-0.61-1.23,0-1.59l15.07-8.7c0.61-0.35,1.37-0.35,1.99,0l13.01,7.51c0.5,0.29,0.5,1.01,0,1.3l-15.26,8.81
			C284.71,482.88,283.91,482.88,283.25,482.5z"/>
		<g>
			<path class="st57" d="M329.91,510.84l-35.63-20.57c-0.44-0.25-0.64-1.49-0.63-1.84c0.01-0.22,0.11,0.44,0.29,0.23
				c0.15-0.17,0.35-0.34,0.6-0.48l13.13-7.58c1.08-0.62,2.71-0.69,3.64-0.15l35.63,20.57c0.29,0.17,0.54-0.33,0.63-0.11
				c0.06,0.15,0.02,1.02-0.01,1.18c-0.07,0.36-0.36,0.73-0.88,1.03l-13.13,7.58C332.48,511.31,330.85,511.37,329.91,510.84z"/>
			<path class="st10" d="M329.91,509.83l-35.63-20.57c-0.93-0.54-0.82-1.48,0.26-2.1l13.13-7.58c1.08-0.62,2.71-0.69,3.64-0.15
				L346.94,500c0.93,0.54,0.82,1.48-0.26,2.1l-13.13,7.58C332.48,510.3,330.85,510.37,329.91,509.83z"/>
			<g>
				<path class="st57" d="M310.92,482.88l-2.93-1.69c-0.16-0.09-0.14-0.26,0.05-0.37l1.29-0.75c0.19-0.11,0.47-0.12,0.63-0.03
					l2.93,1.69c0.16,0.09,0.14,0.26-0.05,0.37l-1.29,0.75C311.36,482.96,311.08,482.97,310.92,482.88z"/>
				<path class="st57" d="M305.88,485.78l-2.93-1.69c-0.16-0.09-0.14-0.26,0.05-0.37l1.29-0.75c0.19-0.11,0.47-0.12,0.63-0.03
					l2.93,1.69c0.16,0.09,0.14,0.26-0.05,0.37l-1.29,0.75C306.33,485.87,306.04,485.88,305.88,485.78z"/>
				<path class="st57" d="M304.29,487.78l-3.87-2.23c-0.16-0.09-0.14-0.26,0.05-0.37l1.29-0.75c0.19-0.11,0.47-0.12,0.63-0.03
					l3.87,2.23c0.16,0.09,0.14,0.26-0.05,0.37l-1.29,0.75C304.74,487.86,304.45,487.87,304.29,487.78z"/>
				<path class="st57" d="M303.34,490.17l-5.46-3.15c-0.16-0.09-0.14-0.26,0.05-0.37l1.29-0.75c0.19-0.11,0.47-0.12,0.63-0.03
					l5.46,3.15c0.16,0.09,0.14,0.26-0.05,0.37l-1.29,0.75C303.79,490.25,303.5,490.26,303.34,490.17z"/>
				<path class="st57" d="M320.05,502.71l-13.59-7.85c-0.16-0.09-0.14-0.26,0.05-0.37l1.29-0.75c0.19-0.11,0.47-0.12,0.63-0.03
					l13.59,7.85c0.16,0.09,0.14,0.26-0.05,0.37l-1.29,0.75C320.49,502.79,320.21,502.8,320.05,502.71z"/>
				<path class="st57" d="M305.31,494.2l-2.37-1.37c-0.16-0.09-0.14-0.26,0.05-0.37l1.29-0.75c0.19-0.11,0.47-0.12,0.63-0.03
					l2.37,1.37c0.16,0.09,0.14,0.26-0.05,0.37l-1.29,0.75C305.75,494.28,305.47,494.3,305.31,494.2z"/>
				<path class="st57" d="M323.52,504.74l-2.37-1.37c-0.16-0.09-0.14-0.26,0.05-0.37l1.29-0.75c0.19-0.11,0.47-0.12,0.63-0.03
					l2.37,1.37c0.16,0.09,0.14,0.26-0.05,0.37l-1.29,0.75C323.97,504.83,323.68,504.84,323.52,504.74z"/>
				<path class="st57" d="M333.77,507.72l-3.9-2.25c-0.16-0.09-0.14-0.26,0.05-0.37l1.29-0.75c0.19-0.11,0.47-0.12,0.63-0.03
					l3.9,2.25c0.16,0.09,0.14,0.26-0.05,0.37l-1.29,0.75C334.22,507.81,333.93,507.82,333.77,507.72z"/>
				<path class="st57" d="M336.27,506.28l-2.93-1.69c-0.16-0.09-0.14-0.26,0.05-0.37l1.29-0.75c0.19-0.11,0.47-0.12,0.63-0.03
					l2.93,1.69c0.16,0.09,0.14,0.26-0.05,0.37l-1.29,0.75C336.72,506.36,336.44,506.37,336.27,506.28z"/>
				<path class="st57" d="M341.41,503.36l-2.93-1.69c-0.16-0.09-0.14-0.26,0.05-0.37l1.29-0.75c0.19-0.11,0.47-0.12,0.63-0.03
					l2.93,1.69c0.16,0.09,0.14,0.26-0.05,0.37l-1.29,0.75C341.86,503.44,341.57,503.45,341.41,503.36z"/>
				<path class="st57" d="M313.46,484.34l-1.37-0.79c-0.16-0.09-0.14-0.26,0.05-0.37l1.28-0.74c0.19-0.11,0.47-0.12,0.63-0.03
					l1.37,0.79c0.16,0.09,0.14,0.26-0.05,0.37l-1.28,0.74C313.91,484.42,313.62,484.43,313.46,484.34z"/>
				<path class="st57" d="M316,485.8l-1.37-0.79c-0.16-0.09-0.14-0.26,0.05-0.37l1.28-0.74c0.19-0.11,0.47-0.12,0.63-0.03l1.37,0.79
					c0.16,0.09,0.14,0.26-0.05,0.37l-1.28,0.74C316.45,485.88,316.16,485.89,316,485.8z"/>
				<path class="st57" d="M318.53,487.27l-1.37-0.79c-0.16-0.09-0.14-0.26,0.05-0.37l1.28-0.74c0.19-0.11,0.47-0.12,0.63-0.03
					l1.37,0.79c0.16,0.09,0.14,0.26-0.05,0.37l-1.28,0.74C318.98,487.35,318.69,487.36,318.53,487.27z"/>
				<path class="st57" d="M321.07,488.73l-1.37-0.79c-0.16-0.09-0.14-0.26,0.05-0.37l1.28-0.74c0.19-0.11,0.47-0.12,0.63-0.03
					l1.37,0.79c0.16,0.09,0.14,0.26-0.05,0.37l-1.28,0.74C321.52,488.82,321.23,488.83,321.07,488.73z"/>
				<path class="st57" d="M323.6,490.2l-1.37-0.79c-0.16-0.09-0.14-0.26,0.05-0.37l1.28-0.74c0.19-0.11,0.47-0.12,0.63-0.03
					l1.37,0.79c0.16,0.09,0.14,0.26-0.05,0.37l-1.28,0.74C324.05,490.28,323.76,490.3,323.6,490.2z"/>
				<path class="st57" d="M326.16,491.66l-1.37-0.79c-0.16-0.09-0.14-0.26,0.05-0.37l1.28-0.74c0.19-0.11,0.47-0.12,0.63-0.03
					l1.37,0.79c0.16,0.09,0.14,0.26-0.05,0.37l-1.28,0.74C326.6,491.74,326.32,491.75,326.16,491.66z"/>
				<path class="st57" d="M328.68,493.13l-1.37-0.79c-0.16-0.09-0.14-0.26,0.05-0.37l1.28-0.74c0.19-0.11,0.47-0.12,0.63-0.03
					l1.37,0.79c0.16,0.09,0.14,0.26-0.05,0.37l-1.28,0.74C329.13,493.21,328.85,493.22,328.68,493.13z"/>
				<path class="st57" d="M331.23,494.59l-1.37-0.79c-0.16-0.09-0.14-0.26,0.05-0.37l1.28-0.74c0.19-0.11,0.47-0.12,0.63-0.03
					l1.37,0.79c0.16,0.09,0.14,0.26-0.05,0.37l-1.28,0.74C331.67,494.67,331.39,494.68,331.23,494.59z"/>
				<path class="st57" d="M333.76,496.06l-1.37-0.79c-0.16-0.09-0.14-0.26,0.05-0.37l1.28-0.74c0.19-0.11,0.47-0.12,0.63-0.03
					l1.37,0.79c0.16,0.09,0.14,0.26-0.05,0.37l-1.28,0.74C334.2,496.14,333.92,496.15,333.76,496.06z"/>
				<path class="st57" d="M336.29,497.52l-1.37-0.79c-0.16-0.09-0.14-0.26,0.05-0.37l1.28-0.74c0.19-0.11,0.47-0.12,0.63-0.03
					l1.37,0.79c0.16,0.09,0.14,0.26-0.05,0.37l-1.28,0.74C336.74,497.61,336.46,497.62,336.29,497.52z"/>
				<path class="st57" d="M338.83,498.99l-1.37-0.79c-0.16-0.09-0.14-0.26,0.05-0.37l1.28-0.74c0.19-0.11,0.47-0.12,0.63-0.03
					l1.37,0.79c0.16,0.09,0.14,0.26-0.05,0.37l-1.28,0.74C339.28,499.07,338.99,499.08,338.83,498.99z"/>
				<path class="st57" d="M341.37,500.45l-1.37-0.79c-0.16-0.09-0.14-0.26,0.05-0.37l1.28-0.74c0.19-0.11,0.47-0.12,0.63-0.03
					l1.37,0.79c0.16,0.09,0.14,0.26-0.05,0.37l-1.28,0.74C341.81,500.54,341.53,500.55,341.37,500.45z"/>
				<path class="st57" d="M343.9,501.92l-1.37-0.79c-0.16-0.09-0.14-0.26,0.05-0.37l1.28-0.74c0.19-0.11,0.47-0.12,0.63-0.03
					l1.37,0.79c0.16,0.09,0.14,0.26-0.05,0.37l-1.28,0.74C344.35,502,344.07,502.01,343.9,501.92z"/>
				<path class="st57" d="M337.32,500.99l-1.37-0.79c-0.16-0.09-0.14-0.26,0.05-0.37l1.28-0.74c0.19-0.11,0.47-0.12,0.63-0.03
					l1.37,0.79c0.16,0.09,0.14,0.26-0.05,0.37l-1.28,0.74C337.77,501.07,337.48,501.08,337.32,500.99z"/>
				<path class="st57" d="M334.78,499.52l-1.37-0.79c-0.16-0.09-0.14-0.26,0.05-0.37l1.28-0.74c0.19-0.11,0.47-0.12,0.63-0.03
					l1.37,0.79c0.16,0.09,0.14,0.26-0.05,0.37l-1.28,0.74C335.23,499.61,334.95,499.62,334.78,499.52z"/>
				<path class="st57" d="M332.25,498.06l-1.37-0.79c-0.16-0.09-0.14-0.26,0.05-0.37l1.28-0.74c0.19-0.11,0.47-0.12,0.63-0.03
					l1.37,0.79c0.16,0.09,0.14,0.26-0.05,0.37l-1.28,0.74C332.69,498.14,332.41,498.15,332.25,498.06z"/>
				<path class="st57" d="M328.32,495.81l1.37,0.79c0.16,0.09,0.45,0.08,0.63-0.03l1.28-0.74c0.19-0.11,0.21-0.27,0.05-0.37
					l-1.37-0.79c-0.16-0.09-0.45-0.08-0.63,0.03l-1.28,0.74C328.18,495.55,328.16,495.71,328.32,495.81z"/>
				<path class="st57" d="M325.78,494.35l1.37,0.79c0.16,0.09,0.45,0.08,0.63-0.03l1.28-0.74c0.19-0.11,0.21-0.27,0.05-0.37
					l-1.37-0.79c-0.16-0.09-0.45-0.08-0.63,0.03l-1.28,0.74C325.64,494.09,325.62,494.25,325.78,494.35z"/>
				<path class="st57" d="M323.26,492.87l1.37,0.79c0.16,0.09,0.45,0.08,0.63-0.03l1.28-0.74c0.19-0.11,0.21-0.27,0.05-0.37
					l-1.37-0.79c-0.16-0.09-0.45-0.08-0.63,0.03l-1.28,0.74C323.12,492.61,323.1,492.78,323.26,492.87z"/>
				<path class="st57" d="M320.71,491.41l1.37,0.79c0.16,0.09,0.45,0.08,0.63-0.03l1.28-0.74c0.19-0.11,0.21-0.27,0.05-0.37
					l-1.37-0.79c-0.16-0.09-0.45-0.08-0.63,0.03l-1.28,0.74C320.57,491.15,320.55,491.32,320.71,491.41z"/>
				<path class="st57" d="M318.18,489.94l1.37,0.79c0.16,0.09,0.45,0.08,0.63-0.03l1.28-0.74c0.19-0.11,0.21-0.27,0.05-0.37
					l-1.37-0.79c-0.16-0.09-0.45-0.08-0.63,0.03l-1.28,0.74C318.04,489.68,318.02,489.85,318.18,489.94z"/>
				<path class="st57" d="M315.64,488.48l1.37,0.79c0.16,0.09,0.45,0.08,0.63-0.03l1.28-0.74c0.19-0.11,0.21-0.27,0.05-0.37
					l-1.37-0.79c-0.16-0.09-0.45-0.08-0.63,0.03l-1.28,0.74C315.49,488.22,315.47,488.39,315.64,488.48z"/>
				<path class="st57" d="M313.1,487.02l1.37,0.79c0.16,0.09,0.45,0.08,0.63-0.03l1.28-0.74c0.19-0.11,0.21-0.27,0.05-0.37
					l-1.37-0.79c-0.16-0.09-0.45-0.08-0.63,0.03l-1.28,0.74C312.96,486.76,312.94,486.92,313.1,487.02z"/>
				<path class="st57" d="M310.56,485.55l1.37,0.79c0.16,0.09,0.45,0.08,0.63-0.03l1.28-0.74c0.19-0.11,0.21-0.27,0.05-0.37
					l-1.37-0.79c-0.16-0.09-0.45-0.08-0.63,0.03l-1.28,0.74C310.41,485.3,310.39,485.46,310.56,485.55z"/>
				<path class="st57" d="M308.02,484.09l1.37,0.79c0.16,0.09,0.45,0.08,0.63-0.03l1.28-0.74c0.19-0.11,0.21-0.27,0.05-0.37
					l-1.37-0.79c-0.16-0.09-0.45-0.08-0.63,0.03l-1.28,0.74C307.88,483.83,307.86,483.99,308.02,484.09z"/>
				<path class="st57" d="M307.02,486.43l1.37,0.79c0.16,0.09,0.45,0.08,0.63-0.03l1.28-0.74c0.19-0.11,0.21-0.27,0.05-0.37
					l-1.37-0.79c-0.16-0.09-0.45-0.08-0.63,0.03l-1.28,0.74C306.88,486.17,306.86,486.34,307.02,486.43z"/>
				<path class="st57" d="M309.56,487.9l1.37,0.79c0.16,0.09,0.45,0.08,0.63-0.03l1.28-0.74c0.19-0.11,0.21-0.27,0.05-0.37
					l-1.37-0.79c-0.16-0.09-0.45-0.08-0.63,0.03l-1.28,0.74C309.41,487.64,309.39,487.8,309.56,487.9z"/>
				<path class="st57" d="M312.07,489.37l1.37,0.79c0.16,0.09,0.45,0.08,0.63-0.03l1.28-0.74c0.19-0.11,0.21-0.27,0.05-0.37
					l-1.37-0.79c-0.16-0.09-0.45-0.08-0.63,0.03l-1.28,0.74C311.93,489.12,311.91,489.28,312.07,489.37z"/>
				<path class="st57" d="M314.61,490.84l1.37,0.79c0.16,0.09,0.45,0.08,0.63-0.03l1.28-0.74c0.19-0.11,0.21-0.27,0.05-0.37
					l-1.37-0.79c-0.16-0.09-0.45-0.08-0.63,0.03l-1.28,0.74C314.47,490.58,314.45,490.74,314.61,490.84z"/>
				<path class="st57" d="M317.15,492.3l1.37,0.79c0.16,0.09,0.45,0.08,0.63-0.03l1.28-0.74c0.19-0.11,0.21-0.27,0.05-0.37
					l-1.37-0.79c-0.16-0.09-0.45-0.08-0.63,0.03l-1.28,0.74C317,492.05,316.98,492.21,317.15,492.3z"/>
				<path class="st57" d="M319.7,493.76l1.37,0.79c0.16,0.09,0.45,0.08,0.63-0.03l1.28-0.74c0.19-0.11,0.21-0.27,0.05-0.37
					l-1.37-0.79c-0.16-0.09-0.45-0.08-0.63,0.03l-1.28,0.74C319.56,493.5,319.54,493.66,319.7,493.76z"/>
				<path class="st57" d="M322.24,495.22l1.37,0.79c0.16,0.09,0.45,0.08,0.63-0.03l1.28-0.74c0.19-0.11,0.21-0.27,0.05-0.37
					l-1.37-0.79c-0.16-0.09-0.45-0.08-0.63,0.03l-1.28,0.74C322.1,494.96,322.08,495.13,322.24,495.22z"/>
				<path class="st57" d="M324.76,496.7l1.37,0.79c0.16,0.09,0.45,0.08,0.63-0.03l1.28-0.74c0.19-0.11,0.21-0.27,0.05-0.37
					l-1.37-0.79c-0.16-0.09-0.45-0.08-0.63,0.03l-1.28,0.74C324.62,496.44,324.6,496.6,324.76,496.7z"/>
				<path class="st57" d="M327.3,498.16l1.37,0.79c0.16,0.09,0.45,0.08,0.63-0.03l1.28-0.74c0.19-0.11,0.21-0.27,0.05-0.37
					l-1.37-0.79c-0.16-0.09-0.45-0.08-0.63,0.03l-1.28,0.74C327.15,497.91,327.13,498.07,327.3,498.16z"/>
				<path class="st57" d="M329.83,499.63l1.37,0.79c0.16,0.09,0.45,0.08,0.63-0.03l1.28-0.74c0.19-0.11,0.21-0.27,0.05-0.37
					l-1.37-0.79c-0.16-0.09-0.45-0.08-0.63,0.03l-1.28,0.74C329.69,499.37,329.67,499.53,329.83,499.63z"/>
				<path class="st57" d="M332.37,501.09l1.37,0.79c0.16,0.09,0.45,0.08,0.63-0.03l1.28-0.74c0.19-0.11,0.21-0.27,0.05-0.37
					l-1.37-0.79c-0.16-0.09-0.45-0.08-0.63,0.03l-1.28,0.74C332.23,500.84,332.21,501,332.37,501.09z"/>
				<path class="st57" d="M305.46,488.45l1.37,0.79c0.16,0.09,0.45,0.08,0.63-0.03l1.28-0.74c0.19-0.11,0.21-0.27,0.05-0.37
					l-1.37-0.79c-0.16-0.09-0.45-0.08-0.63,0.03l-1.28,0.74C305.31,488.2,305.29,488.36,305.46,488.45z"/>
				<path class="st57" d="M307.99,489.92l1.37,0.79c0.16,0.09,0.45,0.08,0.63-0.03l1.28-0.74c0.19-0.11,0.21-0.27,0.05-0.37
					l-1.37-0.79c-0.16-0.09-0.45-0.08-0.63,0.03l-1.28,0.74C307.85,489.66,307.83,489.83,307.99,489.92z"/>
				<path class="st57" d="M310.51,491.4l1.37,0.79c0.16,0.09,0.45,0.08,0.63-0.03l1.28-0.74c0.19-0.11,0.21-0.27,0.05-0.37
					l-1.37-0.79c-0.16-0.09-0.45-0.08-0.63,0.03l-1.28,0.74C310.37,491.14,310.35,491.3,310.51,491.4z"/>
				<path class="st57" d="M313.05,492.86l1.37,0.79c0.16,0.09,0.45,0.08,0.63-0.03l1.28-0.74c0.19-0.11,0.21-0.27,0.05-0.37
					l-1.37-0.79c-0.16-0.09-0.45-0.08-0.63,0.03l-1.28,0.74C312.91,492.6,312.88,492.77,313.05,492.86z"/>
				<path class="st57" d="M315.58,494.33l1.37,0.79c0.16,0.09,0.45,0.08,0.63-0.03l1.28-0.74c0.19-0.11,0.21-0.27,0.05-0.37
					l-1.37-0.79c-0.16-0.09-0.45-0.08-0.63,0.03l-1.28,0.74C315.44,494.07,315.42,494.23,315.58,494.33z"/>
				<path class="st57" d="M318.14,495.78l1.37,0.79c0.16,0.09,0.45,0.08,0.63-0.03l1.28-0.74c0.19-0.11,0.21-0.27,0.05-0.37
					l-1.37-0.79c-0.16-0.09-0.45-0.08-0.63,0.03l-1.28,0.74C318,495.52,317.98,495.69,318.14,495.78z"/>
				<path class="st57" d="M320.68,497.24l1.37,0.79c0.16,0.09,0.45,0.08,0.63-0.03l1.28-0.74c0.19-0.11,0.21-0.27,0.05-0.37
					l-1.37-0.79c-0.16-0.09-0.45-0.08-0.63,0.03l-1.28,0.74C320.54,496.99,320.52,497.15,320.68,497.24z"/>
				<path class="st57" d="M323.23,498.7l1.37,0.79c0.16,0.09,0.45,0.08,0.63-0.03l1.28-0.74c0.19-0.11,0.21-0.27,0.05-0.37
					l-1.37-0.79c-0.16-0.09-0.45-0.08-0.63,0.03l-1.28,0.74C323.09,498.44,323.07,498.61,323.23,498.7z"/>
				<path class="st57" d="M325.77,500.17l1.37,0.79c0.16,0.09,0.45,0.08,0.63-0.03l1.28-0.74c0.19-0.11,0.21-0.27,0.05-0.37
					l-1.37-0.79c-0.16-0.09-0.45-0.08-0.63,0.03l-1.28,0.74C325.62,499.91,325.6,500.07,325.77,500.17z"/>
				<path class="st57" d="M328.29,501.64l1.37,0.79c0.16,0.09,0.45,0.08,0.63-0.03l1.28-0.74c0.19-0.11,0.21-0.27,0.05-0.37
					l-1.37-0.79c-0.16-0.09-0.45-0.08-0.63,0.03l-1.28,0.74C328.15,501.38,328.13,501.54,328.29,501.64z"/>
				<path class="st57" d="M330.84,503.1l1.37,0.79c0.16,0.09,0.45,0.08,0.63-0.03l1.28-0.74c0.19-0.11,0.21-0.27,0.05-0.37
					l-1.37-0.79c-0.16-0.09-0.45-0.08-0.63,0.03l-1.28,0.74C330.7,502.84,330.68,503,330.84,503.1z"/>
				<path class="st57" d="M304.49,490.82l1.37,0.79c0.16,0.09,0.45,0.08,0.63-0.03l1.28-0.74c0.19-0.11,0.21-0.27,0.05-0.37
					l-1.37-0.79c-0.16-0.09-0.45-0.08-0.63,0.03l-1.28,0.74C304.35,490.56,304.33,490.73,304.49,490.82z"/>
				<path class="st57" d="M307.03,492.28l1.37,0.79c0.16,0.09,0.45,0.08,0.63-0.03l1.28-0.74c0.19-0.11,0.21-0.27,0.05-0.37
					l-1.37-0.79c-0.16-0.09-0.45-0.08-0.63,0.03l-1.28,0.74C306.89,492.03,306.87,492.19,307.03,492.28z"/>
				<path class="st57" d="M309.55,493.76l1.37,0.79c0.16,0.09,0.45,0.08,0.63-0.03l1.28-0.74c0.19-0.11,0.21-0.27,0.05-0.37
					l-1.37-0.79c-0.16-0.09-0.45-0.08-0.63,0.03l-1.28,0.74C309.4,493.5,309.38,493.67,309.55,493.76z"/>
				<path class="st57" d="M295.33,488.44l1.37,0.79c0.16,0.09,0.45,0.08,0.63-0.03l1.28-0.74c0.19-0.11,0.21-0.27,0.05-0.37
					l-1.37-0.79c-0.16-0.09-0.45-0.08-0.63,0.03l-1.28,0.74C295.19,488.18,295.17,488.34,295.33,488.44z"/>
				<path class="st57" d="M297.87,489.9l1.37,0.79c0.16,0.09,0.45,0.08,0.63-0.03l1.28-0.74c0.19-0.11,0.21-0.27,0.05-0.37
					l-1.37-0.79c-0.16-0.09-0.45-0.08-0.63,0.03l-1.28,0.74C297.73,489.64,297.71,489.81,297.87,489.9z"/>
				<path class="st57" d="M300.39,491.38l1.37,0.79c0.16,0.09,0.45,0.08,0.63-0.03l1.28-0.74c0.19-0.11,0.21-0.27,0.05-0.37
					l-1.37-0.79c-0.16-0.09-0.45-0.08-0.63,0.03l-1.28,0.74C300.25,491.12,300.23,491.29,300.39,491.38z"/>
				<path class="st57" d="M312.08,495.23l1.37,0.79c0.16,0.09,0.45,0.08,0.63-0.03l1.28-0.74c0.19-0.11,0.21-0.27,0.05-0.37
					l-1.37-0.79c-0.16-0.09-0.45-0.08-0.63,0.03l-1.28,0.74C311.94,494.97,311.92,495.13,312.08,495.23z"/>
				<path class="st57" d="M314.62,496.69l1.37,0.79c0.16,0.09,0.45,0.08,0.63-0.03l1.28-0.74c0.19-0.11,0.21-0.27,0.05-0.37
					l-1.37-0.79c-0.16-0.09-0.45-0.08-0.63,0.03l-1.28,0.74C314.48,496.43,314.46,496.6,314.62,496.69z"/>
				<path class="st57" d="M317.18,498.14l1.37,0.79c0.16,0.09,0.45,0.08,0.63-0.03l1.28-0.74c0.19-0.11,0.21-0.27,0.05-0.37
					l-1.37-0.79c-0.16-0.09-0.45-0.08-0.63,0.03l-1.28,0.74C317.04,497.89,317.02,498.05,317.18,498.14z"/>
				<path class="st57" d="M319.72,499.61l1.37,0.79c0.16,0.09,0.45,0.08,0.63-0.03l1.28-0.74c0.19-0.11,0.21-0.27,0.05-0.37
					l-1.37-0.79c-0.16-0.09-0.45-0.08-0.63,0.03l-1.28,0.74C319.57,499.35,319.55,499.52,319.72,499.61z"/>
				<path class="st57" d="M322.27,501.07l1.37,0.79c0.16,0.09,0.45,0.08,0.63-0.03l1.28-0.74c0.19-0.11,0.21-0.27,0.05-0.37
					l-1.37-0.79c-0.16-0.09-0.45-0.08-0.63,0.03l-1.28,0.74C322.12,500.81,322.1,500.97,322.27,501.07z"/>
				<path class="st57" d="M324.8,502.53l1.37,0.79c0.16,0.09,0.45,0.08,0.63-0.03l1.28-0.74c0.19-0.11,0.21-0.27,0.05-0.37
					l-1.37-0.79c-0.16-0.09-0.45-0.08-0.63,0.03l-1.28,0.74C324.66,502.28,324.64,502.44,324.8,502.53z"/>
				<path class="st57" d="M327.33,504l1.37,0.79c0.16,0.09,0.45,0.08,0.63-0.03l1.28-0.74c0.19-0.11,0.21-0.27,0.05-0.37l-1.37-0.79
					c-0.16-0.09-0.45-0.08-0.63,0.03l-1.28,0.74C327.19,503.75,327.17,503.91,327.33,504z"/>
				<path class="st57" d="M324.72,505.4l1.37,0.79c0.16,0.09,0.45,0.08,0.63-0.03l1.28-0.74c0.19-0.11,0.21-0.27,0.05-0.37
					l-1.37-0.79c-0.16-0.09-0.45-0.08-0.63,0.03l-1.28,0.74C324.58,505.14,324.56,505.31,324.72,505.4z"/>
				<path class="st57" d="M327.26,506.87l1.37,0.79c0.16,0.09,0.45,0.08,0.63-0.03l1.28-0.74c0.19-0.11,0.21-0.27,0.05-0.37
					l-1.37-0.79c-0.16-0.09-0.45-0.08-0.63,0.03l-1.28,0.74C327.12,506.61,327.1,506.77,327.26,506.87z"/>
				<path class="st57" d="M329.78,508.34l1.37,0.79c0.16,0.09,0.45,0.08,0.63-0.03l1.28-0.74c0.19-0.11,0.21-0.27,0.05-0.37
					l-1.37-0.79c-0.16-0.09-0.45-0.08-0.63,0.03l-1.28,0.74C329.64,508.08,329.62,508.24,329.78,508.34z"/>
				<path class="st57" d="M334.91,502.56l1.37,0.79c0.16,0.09,0.45,0.08,0.63-0.03l1.28-0.74c0.19-0.11,0.21-0.27,0.05-0.37
					l-1.37-0.79c-0.16-0.09-0.45-0.08-0.63,0.03l-1.28,0.74C334.77,502.3,334.75,502.46,334.91,502.56z"/>
				<path class="st57" d="M337.45,504.02l1.37,0.79c0.16,0.09,0.45,0.08,0.63-0.03l1.28-0.74c0.19-0.11,0.21-0.27,0.05-0.37
					l-1.37-0.79c-0.16-0.09-0.45-0.08-0.63,0.03l-1.28,0.74C337.3,503.77,337.28,503.93,337.45,504.02z"/>
				<path class="st57" d="M305.48,482.63l1.37,0.79c0.16,0.09,0.45,0.08,0.63-0.03l1.28-0.74c0.19-0.11,0.21-0.27,0.05-0.37
					l-1.37-0.79c-0.16-0.09-0.45-0.08-0.63,0.03l-1.28,0.74C305.33,482.37,305.31,482.53,305.48,482.63z"/>
				<path class="st21" d="M310.92,482.69l-2.93-1.69c-0.16-0.09-0.14-0.26,0.05-0.37l1.29-0.75c0.19-0.11,0.47-0.12,0.63-0.03
					l2.93,1.69c0.16,0.09,0.14,0.26-0.05,0.37l-1.29,0.75C311.36,482.78,311.08,482.79,310.92,482.69z"/>
				<path class="st21" d="M305.88,485.6l-2.93-1.69c-0.16-0.09-0.14-0.26,0.05-0.37l1.29-0.75c0.19-0.11,0.47-0.12,0.63-0.03
					l2.93,1.69c0.16,0.09,0.14,0.26-0.05,0.37l-1.29,0.75C306.33,485.68,306.04,485.7,305.88,485.6z"/>
				<path class="st21" d="M304.29,487.59l-3.87-2.23c-0.16-0.09-0.14-0.26,0.05-0.37l1.29-0.75c0.19-0.11,0.47-0.12,0.63-0.03
					l3.87,2.23c0.16,0.09,0.14,0.26-0.05,0.37l-1.29,0.75C304.74,487.68,304.45,487.69,304.29,487.59z"/>
				<path class="st21" d="M303.34,489.99l-5.46-3.15c-0.16-0.09-0.14-0.26,0.05-0.37l1.29-0.75c0.19-0.11,0.47-0.12,0.63-0.03
					l5.46,3.15c0.16,0.09,0.14,0.26-0.05,0.37l-1.29,0.75C303.79,490.07,303.5,490.08,303.34,489.99z"/>
				<path class="st21" d="M320.05,502.53l-13.59-7.85c-0.16-0.09-0.14-0.26,0.05-0.37l1.29-0.75c0.19-0.11,0.47-0.12,0.63-0.03
					l13.59,7.85c0.16,0.09,0.14,0.26-0.05,0.37l-1.29,0.75C320.49,502.61,320.21,502.62,320.05,502.53z"/>
				<path class="st21" d="M305.31,494.02l-2.37-1.37c-0.16-0.09-0.14-0.26,0.05-0.37l1.29-0.75c0.19-0.11,0.47-0.12,0.63-0.03
					l2.37,1.37c0.16,0.09,0.14,0.26-0.05,0.37l-1.29,0.75C305.75,494.1,305.47,494.11,305.31,494.02z"/>
				<path class="st21" d="M323.52,504.56l-2.37-1.37c-0.16-0.09-0.14-0.26,0.05-0.37l1.29-0.75c0.19-0.11,0.47-0.12,0.63-0.03
					l2.37,1.37c0.16,0.09,0.14,0.26-0.05,0.37l-1.29,0.75C323.97,504.64,323.68,504.65,323.52,504.56z"/>
				<path class="st21" d="M333.77,507.54l-3.9-2.25c-0.16-0.09-0.14-0.26,0.05-0.37l1.29-0.75c0.19-0.11,0.47-0.12,0.63-0.03
					l3.9,2.25c0.16,0.09,0.14,0.26-0.05,0.37l-1.29,0.75C334.22,507.62,333.93,507.64,333.77,507.54z"/>
				<path class="st21" d="M336.27,506.1l-2.93-1.69c-0.16-0.09-0.14-0.26,0.05-0.37l1.29-0.75c0.19-0.11,0.47-0.12,0.63-0.03
					l2.93,1.69c0.16,0.09,0.14,0.26-0.05,0.37l-1.29,0.75C336.72,506.18,336.44,506.19,336.27,506.1z"/>
				<path class="st21" d="M341.41,503.18l-2.93-1.69c-0.16-0.09-0.14-0.26,0.05-0.37l1.29-0.75c0.19-0.11,0.47-0.12,0.63-0.03
					l2.93,1.69c0.16,0.09,0.14,0.26-0.05,0.37l-1.29,0.75C341.86,503.26,341.57,503.27,341.41,503.18z"/>
				<path class="st21" d="M313.46,484.15l-1.37-0.79c-0.16-0.09-0.14-0.26,0.05-0.37l1.28-0.74c0.19-0.11,0.47-0.12,0.63-0.03
					l1.37,0.79c0.16,0.09,0.14,0.26-0.05,0.37l-1.28,0.74C313.91,484.24,313.62,484.25,313.46,484.15z"/>
				<path class="st21" d="M316,485.62l-1.37-0.79c-0.16-0.09-0.14-0.26,0.05-0.37l1.28-0.74c0.19-0.11,0.47-0.12,0.63-0.03
					l1.37,0.79c0.16,0.09,0.14,0.26-0.05,0.37l-1.28,0.74C316.45,485.7,316.16,485.71,316,485.62z"/>
				<path class="st21" d="M318.53,487.09l-1.37-0.79c-0.16-0.09-0.14-0.26,0.05-0.37l1.28-0.74c0.19-0.11,0.47-0.12,0.63-0.03
					l1.37,0.79c0.16,0.09,0.14,0.26-0.05,0.37l-1.28,0.74C318.98,487.17,318.69,487.18,318.53,487.09z"/>
				<path class="st21" d="M321.07,488.55l-1.37-0.79c-0.16-0.09-0.14-0.26,0.05-0.37l1.28-0.74c0.19-0.11,0.47-0.12,0.63-0.03
					l1.37,0.79c0.16,0.09,0.14,0.26-0.05,0.37l-1.28,0.74C321.52,488.63,321.23,488.64,321.07,488.55z"/>
				<path class="st21" d="M323.6,490.02l-1.37-0.79c-0.16-0.09-0.14-0.26,0.05-0.37l1.28-0.74c0.19-0.11,0.47-0.12,0.63-0.03
					l1.37,0.79c0.16,0.09,0.14,0.26-0.05,0.37l-1.28,0.74C324.05,490.1,323.76,490.11,323.6,490.02z"/>
				<path class="st21" d="M326.16,491.48l-1.37-0.79c-0.16-0.09-0.14-0.26,0.05-0.37l1.28-0.74c0.19-0.11,0.47-0.12,0.63-0.03
					l1.37,0.79c0.16,0.09,0.14,0.26-0.05,0.37l-1.28,0.74C326.6,491.56,326.32,491.57,326.16,491.48z"/>
				<path class="st21" d="M328.68,492.94l-1.37-0.79c-0.16-0.09-0.14-0.26,0.05-0.37l1.28-0.74c0.19-0.11,0.47-0.12,0.63-0.03
					l1.37,0.79c0.16,0.09,0.14,0.26-0.05,0.37l-1.28,0.74C329.13,493.03,328.85,493.04,328.68,492.94z"/>
				<path class="st21" d="M331.23,494.41l-1.37-0.79c-0.16-0.09-0.14-0.26,0.05-0.37l1.28-0.74c0.19-0.11,0.47-0.12,0.63-0.03
					l1.37,0.79c0.16,0.09,0.14,0.26-0.05,0.37l-1.28,0.74C331.67,494.49,331.39,494.5,331.23,494.41z"/>
				<path class="st21" d="M333.76,495.88l-1.37-0.79c-0.16-0.09-0.14-0.26,0.05-0.37l1.28-0.74c0.19-0.11,0.47-0.12,0.63-0.03
					l1.37,0.79c0.16,0.09,0.14,0.26-0.05,0.37l-1.28,0.74C334.2,495.96,333.92,495.97,333.76,495.88z"/>
				<path class="st21" d="M336.29,497.34l-1.37-0.79c-0.16-0.09-0.14-0.26,0.05-0.37l1.28-0.74c0.19-0.11,0.47-0.12,0.63-0.03
					l1.37,0.79c0.16,0.09,0.14,0.26-0.05,0.37l-1.28,0.74C336.74,497.42,336.46,497.44,336.29,497.34z"/>
				<path class="st21" d="M338.83,498.81l-1.37-0.79c-0.16-0.09-0.14-0.26,0.05-0.37l1.28-0.74c0.19-0.11,0.47-0.12,0.63-0.03
					l1.37,0.79c0.16,0.09,0.14,0.26-0.05,0.37l-1.28,0.74C339.28,498.89,338.99,498.9,338.83,498.81z"/>
				<path class="st21" d="M341.37,500.27l-1.37-0.79c-0.16-0.09-0.14-0.26,0.05-0.37l1.28-0.74c0.19-0.11,0.47-0.12,0.63-0.03
					l1.37,0.79c0.16,0.09,0.14,0.26-0.05,0.37l-1.28,0.74C341.81,500.35,341.53,500.37,341.37,500.27z"/>
				<path class="st21" d="M343.9,501.74l-1.37-0.79c-0.16-0.09-0.14-0.26,0.05-0.37l1.28-0.74c0.19-0.11,0.47-0.12,0.63-0.03
					l1.37,0.79c0.16,0.09,0.14,0.26-0.05,0.37l-1.28,0.74C344.35,501.82,344.07,501.83,343.9,501.74z"/>
				<path class="st21" d="M337.32,500.81l-1.37-0.79c-0.16-0.09-0.14-0.26,0.05-0.37l1.28-0.74c0.19-0.11,0.47-0.12,0.63-0.03
					l1.37,0.79c0.16,0.09,0.14,0.26-0.05,0.37l-1.28,0.74C337.77,500.89,337.48,500.9,337.32,500.81z"/>
				<path class="st21" d="M334.78,499.34l-1.37-0.79c-0.16-0.09-0.14-0.26,0.05-0.37l1.28-0.74c0.19-0.11,0.47-0.12,0.63-0.03
					l1.37,0.79c0.16,0.09,0.14,0.26-0.05,0.37l-1.28,0.74C335.23,499.42,334.95,499.44,334.78,499.34z"/>
				<path class="st21" d="M332.25,497.88l-1.37-0.79c-0.16-0.09-0.14-0.26,0.05-0.37l1.28-0.74c0.19-0.11,0.47-0.12,0.63-0.03
					l1.37,0.79c0.16,0.09,0.14,0.26-0.05,0.37l-1.28,0.74C332.69,497.96,332.41,497.97,332.25,497.88z"/>
				<path class="st21" d="M328.32,495.62l1.37,0.79c0.16,0.09,0.45,0.08,0.63-0.03l1.28-0.74c0.19-0.11,0.21-0.27,0.05-0.37
					l-1.37-0.79c-0.16-0.09-0.45-0.08-0.63,0.03l-1.28,0.74C328.18,495.37,328.16,495.53,328.32,495.62z"/>
				<path class="st21" d="M325.78,494.16l1.37,0.79c0.16,0.09,0.45,0.08,0.63-0.03l1.28-0.74c0.19-0.11,0.21-0.27,0.05-0.37
					l-1.37-0.79c-0.16-0.09-0.45-0.08-0.63,0.03l-1.28,0.74C325.64,493.91,325.62,494.07,325.78,494.16z"/>
				<path class="st21" d="M323.26,492.69l1.37,0.79c0.16,0.09,0.45,0.08,0.63-0.03l1.28-0.74c0.19-0.11,0.21-0.27,0.05-0.37
					l-1.37-0.79c-0.16-0.09-0.45-0.08-0.63,0.03l-1.28,0.74C323.12,492.43,323.1,492.59,323.26,492.69z"/>
				<path class="st21" d="M320.71,491.23l1.37,0.79c0.16,0.09,0.45,0.08,0.63-0.03l1.28-0.74c0.19-0.11,0.21-0.27,0.05-0.37
					l-1.37-0.79c-0.16-0.09-0.45-0.08-0.63,0.03l-1.28,0.74C320.57,490.97,320.55,491.13,320.71,491.23z"/>
				<path class="st21" d="M318.18,489.76l1.37,0.79c0.16,0.09,0.45,0.08,0.63-0.03l1.28-0.74c0.19-0.11,0.21-0.27,0.05-0.37
					l-1.37-0.79c-0.16-0.09-0.45-0.08-0.63,0.03l-1.28,0.74C318.04,489.5,318.02,489.67,318.18,489.76z"/>
				<path class="st21" d="M315.64,488.3l1.37,0.79c0.16,0.09,0.45,0.08,0.63-0.03l1.28-0.74c0.19-0.11,0.21-0.27,0.05-0.37
					l-1.37-0.79c-0.16-0.09-0.45-0.08-0.63,0.03l-1.28,0.74C315.49,488.04,315.47,488.21,315.64,488.3z"/>
				<path class="st21" d="M313.1,486.83l1.37,0.79c0.16,0.09,0.45,0.08,0.63-0.03l1.28-0.74c0.19-0.11,0.21-0.27,0.05-0.37
					l-1.37-0.79c-0.16-0.09-0.45-0.08-0.63,0.03l-1.28,0.74C312.96,486.58,312.94,486.74,313.1,486.83z"/>
				<path class="st21" d="M310.56,485.37l1.37,0.79c0.16,0.09,0.45,0.08,0.63-0.03l1.28-0.74c0.19-0.11,0.21-0.27,0.05-0.37
					l-1.37-0.79c-0.16-0.09-0.45-0.08-0.63,0.03l-1.28,0.74C310.41,485.12,310.39,485.28,310.56,485.37z"/>
				<path class="st21" d="M308.02,483.91l1.37,0.79c0.16,0.09,0.45,0.08,0.63-0.03l1.28-0.74c0.19-0.11,0.21-0.27,0.05-0.37
					l-1.37-0.79c-0.16-0.09-0.45-0.08-0.63,0.03l-1.28,0.74C307.88,483.65,307.86,483.81,308.02,483.91z"/>
				<path class="st21" d="M307.02,486.25l1.37,0.79c0.16,0.09,0.45,0.08,0.63-0.03l1.28-0.74c0.19-0.11,0.21-0.27,0.05-0.37
					l-1.37-0.79c-0.16-0.09-0.45-0.08-0.63,0.03l-1.28,0.74C306.88,485.99,306.86,486.16,307.02,486.25z"/>
				<path class="st21" d="M309.56,487.71l1.37,0.79c0.16,0.09,0.45,0.08,0.63-0.03l1.28-0.74c0.19-0.11,0.21-0.27,0.05-0.37
					l-1.37-0.79c-0.16-0.09-0.45-0.08-0.63,0.03l-1.28,0.74C309.41,487.46,309.39,487.62,309.56,487.71z"/>
				<path class="st21" d="M312.07,489.19l1.37,0.79c0.16,0.09,0.45,0.08,0.63-0.03l1.28-0.74c0.19-0.11,0.21-0.27,0.05-0.37
					l-1.37-0.79c-0.16-0.09-0.45-0.08-0.63,0.03l-1.28,0.74C311.93,488.93,311.91,489.1,312.07,489.19z"/>
				<path class="st21" d="M314.61,490.66l1.37,0.79c0.16,0.09,0.45,0.08,0.63-0.03l1.28-0.74c0.19-0.11,0.21-0.27,0.05-0.37
					l-1.37-0.79c-0.16-0.09-0.45-0.08-0.63,0.03l-1.28,0.74C314.47,490.4,314.45,490.56,314.61,490.66z"/>
				<path class="st21" d="M317.15,492.12l1.37,0.79c0.16,0.09,0.45,0.08,0.63-0.03l1.28-0.74c0.19-0.11,0.21-0.27,0.05-0.37
					l-1.37-0.79c-0.16-0.09-0.45-0.08-0.63,0.03l-1.28,0.74C317,491.86,316.98,492.03,317.15,492.12z"/>
				<path class="st21" d="M319.7,493.57l1.37,0.79c0.16,0.09,0.45,0.08,0.63-0.03l1.28-0.74c0.19-0.11,0.21-0.27,0.05-0.37
					l-1.37-0.79c-0.16-0.09-0.45-0.08-0.63,0.03l-1.28,0.74C319.56,493.32,319.54,493.48,319.7,493.57z"/>
				<path class="st21" d="M322.24,495.04l1.37,0.79c0.16,0.09,0.45,0.08,0.63-0.03l1.28-0.74c0.19-0.11,0.21-0.27,0.05-0.37
					l-1.37-0.79c-0.16-0.09-0.45-0.08-0.63,0.03l-1.28,0.74C322.1,494.78,322.08,494.95,322.24,495.04z"/>
				<path class="st21" d="M324.76,496.52l1.37,0.79c0.16,0.09,0.45,0.08,0.63-0.03l1.28-0.74c0.19-0.11,0.21-0.27,0.05-0.37
					l-1.37-0.79c-0.16-0.09-0.45-0.08-0.63,0.03l-1.28,0.74C324.62,496.26,324.6,496.42,324.76,496.52z"/>
				<path class="st21" d="M327.3,497.98l1.37,0.79c0.16,0.09,0.45,0.08,0.63-0.03l1.28-0.74c0.19-0.11,0.21-0.27,0.05-0.37
					l-1.37-0.79c-0.16-0.09-0.45-0.08-0.63,0.03l-1.28,0.74C327.15,497.72,327.13,497.89,327.3,497.98z"/>
				<path class="st21" d="M329.83,499.45l1.37,0.79c0.16,0.09,0.45,0.08,0.63-0.03l1.28-0.74c0.19-0.11,0.21-0.27,0.05-0.37
					l-1.37-0.79c-0.16-0.09-0.45-0.08-0.63,0.03l-1.28,0.74C329.69,499.19,329.67,499.35,329.83,499.45z"/>
				<path class="st21" d="M332.37,500.91l1.37,0.79c0.16,0.09,0.45,0.08,0.63-0.03l1.28-0.74c0.19-0.11,0.21-0.27,0.05-0.37
					l-1.37-0.79c-0.16-0.09-0.45-0.08-0.63,0.03l-1.28,0.74C332.23,500.65,332.21,500.82,332.37,500.91z"/>
				<path class="st21" d="M305.46,488.27l1.37,0.79c0.16,0.09,0.45,0.08,0.63-0.03l1.28-0.74c0.19-0.11,0.21-0.27,0.05-0.37
					l-1.37-0.79c-0.16-0.09-0.45-0.08-0.63,0.03l-1.28,0.74C305.31,488.01,305.29,488.18,305.46,488.27z"/>
				<path class="st21" d="M307.99,489.74l1.37,0.79c0.16,0.09,0.45,0.08,0.63-0.03l1.28-0.74c0.19-0.11,0.21-0.27,0.05-0.37
					l-1.37-0.79c-0.16-0.09-0.45-0.08-0.63,0.03l-1.28,0.74C307.85,489.48,307.83,489.64,307.99,489.74z"/>
				<path class="st21" d="M310.51,491.21l1.37,0.79c0.16,0.09,0.45,0.08,0.63-0.03l1.28-0.74c0.19-0.11,0.21-0.27,0.05-0.37
					l-1.37-0.79c-0.16-0.09-0.45-0.08-0.63,0.03l-1.28,0.74C310.37,490.96,310.35,491.12,310.51,491.21z"/>
				<path class="st21" d="M313.05,492.68l1.37,0.79c0.16,0.09,0.45,0.08,0.63-0.03l1.28-0.74c0.19-0.11,0.21-0.27,0.05-0.37
					l-1.37-0.79c-0.16-0.09-0.45-0.08-0.63,0.03l-1.28,0.74C312.91,492.42,312.88,492.58,313.05,492.68z"/>
				<path class="st21" d="M315.58,494.14l1.37,0.79c0.16,0.09,0.45,0.08,0.63-0.03l1.28-0.74c0.19-0.11,0.21-0.27,0.05-0.37
					l-1.37-0.79c-0.16-0.09-0.45-0.08-0.63,0.03l-1.28,0.74C315.44,493.89,315.42,494.05,315.58,494.14z"/>
				<path class="st21" d="M318.14,495.6l1.37,0.79c0.16,0.09,0.45,0.08,0.63-0.03l1.28-0.74c0.19-0.11,0.21-0.27,0.05-0.37
					l-1.37-0.79c-0.16-0.09-0.45-0.08-0.63,0.03l-1.28,0.74C318,495.34,317.98,495.5,318.14,495.6z"/>
				<path class="st21" d="M320.68,497.06l1.37,0.79c0.16,0.09,0.45,0.08,0.63-0.03l1.28-0.74c0.19-0.11,0.21-0.27,0.05-0.37
					l-1.37-0.79c-0.16-0.09-0.45-0.08-0.63,0.03l-1.28,0.74C320.54,496.8,320.52,496.97,320.68,497.06z"/>
				<path class="st21" d="M323.23,498.52l1.37,0.79c0.16,0.09,0.45,0.08,0.63-0.03l1.28-0.74c0.19-0.11,0.21-0.27,0.05-0.37
					l-1.37-0.79c-0.16-0.09-0.45-0.08-0.63,0.03l-1.28,0.74C323.09,498.26,323.07,498.43,323.23,498.52z"/>
				<path class="st21" d="M325.77,499.99l1.37,0.79c0.16,0.09,0.45,0.08,0.63-0.03l1.28-0.74c0.19-0.11,0.21-0.27,0.05-0.37
					l-1.37-0.79c-0.16-0.09-0.45-0.08-0.63,0.03l-1.28,0.74C325.62,499.73,325.6,499.89,325.77,499.99z"/>
				<path class="st21" d="M328.29,501.46l1.37,0.79c0.16,0.09,0.45,0.08,0.63-0.03l1.28-0.74c0.19-0.11,0.21-0.27,0.05-0.37
					l-1.37-0.79c-0.16-0.09-0.45-0.08-0.63,0.03l-1.28,0.74C328.15,501.2,328.13,501.36,328.29,501.46z"/>
				<path class="st21" d="M330.84,502.92l1.37,0.79c0.16,0.09,0.45,0.08,0.63-0.03l1.28-0.74c0.19-0.11,0.21-0.27,0.05-0.37
					l-1.37-0.79c-0.16-0.09-0.45-0.08-0.63,0.03l-1.28,0.74C330.7,502.66,330.68,502.82,330.84,502.92z"/>
				<path class="st21" d="M304.49,490.64l1.37,0.79c0.16,0.09,0.45,0.08,0.63-0.03l1.28-0.74c0.19-0.11,0.21-0.27,0.05-0.37
					l-1.37-0.79c-0.16-0.09-0.45-0.08-0.63,0.03l-1.28,0.74C304.35,490.38,304.33,490.54,304.49,490.64z"/>
				<path class="st21" d="M307.03,492.1l1.37,0.79c0.16,0.09,0.45,0.08,0.63-0.03l1.28-0.74c0.19-0.11,0.21-0.27,0.05-0.37
					l-1.37-0.79c-0.16-0.09-0.45-0.08-0.63,0.03l-1.28,0.74C306.89,491.84,306.87,492.01,307.03,492.1z"/>
				<path class="st21" d="M309.55,493.58l1.37,0.79c0.16,0.09,0.45,0.08,0.63-0.03l1.28-0.74c0.19-0.11,0.21-0.27,0.05-0.37
					l-1.37-0.79c-0.16-0.09-0.45-0.08-0.63,0.03l-1.28,0.74C309.4,493.32,309.38,493.49,309.55,493.58z"/>
				<path class="st21" d="M295.33,488.26l1.37,0.79c0.16,0.09,0.45,0.08,0.63-0.03l1.28-0.74c0.19-0.11,0.21-0.27,0.05-0.37
					l-1.37-0.79c-0.16-0.09-0.45-0.08-0.63,0.03l-1.28,0.74C295.19,488,295.17,488.16,295.33,488.26z"/>
				<path class="st21" d="M297.87,489.72l1.37,0.79c0.16,0.09,0.45,0.08,0.63-0.03l1.28-0.74c0.19-0.11,0.21-0.27,0.05-0.37
					l-1.37-0.79c-0.16-0.09-0.45-0.08-0.63,0.03l-1.28,0.74C297.73,489.46,297.71,489.63,297.87,489.72z"/>
				<path class="st21" d="M300.39,491.2l1.37,0.79c0.16,0.09,0.45,0.08,0.63-0.03l1.28-0.74c0.19-0.11,0.21-0.27,0.05-0.37
					l-1.37-0.79c-0.16-0.09-0.45-0.08-0.63,0.03l-1.28,0.74C300.25,490.94,300.23,491.1,300.39,491.2z"/>
				<path class="st21" d="M312.08,495.04l1.37,0.79c0.16,0.09,0.45,0.08,0.63-0.03l1.28-0.74c0.19-0.11,0.21-0.27,0.05-0.37
					l-1.37-0.79c-0.16-0.09-0.45-0.08-0.63,0.03l-1.28,0.74C311.94,494.79,311.92,494.95,312.08,495.04z"/>
				<path class="st21" d="M314.62,496.51l1.37,0.79c0.16,0.09,0.45,0.08,0.63-0.03l1.28-0.74c0.19-0.11,0.21-0.27,0.05-0.37
					l-1.37-0.79c-0.16-0.09-0.45-0.08-0.63,0.03l-1.28,0.74C314.48,496.25,314.46,496.42,314.62,496.51z"/>
				<path class="st21" d="M317.18,497.96l1.37,0.79c0.16,0.09,0.45,0.08,0.63-0.03l1.28-0.74c0.19-0.11,0.21-0.27,0.05-0.37
					l-1.37-0.79c-0.16-0.09-0.45-0.08-0.63,0.03l-1.28,0.74C317.04,497.7,317.02,497.87,317.18,497.96z"/>
				<path class="st21" d="M319.72,499.43l1.37,0.79c0.16,0.09,0.45,0.08,0.63-0.03l1.28-0.74c0.19-0.11,0.21-0.27,0.05-0.37
					l-1.37-0.79c-0.16-0.09-0.45-0.08-0.63,0.03l-1.28,0.74C319.57,499.17,319.55,499.33,319.72,499.43z"/>
				<path class="st21" d="M322.27,500.89l1.37,0.79c0.16,0.09,0.45,0.08,0.63-0.03l1.28-0.74c0.19-0.11,0.21-0.27,0.05-0.37
					l-1.37-0.79c-0.16-0.09-0.45-0.08-0.63,0.03l-1.28,0.74C322.12,500.63,322.1,500.79,322.27,500.89z"/>
				<path class="st21" d="M324.8,502.35l1.37,0.79c0.16,0.09,0.45,0.08,0.63-0.03l1.28-0.74c0.19-0.11,0.21-0.27,0.05-0.37
					l-1.37-0.79c-0.16-0.09-0.45-0.08-0.63,0.03l-1.28,0.74C324.66,502.09,324.64,502.26,324.8,502.35z"/>
				<path class="st21" d="M327.33,503.82l1.37,0.79c0.16,0.09,0.45,0.08,0.63-0.03l1.28-0.74c0.19-0.11,0.21-0.27,0.05-0.37
					l-1.37-0.79c-0.16-0.09-0.45-0.08-0.63,0.03l-1.28,0.74C327.19,503.56,327.17,503.73,327.33,503.82z"/>
				<path class="st21" d="M324.72,505.22l1.37,0.79c0.16,0.09,0.45,0.08,0.63-0.03l1.28-0.74c0.19-0.11,0.21-0.27,0.05-0.37
					l-1.37-0.79c-0.16-0.09-0.45-0.08-0.63,0.03l-1.28,0.74C324.58,504.96,324.56,505.12,324.72,505.22z"/>
				<path class="st21" d="M327.26,506.68l1.37,0.79c0.16,0.09,0.45,0.08,0.63-0.03l1.28-0.74c0.19-0.11,0.21-0.27,0.05-0.37
					l-1.37-0.79c-0.16-0.09-0.45-0.08-0.63,0.03l-1.28,0.74C327.12,506.43,327.1,506.59,327.26,506.68z"/>
				<path class="st21" d="M329.78,508.15l1.37,0.79c0.16,0.09,0.45,0.08,0.63-0.03l1.28-0.74c0.19-0.11,0.21-0.27,0.05-0.37
					l-1.37-0.79c-0.16-0.09-0.45-0.08-0.63,0.03l-1.28,0.74C329.64,507.9,329.62,508.06,329.78,508.15z"/>
				<path class="st21" d="M334.91,502.38l1.37,0.79c0.16,0.09,0.45,0.08,0.63-0.03l1.28-0.74c0.19-0.11,0.21-0.27,0.05-0.37
					l-1.37-0.79c-0.16-0.09-0.45-0.08-0.63,0.03l-1.28,0.74C334.77,502.12,334.75,502.28,334.91,502.38z"/>
				<path class="st21" d="M337.45,503.84l1.37,0.79c0.16,0.09,0.45,0.08,0.63-0.03l1.28-0.74c0.19-0.11,0.21-0.27,0.05-0.37
					l-1.37-0.79c-0.16-0.09-0.45-0.08-0.63,0.03l-1.28,0.74C337.3,503.58,337.28,503.75,337.45,503.84z"/>
				<path class="st21" d="M305.48,482.45l1.37,0.79c0.16,0.09,0.45,0.08,0.63-0.03l1.28-0.74c0.19-0.11,0.21-0.27,0.05-0.37
					l-1.37-0.79c-0.16-0.09-0.45-0.08-0.63,0.03l-1.28,0.74C305.33,482.19,305.31,482.35,305.48,482.45z"/>
			</g>
		</g>
		<g>
			<path class="st57" d="M355,481.51c-0.83,0.1-1.78-0.4-1.78-0.4s-10.21-5.89-10.87-6.32c-0.66-0.44-0.49-1.26-0.49-1.26v-1.31
				c0,0-0.18,0.82,0.49,1.26c0.66,0.44,10.87,6.32,10.87,6.32s0.96,0.51,1.78,0.4c1.8-0.23,7.29-3.65,7.29-3.65
				c1.99-1.14,3.06-3.4,2.69-5.67l-2.08-12.54l1.11,0.91l2.08,12.54c0.37,2.27-1.81,4.72-3.8,5.86l-6.07,3.48L355,481.51z"/>
			<g>
				<path class="st21" d="M347.61,468.01c0,0-1.04,0.68-2.2,1.34l-2.75,1.59c-1.06,0.61-1.06,2.15,0,2.76l10.36,5.98
					c1.18,0.68,2.62,0.68,3.8,0.01l5.72-3.28c0.25-0.14,0.95-0.79,1.82-1.95c0.08-0.11,0.15-0.23,0.21-0.35l-14.71-8.56
					C349.39,466.56,348.62,467.43,347.61,468.01z"/>
				<path class="st10" d="M365.05,471.16l-1.99-11.97l-14.68-8.48l0.6,3.6c-0.01,0,1.32,8.03,1.32,8.03
					c0.18,1.12,0.02,2.23-0.44,3.21l14.71,8.56C365.19,472.92,365.05,471.16,365.05,471.16z"/>
			</g>
			<path class="st57" d="M320.12,385.28l2.48-1.43c0.62-0.38,1.43-0.36,2.32,0.15l67.35,38.88c1.92,1.11,3.47,4.07,3.47,6.63v46.95
				c0,1.49-0.53,2.51-1.36,2.88l-2.43,1.4l-0.05-1.48l0.38-0.17c-0.01,0-0.01-0.01-0.02-0.01l-67.35-38.88
				c-1.92-1.11-3.47-4.07-3.47-6.63v-46.95c0-0.24,0.02-0.46,0.04-0.68l-0.84,0.25L320.12,385.28z"/>
			<g>
				<defs>
					<path id="SVGID_00000172429814521043057300000000935866617304373421_" d="M322.4,441.64l67.35,38.88
						c1.92,1.11,3.47-0.07,3.47-2.62v-46.95c0-2.55-1.55-5.52-3.47-6.63l-67.35-38.88c-1.92-1.11-3.47,0.07-3.47,2.62v46.95
						C318.93,437.57,320.48,440.54,322.4,441.64z"/>
				</defs>
				<use xlink:href="#SVGID_00000172429814521043057300000000935866617304373421_"  style="overflow:visible;fill:#FFFFFF;"/>
				<clipPath id="SVGID_00000026147722980367402900000000110928938052908474_">
					<use xlink:href="#SVGID_00000172429814521043057300000000935866617304373421_"  style="overflow:visible;"/>
				</clipPath>
				<g style="clip-path:url(#SVGID_00000026147722980367402900000000110928938052908474_);">
					<path class="st106" d="M341.55,393.6l8.31,71.95l4.1,0.26l-7.74-71.21L341.55,393.6z"/>
					<path class="st106" d="M352.27,396.47l8.61,73.37l9.73,5.05l-7.84-66.88L352.27,396.47z"/>
				</g>
			</g>
			<polygon class="st1" points="318.93,431.23 393.21,474.12 393.21,430.87 318.93,387.98 			"/>
			<g>
				<path class="st68" d="M390.84,434.13c0.15,0.5,0.24,1.01,0.24,1.49v31.29c0,1.7-1.03,2.47-2.3,1.74l-65.41-37.77
					c-1.27-0.73-2.3-2.7-2.3-4.4V395.2c0-0.32,0.04-0.6,0.1-0.85L390.84,434.13z"/>
				<path class="st10" d="M323.36,393.46l65.41,37.77c0.91,0.52,1.69,1.67,2.06,2.91l-69.67-39.78
					C321.46,393.26,322.33,392.86,323.36,393.46z"/>
			</g>
			<path class="st10" d="M351.69,456.35l2.95,1.71c0.23,0.13,0.51-0.03,0.51-0.29v-1.39c0-0.3-0.16-0.59-0.43-0.74l-2.95-1.71
				c-0.23-0.13-0.51,0.03-0.51,0.29v1.39C351.27,455.92,351.43,456.2,351.69,456.35z"/>
			<path class="st34" d="M388.28,475.93c0,0.3,0.21,0.66,0.46,0.8s0.46,0.03,0.46-0.27c0-0.3-0.21-0.66-0.46-0.8
				C388.49,475.51,388.28,475.63,388.28,475.93z"/>
			<path class="st50" d="M385.25,474.27c0,0.3,0.21,0.66,0.46,0.8c0.26,0.15,0.46,0.03,0.46-0.27c0-0.3-0.21-0.66-0.46-0.8
				C385.45,473.86,385.25,473.98,385.25,474.27z"/>
			<path class="st50" d="M382.21,472.62c0,0.3,0.21,0.66,0.46,0.8c0.26,0.15,0.46,0.03,0.46-0.27s-0.21-0.66-0.46-0.8
				C382.42,472.21,382.21,472.33,382.21,472.62z"/>
			<polygon class="st21" points="369.25,452.74 345.39,438.97 345.39,413.22 369.25,427 			"/>
			<polygon class="st21" points="389.79,455.99 386.18,454.05 386.18,434.61 389.79,436.56 			"/>
			<polygon class="st21" points="332.57,423.8 322.49,418.31 322.49,398.87 332.57,404.36 			"/>
			<g>
				
					<rect x="355.48" y="409.29" transform="matrix(0.4825 -0.8759 0.8759 0.4825 -195.605 535.8353)" class="st34" width="0.38" height="48.34"/>
			</g>
			<g>
				<rect x="356.84" y="418.62" class="st34" width="0.38" height="29.59"/>
			</g>
			<polygon class="st10" points="389.21,438.65 386.76,437.32 386.76,435.64 389.21,436.96 			"/>
			<polygon class="st10" points="389.21,441.04 386.76,439.72 386.76,438.04 389.21,439.36 			"/>
			<polygon class="st10" points="389.21,443.39 386.76,442.07 386.76,440.38 389.21,441.71 			"/>
			<polygon class="st10" points="389.21,445.79 386.76,444.46 386.76,442.78 389.21,444.1 			"/>
			<g>
				<polygon class="st32" points="325.72,404.1 325.72,401.97 323.87,400.9 323.87,403.03 				"/>
				<polygon class="st33" points="325.72,406.24 325.72,404.1 323.87,403.03 323.87,405.17 				"/>
				<polygon class="st34" points="325.72,408.38 325.72,406.24 323.87,405.17 323.87,407.31 				"/>
				<polygon class="st33" points="325.72,410.52 325.72,408.38 323.87,407.31 323.87,409.45 				"/>
				<polygon class="st24" points="325.72,412.66 325.72,410.52 323.87,409.45 323.87,411.59 				"/>
				<polygon class="st35" points="325.72,414.8 325.72,412.66 323.87,411.59 323.87,413.73 				"/>
				<polygon class="st36" points="325.72,416.94 325.72,414.8 323.87,413.73 323.87,415.87 				"/>
			</g>
			<g>
				<polygon class="st41" points="327.53,405.17 327.53,403.03 325.68,401.97 325.68,404.1 				"/>
				<polygon class="st42" points="327.53,407.31 327.53,405.17 325.68,404.1 325.68,406.24 				"/>
				<polygon class="st43" points="327.53,409.45 327.53,407.31 325.68,406.24 325.68,408.38 				"/>
				
					<linearGradient id="SVGID_00000038382883105469465510000003322670819862486663_" gradientUnits="userSpaceOnUse" x1="-5048.5156" y1="-1569.256" x2="-5046.377" y2="-1569.256" gradientTransform="matrix(-0.866 -0.5 0 1.1547 -4044.4817 -301.7172)">
					<stop  offset="0" style="stop-color:#B17786"/>
					<stop  offset="0.5" style="stop-color:#B17786"/>
					<stop  offset="1" style="stop-color:#B17786"/>
				</linearGradient>
				<polygon style="fill:url(#SVGID_00000038382883105469465510000003322670819862486663_);" points="327.53,411.59 327.53,409.45 
					325.68,408.38 325.68,410.52 				"/>
				<polygon class="st45" points="327.53,413.73 327.53,411.59 325.68,410.52 325.68,412.66 				"/>
				<polygon class="st46" points="327.53,415.87 327.53,413.73 325.68,412.66 325.68,414.8 				"/>
				<polygon class="st47" points="327.53,418.01 327.53,415.87 325.68,414.8 325.68,416.94 				"/>
			</g>
			<g>
				<polygon class="st48" points="329.39,406.24 329.39,404.1 327.53,403.03 327.53,405.17 				"/>
				<polygon class="st49" points="329.39,408.38 329.39,406.24 327.53,405.17 327.53,407.31 				"/>
				<polygon class="st50" points="329.39,410.52 329.39,408.38 327.53,407.31 327.53,409.45 				"/>
				<polygon class="st51" points="329.39,412.66 329.39,410.52 327.53,409.45 327.53,411.59 				"/>
				<polygon class="st52" points="329.39,414.8 329.39,412.66 327.53,411.59 327.53,413.73 				"/>
				<polygon class="st53" points="329.39,416.94 329.39,414.8 327.53,413.73 327.53,415.87 				"/>
				<polygon class="st54" points="329.39,419.08 329.39,416.94 327.53,415.87 327.53,418.01 				"/>
			</g>
			<g>
				<polygon class="st108" points="331.24,407.31 331.24,405.17 329.39,404.1 329.39,406.24 				"/>
				<polygon class="st109" points="331.24,409.45 331.24,407.31 329.39,406.24 329.39,408.38 				"/>
				<polygon class="st110" points="331.24,411.59 331.24,409.45 329.39,408.38 329.39,410.52 				"/>
				<polygon class="st111" points="331.24,413.73 331.24,411.59 329.39,410.52 329.39,412.66 				"/>
				<polygon class="st11" points="331.24,415.87 331.24,413.73 329.39,412.66 329.39,414.8 				"/>
				<polygon class="st39" points="331.24,418.01 331.24,415.87 329.39,414.8 329.39,416.94 				"/>
				<polygon class="st21" points="331.24,420.15 331.24,418.01 329.39,416.94 329.39,419.08 				"/>
			</g>
		</g>
		<g>
			<path class="st57" d="M284.74,477.22l-1.66-0.96c-0.53-0.29-0.44-0.74-0.53-1.02c-0.15-0.5,0.37-0.51,1.09-0.96l2.37-1.48
				c1.52-0.95,3.87-1.13,5.24-0.4c1.37,0.73,1.26,2.09-0.27,3.05l-2.37,1.48C287.5,477.63,285.76,477.77,284.74,477.22z"/>
			<g>
				<defs>
					<path id="SVGID_00000072999768222867719670000004112812402682341817_" d="M291.68,472.34L291.68,472.34c0,0,0-0.01-0.01-0.01
						c-0.01-0.01-0.01-0.01-0.02-0.02c-0.17-0.19-1.19-1.27-2.64-1.7c-1.59-0.47-4.91,0.88-5.67,1.82c-0.67,0.84-0.8,2.2-0.82,2.49
						c0,0,0,0,0,0c0,0.04,0,0.06,0,0.06h0c-0.01,0.39,0.22,0.75,0.71,1.01l1.29,0.69c1.02,0.54,2.76,0.41,3.89-0.3l2.37-1.48
						C292,474.13,292.32,473.09,291.68,472.34z"/>
				</defs>
				<use xlink:href="#SVGID_00000072999768222867719670000004112812402682341817_"  style="overflow:visible;fill:#FFFFFF;"/>
				<clipPath id="SVGID_00000047038915801210714210000015964787167902903178_">
					<use xlink:href="#SVGID_00000072999768222867719670000004112812402682341817_"  style="overflow:visible;"/>
				</clipPath>
				<path style="clip-path:url(#SVGID_00000047038915801210714210000015964787167902903178_);fill:#D2D4DE;" d="M282.07,472.26
					c0,0,1.08,3.07,4.67,2.77c1.95-0.16,3.17-0.76,5.04-3.08c0.56-0.69,3.05,1.81,3.05,1.81s-3.73,4.92-3.81,4.98
					c-0.08,0.05-9.82,0.26-9.82,0.26L282.07,472.26z"/>
			</g>
			<path class="st57" d="M290.57,471.23L290.57,471.23l-0.36-0.25c-0.18-0.11-0.89,0.02-0.94,0.04c-0.39,0.08-0.47,0.38-0.49,0.51
				c-0.01,0.04,0,0.08,0.03,0.11c0.06,0.08,0.24,0.2,0.31,0.18c1.25-0.46,1.66-0.3,1.66-0.3S290.72,471.34,290.57,471.23z"/>
		</g>
		<g>
			<path class="st113" d="M427.62,512.88c5.75,2.55,14.03,2.3,19.29-0.74c5.73-3.31,5.73-8.67,0-11.98
				c-5.73-3.31-15.03-3.31-20.76,0c-5.27,3.04-5.69,7.82-1.28,11.14c0.39,0.29,0.82,0.58,1.28,0.85
				C426.62,512.41,427.11,512.65,427.62,512.88z"/>
			<path class="st114" d="M445.83,480.66c-5.13-2.96-13.45-2.96-18.58,0c-2.94,1.7-4.2,4.01-3.77,6.22
				c0.32,1.65,1.58,3.24,3.77,4.51c5.13,2.96,13.45,2.96,18.58,0c2.07-1.2,3.31-2.69,3.71-4.24l0.12-0.69
				C449.86,484.37,448.58,482.25,445.83,480.66z M445.21,491.03c-4.79,2.77-12.56,2.77-17.36,0c-2.04-1.18-3.21-2.67-3.52-4.21
				c-0.41-2.07,0.77-4.22,3.52-5.81c4.79-2.77,12.56-2.77,17.36,0c2.59,1.5,3.78,3.49,3.57,5.45
				C448.61,488.12,447.42,489.76,445.21,491.03z"/>
			<path class="st115" d="M445.21,481.01c-4.79-2.77-12.56-2.77-17.36,0c-2.75,1.59-3.92,3.74-3.52,5.81
				c0.3,1.54,1.47,3.03,3.52,4.21c4.79,2.77,12.56,2.77,17.36,0c2.2-1.27,3.39-2.91,3.57-4.57
				C448.99,484.5,447.8,482.51,445.21,481.01z"/>
			<path class="st116" d="M445.83,491.39c-5.13,2.96-13.45,2.96-18.58,0c-2.19-1.26-3.44-2.86-3.77-4.51l3,17.33
				c0.15,1.38,1.12,2.73,2.95,3.79c3.93,2.27,10.3,2.27,14.22,0c1.96-1.13,2.95-2.62,2.95-4.11l2.94-16.75
				C449.13,488.7,447.9,490.19,445.83,491.39z"/>
			<g>
				<defs>
					<path id="SVGID_00000108307368832702077100000014544567824479015554_" d="M437.46,458.18H422.5l-10.32,7.02l-2.89,13.73
						l7.41,7.09l7.65,0.8c0.3,1.54,1.47,3.03,3.52,4.21c4.79,2.77,12.56,2.77,17.36,0c1.24-0.72,2.16-1.55,2.76-2.43l4.83-2.17
						l4-8.23l3.85-14.81L437.46,458.18z"/>
				</defs>
				<clipPath id="SVGID_00000074438408596661509160000015535488617050756273_">
					<use xlink:href="#SVGID_00000108307368832702077100000014544567824479015554_"  style="overflow:visible;"/>
				</clipPath>
				<path style="clip-path:url(#SVGID_00000074438408596661509160000015535488617050756273_);fill:#8A5F5A;" d="M447.99,489.03
					c-0.29,3.14-4.71,5.98-11.49,5.98c-6.78,0-11.98-2.57-12.27-5.7c-0.47-5.06,5.5-6.66,12.27-6.66
					C443.28,482.65,448.33,485.36,447.99,489.03z"/>
				<g style="clip-path:url(#SVGID_00000074438408596661509160000015535488617050756273_);">
					<path class="st119" d="M444.33,477.61c-0.46-3.57-0.59-8.44-6.04-9.41c-4.36,0-7.89,4.94-7.89,11.03
						c0,6.09,0.05,11.08,7.89,11.03c2.1-0.01,3.64-0.4,4.78-1.08C443.59,486.48,444.68,480.35,444.33,477.61z"/>
					<path class="st120" d="M446.18,479.23c0-6.09-3.53-11.03-7.89-11.03c5.45,0.97,5.54,6.29,5.61,9.88
						c0.07,3.3-0.31,8.4-0.84,11.09C446.55,488.53,446.18,483.63,446.18,479.23z"/>
					<path class="st120" d="M438.29,468.2c0,0-5.22-1.41-4.81,8.22c0.32,7.58,1.29,13.4,1.29,13.4s1.98,0.93,2.69,0.46
						c0,0-0.98-7.97-1.17-12.81C436.17,474.21,435.27,469.07,438.29,468.2z"/>
				</g>
				<path style="clip-path:url(#SVGID_00000074438408596661509160000015535488617050756273_);fill:#B0AB7F;" d="M432.07,484.16
					c-0.47-1.12-0.96-2.69-2.82-2.51c-1.42,0.4-2.12,2.33-1.56,4.31c0.56,1.98,1.03,3.6,3.57,2.86c0.68-0.2,1.15-0.46,1.45-0.79
					C432.64,487.12,432.43,485.02,432.07,484.16z"/>
				<path style="clip-path:url(#SVGID_00000074438408596661509160000015535488617050756273_);fill:#969166;" d="M429.24,481.66
					c0,0-1.83,0.02-0.81,3.11c0.8,2.44,1.65,4.24,1.65,4.24s0.73,0.12,0.92-0.1c0,0-1.05-2.5-1.55-4.06
					C429.1,483.8,428.34,482.22,429.24,481.66z"/>
				<g style="clip-path:url(#SVGID_00000074438408596661509160000015535488617050756273_);">
					<path class="st119" d="M446.84,474.04c1.07-0.58,2.59-1.21,2.23-3.04c-0.53-1.37-2.51-1.89-4.43-1.15
						c-1.92,0.74-3.49,1.36-2.52,3.82c0.26,0.66,0.57,1.1,0.92,1.38C443.95,474.88,446.02,474.49,446.84,474.04z"/>
					<path class="st120" d="M446.55,474.82c1.92-0.74,3.05-2.45,2.52-3.82c0.35,1.84-1.31,2.51-2.44,2.97
						c-1.03,0.42-2.69,0.92-3.6,1.08C443.67,476.07,445.17,475.36,446.55,474.82z"/>
					<path class="st120" d="M449.08,471c0,0-0.19-1.82-3.17-0.52c-2.35,1.02-4.07,2.03-4.07,2.03s-0.05,0.74,0.18,0.9
						c0,0,2.39-1.27,3.9-1.92C446.92,471.06,448.44,470.15,449.08,471z"/>
					<path class="st119" d="M443.75,468.21c0,0-0.19,0.01-0.31,0.17c-0.3,0.27-0.43,0.78-0.3,1.29c0.15,0.55,0.28,1,0.82,1.01
						c0,0,0,0.01,0,0.01s0.26,0.04,0.33-0.04c0,0,0-0.01,0-0.01c0.03-0.01,0.06-0.01,0.1-0.02c0.25-0.07,0.42-0.16,0.53-0.27
						c0.39-0.18,0.2-0.71,0.08-1.19C444.82,468.5,444.26,468.07,443.75,468.21z"/>
				</g>
			</g>
			<g>
				<defs>
					<path id="SVGID_00000182486173779296304970000018056233191619443383_" d="M445.83,491.39c-5.13,2.96-13.45,2.96-18.58,0
						c-2.19-1.26-3.44-2.86-3.77-4.51l3,17.33c0.15,1.38,1.12,2.73,2.95,3.79c3.93,2.27,10.3,2.27,14.22,0
						c1.96-1.13,2.95-2.62,2.95-4.11l2.94-16.75C449.13,488.7,447.9,490.19,445.83,491.39z"/>
				</defs>
				<clipPath id="SVGID_00000062891684806311887520000005443127468081266101_">
					<use xlink:href="#SVGID_00000182486173779296304970000018056233191619443383_"  style="overflow:visible;"/>
				</clipPath>
				<g style="opacity:0.72;clip-path:url(#SVGID_00000062891684806311887520000005443127468081266101_);">
					<path class="st21" d="M441.86,513.58l-9.32-4.26c5.05-11.05,3.87-26.63,3.86-26.78l10.21-0.83
						C446.67,482.46,448.03,500.08,441.86,513.58z"/>
				</g>
			</g>
		</g>
		<g>
			<path class="st113" d="M446.11,521.5c3.88,1.72,9.46,1.55,13.02-0.5c3.87-2.23,3.87-5.85,0-8.09c-3.87-2.23-10.14-2.23-14.01,0
				c-3.55,2.05-3.84,5.27-0.87,7.52c0.26,0.2,0.55,0.39,0.87,0.57C445.43,521.18,445.76,521.35,446.11,521.5z"/>
			<path class="st124" d="M458.35,499.4c-3.53-2.04-9.25-2.04-12.79,0c-2.03,1.17-2.89,2.76-2.59,4.28c0.22,1.13,1.09,2.23,2.59,3.1
				c3.53,2.04,9.25,2.04,12.79,0c1.42-0.82,2.27-1.85,2.55-2.92l0.08-0.47C461.12,501.95,460.25,500.5,458.35,499.4z M457.93,506.54
				c-3.3,1.9-8.64,1.9-11.94,0c-1.41-0.81-2.21-1.84-2.42-2.9c-0.28-1.42,0.53-2.91,2.42-4c3.3-1.9,8.64-1.9,11.94,0
				c1.78,1.03,2.6,2.4,2.46,3.75C460.26,504.54,459.44,505.66,457.93,506.54z"/>
			<path class="st125" d="M457.93,499.65c-3.3-1.9-8.64-1.9-11.94,0c-1.89,1.09-2.7,2.57-2.42,4c0.21,1.06,1.01,2.08,2.42,2.9
				c3.3,1.9,8.64,1.9,11.94,0c1.52-0.87,2.33-2,2.46-3.15C460.53,502.05,459.71,500.67,457.93,499.65z"/>
			<g>
				<defs>
					<path id="SVGID_00000087401714323749163220000014754206164705656252_" d="M458.35,506.78c-3.53,2.04-9.25,2.04-12.79,0
						c-1.5-0.87-2.37-1.97-2.59-3.1l2.06,11.92c0.1,0.95,0.77,1.88,2.03,2.61c2.7,1.56,7.08,1.56,9.79,0
						c1.35-0.78,2.03-1.8,2.03-2.83l2.02-11.52C460.62,504.93,459.78,505.96,458.35,506.78z"/>
				</defs>
				<use xlink:href="#SVGID_00000087401714323749163220000014754206164705656252_"  style="overflow:visible;fill:#EFAC8B;"/>
				<clipPath id="SVGID_00000150781789784723171060000014658581350321182901_">
					<use xlink:href="#SVGID_00000087401714323749163220000014754206164705656252_"  style="overflow:visible;"/>
				</clipPath>
				<g style="opacity:0.72;clip-path:url(#SVGID_00000150781789784723171060000014658581350321182901_);">
					<path class="st21" d="M454.47,525.37l-9.32-4.26c5.05-11.05,3.87-26.63,3.86-26.78l10.21-0.83
						C459.29,494.25,460.64,511.87,454.47,525.37z"/>
				</g>
			</g>
			<g>
				<defs>
					<path id="SVGID_00000138549612684670359260000006639820496658279356_" d="M452.6,483.94h-10.3l-7.1,4.83l-1.99,9.45l5.1,4.87
						l5.26,0.55c0.21,1.06,1.01,2.08,2.42,2.9c3.3,1.9,8.64,1.9,11.94,0c0.85-0.49,1.48-1.06,1.9-1.67l3.32-1.49l2.75-5.66
						l2.65-10.19L452.6,483.94z"/>
				</defs>
				<clipPath id="SVGID_00000090284296191541917810000010629905082097501583_">
					<use xlink:href="#SVGID_00000138549612684670359260000006639820496658279356_"  style="overflow:visible;"/>
				</clipPath>
				<path style="clip-path:url(#SVGID_00000090284296191541917810000010629905082097501583_);fill:#8A5F5A;" d="M459.84,505.16
					c-0.2,2.16-3.24,4.11-7.9,4.11c-4.66,0-8.24-1.77-8.44-3.92c-0.32-3.48,3.78-4.58,8.44-4.58
					C456.6,500.77,460.07,502.64,459.84,505.16z"/>
				<path style="clip-path:url(#SVGID_00000090284296191541917810000010629905082097501583_);fill:#B0AB7F;" d="M456.09,497.36
					c-0.32-2.45-0.41-5.81-4.15-6.47c-3,0-5.43,3.4-5.43,7.59c0,4.19,0.03,7.62,5.43,7.59c1.45-0.01,2.51-0.28,3.29-0.74
					C455.58,503.47,456.33,499.25,456.09,497.36z"/>
				<path style="clip-path:url(#SVGID_00000090284296191541917810000010629905082097501583_);fill:#969166;" d="M457.37,498.48
					c0-4.19-2.43-7.59-5.43-7.59c3.75,0.67,3.81,4.33,3.86,6.8c0.04,2.27-0.22,5.78-0.58,7.63
					C457.62,504.87,457.37,501.51,457.37,498.48z"/>
				<path style="clip-path:url(#SVGID_00000090284296191541917810000010629905082097501583_);fill:#969166;" d="M451.94,490.89
					c0,0-3.59-0.97-3.31,5.65c0.22,5.22,0.89,9.22,0.89,9.22s1.36,0.64,1.85,0.32c0,0-0.67-5.48-0.8-8.81
					C450.48,495.02,449.86,491.49,451.94,490.89z"/>
			</g>
		</g>
		<g>
			<path class="st113" d="M432.92,521.72c2.75,1.22,6.7,1.1,9.21-0.35c2.74-1.58,2.74-4.14,0-5.72c-2.74-1.58-7.18-1.58-9.92,0
				c-2.52,1.45-2.72,3.73-0.61,5.32c0.19,0.14,0.39,0.28,0.61,0.4C432.45,521.49,432.68,521.61,432.92,521.72z"/>
			<path class="st114" d="M441.59,506.07c-2.5-1.44-6.55-1.44-9.05,0c-1.43,0.83-2.05,1.95-1.83,3.03c0.16,0.8,0.77,1.58,1.83,2.19
				c2.5,1.44,6.55,1.44,9.05,0c1.01-0.58,1.61-1.31,1.8-2.07l0.06-0.33C443.55,507.88,442.93,506.85,441.59,506.07z M441.29,511.13
				c-2.33,1.35-6.12,1.35-8.45,0c-0.99-0.57-1.57-1.3-1.71-2.05c-0.2-1.01,0.37-2.06,1.71-2.83c2.33-1.35,6.12-1.35,8.45,0
				c1.26,0.73,1.84,1.7,1.74,2.65C442.94,509.71,442.36,510.51,441.29,511.13z"/>
			<path class="st115" d="M441.29,506.25c-2.33-1.35-6.12-1.35-8.45,0c-1.34,0.77-1.91,1.82-1.71,2.83
				c0.15,0.75,0.72,1.48,1.71,2.05c2.33,1.35,6.12,1.35,8.45,0c1.07-0.62,1.65-1.42,1.74-2.23
				C443.13,507.95,442.55,506.97,441.29,506.25z"/>
			<g>
				<defs>
					<path id="SVGID_00000152966278799528993510000011486379843079554468_" d="M441.59,511.3c-2.5,1.44-6.55,1.44-9.05,0
						c-1.06-0.61-1.68-1.39-1.83-2.19l1.46,8.44c0.07,0.67,0.55,1.33,1.43,1.84c1.91,1.1,5.01,1.1,6.93,0
						c0.96-0.55,1.43-1.28,1.43-2l1.43-8.16C443.2,509.99,442.6,510.72,441.59,511.3z"/>
				</defs>
				<use xlink:href="#SVGID_00000152966278799528993510000011486379843079554468_"  style="overflow:visible;fill:#EBDCE0;"/>
				<clipPath id="SVGID_00000011747294979237295080000011519825157039133852_">
					<use xlink:href="#SVGID_00000152966278799528993510000011486379843079554468_"  style="overflow:visible;"/>
				</clipPath>
				<g style="opacity:0.72;clip-path:url(#SVGID_00000011747294979237295080000011519825157039133852_);">
					<path class="st21" d="M438.85,524.45l-6.59-3.01c3.57-7.82,2.74-18.85,2.73-18.96l7.23-0.59
						C442.25,502.43,443.21,514.89,438.85,524.45z"/>
				</g>
			</g>
			<g>
				<defs>
					<path id="SVGID_00000034812362071177944200000012695295195424316295_" d="M437.52,495.13h-7.29l-5.03,3.42l-1.41,6.69
						l3.61,3.45l3.72,0.39c0.15,0.75,0.72,1.48,1.71,2.05c2.33,1.35,6.12,1.35,8.45,0c0.6-0.35,1.05-0.75,1.34-1.18l2.35-1.06
						l1.95-4.01l1.87-7.21L437.52,495.13z"/>
				</defs>
				<clipPath id="SVGID_00000103973316011775768950000014829610542233474468_">
					<use xlink:href="#SVGID_00000034812362071177944200000012695295195424316295_"  style="overflow:visible;"/>
				</clipPath>
				<path style="clip-path:url(#SVGID_00000103973316011775768950000014829610542233474468_);fill:#8A5F5A;" d="M442.65,510.15
					c-0.14,1.53-2.29,2.91-5.59,2.91c-3.3,0-5.84-1.25-5.98-2.78c-0.23-2.47,2.68-3.24,5.98-3.24
					C440.35,507.04,442.81,508.37,442.65,510.15z"/>
				<path style="clip-path:url(#SVGID_00000103973316011775768950000014829610542233474468_);fill:#B0AB7F;" d="M439.99,504.63
					c-0.22-1.74-0.29-4.11-2.94-4.58c-2.12,0-3.84,2.4-3.84,5.37c0,2.97,0.02,5.39,3.84,5.37c1.02-0.01,1.77-0.19,2.33-0.53
					C439.63,508.95,440.16,505.96,439.99,504.63z"/>
				<path style="clip-path:url(#SVGID_00000103973316011775768950000014829610542233474468_);fill:#969166;" d="M440.9,505.42
					c0-2.97-1.72-5.37-3.84-5.37c2.65,0.47,2.7,3.06,2.73,4.81c0.03,1.61-0.15,4.09-0.41,5.4
					C441.07,509.94,440.9,507.56,440.9,505.42z"/>
				<path style="clip-path:url(#SVGID_00000103973316011775768950000014829610542233474468_);fill:#969166;" d="M437.05,500.05
					c0,0-2.54-0.69-2.34,4c0.16,3.69,0.63,6.52,0.63,6.52s0.96,0.45,1.31,0.22c0,0-0.48-3.88-0.57-6.24
					C436.02,502.97,435.58,500.47,437.05,500.05z"/>
			</g>
		</g>
		<g>
			<path class="st116" d="M419.83,515.8l-23.1-13.34c-0.73-0.42-1.62-0.42-2.34,0l-31.21,18.02c-0.77,0.45-0.77,1.56,0,2.01
				l23.04,13.3c0.58,0.34,1.3,0.34,1.88,0l31.73-18.32C420.47,517.11,420.47,516.18,419.83,515.8z"/>
			
				<linearGradient id="SVGID_00000042727336641042159320000004697586283182929556_" gradientUnits="userSpaceOnUse" x1="1147.2931" y1="-809.1916" x2="1147.2931" y2="-750.4285" gradientTransform="matrix(0.6396 0.6089 1.158 -0.461 560.0197 -542.8106)">
				<stop  offset="0" style="stop-color:#FFFFFF"/>
				<stop  offset="0.5" style="stop-color:#FFFFFF"/>
				<stop  offset="1" style="stop-color:#FFFFFF"/>
			</linearGradient>
			<path style="fill:url(#SVGID_00000042727336641042159320000004697586283182929556_);" d="M415.69,516.81l-17.06-15.16
				c-0.85-0.76-2.05-0.98-3.12-0.58l-37.79,14.18c-0.42,0.16-0.53,0.71-0.19,1.01l18.37,16.32c0.43,0.39,1.05,0.5,1.59,0.3
				l37.85-14.2C416.13,518.39,416.32,517.37,415.69,516.81z"/>
			<path class="st50" d="M387.82,517.85c-3.21-1.85-3.21-4.86,0-6.71c3.21-1.85,8.42-1.85,11.63,0c3.21,1.85,3.21,4.86,0,6.71
				C396.24,519.7,391.03,519.7,387.82,517.85z M398.87,511.47c-2.89-1.67-7.59-1.67-10.48,0c-2.89,1.67-2.89,4.38,0,6.05
				c2.89,1.67,7.59,1.67,10.48,0C401.76,515.85,401.76,513.14,398.87,511.47z"/>
			<path class="st135" d="M387.72,513.17l-11.76,2.54c-1.44,0.31-1.74,2.23-0.47,2.97l7.36,4.25c0.74,0.43,1.69,0.2,2.16-0.52
				l4.4-6.79C390.19,514.42,389.12,512.87,387.72,513.17z"/>
			<g>
				<g>
					<path class="st136" d="M382.03,520.32c-0.28-0.16-0.47-0.34-0.57-0.53c-0.29-0.54,0.23-1.04,0.69-1.48
						c0.46-0.44,0.72-0.72,0.49-0.96c-0.3-0.31-0.95-0.41-1.64-0.53c-0.77-0.13-1.64-0.27-1.97-0.75c-0.36-0.52,0.2-1,0.68-1.43
						c0.4-0.36,0.79-0.69,0.61-0.97c-0.22-0.33-1.16-0.44-2.07-0.55c-1.07-0.13-2.16-0.26-2.51-0.77c-0.39-0.58,0.35-1.33,2.33-2.37
						c0.17-0.09,0.43-0.09,0.57,0.02c0.15,0.1,0.14,0.24-0.03,0.33c-2.16,1.14-2.26,1.65-2.12,1.85c0.19,0.28,1.07,0.38,1.92,0.48
						c1.08,0.13,2.29,0.27,2.67,0.84c0.33,0.5-0.21,0.97-0.69,1.39c-0.42,0.37-0.81,0.71-0.61,1c0.18,0.26,0.76,0.36,1.43,0.47
						c0.78,0.13,1.66,0.27,2.13,0.74c0.48,0.49-0.04,0.99-0.5,1.43c-0.41,0.39-0.79,0.76-0.61,1.1c0.2,0.39,1.05,0.71,2.44,0.92
						c0.22,0.03,0.35,0.16,0.29,0.29c-0.06,0.13-0.28,0.2-0.5,0.17C383.36,520.85,382.55,520.62,382.03,520.32z"/>
				</g>
				<g>
					<path class="st116" d="M382.03,520.32c-0.28-0.16-0.47-0.34-0.57-0.53c-0.29-0.54,0.23-1.04,0.69-1.48
						c0.46-0.44,0.72-0.72,0.49-0.96c-0.3-0.31-0.95-0.41-1.64-0.53c-0.77-0.13-1.64-0.27-1.97-0.75c-0.36-0.52,0.2-1,0.68-1.43
						c0.4-0.36,0.79-0.69,0.61-0.97c-0.22-0.33-1.16-0.44-2.07-0.55c-1.07-0.13-2.16-0.26-2.51-0.77c-0.39-0.58,0.35-1.33,2.33-2.37
						c0.17-0.09,0.43-0.09,0.57,0.02c0.15,0.1,0.14,0.24-0.03,0.33c-2.16,1.14-2.26,1.65-2.12,1.85c0.19,0.28,1.07,0.38,1.92,0.48
						c1.08,0.13,2.29,0.27,2.67,0.84c0.33,0.5-0.21,0.97-0.69,1.39c-0.42,0.37-0.81,0.71-0.61,1c0.18,0.26,0.76,0.36,1.43,0.47
						c0.78,0.13,1.66,0.27,2.13,0.74c0.48,0.49-0.04,0.99-0.5,1.43c-0.41,0.39-0.79,0.76-0.61,1.1c0.2,0.39,1.05,0.71,2.44,0.92
						c0.22,0.03,0.35,0.16,0.29,0.29c-0.06,0.13-0.28,0.2-0.5,0.17C383.36,520.85,382.55,520.62,382.03,520.32z"/>
				</g>
			</g>
		</g>
		<g>
			<path class="st137" d="M400.19,536.45c-0.01-0.01-0.04-0.03-0.04-0.03c-0.03-0.01-0.06,0-0.1,0.02c0.04-0.03,0.07-0.03,0.1-0.02
				l-2.62-2.26h0l-15.03-6.6l-0.72,0.53l-0.19-0.08l-0.38,1.42l0.33,0.14l0.33,0.37l15.03,6.6l0,0l3.09,0.26
				c0.02,0.01,0.03,0.01,0.05,0.01c0,0,0.12,0.02,0.63,0.05C400.82,536.87,400.31,536.54,400.19,536.45z"/>
			<g>
				
					<linearGradient id="SVGID_00000114793145845274898160000000649468937153005491_" gradientUnits="userSpaceOnUse" x1="212.4867" y1="-2.4697" x2="212.4867" y2="0.1154" gradientTransform="matrix(0.8055 -0.5927 0.1276 1.1476 226.3135 661.8592)">
					<stop  offset="0" style="stop-color:#D2D4DE"/>
					<stop  offset="0.5" style="stop-color:#D2D4DE"/>
					<stop  offset="1" style="stop-color:#DCDEE5"/>
				</linearGradient>
				<polygon style="fill:url(#SVGID_00000114793145845274898160000000649468937153005491_);" points="397.62,533.21 396.79,533.82 
					396.47,535.01 396.99,535.59 397.82,534.98 398.13,533.79 				"/>
				<g>
					
						<rect x="390.47" y="522.23" transform="matrix(0.4009 -0.9161 0.9161 0.4009 -252.8581 676.3723)" class="st139" width="0.53" height="18.59"/>
				</g>
				<path class="st21" d="M400.24,535.47c-0.03-0.01-0.06,0-0.1,0.02c-0.08,0.06-0.13,0.18-0.12,0.27c0.01,0.05,0.02,0.08,0.06,0.09
					l-3.09-0.26l-1.1-0.96l0.24-1.45l1.5,0.03L400.24,535.47z"/>
				
					<linearGradient id="SVGID_00000152253541241613758130000006770590306251337144_" gradientUnits="userSpaceOnUse" x1="-4542.8101" y1="531.1096" x2="-4527.4619" y2="531.1096" gradientTransform="matrix(-1 0 0 1 -4146.0205 0)">
					<stop  offset="0" style="stop-color:#F3CAC5"/>
					<stop  offset="0.5" style="stop-color:#F3CAC5"/>
					<stop  offset="1" style="stop-color:#F3CAC5"/>
				</linearGradient>
				<polygon style="fill:url(#SVGID_00000152253541241613758130000006770590306251337144_);" points="381.44,528.4 396.47,535.01 
					396.79,533.82 381.76,527.21 				"/>
				<polygon class="st141" points="382.59,526.6 381.76,527.21 396.79,533.82 397.62,533.21 				"/>
				<polygon class="st141" points="381.44,528.4 381.95,528.98 396.99,535.59 396.47,535.01 				"/>
				<path class="st141" d="M400.28,535.5c-0.01-0.01-0.04-0.03-0.04-0.03c-0.03-0.01-0.06,0-0.1,0.02
					c-0.08,0.06-0.13,0.18-0.12,0.27c0.01,0.05,0.02,0.08,0.06,0.09c0.02,0.01,0.03,0.01,0.05,0.01c0,0,0.12,0.02,0.63,0.05
					C400.91,535.92,400.41,535.59,400.28,535.5z"/>
			</g>
			<polygon class="st142" points="381.68,527.05 396.93,533.75 396.55,535.17 381.3,528.47 			"/>
		</g>
		<g>
			<g>
				<defs>
					<path id="SVGID_00000023243848039036870720000016256684108312300953_" d="M278.75,560.44l-11.58-6.69l-11.58-6.69l-7.44,48.66
						c-0.09,0.61,0.2,1.22,0.73,1.53l0,0c0.85,0.49,1.93,0.05,2.2-0.9l9.76-35.45l6.34,3.66l6.34,3.66l10.16,48.65
						c0.07,0.33,0.28,0.62,0.57,0.79l0,0c0.86,0.5,1.92-0.21,1.79-1.19L278.75,560.44z"/>
				</defs>
				
					<linearGradient id="SVGID_00000005229732367515967320000003763662542316149133_" gradientUnits="userSpaceOnUse" x1="-4432.0669" y1="582.4526" x2="-4394.1455" y2="582.4526" gradientTransform="matrix(-1 0 0 1 -4146.0205 0)">
					<stop  offset="0" style="stop-color:#313D67"/>
					<stop  offset="0.5" style="stop-color:#313D67"/>
					<stop  offset="1" style="stop-color:#313D67"/>
				</linearGradient>
				
					<use xlink:href="#SVGID_00000023243848039036870720000016256684108312300953_"  style="overflow:visible;fill:url(#SVGID_00000005229732367515967320000003763662542316149133_);"/>
				<clipPath id="SVGID_00000018956673331911002260000009923719211408651967_">
					<use xlink:href="#SVGID_00000023243848039036870720000016256684108312300953_"  style="overflow:visible;"/>
				</clipPath>
				
					<linearGradient id="SVGID_00000049188600120516900860000004941772744045652609_" gradientUnits="userSpaceOnUse" x1="521.2664" y1="789.1133" x2="559.1876" y2="789.1133" gradientTransform="matrix(0.9969 -0.0788 0.0788 0.9969 -337.7098 -159.2082)">
					<stop  offset="0" style="stop-color:#EAECF0"/>
					<stop  offset="1" style="stop-color:#EAECF0"/>
				</linearGradient>
				
					<path style="opacity:0.39;clip-path:url(#SVGID_00000018956673331911002260000009923719211408651967_);fill:url(#SVGID_00000049188600120516900860000004941772744045652609_);" d="
					M275.52,560.46l-14.68-4.18l-12.08-5.75l-3.58,49.1c-0.05,0.62,0.29,1.2,0.85,1.46l0,0c0.89,0.42,1.93-0.11,2.12-1.07
					l6.93-36.11l6.61,3.15l6.61,3.15l13.96,47.7c0.1,0.33,0.33,0.6,0.64,0.75l0,0c0.9,0.43,1.9-0.36,1.69-1.33L275.52,560.46z"/>
			</g>
			
				<linearGradient id="SVGID_00000062878199639992106000000006241525392227820719_" gradientUnits="userSpaceOnUse" x1="-4449.3872" y1="566.0814" x2="-4425.7026" y2="566.0814" gradientTransform="matrix(-1 0 0 1 -4146.0205 0)">
				<stop  offset="0" style="stop-color:#313D67"/>
				<stop  offset="0.5" style="stop-color:#313D67"/>
				<stop  offset="1" style="stop-color:#313D67"/>
			</linearGradient>
			<path style="fill:url(#SVGID_00000062878199639992106000000006241525392227820719_);" d="M281.66,546.59l5.42-3.13l16.12,42.79
				c0.36,0.94,0.13,1.9-0.54,2.28l0,0c-0.82,0.47-2-0.06-2.57-1.17l-20.4-39.62L281.66,546.59z"/>
			
				<linearGradient id="SVGID_00000121978324826453937200000016862268325797209494_" gradientUnits="userSpaceOnUse" x1="-4442.9263" y1="558.2659" x2="-4397.1265" y2="558.2659" gradientTransform="matrix(-1 0 0 1 -4146.0205 0)">
				<stop  offset="0" style="stop-color:#F2B7B1"/>
				<stop  offset="0.5" style="stop-color:#F2B7B1"/>
				<stop  offset="1" style="stop-color:#F2B7B1"/>
			</linearGradient>
			<path style="fill:url(#SVGID_00000121978324826453937200000016862268325797209494_);" d="M280.44,540.98l-6.43,1.11
				c-0.16,4.32-4.78,6.28-8.64,4.06l-3.43-1.98l-3.07,0.53c-8.61,1.48-10.65,12.92-3.09,17.29l21.7,12.53
				c4.62,2.67,10.52,0.93,12.97-3.81l4.86-9.43C300.63,550.97,291.87,539.02,280.44,540.98z"/>
			<path class="st0" d="M280.44,540.11l-6.84,1.18c-0.2,2.09-1.15,3.48-2.55,4.02c-1.31,1.22-3.36,1.31-5.68-0.03l-3.43-1.98
				l-3.07,0.53c-8.61,1.48-10.65,12.92-3.09,17.29l21.7,12.53c4.62,2.67,10.52,0.93,12.97-3.81l4.86-9.43
				C300.63,550.09,291.87,538.14,280.44,540.11z"/>
			<path class="st146" d="M271.73,533.35c-2.61-9.09-2.2-12.3-7.29-15.24l-18.73-10.81c-5.09-2.94-6.61,0.68-8.08,6.63l-1.13,5.06
				c0,4.57,3.21,10.14,7.17,12.43l19.37,11.19l3.43,1.98c1.74,1,3.33,1.2,4.57,0.73c1.4-0.53,2.34-1.93,2.55-4.02
				c0.02-0.17,0.04-0.34,0.04-0.51c0-0.11,0.02-0.22,0.02-0.34L271.73,533.35z"/>
			<path class="st147" d="M270.62,534.05c-2.61-9.09-2.2-12.3-7.29-15.24L244.6,508c-5.09-2.94-6.61,0.68-8.08,6.63l-1.13,5.06
				c0,4.57,3.21,10.14,7.17,12.43l19.37,11.19l3.43,1.98c3.86,2.23,7,0.52,7.16-3.8c0-0.11,0.02-0.22,0.02-0.34L270.62,534.05z"/>
			
				<linearGradient id="SVGID_00000096018545798171485680000001618281902287071412_" gradientUnits="userSpaceOnUse" x1="-4406.0137" y1="526.6449" x2="-4394.1455" y2="526.6449" gradientTransform="matrix(-1 0 0 1 -4146.0205 0)">
				<stop  offset="0" style="stop-color:#313D67"/>
				<stop  offset="0.5" style="stop-color:#313D67"/>
				<stop  offset="1" style="stop-color:#313D67"/>
			</linearGradient>
			<path style="fill:url(#SVGID_00000096018545798171485680000001618281902287071412_);" d="M250.42,528.36l7.29,4.21
				c1.27,0.73,2.29,0.14,2.29-1.32l-0.62-2.26c-0.83-2.9-0.89-3.66-2.33-4.87c-1.85-1.55-4.21-2.69-5.98-3.45
				c-1.73-0.74-2.11,0.22-2.58,2.12l-0.36,1.62C248.13,525.85,249.15,527.63,250.42,528.36z"/>
			<g class="st149">
				<defs>
					<path id="SVGID_00000094587870596700385880000012706515781097882243_" class="st149" d="M270.62,534.05
						c-2.61-9.09-2.2-12.3-7.29-15.24L244.6,508c-5.09-2.94-6.61,0.68-8.08,6.63l-1.13,5.06c0,4.57,3.21,10.14,7.17,12.43
						l19.37,11.19l3.43,1.98c3.86,2.23,7,0.52,7.16-3.8c0-0.11,0.02-0.22,0.02-0.34L270.62,534.05z"/>
				</defs>
				<clipPath id="SVGID_00000000910397538917542740000014862209584092298637_">
					<use xlink:href="#SVGID_00000094587870596700385880000012706515781097882243_"  style="overflow:visible;"/>
				</clipPath>
				<g style="opacity:0.25;clip-path:url(#SVGID_00000000910397538917542740000014862209584092298637_);">
					<g>
						
							<rect x="216.86" y="519.08" transform="matrix(0.6717 -0.7409 0.7409 0.6717 -305.128 357.696)" class="st15" width="68.27" height="8.02"/>
					</g>
					<g>
						
							<rect x="230.89" y="526.8" transform="matrix(0.6717 -0.7409 0.7409 0.6717 -304.6827 369.9402)" class="st15" width="68.27" height="3.82"/>
					</g>
				</g>
			</g>
			
				<linearGradient id="SVGID_00000067217953022814282870000000794393820934655887_" gradientUnits="userSpaceOnUse" x1="499.6401" y1="547.2053" x2="514.715" y2="547.2053" gradientTransform="matrix(1 0 0 1 -247.5501 0)">
				<stop  offset="0" style="stop-color:#CED0DB"/>
				<stop  offset="1" style="stop-color:#CED0DB"/>
			</linearGradient>
			<path style="fill:url(#SVGID_00000067217953022814282870000000794393820934655887_);" d="M262.59,565.83
				c-0.35-0.1-0.74-0.27-1.17-0.51c-1.97-1.14-3.78-3.51-4.79-5.98c-0.54-2.03-0.76-4.53-0.84-6.98v-6.98
				c0.01-0.69,0.01-1.35,0-1.93V526.6c0-1.01-0.82-1.83-1.83-1.83c-1.01,0-1.83,0.82-1.83,1.83v18.76c0,0.41-0.01,0.83-0.02,1.27
				c-0.03,1.88-0.06,3.95,0.02,6.03v2.88c0,1.59,0.38,3.3,1.03,4.96c0.68,2.4,1.77,4.43,3.52,5.67c0.03,0.02,0.06,0.04,0.09,0.06
				c0.87,0.91,1.82,1.69,2.81,2.27c1.32,0.76,2.67,1.15,3.98,1.15c1.14,0,2.25-0.29,3.27-0.88l0.32-0.2L262.59,565.83z"/>
			<g>
				<defs>
					<path id="SVGID_00000055692730731385392400000012157984377786151831_" d="M262.59,565.83c-0.35-0.1-0.74-0.27-1.17-0.51
						c-1.97-1.14-3.78-3.51-4.79-5.98c-0.54-2.03-0.76-4.53-0.84-6.98v-6.98c0.01-0.69,0.01-1.35,0-1.93V526.6
						c0-1.01-0.82-1.83-1.83-1.83c-1.01,0-1.83,0.82-1.83,1.83v18.76c0,0.41-0.01,0.83-0.02,1.27c-0.03,1.88-0.06,3.95,0.02,6.03
						v2.88c0,1.59,0.38,3.3,1.03,4.96c0.68,2.4,1.96,4.54,3.49,6.05c2.4,2.37,4.97,3.09,6.91,3.09c1.14,0,2.25-0.29,3.27-0.88
						l0.32-0.2L262.59,565.83z"/>
				</defs>
				<clipPath id="SVGID_00000086650688112141872600000004237681065387850658_">
					<use xlink:href="#SVGID_00000055692730731385392400000012157984377786151831_"  style="overflow:visible;"/>
				</clipPath>
				
					<linearGradient id="SVGID_00000127731270454139667760000011725747175129599630_" gradientUnits="userSpaceOnUse" x1="497.4602" y1="543.8039" x2="516.0907" y2="543.8039" gradientTransform="matrix(1 0 0 1 -247.5501 0)">
					<stop  offset="0" style="stop-color:#EAECF0"/>
					<stop  offset="1" style="stop-color:#EAECF0"/>
				</linearGradient>
				
					<path style="clip-path:url(#SVGID_00000086650688112141872600000004237681065387850658_);fill:url(#SVGID_00000127731270454139667760000011725747175129599630_);" d="
					M266.51,567.79c-3.4,0.98-6.46-0.57-6.89-0.82c-1.97-1.14-3.81-3.38-4.82-5.85c-0.54-2.03-1.11-4.48-1.19-6.93v-6.98
					c0.01-0.69,0.01-1.35,0-1.93v-15.53c0-0.92,0.06-1.82,0.32-2.64c0.25-0.79,1.18-1.13,1.89-0.7l1.04,0.63l-3.25-9.07
					c0-1.01-0.82-1.83-1.83-1.83c-1.01,0-1.83,11.28-1.83,12.29v18.76c0,0.41-0.01,0.83-0.02,1.27c-0.03,1.88-0.06,3.95,0.02,6.03
					v2.88c0,1.59,0.38,3.3,1.03,4.96c0.68,2.4,1.77,4.43,3.52,5.67c0.03,0.02,0.06,0.04,0.09,0.06c0.87,0.91,1.82,1.7,2.81,2.27
					c1.32,0.76,2.67,1.15,3.98,1.15c1.14,0,2.25-0.29,3.27-0.88l3.88-0.74L266.51,567.79z"/>
			</g>
		</g>
	</g>
	<g>
		<g>
			<path class="st21" d="M293.98,473.18c0.32,0,0.57-0.26,0.57-0.57v-6.12c0-0.32-0.26-0.57-0.57-0.57c-0.32,0-0.57,0.26-0.57,0.57
				v6.12C293.41,472.92,293.67,473.18,293.98,473.18z"/>
		</g>
		<g>
			<path class="st21" d="M284.05,469.93c0.01,0,0.01,0,0.02,0l9.93-0.38c0.32-0.01,0.56-0.28,0.55-0.59
				c-0.01-0.32-0.28-0.56-0.59-0.55l-9.93,0.38c-0.32,0.01-0.56,0.28-0.55,0.59C283.49,469.69,283.74,469.93,284.05,469.93z"/>
		</g>
	</g>
</g>
</svg>
