<?xml version="1.0" encoding="utf-8"?>
<!-- Generator: Adobe Illustrator 28.3.0, SVG Export Plug-In . SVG Version: 6.00 Build 0)  -->
<svg version="1.1" id="Layer_1" xmlns="http://www.w3.org/2000/svg" xmlns:xlink="http://www.w3.org/1999/xlink" x="0px" y="0px"
	 viewBox="272.62 466.56 169.59 117.21" style="enable-background:new 272.62 466.56 169.59 117.21;" xml:space="preserve">
<style type="text/css">
	.st0{fill:#D3DFD5;}
	.st1{fill:#A8AEBF;}
	.st2{fill:url(#SVGID_1_);}
	.st3{fill:url(#SVGID_00000162335977846764567920000004874405162509772943_);}
	.st4{opacity:0.4;}
	.st5{fill:#838BA4;}
	.st6{fill:url(#SVGID_00000030463383865101116760000007872103069331679150_);}
	.st7{fill:#EB9288;}
	.st8{fill-rule:evenodd;clip-rule:evenodd;fill:#E16253;}
	.st9{fill:#E07C70;}
	.st10{fill:#D2D4DE;}
	.st11{fill:#E6E8ED;}
	.st12{fill:#B0AB83;}
	.st13{fill:url(#SVGID_00000128479610141259485670000016668433765868730268_);}
	.st14{fill:url(#SVGID_00000052095663056423263160000014634315287417681815_);}
	.st15{fill:#C9CDD7;}
	.st16{fill:url(#SVGID_00000107575364234663067040000007599543901559071618_);}
	.st17{fill:url(#SVGID_00000083797593620621025170000008452761374585277573_);}
	.st18{fill:url(#SVGID_00000100357839334922406610000004199623613473604507_);}
	.st19{opacity:0.13;fill:#AC969B;}
	.st20{fill:#F6EEF0;}
	.st21{fill:#FFFFFF;}
	.st22{fill:#BDC1CE;}
	.st23{fill:#EADADE;}
	.st24{fill:#EEB3AC;}
	.st25{fill:url(#SVGID_00000175291160425053146220000012290507316259944629_);}
	.st26{fill:url(#SVGID_00000038384227339493913440000004999518761452653481_);}
	.st27{fill:url(#SVGID_00000168110402753995825970000002503258863212818346_);}
	.st28{fill:url(#SVGID_00000031185921773926131010000002146405825395941806_);}
	.st29{fill:url(#SVGID_00000156570738865192286810000001876329947243135122_);}
	.st30{fill:url(#SVGID_00000081616244135557491870000008592647263365462151_);}
	.st31{fill:#231F20;}
	.st32{fill:#EBAAA2;}
	.st33{fill:#E89A91;}
	.st34{fill:#E28175;}
	.st35{fill:#F3CDC8;}
	.st36{fill:#F9E6E3;}
	.st37{fill:#F9F9FA;}
	.st38{fill:#F5F5F7;}
	.st39{fill:#F3F3F6;}
	.st40{fill:#ECEEF1;}
	.st41{fill:#A0596B;}
	.st42{fill:#AC969B;}
	.st43{fill:#B98491;}
	.st44{fill:url(#SVGID_00000088819062226890283240000001150965951203170234_);}
	.st45{fill:#D4B4BC;}
	.st46{fill:#E3CDD3;}
	.st47{fill:#F1E6E9;}
	.st48{fill:#E4887D;}
	.st49{fill:#EBA8A0;}
	.st50{fill:#F9E4E2;}
	.st51{fill:#FAEAE8;}
	.st52{fill:#FBEEED;}
	.st53{fill:#FCF4F3;}
	.st54{fill:#FEF9F9;}
	.st55{fill:#444E75;}
	.st56{fill:#5C6687;}
	.st57{fill:#717996;}
	.st58{fill:#969CB1;}
	.st59{fill:#F1F1F4;}
	.st60{fill:#A46969;}
	.st61{fill-rule:evenodd;clip-rule:evenodd;fill:#A19B6F;}
	.st62{fill-rule:evenodd;clip-rule:evenodd;fill:url(#SVGID_00000155853233487167707210000001736826829246633606_);}
	.st63{fill:#FCB4AC;}
	.st64{opacity:0.22;}
	.st65{fill:#B57070;}
	.st66{fill:#F7A197;}
	.st67{fill-rule:evenodd;clip-rule:evenodd;fill:url(#SVGID_00000101802514868405657060000009714818507641349516_);}
	.st68{fill:#02384C;}
	.st69{fill-rule:evenodd;clip-rule:evenodd;fill:#B0AB83;}
	.st70{fill:#948F6A;}
	.st71{fill:url(#SVGID_00000039135229477801207690000007848853496473807268_);}
	.st72{fill:#F0A39A;}
	.st73{fill:url(#SVGID_00000006689654450055329820000008377396057391636122_);}
	.st74{fill:url(#SVGID_00000120519577185054235870000004884507773101834890_);}
	.st75{fill:#FDDAC6;}
	.st76{opacity:0.41;}
	.st77{fill:url(#SVGID_00000080890518599089559060000015233887538143211693_);}
	.st78{fill:url(#SVGID_00000133501522472900406550000017856260169728583554_);}
	.st79{fill:url(#SVGID_00000123402422445281213790000010133815308859572143_);}
	.st80{fill:url(#SVGID_00000101103137024991440740000003663321886704876933_);}
	.st81{fill:url(#SVGID_00000044884219216949573590000018355388667760838069_);}
	.st82{fill:url(#SVGID_00000065784531125482547730000007032872432404139703_);}
	.st83{fill:url(#SVGID_00000160170165190357255510000011653850893920873383_);}
	.st84{fill:url(#SVGID_00000131326397870246760550000017172352363210779046_);}
	.st85{fill:url(#SVGID_00000097480726100832725190000001100185455781388169_);}
	.st86{fill-rule:evenodd;clip-rule:evenodd;fill:#C396A2;}
	.st87{fill-rule:evenodd;clip-rule:evenodd;fill:#B67F8D;}
	.st88{fill:url(#SVGID_00000018951939849282711010000001954218339010310295_);}
	.st89{fill:url(#SVGID_00000030487061308602586540000018040627481798030989_);}
	.st90{fill:#7D859F;}
	.st91{opacity:0.25;fill:#AC969B;}
	.st92{fill:url(#SVGID_00000156553275532514969670000013166149246219847574_);}
	.st93{fill:url(#SVGID_00000025445318925813226880000012555441714991331469_);}
	.st94{fill:#BD8B97;}
	.st95{fill:url(#SVGID_00000087396304959500949380000010329592503279511700_);}
	.st96{fill:url(#SVGID_00000120558070576290770420000006116892956249639097_);}
	.st97{fill:url(#SVGID_00000152241047734476710570000013750859181106960306_);}
	.st98{fill:#858DA5;}
	.st99{fill:#F6D6D3;}
	.st100{fill:url(#SVGID_00000049199852031284202820000015210799349871247748_);}
	
		.st101{opacity:0.33;clip-path:url(#SVGID_00000160908589842138802600000008251112923202628792_);fill:url(#SVGID_00000101795298743982672890000016816395667994828419_);}
	
		.st102{opacity:0.33;clip-path:url(#SVGID_00000148649272917704127820000000560493033141300905_);fill:url(#SVGID_00000093153721605726142190000010635356136690024067_);}
	
		.st103{opacity:0.33;clip-path:url(#SVGID_00000100373891058958088750000011530745633683316125_);fill:url(#SVGID_00000151507616015062412220000005806869319777879957_);}
	.st104{fill:url(#SVGID_00000081642045379967880800000018143502980826296210_);}
	.st105{clip-path:url(#SVGID_00000013180058252127717350000003344687618219636102_);}
	.st106{opacity:0.31;fill:#F5EDEF;}
	.st107{fill:url(#SVGID_00000000933393230910844670000017201159948251179678_);}
	.st108{fill:#35416A;}
	.st109{fill:#697190;}
	.st110{fill:#9AA0B5;}
	.st111{fill:#CCCFD9;}
	.st112{clip-path:url(#SVGID_00000032630888671961279540000008627179909664883891_);fill:#D2D4DE;}
	.st113{opacity:0.08;fill:#AC969B;}
	.st114{fill:#BFA3AA;}
	.st115{fill:#DEC5CC;}
	.st116{fill:#EBDCE0;}
	.st117{clip-path:url(#SVGID_00000012452852190024307080000007049650613507188631_);fill:#8A5F5A;}
	.st118{clip-path:url(#SVGID_00000012452852190024307080000007049650613507188631_);}
	.st119{fill:#B0AB7F;}
	.st120{fill:#969166;}
	.st121{clip-path:url(#SVGID_00000012452852190024307080000007049650613507188631_);fill:#B0AB7F;}
	.st122{clip-path:url(#SVGID_00000012452852190024307080000007049650613507188631_);fill:#969166;}
	.st123{opacity:0.72;clip-path:url(#SVGID_00000144297266749147453530000009495426601352374179_);}
	.st124{fill:#D98C66;}
	.st125{fill:#EFAD8D;}
	.st126{opacity:0.72;clip-path:url(#SVGID_00000021096751570025578210000003442498647440248758_);}
	.st127{clip-path:url(#SVGID_00000096740003121636521370000012377678962783528576_);fill:#8A5F5A;}
	.st128{clip-path:url(#SVGID_00000096740003121636521370000012377678962783528576_);fill:#B0AB7F;}
	.st129{clip-path:url(#SVGID_00000096740003121636521370000012377678962783528576_);fill:#969166;}
	.st130{opacity:0.72;clip-path:url(#SVGID_00000084529169002241035070000009174222935499507343_);}
	.st131{clip-path:url(#SVGID_00000014616665050937896160000005451632910554721441_);fill:#8A5F5A;}
	.st132{clip-path:url(#SVGID_00000014616665050937896160000005451632910554721441_);fill:#B0AB7F;}
	.st133{clip-path:url(#SVGID_00000014616665050937896160000005451632910554721441_);fill:#969166;}
	.st134{fill:url(#SVGID_00000051344796849838836660000008521587091650226861_);}
	.st135{fill:#FAABA2;}
	.st136{fill-rule:evenodd;clip-rule:evenodd;fill:#BD8B97;}
	.st137{opacity:0.12;fill:#AC969B;}
	.st138{fill:url(#SVGID_00000157310567323262137890000002020082888264700062_);}
	.st139{fill:#F5D5D1;}
	.st140{fill:url(#SVGID_00000030450130093273436860000009570478977647968929_);}
	.st141{fill:#E79A71;}
	.st142{fill:#F5B593;}
	
		.st143{opacity:0.39;clip-path:url(#SVGID_00000077290232294475356140000003528867530659232938_);fill:url(#SVGID_00000001638619481689825660000015574227372190711193_);}
	.st144{fill:url(#SVGID_00000115479763311669252480000005073270918523615934_);}
	.st145{fill:url(#SVGID_00000147191624806030646300000015597305337342409346_);}
	.st146{fill:#F6C8C2;}
	.st147{fill-rule:evenodd;clip-rule:evenodd;fill:#D3DFD5;}
	.st148{fill:url(#SVGID_00000145059268254506057140000002341446176921495215_);}
	.st149{opacity:0.46;}
	.st150{opacity:0.25;clip-path:url(#SVGID_00000146498012102076705050000012258955036676028847_);}
	.st151{fill:url(#SVGID_00000116923997240839223160000004158424436599430831_);}
	
		.st152{clip-path:url(#SVGID_00000070111941275498067610000008690614798663249792_);fill:url(#SVGID_00000050624141222440052570000001059685711956324782_);}
	.st153{fill:#492B23;}
	.st154{fill:#BC8779;}
	.st155{fill:#AA7065;}
	.st156{fill:#331B18;}
	.st157{fill:#9E5F5F;}
	.st158{fill:#C93F3F;}
	.st159{fill:#D84C4C;}
	.st160{fill:#B2C1B4;}
	.st161{fill:#844B45;}
	.st162{fill:#A86B65;}
	.st163{fill:#6B443E;}
	.st164{fill:#FFC255;}
	.st165{fill:#353D3B;}
	.st166{fill:url(#SVGID_00000065059799461306904120000017204931764930905010_);}
	.st167{fill:url(#SVGID_00000135654159065485146010000015038250335106320023_);}
	.st168{fill:url(#SVGID_00000026145654241328144820000010163691936855560355_);}
	.st169{fill:url(#SVGID_00000176746194806877937030000013975257700018743187_);}
	.st170{fill:url(#SVGID_00000174570817431662053730000011940857446726826662_);}
	.st171{fill:url(#SVGID_00000155117424409488227800000003093158911963907205_);}
	
		.st172{opacity:0.33;clip-path:url(#SVGID_00000172437171840070625270000016220787540763531950_);fill:url(#SVGID_00000021812984224023523860000013531586583656232098_);}
	
		.st173{opacity:0.33;clip-path:url(#SVGID_00000124876290854837265700000006372127442486428548_);fill:url(#SVGID_00000056422443622240836940000000041690466355949490_);}
	
		.st174{opacity:0.33;clip-path:url(#SVGID_00000033355150332587440490000000598624468475481760_);fill:url(#SVGID_00000019658289523404280360000011692446034962401971_);}
	.st175{fill:url(#SVGID_00000036241901089959058760000012633127038017817216_);}
	.st176{clip-path:url(#SVGID_00000033346317830227831390000001081331871510860928_);}
	.st177{fill:url(#SVGID_00000133488375194703865480000010757501579931641233_);}
	.st178{clip-path:url(#SVGID_00000166659279785411621290000009494885822138007444_);fill:#D2D4DE;}
	.st179{clip-path:url(#SVGID_00000087370925631494989940000010623138121653279367_);fill:#8A5F5A;}
	.st180{clip-path:url(#SVGID_00000087370925631494989940000010623138121653279367_);}
	.st181{clip-path:url(#SVGID_00000087370925631494989940000010623138121653279367_);fill:#B0AB7F;}
	.st182{clip-path:url(#SVGID_00000087370925631494989940000010623138121653279367_);fill:#969166;}
	.st183{opacity:0.72;clip-path:url(#SVGID_00000113340831297546676490000013135440681236808890_);}
	.st184{opacity:0.72;clip-path:url(#SVGID_00000052098467698057707400000013456790708101205434_);}
	.st185{clip-path:url(#SVGID_00000176732690009836351240000017007782413034545295_);fill:#8A5F5A;}
	.st186{clip-path:url(#SVGID_00000176732690009836351240000017007782413034545295_);fill:#B0AB7F;}
	.st187{clip-path:url(#SVGID_00000176732690009836351240000017007782413034545295_);fill:#969166;}
	.st188{opacity:0.72;clip-path:url(#SVGID_00000119824479321179120240000006382795360982337983_);}
	.st189{clip-path:url(#SVGID_00000043441285166851633850000009849347804519052180_);fill:#8A5F5A;}
	.st190{clip-path:url(#SVGID_00000043441285166851633850000009849347804519052180_);fill:#B0AB7F;}
	.st191{clip-path:url(#SVGID_00000043441285166851633850000009849347804519052180_);fill:#969166;}
	.st192{fill:url(#SVGID_00000031194425879249780760000014616919820769235618_);}
	.st193{fill:url(#SVGID_00000108992541640576344960000018127216025582833052_);}
	.st194{fill:url(#SVGID_00000019677937363591754520000005161907757423365010_);}
	
		.st195{opacity:0.39;clip-path:url(#SVGID_00000034053433808409401070000005006710403181388711_);fill:url(#SVGID_00000148633996102984607940000005361778644669371788_);}
	.st196{fill:url(#SVGID_00000047751740024772689190000000672493246379373748_);}
	.st197{fill:url(#SVGID_00000031186661516040685630000006345409408223952530_);}
	.st198{fill:url(#SVGID_00000013892052917977259970000017805849336516025478_);}
	.st199{opacity:0.25;clip-path:url(#SVGID_00000162333717010599283870000003561590924169445050_);}
	.st200{fill:url(#SVGID_00000111895723104821200000000014268863245583360683_);}
	
		.st201{clip-path:url(#SVGID_00000005232394201048137450000017123429228393410713_);fill:url(#SVGID_00000101066550867068727850000013598388351216619684_);}
	.st202{fill:url(#SVGID_00000108283914855725707480000006035721409833435050_);}
	.st203{fill:url(#SVGID_00000030470277701591883090000005675107046941227393_);}
	.st204{fill:url(#SVGID_00000173150355441476090640000011800256130982259355_);}
	.st205{fill:url(#SVGID_00000062162680121188325590000016488238466246735795_);}
	.st206{fill:url(#SVGID_00000165233405780907884560000013805754108326637964_);}
	.st207{fill:url(#SVGID_00000176034243001057946800000006670985429923567765_);}
	.st208{fill:url(#SVGID_00000158710991859028550160000007762544140175728773_);}
	.st209{fill:url(#SVGID_00000127029138029088669360000004256153404339562884_);}
	.st210{fill:url(#SVGID_00000031202944768077352930000009183949024002467989_);}
	.st211{fill:url(#SVGID_00000075867869404707488390000006689501871444607656_);}
	.st212{fill:url(#SVGID_00000065775940234902922610000003319865108890350466_);}
	.st213{fill:url(#SVGID_00000028303530792198488460000008135098812534440082_);}
	.st214{fill:url(#SVGID_00000021097423921238867600000016656699085136036515_);}
	.st215{fill:url(#SVGID_00000140006212082026179060000005091899893796727695_);}
	.st216{fill:url(#SVGID_00000093891914772010113260000000522740540299080859_);}
	.st217{fill:url(#SVGID_00000125564682447298157220000002685891018669935766_);}
	.st218{fill:url(#SVGID_00000132778458759511054050000016618546946005691051_);}
	.st219{fill:url(#SVGID_00000036241702807823293640000003594339376992993426_);}
	.st220{fill:url(#SVGID_00000029751200579580862220000008281681362387914371_);}
	.st221{fill:url(#SVGID_00000131343368210404125940000005395107420708687494_);}
	.st222{fill:url(#SVGID_00000114762901592135061400000014766478255969252746_);}
	.st223{fill:url(#SVGID_00000181065444782369986560000014877498919701040309_);}
	.st224{fill:url(#SVGID_00000026141724176993662990000002471721532938168219_);}
	.st225{fill:url(#SVGID_00000155147744385081067520000004133807702902743681_);}
	.st226{fill:url(#SVGID_00000005229490370602999050000006271393207231511452_);}
	.st227{fill:url(#SVGID_00000082345206831634725120000015204184835636107422_);}
	.st228{fill:url(#SVGID_00000103233101856392557450000006060310165142358431_);}
	.st229{fill:url(#SVGID_00000183946777344788823820000014942886172066414756_);}
	.st230{fill:url(#SVGID_00000036948586396569649490000010022600914741953420_);}
	.st231{fill-rule:evenodd;clip-rule:evenodd;fill:url(#SVGID_00000088817767496437513410000003003760030154408853_);}
	.st232{fill-rule:evenodd;clip-rule:evenodd;fill:url(#SVGID_00000013182864738732168300000008559458485063981711_);}
</style>
<g>
	<polygon class="st19" points="384.09,572.34 360.94,583.77 272.62,536.62 295.77,525.19 	"/>
	<g>
		<g>
			<g>
				<g>
					<path class="st1" d="M337.52,489.46c-0.11-3.31,2.08-7.4,4.89-9.15c1.31-0.81,2.52-0.97,3.45-0.58l0,0l0,0
						c0.14,0.06,0.26,0.13,0.39,0.21l3.28,1.75c-0.94-0.44-2.18-0.3-3.53,0.54c-2.81,1.75-5,5.84-4.89,9.15
						c0.05,1.58,0.62,2.69,1.5,3.23l-3.29-1.75c-0.12-0.05-0.24-0.12-0.35-0.19l0,0l0,0C338.12,492.11,337.57,491.01,337.52,489.46z
						"/>
				</g>
				<path class="st7" d="M338.28,494.22c-0.18-5.61,3.53-12.57,8.3-15.53c2.22-1.38,4.28-1.65,5.86-0.98l0,0l0,0
					c0.23,0.1,0.45,0.21,0.66,0.35l84.47,45.15l-12.76,21.32l-83.46-44.54c-0.21-0.09-0.41-0.2-0.6-0.32l0,0l0,0
					C339.3,498.73,338.37,496.86,338.28,494.22z"/>
				<g class="st4">
					<path class="st60" d="M431.66,544.13c-2.71,1.69-5.18,1.72-6.84,0.4l0,0l-83.46-44.54c-0.21-0.09-0.41-0.2-0.6-0.32l0,0l0,0
						c-1.46-0.94-2.39-2.81-2.47-5.44c-0.06-1.79,0.28-3.71,0.92-5.59l96.81,51.35C434.75,541.68,433.27,543.13,431.66,544.13z"/>
				</g>
				<path class="st8" d="M422.69,539.34c0.18,5.61,4.2,7.76,8.97,4.79c4.77-2.97,8.49-9.92,8.3-15.53c-0.18-5.61-4.2-7.76-8.97-4.79
					C426.22,526.77,422.51,533.72,422.69,539.34z"/>
				<path class="st57" d="M437.18,528.78l3.28,1.75c0,0,1.45,4.93,0.65,6.66s-2.7,5.04-4.51,5.19c-1.81,0.15-3.24,0.11-3.24,0.11
					l-3.1-0.79L437.18,528.78z"/>
				<g>
					<path class="st10" d="M428.44,538.31c-0.11-3.31,2.08-7.4,4.89-9.15c1.31-0.81,2.52-0.97,3.45-0.58l0,0l0,0
						c0.14,0.06,0.26,0.13,0.39,0.21l3.28,1.75c-0.94-0.44-2.18-0.3-3.53,0.54c-2.81,1.75-5,5.84-4.89,9.15
						c0.05,1.58,0.62,2.69,1.5,3.23l-3.29-1.75c-0.12-0.05-0.24-0.12-0.35-0.19l0,0v0C429.04,540.96,428.49,539.86,428.44,538.31z"
						/>
				</g>
				<path class="st11" d="M439.32,531.82c1.17,0,1.34,1.49,1.36,2.13c0.09,2.77-1.82,6.34-4.17,7.8c-0.74,0.46-1.27,0.56-1.59,0.56
					c-1.17,0-1.34-1.49-1.36-2.13c-0.09-2.77,1.82-6.34,4.17-7.8C438.47,531.91,439,531.82,439.32,531.82L439.32,531.82
					L439.32,531.82z M439.32,530.29c-0.72,0-1.54,0.25-2.4,0.79c-2.81,1.75-5,5.84-4.89,9.15c0.08,2.3,1.24,3.61,2.89,3.61
					c0.72,0,1.54-0.25,2.4-0.79c2.81-1.75,5-5.84,4.89-9.15C442.13,531.6,440.97,530.29,439.32,530.29L439.32,530.29z"/>
			</g>
			<polygon class="st61" points="293.14,526.8 381.47,574.2 413.53,554.26 325.19,506.87 			"/>
			<g>
				<g>
					<path class="st1" d="M318.61,499.98c-0.11-3.31,2.08-7.4,4.89-9.15c1.31-0.81,2.52-0.97,3.45-0.58l0,0l0,0
						c0.14,0.06,0.26,0.13,0.39,0.21l3.28,1.75c-0.94-0.44-2.18-0.3-3.53,0.54c-2.81,1.75-5,5.84-4.89,9.15
						c0.05,1.58,0.62,2.69,1.5,3.23l-3.29-1.75c-0.12-0.05-0.24-0.12-0.35-0.19l0,0l0,0C319.2,502.63,318.66,501.53,318.61,499.98z"
						/>
				</g>
				<path class="st12" d="M319.37,504.74c-0.18-5.61,3.53-12.57,8.3-15.53c2.22-1.38,4.28-1.65,5.86-0.98l0,0l0,0
					c0.23,0.1,0.45,0.21,0.66,0.35l84.47,45.15l-12.76,21.32l-83.46-44.54c-0.21-0.09-0.41-0.2-0.6-0.32l0,0l0,0
					C320.38,509.25,319.45,507.38,319.37,504.74z"/>
				<linearGradient id="SVGID_1_" gradientUnits="userSpaceOnUse" x1="319.3586" y1="527.5666" x2="417.093" y2="527.5666">
					<stop  offset="0" style="stop-color:#928D69"/>
					<stop  offset="0.5" style="stop-color:#928D69"/>
					<stop  offset="1" style="stop-color:#928D69"/>
				</linearGradient>
				<path style="fill-rule:evenodd;clip-rule:evenodd;fill:url(#SVGID_1_);" d="M412.74,554.65c-2.71,1.69-5.18,1.72-6.84,0.4l0,0
					l-83.46-44.54c-0.21-0.09-0.41-0.2-0.6-0.32l0,0l0,0c-1.46-0.94-2.39-2.81-2.47-5.44c-0.06-1.79,0.28-3.71,0.92-5.59
					l96.81,51.35C415.83,552.2,414.35,553.65,412.74,554.65z"/>
				<path class="st61" d="M403.77,549.86c0.18,5.61,4.2,7.76,8.97,4.79c4.77-2.97,8.49-9.92,8.3-15.53
					c-0.18-5.61-4.2-7.76-8.97-4.79C407.3,537.29,403.59,544.24,403.77,549.86z"/>
				<path class="st57" d="M418.26,539.31l3.28,1.75c0,0,1.45,4.93,0.65,6.66c-0.8,1.73-2.7,5.04-4.51,5.19
					c-1.81,0.15-3.24,0.11-3.24,0.11l-3.1-0.79L418.26,539.31z"/>
				<g>
					<path class="st10" d="M409.52,548.83c-0.11-3.31,2.08-7.4,4.89-9.15c1.31-0.81,2.52-0.97,3.45-0.58l0,0l0,0
						c0.14,0.06,0.26,0.13,0.39,0.21l3.28,1.75c-0.94-0.44-2.18-0.3-3.53,0.54c-2.81,1.75-5,5.84-4.89,9.15
						c0.05,1.58,0.62,2.69,1.5,3.23l-3.29-1.75c-0.12-0.05-0.24-0.12-0.35-0.19l0,0l0,0C410.12,551.48,409.57,550.38,409.52,548.83z
						"/>
				</g>
				<path class="st11" d="M420.4,542.34c1.17,0,1.34,1.49,1.36,2.13c0.09,2.77-1.82,6.34-4.17,7.8c-0.74,0.46-1.27,0.56-1.59,0.56
					c-1.17,0-1.34-1.49-1.36-2.13c-0.09-2.77,1.82-6.34,4.17-7.8C419.55,542.43,420.08,542.34,420.4,542.34L420.4,542.34
					L420.4,542.34z M420.4,540.81c-0.72,0-1.54,0.25-2.4,0.79c-2.81,1.75-5,5.84-4.89,9.15c0.08,2.3,1.24,3.61,2.89,3.61
					c0.72,0,1.54-0.25,2.4-0.79c2.81-1.75,5-5.84,4.89-9.15C423.21,542.12,422.05,540.81,420.4,540.81L420.4,540.81z"/>
			</g>
			<g>
				<g>
					<path class="st1" d="M324.96,478.65c-0.11-3.31,2.08-7.4,4.89-9.15c1.31-0.81,2.52-0.97,3.45-0.58l0,0l0,0
						c0.14,0.06,0.26,0.13,0.39,0.21l3.28,1.75c-0.94-0.44-2.18-0.3-3.53,0.54c-2.81,1.75-5,5.84-4.89,9.15
						c0.05,1.58,0.62,2.69,1.5,3.23l-3.29-1.75c-0.12-0.05-0.24-0.12-0.35-0.19l0,0l0,0C325.56,481.31,325.01,480.2,324.96,478.65z"
						/>
				</g>
				<path class="st63" d="M325.72,483.42c-0.18-5.61,3.53-12.57,8.3-15.53c2.22-1.38,4.28-1.65,5.86-0.98l0,0l0,0
					c0.23,0.1,0.45,0.21,0.66,0.35l84.47,45.15l-12.76,21.32l-83.46-44.54c-0.21-0.09-0.41-0.2-0.6-0.32l0,0l0,0
					C326.74,487.92,325.8,486.05,325.72,483.42z"/>
				<g class="st64">
					<path class="st65" d="M419.09,533.32c-2.71,1.69-5.18,1.72-6.84,0.4l0,0l-83.46-44.54c-0.21-0.09-0.41-0.2-0.6-0.32l0,0l0,0
						c-1.46-0.94-2.39-2.81-2.47-5.44c-0.06-1.79,0.28-3.71,0.92-5.59l96.81,51.35C422.19,530.87,420.7,532.32,419.09,533.32z"/>
				</g>
				<path class="st66" d="M410.12,528.53c0.18,5.61,4.2,7.76,8.97,4.79c4.77-2.97,8.49-9.92,8.3-15.53
					c-0.18-5.61-4.2-7.76-8.97-4.79C413.66,515.96,409.94,522.92,410.12,528.53z"/>
				<path class="st57" d="M424.61,517.98l3.28,1.75c0,0,1.45,4.93,0.65,6.66c-0.8,1.73-2.7,5.04-4.51,5.19
					c-1.81,0.15-3.24,0.11-3.24,0.11l-3.1-0.79L424.61,517.98z"/>
				<g>
					<path class="st10" d="M415.87,527.5c-0.11-3.31,2.08-7.4,4.89-9.15c1.31-0.81,2.52-0.97,3.45-0.58l0,0l0,0
						c0.14,0.06,0.26,0.13,0.39,0.21l3.28,1.75c-0.94-0.44-2.18-0.3-3.53,0.54c-2.81,1.75-5,5.84-4.89,9.15
						c0.05,1.58,0.62,2.69,1.5,3.23l-3.29-1.75c-0.12-0.05-0.24-0.12-0.35-0.19l0,0l0,0C416.47,530.16,415.93,529.05,415.87,527.5z"
						/>
				</g>
				<path class="st11" d="M426.75,521.01c1.17,0,1.34,1.49,1.36,2.13c0.09,2.77-1.82,6.34-4.17,7.8c-0.74,0.46-1.27,0.56-1.59,0.56
					c-1.17,0-1.34-1.49-1.36-2.13c-0.09-2.77,1.82-6.34,4.17-7.8C425.9,521.11,426.44,521.01,426.75,521.01L426.75,521.01
					L426.75,521.01z M426.75,519.48c-0.72,0-1.54,0.25-2.4,0.79c-2.81,1.75-5,5.84-4.89,9.15c0.08,2.3,1.24,3.61,2.89,3.61
					c0.72,0,1.54-0.25,2.4-0.79c2.81-1.75,5-5.84,4.89-9.15C429.57,520.79,428.4,519.48,426.75,519.48L426.75,519.48z"/>
			</g>
		</g>
		
			<linearGradient id="SVGID_00000087381188547707859280000002200960254999128198_" gradientUnits="userSpaceOnUse" x1="277.1343" y1="552.1835" x2="381.4745" y2="552.1835">
			<stop  offset="0" style="stop-color:#928D69"/>
			<stop  offset="0.5" style="stop-color:#928D69"/>
			<stop  offset="1" style="stop-color:#928D69"/>
		</linearGradient>
		<path style="fill-rule:evenodd;clip-rule:evenodd;fill:url(#SVGID_00000087381188547707859280000002200960254999128198_);" d="
			M277.13,527.33c6.91,6.69,16-0.52,16-0.52l88.34,47.39c0,0-9.1,7.22-16,0.52L277.13,527.33z"/>
	</g>
</g>
</svg>
