<?xml version="1.0" encoding="utf-8"?>
<!-- Generator: Adobe Illustrator 28.3.0, SVG Export Plug-In . SVG Version: 6.00 Build 0)  -->
<svg version="1.1" id="Layer_1" xmlns="http://www.w3.org/2000/svg" xmlns:xlink="http://www.w3.org/1999/xlink" x="0px" y="0px"
	 viewBox="284.82 362.1 119.42 283.93" style="enable-background:new 284.82 362.1 119.42 283.93;" xml:space="preserve">
<style type="text/css">
	.st0{fill:#02384c;}
	.st1{fill:#A8AEBF;}
	.st2{fill:url(#SVGID_1_);}
	.st3{fill:url(#SVGID_00000110471248741005089870000000391835249805512360_);}
	.st4{opacity:0.4;}
	.st5{fill:#838BA4;}
	.st6{fill:url(#SVGID_00000037653023615499180650000017609162216541325230_);}
	.st7{fill:#EB9288;}
	.st8{fill-rule:evenodd;clip-rule:evenodd;fill:#E16253;}
	.st9{fill:#E07C70;}
	.st10{fill:#D2D4DE;}
	.st11{fill:#E6E8ED;}
	.st12{fill:#B0AB83;}
	.st13{fill:url(#SVGID_00000021829354961116224570000004302173309255951495_);}
	.st14{fill:url(#SVGID_00000040543220616502679300000005822844097973559481_);}
	.st15{fill:#C9CDD7;}
	.st16{fill:url(#SVGID_00000108279881829304227830000013624054874556189598_);}
	.st17{fill:url(#SVGID_00000175292438100255935230000014489762843206047650_);}
	.st18{fill:url(#SVGID_00000121976328598565109650000005071515146955957426_);}
	.st19{opacity:0.13;fill:#AC969B;}
	.st20{fill:#F6EEF0;}
	.st21{fill:#FFFFFF;}
	.st22{fill:#BDC1CE;}
	.st23{fill:#EADADE;}
	.st24{fill:#EEB3AC;}
	.st25{fill:url(#SVGID_00000157306525670133227310000002047845050527194005_);}
	.st26{fill:url(#SVGID_00000100359667242921030040000000256944844869503138_);}
	.st27{fill:url(#SVGID_00000056409747104501827220000015483551978158528436_);}
	.st28{fill:url(#SVGID_00000157303316263448391480000000783066339421535640_);}
	.st29{fill:url(#SVGID_00000090983730206015933300000014717299585987242886_);}
	.st30{fill:url(#SVGID_00000057866790854849771060000017298972764113712539_);}
	.st31{fill:#231F20;}
	.st32{fill:#EBAAA2;}
	.st33{fill:#E89A91;}
	.st34{fill:#E28175;}
	.st35{fill:#F3CDC8;}
	.st36{fill:#F9E6E3;}
	.st37{fill:#F9F9FA;}
	.st38{fill:#F5F5F7;}
	.st39{fill:#F3F3F6;}
	.st40{fill:#ECEEF1;}
	.st41{fill:#A0596B;}
	.st42{fill:#AC969B;}
	.st43{fill:#B98491;}
	.st44{fill:url(#SVGID_00000040573225556580197060000013884637846738533504_);}
	.st45{fill:#D4B4BC;}
	.st46{fill:#E3CDD3;}
	.st47{fill:#F1E6E9;}
	.st48{fill:#E4887D;}
	.st49{fill:#EBA8A0;}
	.st50{fill:#F9E4E2;}
	.st51{fill:#FAEAE8;}
	.st52{fill:#FBEEED;}
	.st53{fill:#FCF4F3;}
	.st54{fill:#FEF9F9;}
	.st55{fill:#444E75;}
	.st56{fill:#5C6687;}
	.st57{fill:#717996;}
	.st58{fill:#969CB1;}
	.st59{fill:#F1F1F4;}
	.st60{fill:#A46969;}
	.st61{fill-rule:evenodd;clip-rule:evenodd;fill:#A19B6F;}
	.st62{fill-rule:evenodd;clip-rule:evenodd;fill:url(#SVGID_00000165947575184283991440000003379146794596802200_);}
	.st63{fill:#FCB4AC;}
	.st64{opacity:0.22;}
	.st65{fill:#B57070;}
	.st66{fill:#F7A197;}
	.st67{fill-rule:evenodd;clip-rule:evenodd;fill:url(#SVGID_00000105391353361297254760000003278177050077021824_);}
	.st68{fill:#02384C;}
	.st69{fill-rule:evenodd;clip-rule:evenodd;fill:#B0AB83;}
	.st70{fill:#948F6A;}
	.st71{fill:url(#SVGID_00000066496472820850662660000015114398721484090540_);}
	.st72{fill:#F0A39A;}
	.st73{fill:url(#SVGID_00000103987996432984048750000010055501705589960360_);}
	.st74{fill:url(#SVGID_00000025438941041292590580000001624814594857119655_);}
	.st75{fill:#FDDAC6;}
	.st76{opacity:0.41;}
	.st77{fill:url(#SVGID_00000147933917408788831150000012940907708091027864_);}
	.st78{fill:url(#SVGID_00000181783937621748518530000014238135961640595640_);}
	.st79{fill:url(#SVGID_00000057133747389679300060000014531762022689775543_);}
	.st80{fill:url(#SVGID_00000067195285262269788730000012925719472995683209_);}
	.st81{fill:url(#SVGID_00000016757991382993798010000001919527647358962361_);}
	.st82{fill:url(#SVGID_00000164499027715179841640000014303771916483647133_);}
	.st83{fill:url(#SVGID_00000143584323564075571630000007488514771762793105_);}
	.st84{fill:url(#SVGID_00000067931999106042349570000009035137761767411107_);}
	.st85{fill:url(#SVGID_00000059299505594327454420000009569492129135441327_);}
	.st86{fill-rule:evenodd;clip-rule:evenodd;fill:#C396A2;}
	.st87{fill-rule:evenodd;clip-rule:evenodd;fill:#B67F8D;}
	.st88{fill:url(#SVGID_00000109729165192933062260000001100319134236680583_);}
	.st89{fill:url(#SVGID_00000082343193670300901930000014639078958308284844_);}
	.st90{fill:#7D859F;}
	.st91{opacity:0.25;fill:#AC969B;}
	.st92{fill:url(#SVGID_00000137854331780161489670000014828703348286607747_);}
	.st93{fill:url(#SVGID_00000052793859436855040900000015672223648784306570_);}
	.st94{fill:#BD8B97;}
	.st95{fill:url(#SVGID_00000005958060901501680440000014434929340828629901_);}
	.st96{fill:url(#SVGID_00000095324163771704897700000003295538759542064314_);}
	.st97{fill:url(#SVGID_00000055677899588007214230000008479843727365867955_);}
	.st98{fill:#858DA5;}
	.st99{fill:#F6D6D3;}
	.st100{fill:url(#SVGID_00000131364093548667375100000003798447113527027633_);}
	
		.st101{opacity:0.33;clip-path:url(#SVGID_00000091713262389106691800000013616786252345136522_);fill:url(#SVGID_00000165927692931984440310000011743944880287764362_);}
	
		.st102{opacity:0.33;clip-path:url(#SVGID_00000085945771129466850230000015028419261130770567_);fill:url(#SVGID_00000006704408361837404600000018246465511243985323_);}
	
		.st103{opacity:0.33;clip-path:url(#SVGID_00000173852156040484471620000016921793989782977678_);fill:url(#SVGID_00000116209808612308146910000005485346551056537525_);}
	.st104{fill:url(#SVGID_00000044158379408242394500000016076113759471827638_);}
	.st105{clip-path:url(#SVGID_00000006707287060077914710000002724599403240345516_);}
	.st106{opacity:0.31;fill:#F5EDEF;}
	.st107{fill:url(#SVGID_00000057132967527696485700000016369272158556084104_);}
	.st108{fill:#35416A;}
	.st109{fill:#697190;}
	.st110{fill:#9AA0B5;}
	.st111{fill:#CCCFD9;}
	.st112{clip-path:url(#SVGID_00000169517694931630439940000012194531845149593497_);fill:#D2D4DE;}
	.st113{opacity:0.08;fill:#AC969B;}
	.st114{fill:#BFA3AA;}
	.st115{fill:#DEC5CC;}
	.st116{fill:#EBDCE0;}
	.st117{clip-path:url(#SVGID_00000150088212202553666440000006900431725887213982_);fill:#8A5F5A;}
	.st118{clip-path:url(#SVGID_00000150088212202553666440000006900431725887213982_);}
	.st119{fill:#B0AB7F;}
	.st120{fill:#969166;}
	.st121{clip-path:url(#SVGID_00000150088212202553666440000006900431725887213982_);fill:#B0AB7F;}
	.st122{clip-path:url(#SVGID_00000150088212202553666440000006900431725887213982_);fill:#969166;}
	.st123{opacity:0.72;clip-path:url(#SVGID_00000172417444346932513530000018281124030963976364_);}
	.st124{fill:#D98C66;}
	.st125{fill:#EFAD8D;}
	.st126{opacity:0.72;clip-path:url(#SVGID_00000139993544977890366900000012693509212695775360_);}
	.st127{clip-path:url(#SVGID_00000057129335358535252600000001081085228553111721_);fill:#8A5F5A;}
	.st128{clip-path:url(#SVGID_00000057129335358535252600000001081085228553111721_);fill:#B0AB7F;}
	.st129{clip-path:url(#SVGID_00000057129335358535252600000001081085228553111721_);fill:#969166;}
	.st130{opacity:0.72;clip-path:url(#SVGID_00000021111455067846457740000014843414459714295978_);}
	.st131{clip-path:url(#SVGID_00000067238047403365805270000016634098194201778092_);fill:#8A5F5A;}
	.st132{clip-path:url(#SVGID_00000067238047403365805270000016634098194201778092_);fill:#B0AB7F;}
	.st133{clip-path:url(#SVGID_00000067238047403365805270000016634098194201778092_);fill:#969166;}
	.st134{fill:url(#SVGID_00000072985149023050764010000008687017518089064323_);}
	.st135{fill:#FAABA2;}
	.st136{fill-rule:evenodd;clip-rule:evenodd;fill:#BD8B97;}
	.st137{opacity:0.12;fill:#AC969B;}
	.st138{fill:url(#SVGID_00000131332946890143138860000009896006078476976546_);}
	.st139{fill:#F5D5D1;}
	.st140{fill:url(#SVGID_00000016076633932279782250000010836348434838439812_);}
	.st141{fill:#E79A71;}
	.st142{fill:#F5B593;}
	
		.st143{opacity:0.39;clip-path:url(#SVGID_00000013157844688341183490000009597848371607939745_);fill:url(#SVGID_00000064325419058373685890000006158982568428315025_);}
	.st144{fill:url(#SVGID_00000099630649445593720400000005835981304499893932_);}
	.st145{fill:url(#SVGID_00000147933612321841624560000014022997393476004256_);}
	.st146{fill:#F6C8C2;}
	.st147{fill-rule:evenodd;clip-rule:evenodd;fill:#02384c;}
	.st148{fill:url(#SVGID_00000037682144603360164960000004214912956169328050_);}
	.st149{opacity:0.46;}
	.st150{opacity:0.25;clip-path:url(#SVGID_00000141437026056144995390000004594378131436841349_);}
	.st151{fill:url(#SVGID_00000049219766962698101490000001861394858785612177_);}
	
		.st152{clip-path:url(#SVGID_00000048484103048641800040000016356018919663017351_);fill:url(#SVGID_00000091718411013590064950000005095094921012549259_);}
	.st153{fill:#492B23;}
	.st154{fill:#BC8779;}
	.st155{fill:#AA7065;}
	.st156{fill:#331B18;}
	.st157{fill:#9E5F5F;}
	.st158{fill:#C93F3F;}
	.st159{fill:#D84C4C;}
	.st160{fill:#B2C1B4;}
	.st161{fill:#844B45;}
	.st162{fill:#A86B65;}
	.st163{fill:#6B443E;}
	.st164{fill:#FFC255;}
	.st165{fill:#353D3B;}
	.st166{fill:url(#SVGID_00000124135900475344707770000006715193986054000825_);}
	.st167{fill:url(#SVGID_00000042699437862545767280000016309367417621654670_);}
	.st168{fill:url(#SVGID_00000070817755417615571660000009674203794796797069_);}
	.st169{fill:url(#SVGID_00000013152637721661265090000013043419895982518449_);}
	.st170{fill:url(#SVGID_00000171683799188962507530000004878341045414563458_);}
	.st171{fill:url(#SVGID_00000159438175231276614810000014632558925281135286_);}
	
		.st172{opacity:0.33;clip-path:url(#SVGID_00000150104712397569925950000015343700692186931381_);fill:url(#SVGID_00000066511202929453150650000010647881539596597134_);}
	
		.st173{opacity:0.33;clip-path:url(#SVGID_00000074414417797945902690000010910074996436032655_);fill:url(#SVGID_00000075864170552539155590000015482597837371066003_);}
	
		.st174{opacity:0.33;clip-path:url(#SVGID_00000047758592488863269030000006524984533940901516_);fill:url(#SVGID_00000007416870540511590050000005530343499354030015_);}
	.st175{fill:url(#SVGID_00000050631622270455333580000011358743270264515988_);}
	.st176{clip-path:url(#SVGID_00000026148777268465833160000013766137378555858050_);}
	.st177{fill:url(#SVGID_00000108275587501663418990000001003349641400796327_);}
	.st178{clip-path:url(#SVGID_00000160910826468615258140000001688506933332349588_);fill:#D2D4DE;}
	.st179{clip-path:url(#SVGID_00000112622680479331106800000015038389668578211978_);fill:#8A5F5A;}
	.st180{clip-path:url(#SVGID_00000112622680479331106800000015038389668578211978_);}
	.st181{clip-path:url(#SVGID_00000112622680479331106800000015038389668578211978_);fill:#B0AB7F;}
	.st182{clip-path:url(#SVGID_00000112622680479331106800000015038389668578211978_);fill:#969166;}
	.st183{opacity:0.72;clip-path:url(#SVGID_00000176018152823055310850000000387768260693660856_);}
	.st184{opacity:0.72;clip-path:url(#SVGID_00000121969032155641822360000016520339238864183219_);}
	.st185{clip-path:url(#SVGID_00000062876667968936605260000011483860895967001513_);fill:#8A5F5A;}
	.st186{clip-path:url(#SVGID_00000062876667968936605260000011483860895967001513_);fill:#B0AB7F;}
	.st187{clip-path:url(#SVGID_00000062876667968936605260000011483860895967001513_);fill:#969166;}
	.st188{opacity:0.72;clip-path:url(#SVGID_00000170970475618052915020000013147205111402666376_);}
	.st189{clip-path:url(#SVGID_00000139985107658918973810000014523376328573258394_);fill:#8A5F5A;}
	.st190{clip-path:url(#SVGID_00000139985107658918973810000014523376328573258394_);fill:#B0AB7F;}
	.st191{clip-path:url(#SVGID_00000139985107658918973810000014523376328573258394_);fill:#969166;}
	.st192{fill:url(#SVGID_00000132773090909154643740000006979073691783561140_);}
	.st193{fill:url(#SVGID_00000002380452094017878900000001185827322950470569_);}
	.st194{fill:url(#SVGID_00000119083858714563247190000016620701700826944157_);}
	
		.st195{opacity:0.39;clip-path:url(#SVGID_00000093157771759993289580000009626477909346459044_);fill:url(#SVGID_00000099645069909447832990000011798537329833433524_);}
	.st196{fill:url(#SVGID_00000083067521544833260310000014361039954280061578_);}
	.st197{fill:url(#SVGID_00000050643749957725373670000009157630947443362435_);}
	.st198{fill:url(#SVGID_00000182512028636490088710000001114102136367141284_);}
	.st199{opacity:0.25;clip-path:url(#SVGID_00000051348773925156347330000005179670608896150147_);}
	.st200{fill:url(#SVGID_00000003094824199132963250000001065791054893864885_);}
	
		.st201{clip-path:url(#SVGID_00000088855103305816569910000011919064478521342600_);fill:url(#SVGID_00000110437028688963165430000002264993245078020498_);}
	.st202{fill:url(#SVGID_00000073716117284558487040000010515255741935237782_);}
	.st203{fill:url(#SVGID_00000013882774916023193930000014138121302154664860_);}
	.st204{fill:url(#SVGID_00000055680339386081815410000017077865210538296725_);}
	.st205{fill:url(#SVGID_00000183936515136222944850000001907222666627868589_);}
	.st206{fill:url(#SVGID_00000097482691629514379520000018147118442568237489_);}
	.st207{fill:url(#SVGID_00000163058782550869385540000017187780694584842935_);}
	.st208{fill:url(#SVGID_00000169538877271500420920000008185311143860846515_);}
	.st209{fill:url(#SVGID_00000016072166666092951530000005624884292714453923_);}
	.st210{fill:url(#SVGID_00000003082769537356426120000005878095780725367483_);}
	.st211{fill:url(#SVGID_00000093151391483323259320000004087863037249819801_);}
	.st212{fill:url(#SVGID_00000078008364319015066080000002057369768106589612_);}
	.st213{fill:url(#SVGID_00000131350364450251198620000009875742540504415660_);}
	.st214{fill:url(#SVGID_00000109018685624539789870000017789257334526698136_);}
	.st215{fill:url(#SVGID_00000159470735012256767720000012349562482750306457_);}
	.st216{fill:url(#SVGID_00000176723532140251467160000017696771798848075954_);}
	.st217{fill:url(#SVGID_00000163782076620888000990000004103963525239646860_);}
	.st218{fill:url(#SVGID_00000024003240934621057490000015785689149431490463_);}
	.st219{fill:url(#SVGID_00000074407777847272841440000013614359526719093429_);}
	.st220{fill:url(#SVGID_00000132788282781649958630000011261255170553876619_);}
	.st221{fill:url(#SVGID_00000151529060210907643220000007500749723062902974_);}
	.st222{fill:url(#SVGID_00000056417241205561823290000011375345685794127549_);}
	.st223{fill:url(#SVGID_00000008846595151940677930000000502055033774679448_);}
	.st224{fill:url(#SVGID_00000127006589736879411700000009478857070523088002_);}
	.st225{fill:url(#SVGID_00000088835142280728234960000013975365587190052262_);}
	.st226{fill:url(#SVGID_00000132783247345348218230000001664591694461159330_);}
	.st227{fill:url(#SVGID_00000101804591479389619970000004793697150140832445_);}
	.st228{fill:url(#SVGID_00000132065532669427204680000015023000218671484595_);}
	.st229{fill:url(#SVGID_00000088108946421586325890000003713124101420487084_);}
	.st230{fill:url(#SVGID_00000083072773408718952670000000143678169785969050_);}
	.st231{fill-rule:evenodd;clip-rule:evenodd;fill:url(#SVGID_00000101104520678110799120000013274799956893220226_);}
	.st232{fill-rule:evenodd;clip-rule:evenodd;fill:url(#SVGID_00000027586858470636836810000002470428167487722164_);}
</style>
<g>
	<g>
		<g>
			<g>
				<g>
					<g>
						<path class="st0" d="M404.03,603.51l0.21-210.17c0-1.09-0.58-2.1-1.53-2.65l-48.7-28.12c-0.67-0.38-1.45-0.56-2.2-0.41
							c-1.48,0.31-2.47,1.58-2.47,3v212.39c0,1.69,1.37,3.05,3.05,3.05l0,0c1.69,0,3.05-1.37,3.05-3.05v-207.1l42.68,24.64
							l-0.19,209.67L404.03,603.51z"/>
					</g>
					<g>
						<g>
							
								<rect x="373.73" y="463.73" transform="matrix(0.5 -0.866 0.866 0.5 -237.6029 572.256)" class="st0" width="6.11" height="56.34"/>
						</g>
					</g>
				</g>
			</g>
			<g>
				<g>
					<g>
						<path class="st0" d="M284.83,609.55h6.11V404.17l58.4-33.72v210.16h6.11V365.16c0-1.09-0.58-2.1-1.53-2.65
							c-0.95-0.55-2.11-0.55-3.05,0l-64.51,37.25c-0.95,0.55-1.53,1.55-1.53,2.65V609.55z"/>
					</g>
					<g>
						<path class="st0" d="M335.89,393.75c-0.24-0.14-0.38-0.39-0.38-0.66v-18.62c0-0.27,0.15-0.53,0.38-0.66l16.12-9.31
							c0.24-0.14,0.53-0.14,0.76,0c0.24,0.14,0.38,0.39,0.38,0.66v18.62c0,0.27-0.15,0.53-0.38,0.66l-16.12,9.31
							c-0.12,0.07-0.25,0.1-0.38,0.1C336.14,393.86,336,393.82,335.89,393.75z M351.63,366.49l-14.6,8.43v16.86l14.6-8.43V366.49z"
							/>
					</g>
					<g>
						<path class="st0" d="M319.76,403.06c-0.24-0.14-0.38-0.39-0.38-0.66v-18.62c0-0.27,0.15-0.53,0.38-0.66l16.12-9.31
							c0.24-0.14,0.53-0.14,0.76,0c0.24,0.14,0.38,0.39,0.38,0.66v18.62c0,0.27-0.15,0.53-0.38,0.66l-16.12,9.31
							c-0.12,0.07-0.25,0.1-0.38,0.1C320.01,403.17,319.88,403.13,319.76,403.06z M335.5,375.8l-14.6,8.43v16.86l14.6-8.43V375.8z"
							/>
					</g>
					<g>
						<path class="st0" d="M303.64,412.37c-0.24-0.14-0.38-0.39-0.38-0.66v-18.62c0-0.27,0.15-0.53,0.38-0.66l16.12-9.31
							c0.24-0.14,0.53-0.14,0.76,0c0.24,0.14,0.38,0.39,0.38,0.66v18.62c0,0.27-0.15,0.53-0.38,0.66l-16.12,9.31
							c-0.12,0.07-0.25,0.1-0.38,0.1C303.89,412.48,303.75,412.44,303.64,412.37z M319.38,385.11l-14.6,8.43v16.86l14.6-8.43V385.11
							z"/>
					</g>
					<g>
						<path class="st0" d="M287.5,421.69c-0.24-0.14-0.38-0.39-0.38-0.66v-18.62c0-0.27,0.15-0.53,0.38-0.66l16.12-9.31
							c0.24-0.14,0.53-0.14,0.76,0c0.24,0.14,0.38,0.39,0.38,0.66v18.62c0,0.27-0.15,0.53-0.38,0.66l-16.12,9.31
							c-0.12,0.07-0.25,0.1-0.38,0.1C287.75,421.79,287.62,421.76,287.5,421.69z M303.24,394.42l-14.6,8.43v16.86l14.6-8.43V394.42z
							"/>
					</g>
					<g>
						<path class="st0" d="M335.89,412.52c-0.24-0.14-0.38-0.39-0.38-0.66v-18.62c0-0.27,0.15-0.53,0.38-0.66l16.12-9.31
							c0.24-0.14,0.53-0.14,0.76,0c0.24,0.14,0.38,0.39,0.38,0.66v18.62c0,0.27-0.15,0.53-0.38,0.66l-16.12,9.31
							c-0.12,0.07-0.25,0.1-0.38,0.1C336.14,412.62,336,412.59,335.89,412.52z M351.63,385.25l-14.6,8.43v16.86l14.6-8.43V385.25z"
							/>
					</g>
					<g>
						<path class="st0" d="M319.76,421.83c-0.24-0.14-0.38-0.39-0.38-0.66v-18.62c0-0.27,0.15-0.53,0.38-0.66l16.12-9.31
							c0.24-0.14,0.53-0.14,0.76,0c0.24,0.14,0.38,0.39,0.38,0.66v18.62c0,0.27-0.15,0.53-0.38,0.66l-16.12,9.31
							c-0.12,0.07-0.25,0.1-0.38,0.1C320.01,421.93,319.88,421.9,319.76,421.83z M335.5,394.56l-14.6,8.43v16.86l14.6-8.43V394.56z"
							/>
					</g>
					<g>
						<path class="st0" d="M303.64,431.14c-0.24-0.14-0.38-0.39-0.38-0.66v-18.62c0-0.27,0.15-0.53,0.38-0.66l16.12-9.31
							c0.24-0.14,0.53-0.14,0.76,0c0.24,0.14,0.38,0.39,0.38,0.66v18.62c0,0.27-0.15,0.53-0.38,0.66l-16.12,9.31
							c-0.12,0.07-0.25,0.1-0.38,0.1C303.89,431.24,303.75,431.21,303.64,431.14z M319.38,403.87l-14.6,8.43v16.86l14.6-8.43V403.87
							z"/>
					</g>
					<g>
						<path class="st0" d="M287.5,440.46c-0.24-0.14-0.38-0.39-0.38-0.66v-18.62c0-0.27,0.15-0.53,0.38-0.66l16.12-9.31
							c0.24-0.14,0.53-0.14,0.76,0c0.24,0.14,0.38,0.39,0.38,0.66v18.62c0,0.27-0.15,0.53-0.38,0.66l-16.12,9.31
							c-0.12,0.07-0.25,0.1-0.38,0.1C287.75,440.56,287.62,440.52,287.5,440.46z M303.24,413.19l-14.6,8.43v16.86l14.6-8.43V413.19z
							"/>
					</g>
					<g>
						<path class="st0" d="M335.89,431.14c-0.24-0.14-0.38-0.39-0.38-0.66v-18.62c0-0.27,0.15-0.53,0.38-0.66l16.12-9.31
							c0.24-0.14,0.53-0.14,0.76,0c0.24,0.14,0.38,0.39,0.38,0.66v18.62c0,0.27-0.15,0.53-0.38,0.66l-16.12,9.31
							c-0.12,0.07-0.25,0.1-0.38,0.1C336.14,431.24,336,431.21,335.89,431.14z M351.63,403.87l-14.6,8.43v16.86l14.6-8.43V403.87z"
							/>
					</g>
					<g>
						<path class="st0" d="M319.76,440.45c-0.24-0.14-0.38-0.39-0.38-0.66v-18.62c0-0.27,0.15-0.53,0.38-0.66l16.12-9.31
							c0.24-0.14,0.53-0.14,0.76,0c0.24,0.14,0.38,0.39,0.38,0.66v18.62c0,0.27-0.15,0.53-0.38,0.66l-16.12,9.31
							c-0.12,0.07-0.25,0.1-0.38,0.1C320.01,440.55,319.88,440.52,319.76,440.45z M335.5,413.18l-14.6,8.43v16.86l14.6-8.43V413.18z
							"/>
					</g>
					<g>
						<path class="st0" d="M303.64,449.76c-0.24-0.14-0.38-0.39-0.38-0.66v-18.62c0-0.27,0.15-0.53,0.38-0.66l16.12-9.31
							c0.24-0.14,0.53-0.14,0.76,0c0.24,0.14,0.38,0.39,0.38,0.66v18.62c0,0.27-0.15,0.53-0.38,0.66l-16.12,9.31
							c-0.12,0.07-0.25,0.1-0.38,0.1C303.89,449.86,303.75,449.83,303.64,449.76z M319.38,422.49l-14.6,8.43v16.86l14.6-8.43V422.49
							z"/>
					</g>
					<g>
						<path class="st0" d="M287.5,459.08c-0.24-0.14-0.38-0.39-0.38-0.66V439.8c0-0.27,0.15-0.53,0.38-0.66l16.12-9.31
							c0.24-0.14,0.53-0.14,0.76,0c0.24,0.14,0.38,0.39,0.38,0.66v18.62c0,0.27-0.15,0.53-0.38,0.66l-16.12,9.31
							c-0.12,0.07-0.25,0.1-0.38,0.1C287.75,459.18,287.62,459.14,287.5,459.08z M303.24,431.81l-14.6,8.43v16.86l14.6-8.43V431.81z
							"/>
					</g>
					<g>
						<path class="st0" d="M335.89,449.76c-0.24-0.14-0.38-0.39-0.38-0.66v-18.62c0-0.27,0.15-0.53,0.38-0.66l16.12-9.31
							c0.24-0.14,0.53-0.14,0.76,0c0.24,0.14,0.38,0.39,0.38,0.66v18.62c0,0.27-0.15,0.53-0.38,0.66l-16.12,9.31
							c-0.12,0.07-0.25,0.1-0.38,0.1C336.14,449.86,336,449.83,335.89,449.76z M351.63,422.49l-14.6,8.43v16.86l14.6-8.43V422.49z"
							/>
					</g>
					<g>
						<path class="st0" d="M319.76,459.07c-0.24-0.14-0.38-0.39-0.38-0.66v-18.62c0-0.27,0.15-0.53,0.38-0.66l16.12-9.31
							c0.24-0.14,0.53-0.14,0.76,0c0.24,0.14,0.38,0.39,0.38,0.66v18.62c0,0.27-0.15,0.53-0.38,0.66l-16.12,9.31
							c-0.12,0.07-0.25,0.1-0.38,0.1C320.01,459.17,319.88,459.14,319.76,459.07z M335.5,431.8l-14.6,8.43v16.86l14.6-8.43V431.8z"
							/>
					</g>
					<g>
						<path class="st0" d="M303.64,468.38c-0.24-0.14-0.38-0.39-0.38-0.66V449.1c0-0.27,0.15-0.53,0.38-0.66l16.12-9.31
							c0.24-0.14,0.53-0.14,0.76,0c0.24,0.14,0.38,0.39,0.38,0.66v18.62c0,0.27-0.15,0.53-0.38,0.66l-16.12,9.31
							c-0.12,0.07-0.25,0.1-0.38,0.1C303.89,468.48,303.75,468.45,303.64,468.38z M319.38,441.11l-14.6,8.43v16.86l14.6-8.43V441.11
							z"/>
					</g>
					<g>
						<path class="st0" d="M335.89,468.52c-0.24-0.14-0.38-0.39-0.38-0.66v-18.62c0-0.27,0.15-0.53,0.38-0.66l16.12-9.31
							c0.24-0.14,0.53-0.14,0.76,0c0.24,0.14,0.38,0.39,0.38,0.66v18.62c0,0.27-0.15,0.53-0.38,0.66l-16.12,9.31
							c-0.12,0.07-0.25,0.1-0.38,0.1C336.14,468.63,336,468.59,335.89,468.52z M351.63,441.26l-14.6,8.43v16.86l14.6-8.43V441.26z"
							/>
					</g>
					<g>
						<path class="st0" d="M319.76,477.83c-0.24-0.14-0.38-0.39-0.38-0.66v-18.62c0-0.27,0.15-0.53,0.38-0.66l16.12-9.31
							c0.24-0.14,0.53-0.14,0.76,0c0.24,0.14,0.38,0.39,0.38,0.66v18.62c0,0.27-0.15,0.53-0.38,0.66l-16.12,9.31
							c-0.12,0.07-0.25,0.1-0.38,0.1C320.01,477.93,319.88,477.9,319.76,477.83z M335.5,450.57l-14.6,8.43v16.86l14.6-8.43V450.57z"
							/>
					</g>
					<g>
						<path class="st0" d="M303.64,487.14c-0.24-0.14-0.38-0.39-0.38-0.66v-18.62c0-0.27,0.15-0.53,0.38-0.66l16.12-9.31
							c0.24-0.14,0.53-0.14,0.76,0c0.24,0.14,0.38,0.39,0.38,0.66v18.62c0,0.27-0.15,0.53-0.38,0.66l-16.12,9.31
							c-0.12,0.07-0.25,0.1-0.38,0.1C303.89,487.24,303.75,487.21,303.64,487.14z M319.38,459.87l-14.6,8.43v16.86l14.6-8.43V459.87
							z"/>
					</g>
					<g>
						<path class="st0" d="M287.5,496.42c-0.24-0.14-0.38-0.39-0.38-0.66v-18.62c0-0.27,0.15-0.53,0.38-0.66l16.12-9.31
							c0.24-0.14,0.53-0.14,0.76,0c0.24,0.14,0.38,0.39,0.38,0.66v18.62c0,0.27-0.15,0.53-0.38,0.66l-16.12,9.31
							c-0.12,0.07-0.25,0.1-0.38,0.1C287.75,496.52,287.62,496.48,287.5,496.42z M303.24,469.15l-14.6,8.43v16.86l14.6-8.43V469.15z
							"/>
					</g>
					<g>
						<path class="st0" d="M335.89,487.19c-0.24-0.14-0.38-0.39-0.38-0.66v-18.62c0-0.27,0.15-0.53,0.38-0.66l16.12-9.31
							c0.24-0.14,0.53-0.14,0.76,0c0.24,0.14,0.38,0.39,0.38,0.66v18.62c0,0.27-0.15,0.53-0.38,0.66l-16.12,9.31
							c-0.12,0.07-0.25,0.1-0.38,0.1C336.14,487.3,336,487.26,335.89,487.19z M351.63,459.93l-14.6,8.43v16.86l14.6-8.43V459.93z"/>
					</g>
					<g>
						<path class="st0" d="M319.76,496.5c-0.24-0.14-0.38-0.39-0.38-0.66v-18.62c0-0.27,0.15-0.53,0.38-0.66l16.12-9.31
							c0.24-0.14,0.53-0.14,0.76,0c0.24,0.14,0.38,0.39,0.38,0.66v18.62c0,0.27-0.15,0.53-0.38,0.66l-16.12,9.31
							c-0.12,0.07-0.25,0.1-0.38,0.1C320.01,496.61,319.88,496.57,319.76,496.5z M335.5,469.24l-14.6,8.43v16.86l14.6-8.43V469.24z"
							/>
					</g>
					<g>
						<path class="st0" d="M303.64,505.81c-0.24-0.14-0.38-0.39-0.38-0.66v-18.62c0-0.27,0.15-0.53,0.38-0.66l16.12-9.31
							c0.24-0.14,0.53-0.14,0.76,0c0.24,0.14,0.38,0.39,0.38,0.66v18.62c0,0.27-0.15,0.53-0.38,0.66l-16.12,9.31
							c-0.12,0.07-0.25,0.1-0.38,0.1C303.89,505.91,303.75,505.88,303.64,505.81z M319.38,478.55l-14.6,8.43v16.86l14.6-8.43V478.55
							z"/>
					</g>
					<g>
						<path class="st0" d="M287.5,515.09c-0.24-0.14-0.38-0.39-0.38-0.66v-18.62c0-0.27,0.15-0.53,0.38-0.66l16.12-9.31
							c0.24-0.14,0.53-0.14,0.76,0c0.24,0.14,0.38,0.39,0.38,0.66v18.62c0,0.27-0.15,0.53-0.38,0.66l-16.12,9.31
							c-0.12,0.07-0.25,0.1-0.38,0.1C287.75,515.19,287.62,515.15,287.5,515.09z M303.24,487.82l-14.6,8.43v16.86l14.6-8.43V487.82z
							"/>
					</g>
					<g>
						<path class="st0" d="M287.5,477.69c-0.24-0.14-0.38-0.39-0.38-0.66v-18.62c0-0.27,0.15-0.53,0.38-0.66l16.12-9.31
							c0.24-0.14,0.53-0.14,0.76,0c0.24,0.14,0.38,0.39,0.38,0.66v18.62c0,0.27-0.15,0.53-0.38,0.66l-16.12,9.31
							c-0.12,0.07-0.25,0.1-0.38,0.1C287.75,477.8,287.62,477.76,287.5,477.69z M303.24,450.43l-14.6,8.43v16.86l14.6-8.43V450.43z"
							/>
					</g>
					<g>
						<path class="st0" d="M335.89,505.76c-0.24-0.14-0.38-0.39-0.38-0.66v-18.62c0-0.27,0.15-0.53,0.38-0.66l16.12-9.31
							c0.24-0.14,0.53-0.14,0.76,0c0.24,0.14,0.38,0.39,0.38,0.66v18.62c0,0.27-0.15,0.53-0.38,0.66l-16.12,9.31
							c-0.12,0.07-0.25,0.1-0.38,0.1C336.14,505.86,336,505.83,335.89,505.76z M351.63,478.49l-14.6,8.43v16.86l14.6-8.43V478.49z"
							/>
					</g>
					<g>
						<path class="st0" d="M319.76,515.07c-0.24-0.14-0.38-0.39-0.38-0.66v-18.62c0-0.27,0.15-0.53,0.38-0.66l16.12-9.31
							c0.24-0.14,0.53-0.14,0.76,0c0.24,0.14,0.38,0.39,0.38,0.66v18.62c0,0.27-0.15,0.53-0.38,0.66l-16.12,9.31
							c-0.12,0.07-0.25,0.1-0.38,0.1C320.01,515.17,319.88,515.14,319.76,515.07z M335.5,487.8l-14.6,8.43v16.86l14.6-8.43V487.8z"
							/>
					</g>
					<g>
						<path class="st0" d="M303.64,524.38c-0.24-0.14-0.38-0.39-0.38-0.66V505.1c0-0.27,0.15-0.53,0.38-0.66l16.12-9.31
							c0.24-0.14,0.53-0.14,0.76,0c0.24,0.14,0.38,0.39,0.38,0.66v18.62c0,0.27-0.15,0.53-0.38,0.66l-16.12,9.31
							c-0.12,0.07-0.25,0.1-0.38,0.1C303.89,524.48,303.75,524.45,303.64,524.38z M319.38,497.11l-14.6,8.43v16.86l14.6-8.43V497.11
							z"/>
					</g>
					<g>
						<path class="st0" d="M287.5,533.7c-0.24-0.14-0.38-0.39-0.38-0.66v-18.62c0-0.27,0.15-0.53,0.38-0.66l16.12-9.31
							c0.24-0.14,0.53-0.14,0.76,0c0.24,0.14,0.38,0.39,0.38,0.66v18.62c0,0.27-0.15,0.53-0.38,0.66l-16.12,9.31
							c-0.12,0.07-0.25,0.1-0.38,0.1C287.75,533.8,287.62,533.77,287.5,533.7z M303.24,506.43l-14.6,8.43v16.86l14.6-8.43V506.43z"
							/>
					</g>
					<g>
						<path class="st0" d="M335.89,524.38c-0.24-0.14-0.38-0.39-0.38-0.66V505.1c0-0.27,0.15-0.53,0.38-0.66l16.12-9.31
							c0.24-0.14,0.53-0.14,0.76,0c0.24,0.14,0.38,0.39,0.38,0.66v18.62c0,0.27-0.15,0.53-0.38,0.66l-16.12,9.31
							c-0.12,0.07-0.25,0.1-0.38,0.1C336.14,524.48,336,524.45,335.89,524.38z M351.63,497.11l-14.6,8.43v16.86l14.6-8.43V497.11z"
							/>
					</g>
					<g>
						<path class="st0" d="M319.76,533.69c-0.24-0.14-0.38-0.39-0.38-0.66v-18.62c0-0.27,0.15-0.53,0.38-0.66l16.12-9.31
							c0.24-0.14,0.53-0.14,0.76,0c0.24,0.14,0.38,0.39,0.38,0.66v18.62c0,0.27-0.15,0.53-0.38,0.66l-16.12,9.31
							c-0.12,0.07-0.25,0.1-0.38,0.1C320.01,533.79,319.88,533.76,319.76,533.69z M335.5,506.42l-14.6,8.43v16.86l14.6-8.43V506.42z
							"/>
					</g>
					<g>
						<path class="st0" d="M303.64,543c-0.24-0.14-0.38-0.39-0.38-0.66v-18.62c0-0.27,0.15-0.53,0.38-0.66l16.12-9.31
							c0.24-0.14,0.53-0.14,0.76,0c0.24,0.14,0.38,0.39,0.38,0.66v18.62c0,0.27-0.15,0.53-0.38,0.66L304.4,543
							c-0.12,0.07-0.25,0.1-0.38,0.1C303.89,543.1,303.75,543.07,303.64,543z M319.38,515.73l-14.6,8.43v16.86l14.6-8.43V515.73z"/>
					</g>
					<g>
						<path class="st0" d="M335.89,543.15c-0.24-0.14-0.38-0.39-0.38-0.66v-18.62c0-0.27,0.15-0.53,0.38-0.66l16.12-9.31
							c0.24-0.14,0.53-0.14,0.76,0c0.24,0.14,0.38,0.39,0.38,0.66v18.62c0,0.27-0.15,0.53-0.38,0.66l-16.12,9.31
							c-0.12,0.07-0.25,0.1-0.38,0.1C336.14,543.25,336,543.21,335.89,543.15z M351.63,515.88l-14.6,8.43v16.86l14.6-8.43V515.88z"
							/>
					</g>
					<g>
						<path class="st0" d="M319.76,552.46c-0.24-0.14-0.38-0.39-0.38-0.66v-18.62c0-0.27,0.15-0.53,0.38-0.66l16.12-9.31
							c0.24-0.14,0.53-0.14,0.76,0c0.24,0.14,0.38,0.39,0.38,0.66v18.62c0,0.27-0.15,0.53-0.38,0.66l-16.12,9.31
							c-0.12,0.07-0.25,0.1-0.38,0.1C320.01,552.56,319.88,552.52,319.76,552.46z M335.5,525.19l-14.6,8.43v16.86l14.6-8.43V525.19z
							"/>
					</g>
					<g>
						<path class="st0" d="M303.64,561.76c-0.24-0.14-0.38-0.39-0.38-0.66v-18.62c0-0.27,0.15-0.53,0.38-0.66l16.12-9.31
							c0.24-0.14,0.53-0.14,0.76,0c0.24,0.14,0.38,0.39,0.38,0.66v18.62c0,0.27-0.15,0.53-0.38,0.66l-16.12,9.31
							c-0.12,0.07-0.25,0.1-0.38,0.1C303.89,561.87,303.75,561.83,303.64,561.76z M319.38,534.5l-14.6,8.43v16.86l14.6-8.43V534.5z"
							/>
					</g>
					<g>
						<path class="st0" d="M287.5,571.04c-0.24-0.14-0.38-0.39-0.38-0.66v-18.62c0-0.27,0.15-0.53,0.38-0.66l16.12-9.31
							c0.24-0.14,0.53-0.14,0.76,0c0.24,0.14,0.38,0.39,0.38,0.66v18.62c0,0.27-0.15,0.53-0.38,0.66l-16.12,9.31
							c-0.12,0.07-0.25,0.1-0.38,0.1C287.75,571.14,287.62,571.11,287.5,571.04z M303.24,543.77l-14.6,8.43v16.86l14.6-8.43V543.77z
							"/>
					</g>
					<g>
						<path class="st0" d="M335.89,561.82c-0.24-0.14-0.38-0.39-0.38-0.66v-18.62c0-0.27,0.15-0.53,0.38-0.66l16.12-9.31
							c0.24-0.14,0.53-0.14,0.76,0c0.24,0.14,0.38,0.39,0.38,0.66v18.62c0,0.27-0.15,0.53-0.38,0.66l-16.12,9.31
							c-0.12,0.07-0.25,0.1-0.38,0.1C336.14,561.92,336,561.88,335.89,561.82z M351.63,534.55l-14.6,8.43v16.86l14.6-8.43V534.55z"
							/>
					</g>
					<g>
						<path class="st0" d="M319.76,571.13c-0.24-0.14-0.38-0.39-0.38-0.66v-18.62c0-0.27,0.15-0.53,0.38-0.66l16.12-9.31
							c0.24-0.14,0.53-0.14,0.76,0c0.24,0.14,0.38,0.39,0.38,0.66v18.62c0,0.27-0.15,0.53-0.38,0.66l-16.12,9.31
							c-0.12,0.07-0.25,0.1-0.38,0.1C320.01,571.23,319.88,571.19,319.76,571.13z M335.5,543.86l-14.6,8.43v16.86l14.6-8.43V543.86z
							"/>
					</g>
					<g>
						<path class="st0" d="M303.64,580.44c-0.24-0.14-0.38-0.39-0.38-0.66v-18.62c0-0.27,0.15-0.53,0.38-0.66l16.12-9.31
							c0.24-0.14,0.53-0.14,0.76,0c0.24,0.14,0.38,0.39,0.38,0.66v18.62c0,0.27-0.15,0.53-0.38,0.66l-16.12,9.31
							c-0.12,0.07-0.25,0.1-0.38,0.1C303.89,580.54,303.75,580.5,303.64,580.44z M319.38,553.17l-14.6,8.43v16.86l14.6-8.43V553.17z
							"/>
					</g>
					<g>
						<path class="st0" d="M287.5,589.71c-0.24-0.14-0.38-0.39-0.38-0.66v-18.62c0-0.27,0.15-0.53,0.38-0.66l16.12-9.31
							c0.24-0.14,0.53-0.14,0.76,0c0.24,0.14,0.38,0.39,0.38,0.66v18.62c0,0.27-0.15,0.53-0.38,0.66l-16.12,9.31
							c-0.12,0.07-0.25,0.1-0.38,0.1C287.75,589.81,287.62,589.78,287.5,589.71z M303.24,562.44l-14.6,8.43v16.86l14.6-8.43V562.44z
							"/>
					</g>
					<g>
						<path class="st0" d="M335.89,580.46c-0.24-0.14-0.38-0.39-0.38-0.66v-18.62c0-0.27,0.15-0.53,0.38-0.66l16.12-9.31
							c0.24-0.14,0.53-0.14,0.76,0c0.24,0.14,0.38,0.39,0.38,0.66v18.62c0,0.27-0.15,0.53-0.38,0.66l-16.12,9.31
							c-0.12,0.07-0.25,0.1-0.38,0.1C336.14,580.56,336,580.53,335.89,580.46z M351.63,553.19l-14.6,8.43v16.86l14.6-8.43V553.19z"
							/>
					</g>
					<g>
						<path class="st0" d="M319.76,589.77c-0.24-0.14-0.38-0.39-0.38-0.66v-18.62c0-0.27,0.15-0.53,0.38-0.66l16.12-9.31
							c0.24-0.14,0.53-0.14,0.76,0c0.24,0.14,0.38,0.39,0.38,0.66v18.62c0,0.27-0.15,0.53-0.38,0.66l-16.12,9.31
							c-0.12,0.07-0.25,0.1-0.38,0.1C320.01,589.87,319.88,589.84,319.76,589.77z M335.5,562.5l-14.6,8.43v16.86l14.6-8.43V562.5z"
							/>
					</g>
					<g>
						<path class="st0" d="M303.64,599.08c-0.24-0.14-0.38-0.39-0.38-0.66V579.8c0-0.27,0.15-0.53,0.38-0.66l16.12-9.31
							c0.24-0.14,0.53-0.14,0.76,0c0.24,0.14,0.38,0.39,0.38,0.66v18.62c0,0.27-0.15,0.53-0.38,0.66l-16.12,9.31
							c-0.12,0.07-0.25,0.1-0.38,0.1C303.89,599.18,303.75,599.15,303.64,599.08z M319.38,571.81l-14.6,8.43v16.86l14.6-8.43V571.81
							z"/>
					</g>
					<g>
						<path class="st0" d="M287.5,608.35c-0.24-0.14-0.38-0.39-0.38-0.66v-18.62c0-0.27,0.15-0.53,0.38-0.66l16.12-9.31
							c0.24-0.14,0.53-0.14,0.76,0c0.24,0.14,0.38,0.39,0.38,0.66v18.62c0,0.27-0.15,0.53-0.38,0.66l-16.12,9.31
							c-0.12,0.07-0.25,0.1-0.38,0.1C287.75,608.45,287.62,608.42,287.5,608.35z M303.24,581.08l-14.6,8.43v16.86l14.6-8.43V581.08z
							"/>
					</g>
					<g>
						<path class="st0" d="M287.5,552.32c-0.24-0.14-0.38-0.39-0.38-0.66v-18.62c0-0.27,0.15-0.53,0.38-0.66l16.12-9.31
							c0.24-0.14,0.53-0.14,0.76,0c0.24,0.14,0.38,0.39,0.38,0.66v18.62c0,0.27-0.15,0.53-0.38,0.66l-16.12,9.31
							c-0.12,0.07-0.25,0.1-0.38,0.1C287.75,552.42,287.62,552.39,287.5,552.32z M303.24,525.05l-14.6,8.43v16.86l14.6-8.43V525.05z
							"/>
					</g>
					<g>
						
							<rect x="282.89" y="586.06" transform="matrix(0.866 -0.5 0.5 0.866 -251.6655 238.9947)" class="st0" width="74.49" height="6.11"/>
					</g>
				</g>
			</g>
			<g>
				<g>
					<path class="st0" d="M333.96,635.09h6.11l-0.54-203.7l58.4-33.72v207.1c0,1.69,1.37,3.05,3.05,3.05h0
						c1.69,0,3.05-1.37,3.05-3.05V392.48c0-0.77-0.24-1.54-0.75-2.11c-1.01-1.13-2.61-1.35-3.83-0.64l-64.51,37.25
						c-0.95,0.55-1.53,1.55-1.53,2.65L333.96,635.09z"/>
				</g>
			</g>
			<g>
				<g>
					<path class="st0" d="M384.48,420.96c-0.24-0.14-0.38-0.39-0.38-0.66v-18.62c0-0.27,0.15-0.53,0.38-0.66l16.12-9.31
						c0.24-0.14,0.53-0.14,0.76,0c0.24,0.14,0.38,0.39,0.38,0.66v18.62c0,0.27-0.15,0.53-0.38,0.66l-16.12,9.31
						c-0.12,0.07-0.25,0.1-0.38,0.1C384.73,421.07,384.6,421.03,384.48,420.96z M400.23,393.7l-14.6,8.43v16.86l14.6-8.43V393.7z"/>
				</g>
			</g>
			<g>
				<g>
					<path class="st0" d="M368.36,430.27c-0.24-0.14-0.38-0.39-0.38-0.66v-18.62c0-0.27,0.15-0.53,0.38-0.66l16.12-9.31
						c0.24-0.14,0.53-0.14,0.76,0c0.24,0.14,0.38,0.39,0.38,0.66v18.62c0,0.27-0.15,0.53-0.38,0.66l-16.12,9.31
						c-0.12,0.07-0.25,0.1-0.38,0.1C368.61,430.38,368.48,430.34,368.36,430.27z M384.1,403.01l-14.6,8.43v16.86l14.6-8.43V403.01z"
						/>
				</g>
			</g>
			<g>
				<g>
					<path class="st0" d="M352.23,439.58c-0.24-0.14-0.38-0.39-0.38-0.66V420.3c0-0.27,0.15-0.53,0.38-0.66l16.12-9.31
						c0.24-0.14,0.53-0.14,0.76,0c0.24,0.14,0.38,0.39,0.38,0.66v18.62c0,0.27-0.15,0.53-0.38,0.66L353,439.58
						c-0.12,0.07-0.25,0.1-0.38,0.1C352.48,439.69,352.35,439.65,352.23,439.58z M367.98,412.32l-14.6,8.43v16.86l14.6-8.43V412.32z
						"/>
				</g>
			</g>
			<g>
				<g>
					<path class="st0" d="M336.09,448.9c-0.24-0.14-0.38-0.39-0.38-0.66v-18.62c0-0.27,0.15-0.53,0.38-0.66l16.12-9.31
						c0.24-0.14,0.53-0.14,0.76,0c0.24,0.14,0.38,0.39,0.38,0.66v18.62c0,0.27-0.15,0.53-0.38,0.66l-16.12,9.31
						c-0.12,0.07-0.25,0.1-0.38,0.1C336.34,449,336.21,448.97,336.09,448.9z M351.84,421.63l-14.6,8.43v16.86l14.6-8.43V421.63z"/>
				</g>
			</g>
			<g>
				<path class="st1" d="M331.57,627.99c-4.05,0.3-9.17-2.19-11.45-5.54c-1.06-1.56-1.32-3.04-0.88-4.2l0,0l0,0
					c0.06-0.17,0.14-0.33,0.23-0.48l30.14-62.26l15.75,8.59l-29.73,61.52c-0.06,0.15-0.13,0.3-0.21,0.44l0,0l0,0
					C334.79,627.13,333.47,627.85,331.57,627.99z"/>
				
					<linearGradient id="SVGID_1_" gradientUnits="userSpaceOnUse" x1="-11045.2139" y1="566.191" x2="-11028.3975" y2="566.191" gradientTransform="matrix(-1 0 0 1 -10682.3916 0)">
					<stop  offset="0" style="stop-color:#313D67"/>
					<stop  offset="0.5" style="stop-color:#313D67"/>
					<stop  offset="1" style="stop-color:#313D67"/>
				</linearGradient>
				<path class="st2" d="M358.54,572.27c4.05-0.3,5.48-3.26,3.2-6.61c-2.28-3.36-7.41-5.84-11.45-5.54c-4.05,0.3-5.48,3.26-3.2,6.61
					C349.37,570.08,354.49,572.56,358.54,572.27z"/>
				
					<linearGradient id="SVGID_00000041991711556818679100000000487667209623795841_" gradientUnits="userSpaceOnUse" x1="-11048.2344" y1="563.1705" x2="-11028.751" y2="563.1705" gradientTransform="matrix(-1 0 0 1 -10682.3916 0)">
					<stop  offset="0" style="stop-color:#313D67"/>
					<stop  offset="0.5" style="stop-color:#313D67"/>
					<stop  offset="1" style="stop-color:#313D67"/>
				</linearGradient>
				<polygon style="fill:url(#SVGID_00000041991711556818679100000000487667209623795841_);" points="346.36,562.22 349.46,555.78 
					365.84,563.11 362.24,570.56 				"/>
				<g class="st4">
					<path class="st5" d="M364.88,559.16c1.3,1.91,1.39,3.69,0.48,4.93l0,0l-29.73,61.52c-0.06,0.15-0.13,0.3-0.21,0.44l0,0l0,0
						c-0.63,1.08-1.96,1.8-3.86,1.94c-1.29,0.09-2.68-0.09-4.06-0.5l34.25-71.35C363.02,557,364.11,558.03,364.88,559.16z"/>
				</g>
				
					<linearGradient id="SVGID_00000021836102462673314680000006732925576441039020_" gradientUnits="userSpaceOnUse" x1="-11048.3564" y1="559.6978" x2="-11031.54" y2="559.6978" gradientTransform="matrix(-1 0 0 1 -10682.3916 0)">
					<stop  offset="0" style="stop-color:#4E587C"/>
					<stop  offset="0.5" style="stop-color:#4E587C"/>
					<stop  offset="1" style="stop-color:#4E587C"/>
				</linearGradient>
				<path style="fill:url(#SVGID_00000021836102462673314680000006732925576441039020_);" d="M361.68,565.77
					c4.05-0.3,5.48-3.26,3.2-6.61c-2.28-3.36-7.41-5.84-11.45-5.54c-4.05,0.3-5.48,3.26-3.2,6.61
					C352.51,563.59,357.64,566.07,361.68,565.77z"/>
			</g>
			<g>
				<g>
					<path class="st0" d="M384.48,439.73c-0.24-0.14-0.38-0.39-0.38-0.66v-18.62c0-0.27,0.15-0.53,0.38-0.66l16.12-9.31
						c0.24-0.14,0.53-0.14,0.76,0c0.24,0.14,0.38,0.39,0.38,0.66v18.62c0,0.27-0.15,0.53-0.38,0.66l-16.12,9.31
						c-0.12,0.07-0.25,0.1-0.38,0.1C384.73,439.83,384.6,439.8,384.48,439.73z M400.23,412.46l-14.6,8.43v16.86l14.6-8.43V412.46z"
						/>
				</g>
			</g>
			<g>
				<g>
					<path class="st0" d="M368.36,449.04c-0.24-0.14-0.38-0.39-0.38-0.66v-18.62c0-0.27,0.15-0.53,0.38-0.66l16.12-9.31
						c0.24-0.14,0.53-0.14,0.76,0c0.24,0.14,0.38,0.39,0.38,0.66v18.62c0,0.27-0.15,0.53-0.38,0.66l-16.12,9.31
						c-0.12,0.07-0.25,0.1-0.38,0.1C368.61,449.14,368.48,449.11,368.36,449.04z M384.1,421.77l-14.6,8.43v16.86l14.6-8.43V421.77z"
						/>
				</g>
			</g>
			<g>
				<g>
					<path class="st1" d="M314.52,635.56c1.66,1.66,4.86,2.52,7.13,1.91c1.06-0.28,1.73-0.84,1.98-1.51l0,0l0,0
						c0.04-0.1,0.06-0.2,0.08-0.3l0.68-2.55c-0.23,0.7-0.91,1.28-2,1.57c-2.27,0.61-5.46-0.25-7.13-1.91
						c-0.79-0.79-1.09-1.63-0.94-2.35l-0.69,2.56c-0.03,0.09-0.06,0.18-0.07,0.27l0,0h0C313.43,633.95,313.73,634.78,314.52,635.56z
						"/>
				</g>
				<path class="st7" d="M312.41,632.85c2.82,2.82,8.24,4.28,12.1,3.24c1.8-0.48,2.94-1.42,3.36-2.57l0,0l0,0
					c0.06-0.17,0.11-0.34,0.14-0.51l17.62-65.79l-17.27-3.74l-17.45,64.97c-0.05,0.15-0.1,0.31-0.12,0.46l0,0l0,0
					C310.57,630.13,311.09,631.52,312.41,632.85z"/>
				<path class="st8" d="M331.9,560.12c-2.2,0.59-3.41,1.86-3.53,3.36l0,0l-17.45,64.97c-0.05,0.15-0.1,0.31-0.12,0.46l0,0l0,0
					c-0.22,1.21,0.3,2.6,1.62,3.93c0.9,0.9,2.06,1.66,3.35,2.24l20.41-75.21C334.68,559.71,333.2,559.77,331.9,560.12z"/>
				<path class="st9" d="M330.03,567.11c-2.82-2.82-1.99-5.95,1.87-6.99c3.86-1.03,9.27,0.42,12.1,3.24
					c2.82,2.82,1.99,5.95-1.87,6.99C338.27,571.38,332.85,569.93,330.03,567.11z"/>
				<path class="st1" d="M342.55,564.72l0.68-2.55c0,0-1.86-3.15-3.14-3.57c-1.29-0.42-3.93-1.05-4.89-0.18
					c-0.96,0.86-1.63,1.63-1.63,1.63l-1.09,1.99L342.55,564.72z"/>
				<g>
					<path class="st10" d="M333.36,564.62c1.66,1.66,4.86,2.52,7.13,1.91c1.06-0.28,1.73-0.84,1.98-1.51l0,0l0,0
						c0.04-0.1,0.06-0.2,0.08-0.3l0.68-2.55c-0.23,0.7-0.91,1.28-2,1.57c-2.27,0.61-5.46-0.25-7.13-1.91
						c-0.79-0.79-1.09-1.63-0.94-2.35l-0.69,2.56c-0.03,0.09-0.06,0.18-0.07,0.27l0,0h0C332.27,563.02,332.58,563.84,333.36,564.62z
						"/>
				</g>
				<path class="st11" d="M336.81,559.04c1.64,0,3.47,0.68,4.45,1.66c0.43,0.43,0.58,0.8,0.53,0.98c-0.05,0.18-0.36,0.42-0.95,0.58
					c-0.36,0.1-0.76,0.14-1.2,0.14c-1.64,0-3.47-0.68-4.45-1.66c-0.43-0.43-0.58-0.8-0.53-0.98c0.05-0.18,0.36-0.42,0.95-0.58
					C335.96,559.09,336.37,559.04,336.81,559.04L336.81,559.04z M336.81,557.51c-0.56,0-1.1,0.06-1.6,0.2
					c-2.27,0.61-2.77,2.45-1.1,4.12c1.3,1.3,3.53,2.11,5.53,2.11c0.56,0,1.1-0.06,1.6-0.2c2.27-0.61,2.77-2.45,1.1-4.12
					C341.04,558.32,338.81,557.51,336.81,557.51L336.81,557.51z"/>
			</g>
			<g>
				<g>
					<path class="st0" d="M352.23,458.35c-0.24-0.14-0.38-0.39-0.38-0.66v-18.62c0-0.27,0.15-0.53,0.38-0.66l16.12-9.31
						c0.24-0.14,0.53-0.14,0.76,0c0.24,0.14,0.38,0.39,0.38,0.66v18.62c0,0.27-0.15,0.53-0.38,0.66L353,458.35
						c-0.12,0.07-0.25,0.1-0.38,0.1C352.48,458.45,352.35,458.42,352.23,458.35z M367.98,431.08l-14.6,8.43v16.86l14.6-8.43V431.08z
						"/>
				</g>
			</g>
			<g>
				<g>
					<path class="st0" d="M336.09,467.67c-0.24-0.14-0.38-0.39-0.38-0.66v-18.62c0-0.27,0.15-0.53,0.38-0.66l16.12-9.31
						c0.24-0.14,0.53-0.14,0.76,0c0.24,0.14,0.38,0.39,0.38,0.66v18.62c0,0.27-0.15,0.53-0.38,0.66l-16.12,9.31
						c-0.12,0.07-0.25,0.1-0.38,0.1C336.34,467.77,336.21,467.73,336.09,467.67z M351.84,440.4l-14.6,8.43v16.86l14.6-8.43V440.4z"
						/>
				</g>
			</g>
			<g>
				<g>
					<path class="st0" d="M384.48,458.35c-0.24-0.14-0.38-0.39-0.38-0.66v-18.62c0-0.27,0.15-0.53,0.38-0.66l16.12-9.31
						c0.24-0.14,0.53-0.14,0.76,0c0.24,0.14,0.38,0.39,0.38,0.66v18.62c0,0.27-0.15,0.53-0.38,0.66l-16.12,9.31
						c-0.12,0.07-0.25,0.1-0.38,0.1C384.73,458.45,384.6,458.42,384.48,458.35z M400.23,431.08l-14.6,8.43v16.86l14.6-8.43V431.08z"
						/>
				</g>
			</g>
			<g>
				<g>
					<path class="st0" d="M368.36,467.66c-0.24-0.14-0.38-0.39-0.38-0.66v-18.62c0-0.27,0.15-0.53,0.38-0.66l16.12-9.31
						c0.24-0.14,0.53-0.14,0.76,0c0.24,0.14,0.38,0.39,0.38,0.66v18.62c0,0.27-0.15,0.53-0.38,0.66l-16.12,9.31
						c-0.12,0.07-0.25,0.1-0.38,0.1C368.61,467.76,368.48,467.73,368.36,467.66z M384.1,440.39l-14.6,8.43v16.86l14.6-8.43V440.39z"
						/>
				</g>
			</g>
			<g>
				<g>
					<path class="st0" d="M352.23,476.97c-0.24-0.14-0.38-0.39-0.38-0.66v-18.62c0-0.27,0.15-0.53,0.38-0.66l16.12-9.31
						c0.24-0.14,0.53-0.14,0.76,0c0.24,0.14,0.38,0.39,0.38,0.66V467c0,0.27-0.15,0.53-0.38,0.66L353,476.97
						c-0.12,0.07-0.25,0.1-0.38,0.1C352.48,477.07,352.35,477.04,352.23,476.97z M367.98,449.7l-14.6,8.43v16.86l14.6-8.43V449.7z"
						/>
				</g>
			</g>
			<g>
				<g>
					<path class="st0" d="M336.09,486.28c-0.24-0.14-0.38-0.39-0.38-0.66V467c0-0.27,0.15-0.53,0.38-0.66l16.12-9.31
						c0.24-0.14,0.53-0.14,0.76,0c0.24,0.14,0.38,0.39,0.38,0.66v18.62c0,0.27-0.15,0.53-0.38,0.66l-16.12,9.31
						c-0.12,0.07-0.25,0.1-0.38,0.1C336.34,486.39,336.21,486.35,336.09,486.28z M351.84,459.02l-14.6,8.43v16.86l14.6-8.43V459.02z
						"/>
				</g>
			</g>
			<g>
				<g>
					<path class="st0" d="M384.48,476.97c-0.24-0.14-0.38-0.39-0.38-0.66v-18.62c0-0.27,0.15-0.53,0.38-0.66l16.12-9.31
						c0.24-0.14,0.53-0.14,0.76,0c0.24,0.14,0.38,0.39,0.38,0.66V467c0,0.27-0.15,0.53-0.38,0.66l-16.12,9.31
						c-0.12,0.07-0.25,0.1-0.38,0.1C384.73,477.07,384.6,477.04,384.48,476.97z M400.23,449.7l-14.6,8.43v16.86l14.6-8.43V449.7z"/>
				</g>
			</g>
			<g>
				<g>
					<path class="st0" d="M368.36,486.28c-0.24-0.14-0.38-0.39-0.38-0.66V467c0-0.27,0.15-0.53,0.38-0.66l16.12-9.31
						c0.24-0.14,0.53-0.14,0.76,0s0.38,0.39,0.38,0.66v18.62c0,0.27-0.15,0.53-0.38,0.66l-16.12,9.31c-0.12,0.07-0.25,0.1-0.38,0.1
						C368.61,486.38,368.48,486.34,368.36,486.28z M384.1,459.01l-14.6,8.43v16.86l14.6-8.43V459.01z"/>
				</g>
			</g>
			<g>
				<g>
					<path class="st0" d="M352.23,495.59c-0.24-0.14-0.38-0.39-0.38-0.66v-18.62c0-0.27,0.15-0.53,0.38-0.66l16.12-9.31
						c0.24-0.14,0.53-0.14,0.76,0c0.24,0.14,0.38,0.39,0.38,0.66v18.62c0,0.27-0.15,0.53-0.38,0.66L353,495.59
						c-0.12,0.07-0.25,0.1-0.38,0.1C352.48,495.69,352.35,495.65,352.23,495.59z M367.98,468.32l-14.6,8.43v16.86l14.6-8.43V468.32z
						"/>
				</g>
			</g>
			<g>
				<g>
					<path class="st0" d="M384.48,495.73c-0.24-0.14-0.38-0.39-0.38-0.66v-18.62c0-0.27,0.15-0.53,0.38-0.66l16.12-9.31
						c0.24-0.14,0.53-0.14,0.76,0c0.24,0.14,0.38,0.39,0.38,0.66v18.62c0,0.27-0.15,0.53-0.38,0.66l-16.12,9.31
						c-0.12,0.07-0.25,0.1-0.38,0.1C384.73,495.83,384.6,495.8,384.48,495.73z M400.23,468.46l-14.6,8.43v16.86l14.6-8.43V468.46z"
						/>
				</g>
			</g>
			<g>
				<g>
					<path class="st0" d="M368.36,505.04c-0.24-0.14-0.38-0.39-0.38-0.66v-18.62c0-0.27,0.15-0.53,0.38-0.66l16.12-9.31
						c0.24-0.14,0.53-0.14,0.76,0c0.24,0.14,0.38,0.39,0.38,0.66v18.62c0,0.27-0.15,0.53-0.38,0.66l-16.12,9.31
						c-0.12,0.07-0.25,0.1-0.38,0.1C368.61,505.14,368.48,505.11,368.36,505.04z M384.1,477.77l-14.6,8.43v16.86l14.6-8.43V477.77z"
						/>
				</g>
			</g>
			<g>
				<g>
					<path class="st0" d="M352.23,514.35c-0.24-0.14-0.38-0.39-0.38-0.66v-18.62c0-0.27,0.15-0.53,0.38-0.66l16.12-9.31
						c0.24-0.14,0.53-0.14,0.76,0c0.24,0.14,0.38,0.39,0.38,0.66v18.62c0,0.27-0.15,0.53-0.38,0.66L353,514.35
						c-0.12,0.07-0.25,0.1-0.38,0.1C352.48,514.45,352.35,514.42,352.23,514.35z M367.98,487.08l-14.6,8.43v16.86l14.6-8.43V487.08z
						"/>
				</g>
			</g>
			<g>
				<g>
					<path class="st0" d="M336.09,523.63c-0.24-0.14-0.38-0.39-0.38-0.66v-18.62c0-0.27,0.15-0.53,0.38-0.66l16.12-9.31
						c0.24-0.14,0.53-0.14,0.76,0c0.24,0.14,0.38,0.39,0.38,0.66v18.62c0,0.27-0.15,0.53-0.38,0.66l-16.12,9.31
						c-0.12,0.07-0.25,0.1-0.38,0.1C336.34,523.73,336.21,523.69,336.09,523.63z M351.84,496.36l-14.6,8.43v16.86l14.6-8.43V496.36z
						"/>
				</g>
			</g>
			<g>
				<g>
					<path class="st0" d="M384.48,514.4c-0.24-0.14-0.38-0.39-0.38-0.66v-18.62c0-0.27,0.15-0.53,0.38-0.66l16.12-9.31
						c0.24-0.14,0.53-0.14,0.76,0c0.24,0.14,0.38,0.39,0.38,0.66v18.62c0,0.27-0.15,0.53-0.38,0.66l-16.12,9.31
						c-0.12,0.07-0.25,0.1-0.38,0.1C384.73,514.5,384.6,514.47,384.48,514.4z M400.23,487.13l-14.6,8.43v16.86l14.6-8.43V487.13z"/>
				</g>
			</g>
			<g>
				<g>
					<path class="st0" d="M368.36,523.71c-0.24-0.14-0.38-0.39-0.38-0.66v-18.62c0-0.27,0.15-0.53,0.38-0.66l16.12-9.31
						c0.24-0.14,0.53-0.14,0.76,0c0.24,0.14,0.38,0.39,0.38,0.66v18.62c0,0.27-0.15,0.53-0.38,0.66l-16.12,9.31
						c-0.12,0.07-0.25,0.1-0.38,0.1C368.61,523.81,368.48,523.78,368.36,523.71z M384.1,496.44l-14.6,8.43v16.86l14.6-8.43V496.44z"
						/>
				</g>
			</g>
			<g>
				<g>
					<path class="st0" d="M352.23,533.02c-0.24-0.14-0.38-0.39-0.38-0.66v-18.62c0-0.27,0.15-0.53,0.38-0.66l16.12-9.31
						c0.24-0.14,0.53-0.14,0.76,0c0.24,0.14,0.38,0.39,0.38,0.66v18.62c0,0.27-0.15,0.53-0.38,0.66L353,533.02
						c-0.12,0.07-0.25,0.1-0.38,0.1C352.48,533.12,352.35,533.09,352.23,533.02z M367.98,505.75l-14.6,8.43v16.86l14.6-8.43V505.75z
						"/>
				</g>
			</g>
			<g>
				<g>
					<path class="st0" d="M336.09,542.3c-0.24-0.14-0.38-0.39-0.38-0.66v-18.62c0-0.27,0.15-0.53,0.38-0.66l16.12-9.31
						c0.24-0.14,0.53-0.14,0.76,0c0.24,0.14,0.38,0.39,0.38,0.66v18.62c0,0.27-0.15,0.53-0.38,0.66l-16.12,9.31
						c-0.12,0.07-0.25,0.1-0.38,0.1C336.34,542.4,336.21,542.36,336.09,542.3z M351.84,515.03l-14.6,8.43v16.86l14.6-8.43V515.03z"
						/>
				</g>
			</g>
			<g>
				<g>
					<path class="st0" d="M336.09,504.9c-0.24-0.14-0.38-0.39-0.38-0.66v-18.62c0-0.27,0.15-0.53,0.38-0.66l16.12-9.31
						c0.24-0.14,0.53-0.14,0.76,0c0.24,0.14,0.38,0.39,0.38,0.66v18.62c0,0.27-0.15,0.53-0.38,0.66l-16.12,9.31
						c-0.12,0.07-0.25,0.1-0.38,0.1C336.34,505.01,336.21,504.97,336.09,504.9z M351.84,477.64l-14.6,8.43v16.86l14.6-8.43V477.64z"
						/>
				</g>
			</g>
			<g>
				<g>
					<path class="st0" d="M384.48,532.97c-0.24-0.14-0.38-0.39-0.38-0.66v-18.62c0-0.27,0.15-0.53,0.38-0.66l16.12-9.31
						c0.24-0.14,0.53-0.14,0.76,0c0.24,0.14,0.38,0.39,0.38,0.66V523c0,0.27-0.15,0.53-0.38,0.66l-16.12,9.31
						c-0.12,0.07-0.25,0.1-0.38,0.1C384.73,533.07,384.6,533.04,384.48,532.97z M400.23,505.7l-14.6,8.43v16.86l14.6-8.43V505.7z"/>
				</g>
			</g>
			<g>
				<g>
					<path class="st0" d="M368.36,542.28c-0.24-0.14-0.38-0.39-0.38-0.66V523c0-0.27,0.15-0.53,0.38-0.66l16.12-9.31
						c0.24-0.14,0.53-0.14,0.76,0c0.24,0.14,0.38,0.39,0.38,0.66v18.62c0,0.27-0.15,0.53-0.38,0.66l-16.12,9.31
						c-0.12,0.07-0.25,0.1-0.38,0.1C368.61,542.38,368.48,542.35,368.36,542.28z M384.1,515.01l-14.6,8.43v16.86l14.6-8.43V515.01z"
						/>
				</g>
			</g>
			<g>
				<g>
					<path class="st0" d="M352.23,551.59c-0.24-0.14-0.38-0.39-0.38-0.66v-18.62c0-0.27,0.15-0.53,0.38-0.66l16.12-9.31
						c0.24-0.14,0.53-0.14,0.76,0c0.24,0.14,0.38,0.39,0.38,0.66v18.62c0,0.27-0.15,0.53-0.38,0.66L353,551.59
						c-0.12,0.07-0.25,0.1-0.38,0.1C352.48,551.69,352.35,551.66,352.23,551.59z M367.98,524.32l-14.6,8.43v16.86l14.6-8.43V524.32z
						"/>
				</g>
			</g>
			<g>
				<g>
					<path class="st0" d="M336.09,560.91c-0.24-0.14-0.38-0.39-0.38-0.66v-18.62c0-0.27,0.15-0.53,0.38-0.66l16.12-9.31
						c0.24-0.14,0.53-0.14,0.76,0c0.24,0.14,0.38,0.39,0.38,0.66v18.62c0,0.27-0.15,0.53-0.38,0.66l-16.12,9.31
						c-0.12,0.07-0.25,0.1-0.38,0.1C336.34,561.01,336.21,560.98,336.09,560.91z M351.84,533.64l-14.6,8.43v16.86l14.6-8.43V533.64z
						"/>
				</g>
			</g>
			<g>
				<g>
					<path class="st0" d="M384.48,551.59c-0.24-0.14-0.38-0.39-0.38-0.66v-18.62c0-0.27,0.15-0.53,0.38-0.66l16.12-9.31
						c0.24-0.14,0.53-0.14,0.76,0c0.24,0.14,0.38,0.39,0.38,0.66v18.62c0,0.27-0.15,0.53-0.38,0.66l-16.12,9.31
						c-0.12,0.07-0.25,0.1-0.38,0.1C384.73,551.69,384.6,551.66,384.48,551.59z M400.23,524.32l-14.6,8.43v16.86l14.6-8.43V524.32z"
						/>
				</g>
			</g>
			<g>
				<g>
					<path class="st0" d="M368.36,560.9c-0.24-0.14-0.38-0.39-0.38-0.66v-18.62c0-0.27,0.15-0.53,0.38-0.66l16.12-9.31
						c0.24-0.14,0.53-0.14,0.76,0c0.24,0.14,0.38,0.39,0.38,0.66v18.62c0,0.27-0.15,0.53-0.38,0.66l-16.12,9.31
						c-0.12,0.07-0.25,0.1-0.38,0.1C368.61,561,368.48,560.97,368.36,560.9z M384.1,533.63l-14.6,8.43v16.86l14.6-8.43V533.63z"/>
				</g>
			</g>
			<g>
				<g>
					<path class="st0" d="M352.23,570.21c-0.24-0.14-0.38-0.39-0.38-0.66v-18.62c0-0.27,0.15-0.53,0.38-0.66l16.12-9.31
						c0.24-0.14,0.53-0.14,0.76,0c0.24,0.14,0.38,0.39,0.38,0.66v18.62c0,0.27-0.15,0.53-0.38,0.66L353,570.21
						c-0.12,0.07-0.25,0.1-0.38,0.1C352.48,570.31,352.35,570.28,352.23,570.21z M367.98,542.94l-14.6,8.43v16.86l14.6-8.43V542.94z
						"/>
				</g>
			</g>
			<g>
				<g>
					<path class="st0" d="M384.48,570.35c-0.24-0.14-0.38-0.39-0.38-0.66v-18.62c0-0.27,0.15-0.53,0.38-0.66l16.12-9.31
						c0.24-0.14,0.53-0.14,0.76,0c0.24,0.14,0.38,0.39,0.38,0.66v18.62c0,0.27-0.15,0.53-0.38,0.66l-16.12,9.31
						c-0.12,0.07-0.25,0.1-0.38,0.1C384.73,570.46,384.6,570.42,384.48,570.35z M400.23,543.09l-14.6,8.43v16.86l14.6-8.43V543.09z"
						/>
				</g>
			</g>
			<g>
				<g>
					<path class="st0" d="M368.36,579.66c-0.24-0.14-0.38-0.39-0.38-0.66v-18.62c0-0.27,0.15-0.53,0.38-0.66l16.12-9.31
						c0.24-0.14,0.53-0.14,0.76,0c0.24,0.14,0.38,0.39,0.38,0.66v18.62c0,0.27-0.15,0.53-0.38,0.66l-16.12,9.31
						c-0.12,0.07-0.25,0.1-0.38,0.1C368.61,579.77,368.48,579.73,368.36,579.66z M384.1,552.4l-14.6,8.43v16.86l14.6-8.43V552.4z"/>
				</g>
			</g>
			<g>
				<g>
					<path class="st0" d="M352.23,588.97c-0.24-0.14-0.38-0.39-0.38-0.66v-18.62c0-0.27,0.15-0.53,0.38-0.66l16.12-9.31
						c0.24-0.14,0.53-0.14,0.76,0c0.24,0.14,0.38,0.39,0.38,0.66V579c0,0.27-0.15,0.53-0.38,0.66L353,588.97
						c-0.12,0.07-0.25,0.1-0.38,0.1C352.48,589.08,352.35,589.04,352.23,588.97z M367.98,561.71l-14.6,8.43v16.86l14.6-8.43V561.71z
						"/>
				</g>
			</g>
			<g>
				<g>
					<path class="st0" d="M336.09,598.25c-0.24-0.14-0.38-0.39-0.38-0.66v-18.62c0-0.27,0.15-0.53,0.38-0.66l16.12-9.31
						c0.24-0.14,0.53-0.14,0.76,0c0.24,0.14,0.38,0.39,0.38,0.66v18.62c0,0.27-0.15,0.53-0.38,0.66l-16.12,9.31
						c-0.12,0.07-0.25,0.1-0.38,0.1C336.34,598.35,336.21,598.32,336.09,598.25z M351.84,570.98l-14.6,8.43v16.86l14.6-8.43V570.98z
						"/>
				</g>
			</g>
			<g>
				<g>
					<path class="st0" d="M384.48,589.03c-0.24-0.14-0.38-0.39-0.38-0.66v-18.62c0-0.27,0.15-0.53,0.38-0.66l16.12-9.31
						c0.24-0.14,0.53-0.14,0.76,0c0.24,0.14,0.38,0.39,0.38,0.66v18.62c0,0.27-0.15,0.53-0.38,0.66l-16.12,9.31
						c-0.12,0.07-0.25,0.1-0.38,0.1C384.73,589.13,384.6,589.09,384.48,589.03z M400.23,561.76l-14.6,8.43v16.86l14.6-8.43V561.76z"
						/>
				</g>
			</g>
			<g>
				<g>
					<path class="st0" d="M368.36,598.33c-0.24-0.14-0.38-0.39-0.38-0.66v-18.62c0-0.27,0.15-0.53,0.38-0.66l16.12-9.31
						c0.24-0.14,0.53-0.14,0.76,0c0.24,0.14,0.38,0.39,0.38,0.66v18.62c0,0.27-0.15,0.53-0.38,0.66l-16.12,9.31
						c-0.12,0.07-0.25,0.1-0.38,0.1C368.61,598.44,368.48,598.4,368.36,598.33z M384.1,571.07l-14.6,8.43v16.86l14.6-8.43V571.07z"
						/>
				</g>
			</g>
			<g>
				<g>
					<path class="st0" d="M352.23,607.64c-0.24-0.14-0.38-0.39-0.38-0.66v-18.62c0-0.27,0.15-0.53,0.38-0.66l16.12-9.31
						c0.24-0.14,0.53-0.14,0.76,0c0.24,0.14,0.38,0.39,0.38,0.66v18.62c0,0.27-0.15,0.53-0.38,0.66L353,607.64
						c-0.12,0.07-0.25,0.1-0.38,0.1C352.48,607.75,352.35,607.71,352.23,607.64z M367.98,580.38l-14.6,8.43v16.86l14.6-8.43V580.38z
						"/>
				</g>
			</g>
			<g>
				<g>
					<path class="st0" d="M336.09,616.92c-0.24-0.14-0.38-0.39-0.38-0.66v-18.62c0-0.27,0.15-0.53,0.38-0.66l16.12-9.31
						c0.24-0.14,0.53-0.14,0.76,0c0.24,0.14,0.38,0.39,0.38,0.66v18.62c0,0.27-0.15,0.53-0.38,0.66l-16.12,9.31
						c-0.12,0.07-0.25,0.1-0.38,0.1C336.34,617.02,336.21,616.99,336.09,616.92z M351.84,589.65l-14.6,8.43v16.86l14.6-8.43V589.65z
						"/>
				</g>
			</g>
			<g>
				<g>
					<path class="st0" d="M384.48,607.67c-0.24-0.14-0.38-0.39-0.38-0.66v-18.62c0-0.27,0.15-0.53,0.38-0.66l16.12-9.31
						c0.24-0.14,0.53-0.14,0.76,0c0.24,0.14,0.38,0.39,0.38,0.66v18.62c0,0.27-0.15,0.53-0.38,0.66l-16.12,9.31
						c-0.12,0.07-0.25,0.1-0.38,0.1C384.73,607.77,384.6,607.74,384.48,607.67z M400.23,580.4l-14.6,8.43v16.86l14.6-8.43V580.4z"/>
				</g>
			</g>
			<g>
				<g>
					<path class="st0" d="M368.36,616.98c-0.24-0.14-0.38-0.39-0.38-0.66V597.7c0-0.27,0.15-0.53,0.38-0.66l16.12-9.31
						c0.24-0.14,0.53-0.14,0.76,0c0.24,0.14,0.38,0.39,0.38,0.66v18.62c0,0.27-0.15,0.53-0.38,0.66l-16.12,9.31
						c-0.12,0.07-0.25,0.1-0.38,0.1C368.61,617.08,368.48,617.04,368.36,616.98z M384.1,589.71l-14.6,8.43v16.86l14.6-8.43V589.71z"
						/>
				</g>
			</g>
			<g>
				<g>
					<path class="st0" d="M352.23,626.29c-0.24-0.14-0.38-0.39-0.38-0.66v-18.62c0-0.27,0.15-0.53,0.38-0.66l16.12-9.31
						c0.24-0.14,0.53-0.14,0.76,0c0.24,0.14,0.38,0.39,0.38,0.66v18.62c0,0.27-0.15,0.53-0.38,0.66L353,626.29
						c-0.12,0.07-0.25,0.1-0.38,0.1C352.48,626.39,352.35,626.35,352.23,626.29z M367.98,599.02l-14.6,8.43v16.86l14.6-8.43V599.02z
						"/>
				</g>
			</g>
			<g>
				<g>
					<path class="st0" d="M336.09,635.56c-0.24-0.14-0.38-0.39-0.38-0.66v-18.62c0-0.27,0.15-0.53,0.38-0.66l16.12-9.31
						c0.24-0.14,0.53-0.14,0.76,0c0.24,0.14,0.38,0.39,0.38,0.66v18.62c0,0.27-0.15,0.53-0.38,0.66l-16.12,9.31
						c-0.12,0.07-0.25,0.1-0.38,0.1C336.34,635.66,336.21,635.63,336.09,635.56z M351.84,608.29l-14.6,8.43v16.86l14.6-8.43V608.29z
						"/>
				</g>
			</g>
			<g>
				<g>
					<path class="st0" d="M336.09,579.53c-0.24-0.14-0.38-0.39-0.38-0.66v-18.62c0-0.27,0.15-0.53,0.38-0.66l16.12-9.31
						c0.24-0.14,0.53-0.14,0.76,0c0.24,0.14,0.38,0.39,0.38,0.66v18.62c0,0.27-0.15,0.53-0.38,0.66l-16.12,9.31
						c-0.12,0.07-0.25,0.1-0.38,0.1C336.34,579.63,336.21,579.59,336.09,579.53z M351.84,552.26l-14.6,8.43v16.86l14.6-8.43V552.26z
						"/>
				</g>
			</g>
			<g>
				<g>
					
						<rect x="331.49" y="613.26" transform="matrix(0.866 -0.5 0.5 0.866 -258.7593 266.9383)" class="st0" width="74.49" height="6.11"/>
				</g>
			</g>
			<g>
				<path class="st1" d="M298.28,492.76c0-4.06,2.85-8.99,6.36-11.02c1.64-0.94,3.13-1.09,4.25-0.57l0,0l0,0
					c0.16,0.08,0.32,0.17,0.47,0.27l59.9,34.59l-9.72,15.08l-59.19-34.13c-0.15-0.07-0.29-0.15-0.42-0.24l0,0l0,0
					C298.91,496.04,298.28,494.67,298.28,492.76z"/>
				<path class="st12" d="M351.9,523.71c0,4.06,2.85,5.7,6.36,3.67c3.51-2.03,6.36-6.96,6.36-11.02c0-4.06-2.85-5.7-6.36-3.67
					C354.74,514.73,351.9,519.66,351.9,523.71z"/>
				<polygon class="st12" points="362.8,512.3 369,515.86 360.49,531.66 353.33,527.53 				"/>
				<g class="st4">
					<path class="st5" d="M364.5,530.99c-2,1.15-3.78,1.12-4.95,0.12l0,0l-59.19-34.13c-0.15-0.07-0.29-0.15-0.42-0.24l0,0l0,0
						c-1.03-0.71-1.66-2.08-1.66-3.99c0-1.29,0.29-2.67,0.8-4.02l68.67,39.35C366.8,529.3,365.69,530.31,364.5,530.99z"/>
				</g>
				
					<linearGradient id="SVGID_00000002349884602491147490000008645949402790668677_" gradientUnits="userSpaceOnUse" x1="358.1436" y1="523.6495" x2="370.865" y2="523.6495">
					<stop  offset="0" style="stop-color:#858163"/>
					<stop  offset="0.5" style="stop-color:#858163"/>
					<stop  offset="1" style="stop-color:#858163"/>
				</linearGradient>
				<path style="fill:url(#SVGID_00000002349884602491147490000008645949402790668677_);" d="M358.14,527.32
					c0,4.06,2.85,5.7,6.36,3.67c3.51-2.03,6.36-6.96,6.36-11.02c0-4.06-2.85-5.7-6.36-3.67S358.14,523.27,358.14,527.32z"/>
			</g>
			<g>
				<path class="st1" d="M316.37,407.19c0-4.06,2.85-8.99,6.36-11.02c1.64-0.94,3.13-1.09,4.25-0.57l0,0l0,0
					c0.16,0.08,0.32,0.17,0.47,0.27l59.9,34.59l-9.72,15.08l-59.19-34.13c-0.15-0.07-0.29-0.15-0.42-0.24l0,0l0,0
					C316.99,410.46,316.37,409.09,316.37,407.19z"/>
				<path class="st12" d="M369.98,438.14c0,4.06,2.85,5.7,6.36,3.67c3.51-2.03,6.36-6.96,6.36-11.02c0-4.06-2.85-5.7-6.36-3.67
					C372.83,429.15,369.98,434.09,369.98,438.14z"/>
				<polygon class="st12" points="380.88,426.73 387.08,430.29 378.58,446.09 371.41,441.96 				"/>
				<g class="st4">
					<path class="st5" d="M382.59,445.42c-2,1.15-3.78,1.12-4.95,0.12l0,0l-59.19-34.13c-0.15-0.07-0.29-0.15-0.42-0.24l0,0l0,0
						c-1.03-0.71-1.66-2.08-1.66-3.99c0-1.29,0.29-2.67,0.8-4.02l68.67,39.35C384.88,443.72,383.77,444.74,382.59,445.42z"/>
				</g>
				
					<linearGradient id="SVGID_00000065075214331108113630000009109811922107901847_" gradientUnits="userSpaceOnUse" x1="376.2266" y1="438.0764" x2="388.948" y2="438.0764">
					<stop  offset="0" style="stop-color:#858163"/>
					<stop  offset="0.5" style="stop-color:#858163"/>
					<stop  offset="1" style="stop-color:#858163"/>
				</linearGradient>
				<path style="fill:url(#SVGID_00000065075214331108113630000009109811922107901847_);" d="M376.23,441.75
					c0,4.06,2.85,5.7,6.36,3.67c3.51-2.03,6.36-6.96,6.36-11.02c0-4.06-2.85-5.7-6.36-3.67
					C379.07,432.76,376.23,437.69,376.23,441.75z"/>
				<g>
					
						<rect x="355.72" y="428.25" transform="matrix(0.866 -0.5 0.5 0.866 -164.965 242.3591)" class="st15" width="28.08" height="1.53"/>
				</g>
				<g>
					<rect x="367.96" y="418.7" class="st15" width="1.53" height="25.89"/>
				</g>
			</g>
			<g>
				<path class="st1" d="M300.26,416.5c0-4.06,2.85-8.99,6.36-11.02c1.64-0.94,3.13-1.09,4.25-0.57l0,0l0,0
					c0.16,0.08,0.32,0.17,0.47,0.27l59.9,34.59l-9.72,15.08l-59.19-34.13c-0.15-0.07-0.29-0.15-0.42-0.24l0,0l0,0
					C300.89,419.77,300.26,418.4,300.26,416.5z"/>
				
					<linearGradient id="SVGID_00000168115000641407121500000009925368606337433995_" gradientUnits="userSpaceOnUse" x1="-11048.9854" y1="443.779" x2="-11036.2646" y2="443.779" gradientTransform="matrix(-1 0 0 1 -10682.3916 0)">
					<stop  offset="0" style="stop-color:#313D67"/>
					<stop  offset="0.5" style="stop-color:#313D67"/>
					<stop  offset="1" style="stop-color:#313D67"/>
				</linearGradient>
				<path style="fill:url(#SVGID_00000168115000641407121500000009925368606337433995_);" d="M353.87,447.45
					c0,4.06,2.85,5.7,6.36,3.67c3.51-2.03,6.36-6.96,6.36-11.02c0-4.06-2.85-5.7-6.36-3.67
					C356.72,438.46,353.87,443.4,353.87,447.45z"/>
				
					<linearGradient id="SVGID_00000118388921533967531000000009298097078454448023_" gradientUnits="userSpaceOnUse" x1="-11053.3701" y1="445.7181" x2="-11037.6963" y2="445.7181" gradientTransform="matrix(-1 0 0 1 -10682.3916 0)">
					<stop  offset="0" style="stop-color:#313D67"/>
					<stop  offset="0.5" style="stop-color:#313D67"/>
					<stop  offset="1" style="stop-color:#313D67"/>
				</linearGradient>
				<polygon style="fill:url(#SVGID_00000118388921533967531000000009298097078454448023_);" points="364.78,436.03 370.98,439.6 
					362.47,455.4 355.3,451.27 				"/>
				<g class="st4">
					<path class="st5" d="M366.48,454.73c-2,1.15-3.78,1.12-4.95,0.12l0,0l-59.19-34.13c-0.15-0.07-0.29-0.15-0.42-0.24l0,0l0,0
						c-1.03-0.71-1.66-2.08-1.66-3.99c0-1.29,0.29-2.67,0.8-4.02l68.67,39.35C368.77,453.03,367.66,454.05,366.48,454.73z"/>
				</g>
				
					<linearGradient id="SVGID_00000095322972632999593540000016679519453425877121_" gradientUnits="userSpaceOnUse" x1="-11055.2324" y1="447.3859" x2="-11042.5117" y2="447.3859" gradientTransform="matrix(-1 0 0 1 -10682.3916 0)">
					<stop  offset="0" style="stop-color:#4E587C"/>
					<stop  offset="0.5" style="stop-color:#4E587C"/>
					<stop  offset="1" style="stop-color:#4E587C"/>
				</linearGradient>
				<path style="fill:url(#SVGID_00000095322972632999593540000016679519453425877121_);" d="M360.12,451.06
					c0,4.06,2.85,5.7,6.36,3.67c3.51-2.03,6.36-6.96,6.36-11.02c0-4.06-2.85-5.7-6.36-3.67C362.97,442.07,360.12,447,360.12,451.06z
					"/>
				<polygon class="st1" points="315.27,406.21 314.51,404.88 319.31,402.11 319.31,397.03 320.84,397.03 320.84,401.23 
					330.62,395.59 331.38,396.91 320.84,402.99 320.84,417.03 319.31,417.03 319.31,403.88 				"/>
				<polygon class="st1" points="298.4,414.19 303.2,411.42 303.2,406.34 304.73,406.34 304.73,410.54 314.51,404.89 315.27,406.22 
					304.73,412.3 304.73,426.34 303.2,426.34 303.2,413.19 299.17,415.52 				"/>
				<g>
					
						<rect x="339.62" y="437.55" transform="matrix(0.866 -0.5 0.5 0.866 -171.7775 235.5524)" class="st15" width="28.08" height="1.53"/>
				</g>
				<g>
					<rect x="351.85" y="422.49" class="st15" width="1.53" height="31.41"/>
				</g>
				<g>
					<path class="st15" d="M333.62,449.79l6.11-0.02l-0.07-18.84l9.96-5.36l-2.9-5.38l-11.57,6.23c-0.99,0.53-1.61,1.57-1.61,2.7
						L333.62,449.79z"/>
				</g>
			</g>
			<g>
				<g>
					
						<rect x="309.22" y="500.98" transform="matrix(0.5 -0.866 0.866 0.5 -302.1155 535.009)" class="st0" width="6.11" height="56.34"/>
				</g>
			</g>
			<g>
				<g>
					<path class="st0" d="M336.67,646.03L336.67,646.03c1.69,0,3.05-1.37,3.05-3.05V430.67c0-1.14-0.61-2.2-1.6-2.77l-48.58-28.05
						c-0.7-0.4-1.52-0.6-2.3-0.42c-1.46,0.32-2.42,1.59-2.42,2.99V614.8c0,1.69,1.37,3.05,3.05,3.05l0,0c1.69,0,3.05-1.37,3.05-3.05
						V407.96c0-0.11,0.12-0.19,0.22-0.13l42.39,24.47c0.05,0.03,0.07,0.08,0.07,0.13v210.54
						C333.62,644.66,334.98,646.03,336.67,646.03z"/>
				</g>
			</g>
			<g>
				<g>
					
						<rect x="334.1" y="417.68" transform="matrix(0.866 -0.5 0.5 0.866 -163.23 232.2989)" class="st0" width="35.52" height="6.11"/>
				</g>
			</g>
			
				<rect x="291.92" y="485.99" transform="matrix(0.8675 -0.4974 0.4974 0.8675 -201.9082 215.5047)" class="st0" width="23.29" height="1.53"/>
			<rect x="303.25" y="479.05" class="st0" width="1.53" height="23.55"/>
		</g>
		<g>
			<rect x="351.84" y="494.92" class="st15" width="1.53" height="36.74"/>
		</g>
		<g>
			
				<rect x="336.44" y="514.37" transform="matrix(0.8667 -0.4988 0.4988 0.8667 -210.2835 243.3258)" class="st15" width="27.44" height="1.53"/>
		</g>
		<g>
			
				<rect x="334.44" y="496.82" transform="matrix(0.8667 -0.4988 0.4988 0.8667 -201.7944 239.9873)" class="st15" width="27.45" height="1.53"/>
		</g>
	</g>
	<g>
		<rect x="379.84" y="459.17" class="st15" width="1.53" height="41.17"/>
	</g>
	<g>
		
			<rect x="367.75" y="476.01" transform="matrix(0.8684 -0.4959 0.4959 0.8684 -186.2741 251.6679)" class="st15" width="26.49" height="1.53"/>
	</g>
</g>
</svg>
