<?xml version="1.0" encoding="utf-8"?>
<!-- Generator: Adobe Illustrator 28.3.0, SVG Export Plug-In . SVG Version: 6.00 Build 0)  -->
<svg version="1.1" id="Layer_1" xmlns="http://www.w3.org/2000/svg" xmlns:xlink="http://www.w3.org/1999/xlink" x="0px" y="0px"
	 viewBox="244.76 380.32 276.74 267.36" style="enable-background:new 244.76 380.32 276.74 267.36;" xml:space="preserve">
<style type="text/css">
	.st0{fill:#D3DFD5;}
	.st1{fill:#A8AEBF;}
	.st2{fill:url(#SVGID_1_);}
	.st3{fill:url(#SVGID_00000127006982235792073630000007871077585898818490_);}
	.st4{opacity:0.4;}
	.st5{fill:#838BA4;}
	.st6{fill:url(#SVGID_00000138573115264807597910000000363663723611842708_);}
	.st7{fill:#EB9288;}
	.st8{fill-rule:evenodd;clip-rule:evenodd;fill:#E16253;}
	.st9{fill:#E07C70;}
	.st10{fill:#D2D4DE;}
	.st11{fill:#E6E8ED;}
	.st12{fill:#B0AB83;}
	.st13{fill:url(#SVGID_00000047025725341056177020000010587457879204129208_);}
	.st14{fill:url(#SVGID_00000154418987289710915370000001989323743748634531_);}
	.st15{fill:#C9CDD7;}
	.st16{fill:url(#SVGID_00000002366367892949238440000008265491201105372035_);}
	.st17{fill:url(#SVGID_00000037684777173141445500000011991014558108838296_);}
	.st18{fill:url(#SVGID_00000025426072617105751090000011646447721862208153_);}
	.st19{opacity:0.13;fill:#AC969B;}
	.st20{fill:#F6EEF0;}
	.st21{fill:#FFFFFF;}
	.st22{fill:#BDC1CE;}
	.st23{fill:#EADADE;}
	.st24{fill:#EEB3AC;}
	.st25{fill:url(#SVGID_00000140005040257206492430000013812272125112848528_);}
	.st26{fill:url(#SVGID_00000051359575362440594410000013927096762062285990_);}
	.st27{fill:url(#SVGID_00000085949854363470244370000012047055992859352998_);}
	.st28{fill:url(#SVGID_00000149362421773714009360000007703845423478467494_);}
	.st29{fill:url(#SVGID_00000064331039137607536070000008287305108232552883_);}
	.st30{fill:url(#SVGID_00000142134557983765849980000011362750671592367268_);}
	.st31{fill:#231F20;}
	.st32{fill:#EBAAA2;}
	.st33{fill:#E89A91;}
	.st34{fill:#E28175;}
	.st35{fill:#F3CDC8;}
	.st36{fill:#F9E6E3;}
	.st37{fill:#F9F9FA;}
	.st38{fill:#F5F5F7;}
	.st39{fill:#F3F3F6;}
	.st40{fill:#ECEEF1;}
	.st41{fill:#A0596B;}
	.st42{fill:#AC969B;}
	.st43{fill:#B98491;}
	.st44{fill:url(#SVGID_00000061443641348137325320000002371891070754105790_);}
	.st45{fill:#D4B4BC;}
	.st46{fill:#E3CDD3;}
	.st47{fill:#F1E6E9;}
	.st48{fill:#E4887D;}
	.st49{fill:#EBA8A0;}
	.st50{fill:#F9E4E2;}
	.st51{fill:#FAEAE8;}
	.st52{fill:#FBEEED;}
	.st53{fill:#FCF4F3;}
	.st54{fill:#FEF9F9;}
	.st55{fill:#444E75;}
	.st56{fill:#5C6687;}
	.st57{fill:#717996;}
	.st58{fill:#969CB1;}
	.st59{fill:#F1F1F4;}
	.st60{fill:#A46969;}
	.st61{fill-rule:evenodd;clip-rule:evenodd;fill:#A19B6F;}
	.st62{fill-rule:evenodd;clip-rule:evenodd;fill:url(#SVGID_00000068653554876967320180000002333002102401219226_);}
	.st63{fill:#FCB4AC;}
	.st64{opacity:0.22;}
	.st65{fill:#B57070;}
	.st66{fill:#F7A197;}
	.st67{fill-rule:evenodd;clip-rule:evenodd;fill:url(#SVGID_00000039845018337258385430000013996710372625378194_);}
	.st68{fill:#02384C;}
	.st69{fill-rule:evenodd;clip-rule:evenodd;fill:#B0AB83;}
	.st70{fill:#948F6A;}
	.st71{fill:url(#SVGID_00000178162609950584031790000012631430767743322256_);}
	.st72{fill:#F0A39A;}
	.st73{fill:url(#SVGID_00000003084002615021525920000009429976965463614623_);}
	.st74{fill:url(#SVGID_00000168839612854153654600000008586726798532989103_);}
	.st75{fill:#FDDAC6;}
	.st76{opacity:0.41;}
	.st77{fill:url(#SVGID_00000093150474153592540630000016523805146646456728_);}
	.st78{fill:url(#SVGID_00000018213010306659267600000015311137039288636091_);}
	.st79{fill:url(#SVGID_00000139988123146752028720000000699139135084463541_);}
	.st80{fill:url(#SVGID_00000132790835942959445690000011040776414551641756_);}
	.st81{fill:url(#SVGID_00000130641780417346146890000013353235432574247612_);}
	.st82{fill:url(#SVGID_00000181783077870068647140000012601050861839511476_);}
	.st83{fill:url(#SVGID_00000111178256364851054210000014484713848609089667_);}
	.st84{fill:url(#SVGID_00000168818526068548719630000009964996964956052611_);}
	.st85{fill:url(#SVGID_00000051341202989210723700000016511674942968089228_);}
	.st86{fill-rule:evenodd;clip-rule:evenodd;fill:#C396A2;}
	.st87{fill-rule:evenodd;clip-rule:evenodd;fill:#B67F8D;}
	.st88{fill:url(#SVGID_00000006672396395703907080000005837481412711676824_);}
	.st89{fill:url(#SVGID_00000146458832562248729440000005649219645492426630_);}
	.st90{fill:#7D859F;}
	.st91{opacity:0.25;fill:#AC969B;}
	.st92{fill:url(#SVGID_00000008129646737852252190000017875831345010878087_);}
	.st93{fill:url(#SVGID_00000030477341773446829740000011472648730322831764_);}
	.st94{fill:#BD8B97;}
	.st95{fill:url(#SVGID_00000006700226947948397440000007430401205796674948_);}
	.st96{fill:url(#SVGID_00000025422387484169376510000017929599479652725410_);}
	.st97{fill:url(#SVGID_00000080206626437736641430000010579707782330944682_);}
	.st98{fill:#858DA5;}
	.st99{fill:#F6D6D3;}
	.st100{fill:url(#SVGID_00000087380142959576081660000002871507963740348296_);}
	
		.st101{opacity:0.33;clip-path:url(#SVGID_00000160889787144439969060000004119805534990030464_);fill:url(#SVGID_00000083767204532686064260000008247605774256224904_);}
	
		.st102{opacity:0.33;clip-path:url(#SVGID_00000041284700269884329510000006767254837843706001_);fill:url(#SVGID_00000133530440819378651770000002385628021016872582_);}
	
		.st103{opacity:0.33;clip-path:url(#SVGID_00000141456363793872160460000015994420190103652521_);fill:url(#SVGID_00000020400597712265840160000013633827160737688504_);}
	.st104{fill:url(#SVGID_00000013168739695158313840000017664384727683278758_);}
	.st105{clip-path:url(#SVGID_00000022520915619222219520000000292524027694913447_);}
	.st106{opacity:0.31;fill:#F5EDEF;}
	.st107{fill:url(#SVGID_00000072959500338379031750000006205626248907622577_);}
	.st108{fill:#35416A;}
	.st109{fill:#697190;}
	.st110{fill:#9AA0B5;}
	.st111{fill:#CCCFD9;}
	.st112{clip-path:url(#SVGID_00000130605455132778762010000015830485586544289160_);fill:#D2D4DE;}
	.st113{opacity:0.08;fill:#AC969B;}
	.st114{fill:#BFA3AA;}
	.st115{fill:#DEC5CC;}
	.st116{fill:#EBDCE0;}
	.st117{clip-path:url(#SVGID_00000168096731963105235380000003439270303407660432_);fill:#8A5F5A;}
	.st118{clip-path:url(#SVGID_00000168096731963105235380000003439270303407660432_);}
	.st119{fill:#B0AB7F;}
	.st120{fill:#969166;}
	.st121{clip-path:url(#SVGID_00000168096731963105235380000003439270303407660432_);fill:#B0AB7F;}
	.st122{clip-path:url(#SVGID_00000168096731963105235380000003439270303407660432_);fill:#969166;}
	.st123{opacity:0.72;clip-path:url(#SVGID_00000042729014709525168890000001247894191354925696_);}
	.st124{fill:#D98C66;}
	.st125{fill:#EFAD8D;}
	.st126{opacity:0.72;clip-path:url(#SVGID_00000070110598282219723000000009552885404942205841_);}
	.st127{clip-path:url(#SVGID_00000183223817644474822780000016223588947350495123_);fill:#8A5F5A;}
	.st128{clip-path:url(#SVGID_00000183223817644474822780000016223588947350495123_);fill:#B0AB7F;}
	.st129{clip-path:url(#SVGID_00000183223817644474822780000016223588947350495123_);fill:#969166;}
	.st130{opacity:0.72;clip-path:url(#SVGID_00000079485063774278892200000008017906547772379285_);}
	.st131{clip-path:url(#SVGID_00000075152948494185282410000017159117452596110731_);fill:#8A5F5A;}
	.st132{clip-path:url(#SVGID_00000075152948494185282410000017159117452596110731_);fill:#B0AB7F;}
	.st133{clip-path:url(#SVGID_00000075152948494185282410000017159117452596110731_);fill:#969166;}
	.st134{fill:url(#SVGID_00000175321105738491032620000008225061715499594411_);}
	.st135{fill:#FAABA2;}
	.st136{fill-rule:evenodd;clip-rule:evenodd;fill:#BD8B97;}
	.st137{opacity:0.12;fill:#AC969B;}
	.st138{fill:url(#SVGID_00000139278911901047819600000010639812108206537088_);}
	.st139{fill:#F5D5D1;}
	.st140{fill:url(#SVGID_00000023251179427187072740000010840137139770996903_);}
	.st141{fill:#E79A71;}
	.st142{fill:#F5B593;}
	
		.st143{opacity:0.39;clip-path:url(#SVGID_00000012472996670617444850000017870565640371972276_);fill:url(#SVGID_00000057116146671063448100000015530595473164375973_);}
	.st144{fill:url(#SVGID_00000140731760894975687400000010210699660334438807_);}
	.st145{fill:url(#SVGID_00000150078153676707232190000004407838445971697297_);}
	.st146{fill:#F6C8C2;}
	.st147{fill-rule:evenodd;clip-rule:evenodd;fill:#D3DFD5;}
	.st148{fill:url(#SVGID_00000147208410817510748410000017623762872497796493_);}
	.st149{opacity:0.46;}
	.st150{opacity:0.25;clip-path:url(#SVGID_00000114062027859793624910000016012581663348662424_);}
	.st151{fill:url(#SVGID_00000046300693043568424600000007886335690092999078_);}
	
		.st152{clip-path:url(#SVGID_00000114043771116123568810000007303823381970687405_);fill:url(#SVGID_00000058549673704289179750000006723668193955775895_);}
	.st153{fill:#492B23;}
	.st154{fill:#BC8779;}
	.st155{fill:#AA7065;}
	.st156{fill:#331B18;}
	.st157{fill:#9E5F5F;}
	.st158{fill:#C93F3F;}
	.st159{fill:#D84C4C;}
	.st160{fill:#B2C1B4;}
	.st161{fill:#844B45;}
	.st162{fill:#A86B65;}
	.st163{fill:#6B443E;}
	.st164{fill:#FFC255;}
	.st165{fill:#353D3B;}
	.st166{fill:url(#SVGID_00000084524997639508094940000002488198279286776503_);}
	.st167{fill:url(#SVGID_00000021819638106124975380000008702279406438492588_);}
	.st168{fill:url(#SVGID_00000183247231520035605180000000827797188582257318_);}
	.st169{fill:url(#SVGID_00000106131059874133281670000006308215431462371214_);}
	.st170{fill:url(#SVGID_00000066489844688644704150000002448295569684419993_);}
	.st171{fill:url(#SVGID_00000178166394058708361620000007168671680068488113_);}
	
		.st172{opacity:0.33;clip-path:url(#SVGID_00000067204060229297139950000013938086248101350557_);fill:url(#SVGID_00000064316240023251489680000007377175305503215777_);}
	
		.st173{opacity:0.33;clip-path:url(#SVGID_00000042737988347877949610000015160748913969192353_);fill:url(#SVGID_00000088822067076120324900000003454133813275595144_);}
	
		.st174{opacity:0.33;clip-path:url(#SVGID_00000136411686985948008390000013433578448860254372_);fill:url(#SVGID_00000025429599913768231710000006548741963495201424_);}
	.st175{fill:url(#SVGID_00000147205921008398775690000000990765553769908367_);}
	.st176{clip-path:url(#SVGID_00000047744266369618700700000013665260289165933757_);}
	.st177{fill:url(#SVGID_00000138556303444296887030000005586700833614731927_);}
	.st178{clip-path:url(#SVGID_00000072256999503263193620000011379461106887495300_);fill:#D2D4DE;}
	.st179{clip-path:url(#SVGID_00000182511365800308745940000003409336897094428314_);fill:#8A5F5A;}
	.st180{clip-path:url(#SVGID_00000182511365800308745940000003409336897094428314_);}
	.st181{clip-path:url(#SVGID_00000182511365800308745940000003409336897094428314_);fill:#B0AB7F;}
	.st182{clip-path:url(#SVGID_00000182511365800308745940000003409336897094428314_);fill:#969166;}
	.st183{opacity:0.72;clip-path:url(#SVGID_00000130620653337575981250000016581406049393125786_);}
	.st184{opacity:0.72;clip-path:url(#SVGID_00000080920145646670858720000014291084390745122461_);}
	.st185{clip-path:url(#SVGID_00000018934708722092032670000007304388895666348981_);fill:#8A5F5A;}
	.st186{clip-path:url(#SVGID_00000018934708722092032670000007304388895666348981_);fill:#B0AB7F;}
	.st187{clip-path:url(#SVGID_00000018934708722092032670000007304388895666348981_);fill:#969166;}
	.st188{opacity:0.72;clip-path:url(#SVGID_00000041286760101755794220000006628580646908429954_);}
	.st189{clip-path:url(#SVGID_00000114768295398502770240000002473980215127625898_);fill:#8A5F5A;}
	.st190{clip-path:url(#SVGID_00000114768295398502770240000002473980215127625898_);fill:#B0AB7F;}
	.st191{clip-path:url(#SVGID_00000114768295398502770240000002473980215127625898_);fill:#969166;}
	.st192{fill:url(#SVGID_00000087392477345056786370000004071192266730626197_);}
	.st193{fill:url(#SVGID_00000020385868440529046530000005528693141447944615_);}
	.st194{fill:url(#SVGID_00000124162909124834202480000015832361688202271127_);}
	
		.st195{opacity:0.39;clip-path:url(#SVGID_00000169543012297627475750000015240244804764740229_);fill:url(#SVGID_00000165950045139955616430000010936578206644266166_);}
	.st196{fill:url(#SVGID_00000060745066754532209480000012427633785998624663_);}
	.st197{fill:url(#SVGID_00000113312045101911840330000009887349862404718741_);}
	.st198{fill:url(#SVGID_00000085936490101161495840000006038367524913916042_);}
	.st199{opacity:0.25;clip-path:url(#SVGID_00000070106462001136764270000009401878129940960425_);}
	.st200{fill:url(#SVGID_00000023996573800556392720000012337372836747269013_);}
	
		.st201{clip-path:url(#SVGID_00000145763688469280250000000015688842389976864923_);fill:url(#SVGID_00000154387417780220628580000016072016226723513006_);}
	.st202{fill:url(#SVGID_00000031182573074691402320000011409200977240886456_);}
	.st203{fill:url(#SVGID_00000136403393475694778670000005902678907076050351_);}
	.st204{fill:url(#SVGID_00000146462305095657331730000015272158636249078718_);}
	.st205{fill:url(#SVGID_00000141420538074364373600000003822325651393614000_);}
	.st206{fill:url(#SVGID_00000108996879175638988120000000825018901607452083_);}
	.st207{fill:url(#SVGID_00000037691510404570256220000003251491062983293058_);}
	.st208{fill:url(#SVGID_00000135682189854600022200000013468874357413221276_);}
	.st209{fill:url(#SVGID_00000009580590988249081750000010836679183357025671_);}
	.st210{fill:url(#SVGID_00000022538856948373221100000017057719935133199032_);}
	.st211{fill:url(#SVGID_00000072240393820127442320000000601679163086990724_);}
	.st212{fill:url(#SVGID_00000067941517179661925000000013086157727692620207_);}
	.st213{fill:url(#SVGID_00000026148130560613262760000011993047762547524243_);}
	.st214{fill:url(#SVGID_00000142136454621895306160000016024999501158036897_);}
	.st215{fill:url(#SVGID_00000073689473902365734750000004299173872685071746_);}
	.st216{fill:url(#SVGID_00000101788746929050541150000017301288475562815913_);}
	.st217{fill:url(#SVGID_00000093157390054946900580000015347842496051209867_);}
	.st218{fill:url(#SVGID_00000042729188135391173630000017466636073052707251_);}
	.st219{fill:url(#SVGID_00000083088621323570406650000010685763641383866541_);}
	.st220{fill:url(#SVGID_00000049217665815782349300000011327607003817742761_);}
	.st221{fill:url(#SVGID_00000062898973716603448250000004796995886067499152_);}
	.st222{fill:url(#SVGID_00000007390254848350328640000012172392187334447751_);}
	.st223{fill:url(#SVGID_00000101795883811200500050000010109538925681872277_);}
	.st224{fill:url(#SVGID_00000060024972898386819330000005156168910118584461_);}
	.st225{fill:url(#SVGID_00000019655290764853801590000010838846572215502253_);}
	.st226{fill:url(#SVGID_00000074403526344288124970000018028471322380843395_);}
	.st227{fill:url(#SVGID_00000041979473366392568970000002397151558648826552_);}
	.st228{fill:url(#SVGID_00000141447253209768298620000014967948543237381769_);}
	.st229{fill:url(#SVGID_00000089533893636268454430000004615151612728739752_);}
	.st230{fill:url(#SVGID_00000052102779723756874220000010212364184054215331_);}
	.st231{fill-rule:evenodd;clip-rule:evenodd;fill:url(#SVGID_00000026164098156245910770000001803726507860844694_);}
	.st232{fill-rule:evenodd;clip-rule:evenodd;fill:url(#SVGID_00000083047085646456491150000015079603087809997697_);}
</style>
<g>
	<polygon class="st68" points="363.67,523.39 355.98,527.83 355.98,390.94 363.67,386.5 	"/>
	<polygon class="st68" points="350.75,387.97 355.98,390.94 355.98,527.83 350.75,524.85 	"/>
	<g>
		<polygon class="st0" points="511.97,562.9 409.78,621.89 409.78,554.09 511.97,495.09 		"/>
		<polygon class="st0" points="311.89,564.82 409.78,621.89 409.78,554.09 311.89,497.01 		"/>
		<polygon class="st0" points="511.97,495.09 414.08,438.01 311.89,497.01 409.78,554.09 		"/>
	</g>
	<polygon class="st65" points="487.78,503.16 399.68,452.07 297.5,511.06 385.59,562.15 	"/>
	<g>
		<polygon class="st21" points="441.53,531.68 444.02,530.24 351.18,476.67 348.68,478.11 		"/>
		<polygon class="st21" points="450.05,526.86 452.54,525.42 359.7,471.85 357.21,473.29 		"/>
		<polygon class="st21" points="458.58,521.87 461.07,520.43 368.23,466.86 365.73,468.3 		"/>
		<polygon class="st21" points="466.89,517 469.38,515.56 376.54,461.99 374.05,463.43 		"/>
		<polygon class="st21" points="475.42,512.18 477.91,510.74 385.07,457.17 382.58,458.61 		"/>
		<polygon class="st21" points="483.82,507.36 486.31,505.92 393.47,452.34 390.98,453.78 		"/>
	</g>
	<g>
		<polygon class="st21" points="424.25,541.29 426.74,539.85 333.9,486.28 331.41,487.72 		"/>
		<polygon class="st21" points="432.77,536.47 435.27,535.03 342.43,481.46 339.93,482.9 		"/>
		<polygon class="st21" points="441.18,531.64 443.67,530.21 350.83,476.63 348.34,478.07 		"/>
	</g>
	<g>
		<g>
			<polygon class="st68" points="294.94,564.71 287.24,569.15 287.24,432.26 294.94,427.82 			"/>
			<polygon class="st68" points="289.7,424.84 294.94,427.82 287.24,432.26 282.02,429.29 			"/>
			<polygon class="st68" points="282.02,429.29 287.24,432.26 287.24,569.15 282.02,566.17 			"/>
		</g>
	</g>
	<g>
		<g>
			<path class="st68" d="M304.54,423.15l-5.85,3.38v35.58c0,1.04,0.32,1.81,0.82,2.22l0,0.01l0.02,0.01
				c0.07,0.06,0.15,0.09,0.23,0.13l2.26,1.31l1.64-3.23l-0.24-0.12c0.68-1.11,1.13-2.46,1.13-3.7V423.15z"/>
			<path class="st68" d="M301.06,424.84v38.64c0,2.14,1.32,3.14,2.92,2.21c1.61-0.93,2.92-3.44,2.92-5.59v-38.64L301.06,424.84z"/>
		</g>
	</g>
	<g>
		<path class="st153" d="M303.8,455.94c-0.23-0.11-0.52-0.1-0.83,0.09c-0.75,0.43-1.35,1.59-1.35,2.58c0,0.54,0.18,0.91,0.46,1.08
			l5.94,3.35l1.63-3.81L303.8,455.94z"/>
		<g>
			<path class="st154" d="M308.11,455.32c-0.59-0.29-1.34-0.24-2.15,0.23c-1.89,1.09-3.43,4.02-3.43,6.54
				c0,1.36,0.45,2.32,1.15,2.75l97.65,56.21l4.41-9.52L308.11,455.32z"/>
			<path class="st155" d="M406.98,514.32c0,2.52-1.53,5.45-3.43,6.55c-1.89,1.09-3.43-0.07-3.43-2.59c0-2.52,1.53-5.45,3.43-6.54
				C405.44,510.64,406.98,511.8,406.98,514.32z"/>
		</g>
		<path class="st153" d="M404.7,514.86c-0.23-0.11-0.52-0.1-0.83,0.09c-0.75,0.43-1.35,1.59-1.35,2.58c0,0.54,0.18,0.91,0.46,1.08
			l5.94,3.35l1.63-3.81L404.7,514.86z"/>
	</g>
	<g>
		<path class="st156" d="M409.13,483.49l-5.85,3.38v35.57c0,1.04,0.32,1.81,0.82,2.22l0,0.01l0.02,0.01
			c0.07,0.06,0.15,0.09,0.23,0.13l2.26,1.31l1.64-3.23l-0.24-0.12c0.68-1.11,1.13-2.46,1.13-3.7V483.49z"/>
		<path class="st153" d="M405.66,485.42v38.38c0,2.14,1.32,3.14,2.92,2.21c1.61-0.93,2.92-3.44,2.92-5.59v-38.38L405.66,485.42z"/>
	</g>
	<g>
		<path class="st153" d="M291.74,499.43c-0.23-0.11-0.52-0.1-0.83,0.09c-0.75,0.43-1.35,1.59-1.35,2.58c0,0.54,0.18,0.91,0.46,1.08
			l5.94,3.35l1.63-3.81L291.74,499.43z"/>
		<g>
			<path class="st154" d="M296.06,498.81c-0.59-0.29-1.34-0.24-2.15,0.23c-1.89,1.09-3.43,4.02-3.43,6.55
				c0,1.36,0.45,2.32,1.15,2.75l97.65,56.21l4.41-9.52L296.06,498.81z"/>
			<path class="st153" d="M394.92,557.81c0,2.52-1.53,5.45-3.43,6.55s-3.43-0.07-3.43-2.59s1.53-5.45,3.43-6.55
				C393.39,554.13,394.92,555.29,394.92,557.81z"/>
		</g>
		<path class="st153" d="M392.64,558.35c-0.23-0.11-0.52-0.1-0.83,0.09c-0.75,0.43-1.35,1.59-1.35,2.58c0,0.54,0.18,0.91,0.46,1.08
			l5.94,3.35l1.63-3.81L392.64,558.35z"/>
	</g>
	<polygon class="st157" points="398.45,519.39 380.91,554.07 381.16,559.86 295.37,510.44 294.94,504.07 312.73,470.24 	"/>
	<path class="st158" d="M300.92,503.65c0,2.52-1.53,5.45-3.43,6.54c-1.89,1.09-3.43-0.07-3.43-2.59c0-2.52,1.53-5.45,3.43-6.55
		C299.39,499.97,300.92,501.13,300.92,503.65z"/>
	<path class="st154" d="M387.05,553.3c0,2.52-1.53,5.45-3.43,6.55c-1.89,1.09-3.43-0.07-3.43-2.59s1.53-5.45,3.43-6.54
		C385.52,549.62,387.05,550.78,387.05,553.3z"/>
	<g>
		<g>
			<g>
				<polygon class="st68" points="255.67,587.1 278.17,574.12 278.17,540.03 255.67,553.01 				"/>
				<polygon class="st68" points="250.97,550.33 255.67,553.01 255.67,587.1 250.97,584.37 				"/>
				<polygon class="st68" points="250.97,550.33 273.47,537.27 278.17,540.03 255.67,553.01 				"/>
				<polygon class="st68" points="255.46,575.48 277.96,562.42 377.61,620.1 355.11,633.08 				"/>
			</g>
			<g>
				<g>
					<path class="st157" d="M265.93,551.37c-0.21-0.1-0.47-0.09-0.76,0.08c-0.68,0.39-1.23,1.44-1.23,2.34
						c0,0.49,0.16,0.83,0.42,0.98l5.39,3.04l1.48-3.45L265.93,551.37z"/>
					<path class="st157" d="M271.76,555.39c0,0.9-0.55,1.95-1.23,2.34s-1.23-0.02-1.23-0.93c0-0.9,0.55-1.95,1.23-2.34
						S271.76,554.49,271.76,555.39z"/>
					<path class="st157" d="M271.25,555.73c0,0.51-0.31,1.1-0.69,1.32c-0.38,0.22-0.69-0.01-0.69-0.52s0.31-1.1,0.69-1.32
						C270.94,554.99,271.25,555.22,271.25,555.73z"/>
				</g>
				<g>
					<path class="st157" d="M281.72,545.95l56.82,32.64L281.72,545.95c-1.63-0.8-3.74-0.66-5.99,0.64
						c-5.27,3.04-9.55,11.21-9.55,18.25c0,3.79,1.24,6.47,3.21,7.67l88.36,50.71l12.29-26.55
						C370.04,596.66,281.89,546.03,281.72,545.95z"/>
					<path class="st157" d="M373.45,604.45c0,7.03-4.28,15.2-9.55,18.25c-5.27,3.04-9.55-0.19-9.55-7.22s4.28-15.2,9.55-18.25
						C369.18,594.18,373.45,597.41,373.45,604.45z"/>
					<path class="st157" d="M371.66,606.22c0,5.17-3.14,11.17-7.02,13.41c-3.87,2.24-7.02-0.14-7.02-5.3
						c0-5.17,3.14-11.17,7.02-13.41C368.52,598.68,371.66,601.06,371.66,606.22z"/>
					<path class="st157" d="M369.57,607.84c0,3.4-2.07,7.35-4.62,8.83c-2.55,1.47-4.62-0.09-4.62-3.49c0-3.4,2.07-7.35,4.62-8.83
						C367.5,602.88,369.57,604.44,369.57,607.84z"/>
				</g>
				<g>
					<path class="st157" d="M366.04,609.22c-0.21-0.1-0.47-0.09-0.76,0.08c-0.68,0.39-1.23,1.44-1.23,2.34
						c0,0.49,0.16,0.83,0.42,0.98l5.39,3.04l1.48-3.46L366.04,609.22z"/>
					<path class="st157" d="M371.87,613.24c0,0.9-0.55,1.95-1.23,2.34s-1.23-0.02-1.23-0.93c0-0.9,0.55-1.95,1.23-2.34
						C371.32,611.92,371.87,612.33,371.87,613.24z"/>
					<path class="st157" d="M371.36,613.58c0,0.51-0.31,1.1-0.69,1.32c-0.38,0.22-0.69-0.01-0.69-0.52c0-0.51,0.31-1.1,0.69-1.32
						C371.05,612.83,371.36,613.07,371.36,613.58z"/>
				</g>
			</g>
			<g>
				<polygon class="st68" points="359.73,647.68 382.23,634.7 382.23,600.61 359.73,613.59 				"/>
				<polygon class="st68" points="355.03,610.9 359.73,613.59 359.73,647.68 355.03,644.95 				"/>
				<polygon class="st68" points="355.03,610.9 377.53,597.84 382.23,600.61 359.73,613.59 				"/>
			</g>
			<polygon class="st68" points="357.59,634.38 357.59,638.8 252.82,578.31 252.82,573.89 			"/>
		</g>
	</g>
	<g>
		<path class="st156" d="M272.86,441.47l-5.85,3.38v26.16c0,1.04,0.32,1.81,0.82,2.22l0,0.01l0.02,0.01
			c0.07,0.06,0.15,0.09,0.23,0.13l2.26,1.31l1.64-3.23l-0.24-0.12c0.68-1.11,1.13-2.46,1.13-3.7V441.47z"/>
		<path class="st153" d="M269.39,443.48v28.9c0,2.14,1.32,3.14,2.92,2.21c1.61-0.93,2.92-3.44,2.92-5.59v-28.9L269.39,443.48z"/>
	</g>
	<g>
		<path class="st153" d="M272.12,464.84c-0.23-0.11-0.52-0.1-0.83,0.09c-0.75,0.43-1.35,1.59-1.35,2.58c0,0.54,0.18,0.91,0.46,1.08
			l5.94,3.35l1.63-3.81L272.12,464.84z"/>
		<g>
			<path class="st154" d="M276.44,464.22c-0.59-0.29-1.34-0.24-2.15,0.23c-1.89,1.09-3.43,4.02-3.43,6.55
				c0,1.36,0.45,2.32,1.15,2.75l97.65,56.21l4.41-9.52L276.44,464.22z"/>
			<path class="st155" d="M375.3,523.22c0,2.52-1.53,5.45-3.43,6.55c-1.89,1.09-3.43-0.07-3.43-2.59s1.53-5.45,3.43-6.55
				C373.77,519.54,375.3,520.7,375.3,523.22z"/>
		</g>
		<path class="st153" d="M373.02,523.75c-0.23-0.11-0.52-0.1-0.83,0.09c-0.75,0.43-1.35,1.59-1.35,2.58c0,0.54,0.18,0.91,0.46,1.08
			l5.94,3.35l1.63-3.81L373.02,523.75z"/>
	</g>
	<polygon class="st65" points="281.6,467.1 275.92,474.29 281.72,545.95 370.04,596.66 363.26,524.15 368.6,517.28 	"/>
	<path class="st154" d="M370.11,520.19c-0.97,1.98-1.53,5.45-3.43,6.54c-1.89,1.09-3.43-0.07-3.43-2.59c0-2.52,1.53-5.45,3.43-6.55
		S370.11,517.67,370.11,520.19z"/>
	<path class="st159" d="M282.75,469.84c0,2.52-1.53,5.45-3.43,6.54c-1.89,1.09-3.43-0.07-3.43-2.59c0-2.52,1.53-5.45,3.43-6.55
		C281.22,466.16,282.75,467.32,282.75,469.84z"/>
	<polygon class="st65" points="399.52,507.94 366.68,517.6 279.33,467.25 311.93,457.52 	"/>
	<g>
		<g>
			<polygon class="st68" points="399.21,624.46 391.52,628.9 391.52,492.01 399.21,487.57 			"/>
			<polygon class="st68" points="393.97,484.59 399.21,487.57 391.52,492.01 386.3,489.04 			"/>
			<polygon class="st68" points="386.3,489.04 391.52,492.01 391.52,628.9 386.3,625.92 			"/>
			<polygon class="st68" points="504.54,494.3 496.85,498.74 496.85,457.37 504.54,452.93 			"/>
			<polygon class="st68" points="491.63,454.39 496.85,457.37 496.85,498.74 491.63,495.76 			"/>
		</g>
	</g>
	<g>
		<g>
			<polygon class="st68" points="354.94,502.41 256.64,445.66 363.79,383.8 357.47,380.32 244.76,445.39 355.57,509.2 
				468.28,444.13 462.08,440.55 			"/>
			<polygon class="st68" points="355.57,517.13 355.57,509.2 244.76,445.39 244.76,453.32 			"/>
			<polygon class="st68" points="468.28,452.05 468.28,444.13 355.57,509.2 355.57,517.13 			"/>
			<polygon class="st68" points="363.79,390.49 363.79,383.8 256.64,445.66 262.44,449.01 			"/>
		</g>
	</g>
	<g>
		<path class="st156" d="M377.45,501.79l-5.85,3.38v26.16c0,1.04,0.32,1.81,0.82,2.22l0,0.01l0.02,0.01
			c0.07,0.06,0.15,0.09,0.23,0.13l2.26,1.31l1.64-3.23l-0.24-0.12c0.68-1.11,1.13-2.46,1.13-3.7V501.79z"/>
		<path class="st153" d="M373.98,503.79v28.9c0,2.14,1.32,3.14,2.92,2.21c1.61-0.93,2.92-3.44,2.92-5.59v-28.9L373.98,503.79z"/>
	</g>
	<polygon class="st160" points="446.7,623.36 426.74,611.84 426.74,544.5 446.7,556.02 455.16,578.72 	"/>
	<polygon class="st161" points="513.03,584.89 493.08,573.37 493.08,506.02 513.03,517.54 521.5,540.25 	"/>
	<polygon class="st160" points="493.08,506.02 426.74,544.5 446.7,556.02 513.03,517.54 	"/>
	<g>
		<path class="st162" d="M447.14,553.65l-16.45-9.5l0.25-0.14l61.72-35.78l16.45,9.5l-0.25,0.14L447.14,553.65z M431.35,544.15
			l15.79,9.11l61.31-35.54l-15.79-9.11L431.35,544.15z"/>
	</g>
	<polygon class="st68" points="521.5,540.25 455.16,578.72 446.7,623.36 513.03,584.89 	"/>
	<polygon class="st160" points="517.17,547.49 459,581.23 451.54,620.55 509.71,586.81 	"/>
	<g>
		<polygon class="st68" points="466.43,576.95 464.23,578.17 456.8,617.32 458.97,616.28 		"/>
		<polygon class="st68" points="472.35,573.48 470.14,574.75 462.68,614.1 464.89,612.81 		"/>
		<polygon class="st68" points="478.2,570.09 475.99,571.37 468.55,610.62 470.76,609.33 		"/>
		<polygon class="st68" points="484.12,566.66 481.9,567.94 474.44,607.27 476.66,605.99 		"/>
		<polygon class="st68" points="489.96,563.3 487.75,564.56 480.3,603.87 482.52,602.59 		"/>
	</g>
	<g>
		<polygon class="st68" points="495.86,559.81 493.65,561.07 486.19,600.42 488.41,599.14 		"/>
		<polygon class="st68" points="501.72,556.42 499.51,557.7 492.07,596.94 494.28,595.66 		"/>
		<polygon class="st68" points="507.63,552.99 505.42,554.27 497.96,593.6 500.18,592.31 		"/>
		<polygon class="st68" points="513.48,549.63 511.27,550.89 503.82,590.2 506.03,588.92 		"/>
	</g>
	<polygon class="st160" points="521.5,540.25 513.03,517.54 446.7,556.02 455.16,578.72 	"/>
	<polygon class="st21" points="517.8,539.15 511.36,521.87 450.38,557.31 456.82,574.58 	"/>
	<path class="st21" d="M361.47,388.64c-0.36-0.18-0.83-0.15-1.34,0.14c-1.18,0.68-2.13,2.5-2.13,4.08c0,0.85,0.28,1.45,0.72,1.71
		l91.41,52.88l6.59-3.8L361.47,388.64z"/>
	<g>
		<path class="st159" d="M485.66,555.93l-5.34-14.33l0.12-0.07l30.06-17.52l5.34,14.33l-0.12,0.07L485.66,555.93z M480.73,541.75
			l5.11,13.7l29.6-17.25l-5.11-13.7L480.73,541.75z"/>
	</g>
	<polygon class="st65" points="484.37,556.21 481.64,548.87 455.07,564.27 457.8,571.61 	"/>
	<g>
		<polygon class="st163" points="457.01,557.7 456.61,556.63 452.84,558.83 453.23,559.9 		"/>
		<polygon class="st163" points="457.78,559.74 457.39,558.67 453.61,560.86 454.01,561.93 		"/>
		<polygon class="st163" points="462.7,554.44 462.3,553.37 458.52,555.56 458.92,556.63 		"/>
		<polygon class="st163" points="463.47,556.47 463.07,555.4 459.3,557.6 459.7,558.67 		"/>
	</g>
	<g>
		<polygon class="st163" points="468.39,551.17 467.99,550.1 464.21,552.3 464.61,553.37 		"/>
		<polygon class="st163" points="469.16,553.21 468.76,552.14 464.99,554.33 465.39,555.4 		"/>
		<polygon class="st163" points="474.08,547.91 473.68,546.84 469.9,549.03 470.3,550.1 		"/>
		<polygon class="st163" points="474.85,549.94 474.45,548.87 470.68,551.07 471.07,552.14 		"/>
	</g>
	<g>
		<polygon class="st163" points="479.75,544.64 479.35,543.57 475.58,545.77 475.98,546.84 		"/>
		<polygon class="st163" points="480.53,546.68 480.13,545.61 476.35,547.8 476.75,548.87 		"/>
	</g>
	<g>
		<g>
			<g>
				<polygon class="st163" points="513.44,535.68 513.04,534.61 509.26,536.8 509.66,537.87 				"/>
				<polygon class="st163" points="514.21,537.71 513.81,536.64 510.03,538.84 510.43,539.91 				"/>
			</g>
			<g>
				<polygon class="st163" points="512.66,533.65 512.26,532.58 508.49,534.77 508.89,535.84 				"/>
			</g>
		</g>
		<circle class="st164" cx="508.63" cy="530.03" r="1.84"/>
		<g>
			<g>
				<polygon class="st163" points="507.61,538.97 507.21,537.9 503.43,540.1 503.83,541.17 				"/>
				<polygon class="st163" points="508.38,541 507.98,539.93 504.21,542.13 504.61,543.2 				"/>
			</g>
			<g>
				<polygon class="st163" points="506.84,536.94 506.44,535.87 502.66,538.06 503.06,539.13 				"/>
			</g>
		</g>
		<path class="st164" d="M504.64,533.32c0,1.02-0.82,1.84-1.84,1.84c-1.02,0-1.84-0.82-1.84-1.84s0.82-1.84,1.84-1.84
			C503.82,531.48,504.64,532.3,504.64,533.32z"/>
	</g>
	<g>
		<g>
			<g>
				<polygon class="st163" points="501.26,542.65 500.86,541.58 497.08,543.78 497.48,544.85 				"/>
				<polygon class="st163" points="502.03,544.68 501.63,543.61 497.85,545.81 498.25,546.88 				"/>
			</g>
			<g>
				<polygon class="st163" points="500.48,540.62 500.08,539.55 496.31,541.74 496.7,542.81 				"/>
			</g>
		</g>
		<path class="st164" d="M498.29,537c0,1.02-0.82,1.84-1.84,1.84s-1.84-0.82-1.84-1.84c0-1.02,0.82-1.84,1.84-1.84
			S498.29,535.98,498.29,537z"/>
		<g>
			<g>
				<polygon class="st163" points="495.43,545.94 495.03,544.87 491.25,547.07 491.65,548.14 				"/>
				<polygon class="st163" points="496.2,547.97 495.8,546.9 492.03,549.1 492.42,550.17 				"/>
			</g>
			<g>
				<polygon class="st163" points="494.65,543.91 494.26,542.84 490.48,545.04 490.88,546.11 				"/>
			</g>
		</g>
		<path class="st164" d="M492.46,540.29c0,1.02-0.82,1.84-1.84,1.84c-1.02,0-1.84-0.82-1.84-1.84s0.82-1.84,1.84-1.84
			C491.64,538.45,492.46,539.27,492.46,540.29z"/>
	</g>
	<g>
		<g>
			<g>
				<polygon class="st163" points="489.6,549.32 489.2,548.25 485.43,550.45 485.82,551.52 				"/>
				<polygon class="st163" points="490.37,551.35 489.98,550.28 486.2,552.48 486.6,553.55 				"/>
			</g>
			<g>
				<polygon class="st163" points="488.83,547.29 488.43,546.22 484.65,548.41 485.05,549.48 				"/>
			</g>
		</g>
		<circle class="st164" cx="484.79" cy="543.67" r="1.84"/>
	</g>
	<polygon class="st68" points="468.28,444.13 504.54,452.93 501.08,460.6 464.82,451.8 	"/>
	<polygon class="st68" points="504.54,452.93 498.3,449.49 462.04,440.7 468.28,444.13 	"/>
	<g>
		<g>
			<g>
				<path class="st0" d="M498.04,501.48L498.04,501.48l-0.94,0.54l0.43,0.63l0.01-0.01c0,0.05-0.01,0.08-0.01,0.13
					c0,2.84,0,12.49,0,12.49l2.28,1.32c0.1,0.46,0.36,1.38,0.36,1.38l1.01-0.59c0,0,0-9.2,0-12.49
					C501.17,502.37,499.04,500.81,498.04,501.48z"/>
				<g>
					<path class="st0" d="M496.51,515.85c0,0,0-9.65,0-12.49c0-2.84,3.65-1.18,3.65,2.11c0,3.29,0,12.49,0,12.49L496.51,515.85z"/>
				</g>
			</g>
		</g>
		<g>
			<polygon class="st160" points="481.76,525.65 501.6,514.23 501.6,490.15 481.76,501.57 			"/>
			<polygon class="st165" points="500.26,492.79 483.76,502.28 483.76,523.01 500.26,513.51 			"/>
			<polygon class="st21" points="499.26,494.59 484.77,502.93 484.77,504.2 499.26,495.86 			"/>
			<polygon class="st21" points="499.26,497.36 484.77,505.7 484.77,506.97 499.26,498.63 			"/>
			<polygon class="st21" points="499.26,508.59 484.77,516.93 484.77,518.2 499.26,509.86 			"/>
			<polygon class="st21" points="499.26,511.31 484.77,519.65 484.77,520.92 499.26,512.58 			"/>
			<polygon class="st21" points="499.26,500.06 484.77,508.4 484.77,515.31 499.26,506.97 			"/>
			<polygon class="st68" points="478.48,499.68 478.48,523.76 481.76,525.65 481.76,501.57 			"/>
			<polygon class="st68" points="501.6,490.16 481.76,501.57 478.48,499.68 498.13,488.18 			"/>
		</g>
		<g>
			<g>
				<path class="st160" d="M477.49,513.27L477.49,513.27l-0.94,0.54l0.43,0.63l0.01-0.01c0,0.05-0.01,0.08-0.01,0.13
					c0,2.84,0,12.49,0,12.49l2.28,1.32c0.1,0.46,0.36,1.38,0.36,1.38l1.01-0.58c0,0,0-9.2,0-12.49
					C480.62,514.15,478.49,512.59,477.49,513.27z"/>
				<g>
					<path class="st0" d="M475.96,527.63c0,0,0-9.65,0-12.49c0-2.84,3.65-1.18,3.65,2.11c0,3.29,0,12.49,0,12.49L475.96,527.63z"/>
				</g>
			</g>
		</g>
		<path class="st21" d="M476.61,515.79c0,0.69,0.42,1.49,0.94,1.79c0.52,0.3,0.94-0.02,0.94-0.71c0-0.69-0.42-1.49-0.94-1.79
			C477.03,514.79,476.61,515.1,476.61,515.79z"/>
	</g>
</g>
</svg>
