<?xml version="1.0" encoding="utf-8"?>
<!-- Generator: Adobe Illustrator 28.3.0, SVG Export Plug-In . SVG Version: 6.00 Build 0)  -->
<svg version="1.1" id="Layer_1" xmlns="http://www.w3.org/2000/svg" xmlns:xlink="http://www.w3.org/1999/xlink" x="0px" y="0px"
	 viewBox="123.34 312.62 460.91 376.59" style="enable-background:new 123.34 312.62 460.91 376.59;" xml:space="preserve">
<style type="text/css">
	.st0{fill:#D3DFD5;}
	.st1{fill:#A8AEBF;}
	.st2{fill:url(#SVGID_1_);}
	.st3{fill:url(#SVGID_00000126291501121392433660000014408951500221108915_);}
	.st4{opacity:0.4;}
	.st5{fill:#838BA4;}
	.st6{fill:url(#SVGID_00000083779972273258163500000009635995853648013739_);}
	.st7{fill:#EB9288;}
	.st8{fill-rule:evenodd;clip-rule:evenodd;fill:#E16253;}
	.st9{fill:#E07C70;}
	.st10{fill:#D2D4DE;}
	.st11{fill:#E6E8ED;}
	.st12{fill:#B0AB83;}
	.st13{fill:url(#SVGID_00000143576817824124086210000010539176985443763620_);}
	.st14{fill:url(#SVGID_00000020378721619880278600000016003030902728740248_);}
	.st15{fill:#C9CDD7;}
	.st16{fill:url(#SVGID_00000007390782007099867340000007912416862421942706_);}
	.st17{fill:url(#SVGID_00000012449648856936822520000015019700611316667559_);}
	.st18{fill:url(#SVGID_00000111180490856773778470000001563219750474731691_);}
	.st19{opacity:0.13;fill:#AC969B;}
	.st20{fill:#F6EEF0;}
	.st21{fill:#FFFFFF;}
	.st22{fill:#BDC1CE;}
	.st23{fill:#EADADE;}
	.st24{fill:#EEB3AC;}
	.st25{fill:url(#SVGID_00000157995180643946991510000018123479350346039214_);}
	.st26{fill:url(#SVGID_00000135665151652339320240000006377142120958312367_);}
	.st27{fill:url(#SVGID_00000096748488649886736430000003150231801227681456_);}
	.st28{fill:url(#SVGID_00000005949817468680000320000000442292358692260790_);}
	.st29{fill:url(#SVGID_00000165931312236532806340000009696189894191702928_);}
	.st30{fill:url(#SVGID_00000014612513406728905780000002114080947569676941_);}
	.st31{fill:#231F20;}
	.st32{fill:#EBAAA2;}
	.st33{fill:#E89A91;}
	.st34{fill:#E28175;}
	.st35{fill:#F3CDC8;}
	.st36{fill:#F9E6E3;}
	.st37{fill:#F9F9FA;}
	.st38{fill:#F5F5F7;}
	.st39{fill:#F3F3F6;}
	.st40{fill:#ECEEF1;}
	.st41{fill:#A0596B;}
	.st42{fill:#AC969B;}
	.st43{fill:#B98491;}
	.st44{fill:url(#SVGID_00000124130706920466294130000008102044776390566582_);}
	.st45{fill:#D4B4BC;}
	.st46{fill:#E3CDD3;}
	.st47{fill:#F1E6E9;}
	.st48{fill:#E4887D;}
	.st49{fill:#EBA8A0;}
	.st50{fill:#F9E4E2;}
	.st51{fill:#FAEAE8;}
	.st52{fill:#FBEEED;}
	.st53{fill:#FCF4F3;}
	.st54{fill:#FEF9F9;}
	.st55{fill:#444E75;}
	.st56{fill:#5C6687;}
	.st57{fill:#717996;}
	.st58{fill:#969CB1;}
	.st59{fill:#F1F1F4;}
	.st60{fill:#A46969;}
	.st61{fill-rule:evenodd;clip-rule:evenodd;fill:#A19B6F;}
	.st62{fill-rule:evenodd;clip-rule:evenodd;fill:url(#SVGID_00000054947551121023898640000012385861308307628191_);}
	.st63{fill:#FCB4AC;}
	.st64{opacity:0.22;}
	.st65{fill:#B57070;}
	.st66{fill:#F7A197;}
	.st67{fill-rule:evenodd;clip-rule:evenodd;fill:url(#SVGID_00000104697317926243419950000005062948287931436208_);}
	.st68{fill:#02384C;}
	.st69{fill-rule:evenodd;clip-rule:evenodd;fill:#B0AB83;}
	.st70{fill:#948F6A;}
	.st71{fill:url(#SVGID_00000172430595592392675890000005252330117584141201_);}
	.st72{fill:#F0A39A;}
	.st73{fill:url(#SVGID_00000106829911471191208250000002957620828728308366_);}
	.st74{fill:url(#SVGID_00000067200997875332195650000014603885863839437218_);}
	.st75{fill:#FDDAC6;}
	.st76{opacity:0.41;}
	.st77{fill:url(#SVGID_00000121980725580943565160000004008716148493992114_);}
	.st78{fill:url(#SVGID_00000059310805940719708690000005423512373296812712_);}
	.st79{fill:url(#SVGID_00000014596156216456815580000015144217590821376158_);}
	.st80{fill:url(#SVGID_00000087375477687134142690000015470519646394871227_);}
	.st81{fill:url(#SVGID_00000143592622274272024550000009425617698048077230_);}
	.st82{fill:url(#SVGID_00000047022011671025928650000003552905204848020881_);}
	.st83{fill:url(#SVGID_00000143599911418618531970000010661619074296342401_);}
	.st84{fill:url(#SVGID_00000008146095142323990850000010308912160033661626_);}
	.st85{fill:url(#SVGID_00000107567112261004690210000002389508132854897809_);}
	.st86{fill-rule:evenodd;clip-rule:evenodd;fill:#C396A2;}
	.st87{fill-rule:evenodd;clip-rule:evenodd;fill:#B67F8D;}
	.st88{fill:url(#SVGID_00000075159190716381291860000000714831501801466512_);}
	.st89{fill:url(#SVGID_00000109002439434058180450000007416677108449350806_);}
	.st90{fill:#7D859F;}
	.st91{opacity:0.25;fill:#AC969B;}
	.st92{fill:url(#SVGID_00000067940174928641282120000014405037450862845847_);}
	.st93{fill:url(#SVGID_00000114779002841634428410000010953235293309237634_);}
	.st94{fill:#BD8B97;}
	.st95{fill:url(#SVGID_00000109007878833025598590000007143227960621906876_);}
	.st96{fill:url(#SVGID_00000004520962844807118000000012834791332679979915_);}
	.st97{fill:url(#SVGID_00000134222193943012130490000002970272924717583258_);}
	.st98{fill:#858DA5;}
	.st99{fill:#F6D6D3;}
	.st100{fill:url(#SVGID_00000172430496427552902360000014390418479237012377_);}
	
		.st101{opacity:0.33;clip-path:url(#SVGID_00000065060676490188734070000002675487720167043460_);fill:url(#SVGID_00000060004597356154519230000013428804193372217518_);}
	
		.st102{opacity:0.33;clip-path:url(#SVGID_00000159469485273624822440000014508147647946071175_);fill:url(#SVGID_00000134961518230725386450000005028740334168551854_);}
	
		.st103{opacity:0.33;clip-path:url(#SVGID_00000049209588317932968640000002484116474111348373_);fill:url(#SVGID_00000017485947369310137190000012589177247503170705_);}
	.st104{fill:url(#SVGID_00000160883000997515104750000001761473586105526144_);}
	.st105{clip-path:url(#SVGID_00000053517322247175502830000005247188757471150471_);}
	.st106{opacity:0.31;fill:#F5EDEF;}
	.st107{fill:url(#SVGID_00000082366910504825610050000006244570824907096969_);}
	.st108{fill:#35416A;}
	.st109{fill:#697190;}
	.st110{fill:#9AA0B5;}
	.st111{fill:#CCCFD9;}
	.st112{clip-path:url(#SVGID_00000095337263174035465970000014036096402780827031_);fill:#D2D4DE;}
	.st113{opacity:0.08;fill:#AC969B;}
	.st114{fill:#BFA3AA;}
	.st115{fill:#DEC5CC;}
	.st116{fill:#EBDCE0;}
	.st117{clip-path:url(#SVGID_00000044888562602658268150000003203412959739810991_);fill:#8A5F5A;}
	.st118{clip-path:url(#SVGID_00000044888562602658268150000003203412959739810991_);}
	.st119{fill:#B0AB7F;}
	.st120{fill:#969166;}
	.st121{clip-path:url(#SVGID_00000044888562602658268150000003203412959739810991_);fill:#B0AB7F;}
	.st122{clip-path:url(#SVGID_00000044888562602658268150000003203412959739810991_);fill:#969166;}
	.st123{opacity:0.72;clip-path:url(#SVGID_00000029021194557466954400000017638638482341619618_);}
	.st124{fill:#D98C66;}
	.st125{fill:#EFAD8D;}
	.st126{opacity:0.72;clip-path:url(#SVGID_00000057869451625978777030000001838688643932880555_);}
	.st127{clip-path:url(#SVGID_00000176008050836584501610000018375728530170132902_);fill:#8A5F5A;}
	.st128{clip-path:url(#SVGID_00000176008050836584501610000018375728530170132902_);fill:#B0AB7F;}
	.st129{clip-path:url(#SVGID_00000176008050836584501610000018375728530170132902_);fill:#969166;}
	.st130{opacity:0.72;clip-path:url(#SVGID_00000146478386165620964320000016337406503568313506_);}
	.st131{clip-path:url(#SVGID_00000090269872755369410340000015105662913700718988_);fill:#8A5F5A;}
	.st132{clip-path:url(#SVGID_00000090269872755369410340000015105662913700718988_);fill:#B0AB7F;}
	.st133{clip-path:url(#SVGID_00000090269872755369410340000015105662913700718988_);fill:#969166;}
	.st134{fill:url(#SVGID_00000178203129337617778660000009942419674955105166_);}
	.st135{fill:#FAABA2;}
	.st136{fill-rule:evenodd;clip-rule:evenodd;fill:#BD8B97;}
	.st137{opacity:0.12;fill:#AC969B;}
	.st138{fill:url(#SVGID_00000038410804137936884690000001175718022160199810_);}
	.st139{fill:#F5D5D1;}
	.st140{fill:url(#SVGID_00000031194760179735718320000012861914045711548580_);}
	.st141{fill:#E79A71;}
	.st142{fill:#F5B593;}
	
		.st143{opacity:0.39;clip-path:url(#SVGID_00000116936749193735223150000012348563400625679027_);fill:url(#SVGID_00000136402341201820940710000005013807460906213012_);}
	.st144{fill:url(#SVGID_00000062878158356886141080000017930057175006174094_);}
	.st145{fill:url(#SVGID_00000168103069962796971150000016452719647570292668_);}
	.st146{fill:#F6C8C2;}
	.st147{fill-rule:evenodd;clip-rule:evenodd;fill:#D3DFD5;}
	.st148{fill:url(#SVGID_00000053518217787522424870000000320607194948266671_);}
	.st149{opacity:0.46;}
	.st150{opacity:0.25;clip-path:url(#SVGID_00000103238970379987873790000014332105277304898444_);}
	.st151{fill:url(#SVGID_00000063621078437078242890000003339784737575682948_);}
	
		.st152{clip-path:url(#SVGID_00000170970136679859070030000000210223575888550535_);fill:url(#SVGID_00000140001494150029030220000007681210017370577596_);}
	.st153{fill:#492B23;}
	.st154{fill:#BC8779;}
	.st155{fill:#AA7065;}
	.st156{fill:#331B18;}
	.st157{fill:#9E5F5F;}
	.st158{fill:#C93F3F;}
	.st159{fill:#D84C4C;}
	.st160{fill:#B2C1B4;}
	.st161{fill:#844B45;}
	.st162{fill:#A86B65;}
	.st163{fill:#6B443E;}
	.st164{fill:#FFC255;}
	.st165{fill:#353D3B;}
	.st166{fill:url(#SVGID_00000018916870558297194220000009901405773410345148_);}
	.st167{fill:url(#SVGID_00000028282834739471430850000015205327988997552823_);}
	.st168{fill:url(#SVGID_00000002358100105172557480000006978090040893914010_);}
	.st169{fill:url(#SVGID_00000113316742745399627900000004223634412384652217_);}
	.st170{fill:url(#SVGID_00000043435824100212243730000001613366450053169594_);}
	.st171{fill:url(#SVGID_00000145780868501137392760000015216671828630879165_);}
	
		.st172{opacity:0.33;clip-path:url(#SVGID_00000036969014849946799350000005833192810620348080_);fill:url(#SVGID_00000030457507672230332240000003783972247277652153_);}
	
		.st173{opacity:0.33;clip-path:url(#SVGID_00000024701164952375444120000017453321675110551425_);fill:url(#SVGID_00000072972224196698754240000012211528529391873693_);}
	
		.st174{opacity:0.33;clip-path:url(#SVGID_00000109722979315289541020000002769441556236536497_);fill:url(#SVGID_00000035525978846675459490000008099876281353949370_);}
	.st175{fill:url(#SVGID_00000008136184750563279520000008937235883655501499_);}
	.st176{clip-path:url(#SVGID_00000142883051822869855090000003134531316211638934_);}
	.st177{fill:url(#SVGID_00000157285148871799706270000000130948718611749561_);}
	.st178{clip-path:url(#SVGID_00000123427812271660958290000018395510685231742397_);fill:#D2D4DE;}
	.st179{clip-path:url(#SVGID_00000163031948799474683390000007775885668142446747_);fill:#8A5F5A;}
	.st180{clip-path:url(#SVGID_00000163031948799474683390000007775885668142446747_);}
	.st181{clip-path:url(#SVGID_00000163031948799474683390000007775885668142446747_);fill:#B0AB7F;}
	.st182{clip-path:url(#SVGID_00000163031948799474683390000007775885668142446747_);fill:#969166;}
	.st183{opacity:0.72;clip-path:url(#SVGID_00000058555317596186570200000016675366588410923401_);}
	.st184{opacity:0.72;clip-path:url(#SVGID_00000108272924862310638990000006780255578626198456_);}
	.st185{clip-path:url(#SVGID_00000169519335202549697880000006842196430523713953_);fill:#8A5F5A;}
	.st186{clip-path:url(#SVGID_00000169519335202549697880000006842196430523713953_);fill:#B0AB7F;}
	.st187{clip-path:url(#SVGID_00000169519335202549697880000006842196430523713953_);fill:#969166;}
	.st188{opacity:0.72;clip-path:url(#SVGID_00000109007330947239215800000007826996032769090477_);}
	.st189{clip-path:url(#SVGID_00000027581082321026226320000004979442481169893529_);fill:#8A5F5A;}
	.st190{clip-path:url(#SVGID_00000027581082321026226320000004979442481169893529_);fill:#B0AB7F;}
	.st191{clip-path:url(#SVGID_00000027581082321026226320000004979442481169893529_);fill:#969166;}
	.st192{fill:url(#SVGID_00000066500472592722932500000008235889737294870190_);}
	.st193{fill:url(#SVGID_00000162313350310722717900000001597437758461757313_);}
	.st194{fill:url(#SVGID_00000041282660966358698180000005863566935726480571_);}
	
		.st195{opacity:0.39;clip-path:url(#SVGID_00000002385107263201330160000005595562133433213346_);fill:url(#SVGID_00000168093629714118455010000017177049719612546994_);}
	.st196{fill:url(#SVGID_00000014613575115400276810000004817657395537576124_);}
	.st197{fill:url(#SVGID_00000080901038577361718900000002673908922151759541_);}
	.st198{fill:url(#SVGID_00000114051485351771866840000009459786491162821278_);}
	.st199{opacity:0.25;clip-path:url(#SVGID_00000168085387522520830610000012074726847395297719_);}
	.st200{fill:url(#SVGID_00000134938971712549408730000005611276397201067147_);}
	
		.st201{clip-path:url(#SVGID_00000050652579922277932070000008422514881156944055_);fill:url(#SVGID_00000005243246936078522860000007088982808412781991_);}
	.st202{fill:url(#SVGID_00000103971684970803954570000006542750603948362406_);}
	.st203{fill:url(#SVGID_00000026133029242350456630000012132355686760957350_);}
	.st204{fill:url(#SVGID_00000052086007486749534720000003902218540018997944_);}
	.st205{fill:url(#SVGID_00000046333213106968177290000005789875146739029670_);}
	.st206{fill:url(#SVGID_00000108276167097613495360000000123885833602193572_);}
	.st207{fill:url(#SVGID_00000060736567479195529670000006869027081340227766_);}
	.st208{fill:url(#SVGID_00000032619691298261565420000002237906193390300578_);}
	.st209{fill:url(#SVGID_00000165942012123962641090000001892281128835174786_);}
	.st210{fill:url(#SVGID_00000001646533343237218650000011922414651311495310_);}
	.st211{fill:url(#SVGID_00000000197319694689463080000004241740780950854074_);}
	.st212{fill:url(#SVGID_00000004530527289732697590000003552454421140336045_);}
	.st213{fill:url(#SVGID_00000132073303609388065090000004451368665872633000_);}
	.st214{fill:url(#SVGID_00000157302877918972886880000011344883256974269371_);}
	.st215{fill:url(#SVGID_00000158708833364814415000000010352099364310257797_);}
	.st216{fill:url(#SVGID_00000088113896155226211200000007205798640126391962_);}
	.st217{fill:url(#SVGID_00000164498854749405667370000008499352001258159275_);}
	.st218{fill:url(#SVGID_00000075882367393633948570000011238188458674277784_);}
	.st219{fill:url(#SVGID_00000123413239651129617880000011296838805220082320_);}
	.st220{fill:url(#SVGID_00000011026848042097380210000012548354510354304913_);}
	.st221{fill:url(#SVGID_00000023272749150992573750000015703004562464738965_);}
	.st222{fill:url(#SVGID_00000064340744715541934130000002835314013510999483_);}
	.st223{fill:url(#SVGID_00000149366179276142214850000009122342604164054695_);}
	.st224{fill:url(#SVGID_00000078749913573212842820000004753995324895016848_);}
	.st225{fill:url(#SVGID_00000124144001512191595240000003032604358184215733_);}
	.st226{fill:url(#SVGID_00000152962740681374282770000016993059966062078871_);}
	.st227{fill:url(#SVGID_00000145034378573319354680000000294214418452161461_);}
	.st228{fill:url(#SVGID_00000072984461247521484630000014210275158746237593_);}
	.st229{fill:url(#SVGID_00000088092420286809806710000013083484962223858860_);}
	.st230{fill:url(#SVGID_00000145773887592003728020000017601300340966437034_);}
	.st231{fill-rule:evenodd;clip-rule:evenodd;fill:url(#SVGID_00000080892110730182951260000002148043802785791914_);}
	.st232{fill-rule:evenodd;clip-rule:evenodd;fill:url(#SVGID_00000086681878231524030160000009916645435986480305_);}
</style>
<g>
	<polygon class="st1" points="535.94,494.16 584.25,466.11 584.25,370.49 535.94,398.53 	"/>
	<polygon class="st5" points="487.63,370.32 535.94,398.53 584.25,370.49 535.94,342.27 	"/>
	<polygon class="st22" points="541.43,467.71 544.52,469.49 544.52,393.7 526.41,383.24 526.41,386.69 541.43,395.48 	"/>
	<polygon class="st68" points="526.41,383.24 544.52,393.7 580.31,373.03 562.2,362.58 	"/>
	<polygon class="st0" points="580.31,448.83 544.52,469.49 544.52,393.7 580.31,373.03 	"/>
	<polygon class="st5" points="532.73,361.59 506.4,376.14 431.29,332.78 457.38,318.93 	"/>
	<g>
		<polygon class="st57" points="431.29,467.85 506.4,511.21 506.4,376.14 483.51,362.92 483.51,365.06 454.18,348.13 454.18,345.99 
			431.29,332.78 		"/>
		<polygon class="st56" points="454.18,363.75 483.51,380.68 483.51,365.06 454.18,348.13 		"/>
		
			<linearGradient id="SVGID_1_" gradientUnits="userSpaceOnUse" x1="-1637.9041" y1="363.2639" x2="-1610.4524" y2="363.2639" gradientTransform="matrix(-1 0 0 1 -1154.3987 0)">
			<stop  offset="0" style="stop-color:#313D67"/>
			<stop  offset="0.5" style="stop-color:#313D67"/>
			<stop  offset="1" style="stop-color:#313D67"/>
		</linearGradient>
		<polygon class="st2" points="456.05,363.15 483.51,378.99 483.51,363.38 456.05,347.53 		"/>
		<g>
			<path class="st56" d="M454.09,396.52l-0.1-0.06v-29.49l29.61,17.09l0.1,0.06v29.49L454.09,396.52z M454.37,367.64v28.61
				l28.94,16.71v-28.61L454.37,367.64z"/>
		</g>
		<polygon class="st57" points="454.18,350.74 483.51,367.67 483.51,365.06 454.18,348.13 		"/>
		<polygon class="st56" points="454.18,348.13 483.51,365.06 483.51,363.38 456.05,347.53 		"/>
	</g>
	<polygon class="st1" points="509.59,374.3 506.4,376.14 506.4,495.65 535.94,478.59 535.94,397.34 532.73,366.46 	"/>
	<g>
		<path class="st57" d="M533.16,401.76c0.52-0.3,0.99-0.33,1.33-0.13l0.02,0.01l1.79,1.03c-0.34-0.16-0.78-0.11-1.26,0.17
			c-1.04,0.6-1.88,2.05-1.88,3.25c0,0.52,0.16,0.92,0.43,1.13l-1.66-0.95l-0.18-0.1c-0.3-0.21-0.47-0.61-0.47-1.16
			C531.28,403.81,532.12,402.36,533.16,401.76z"/>
		<path class="st58" d="M533.16,406.09c0,0.52,0.16,0.92,0.43,1.13c0,0,0,0,0.01,0.01l0.24,0.14c0,0,0,0,0,0
			c0.32,0.12,0.74,0.06,1.19-0.2c1.04-0.6,1.88-2.05,1.88-3.25c0-0.61-0.22-1.04-0.57-1.23c-0.01-0.01-0.03-0.02-0.04-0.02
			c-0.34-0.16-0.78-0.11-1.26,0.17C534,403.44,533.16,404.9,533.16,406.09z"/>
	</g>
	<polygon class="st0" points="532.73,469.85 512.57,481.49 512.57,371.25 532.73,359.61 	"/>
	<polygon class="st68" points="509.59,374.46 494.46,365.73 494.46,360.73 512.57,371.19 512.57,481.49 509.59,479.71 	"/>
	<polygon class="st68" points="494.46,360.73 512.57,371.19 532.73,359.55 514.62,349.09 	"/>
	<polygon class="st68" points="431.29,324.26 449.4,334.71 469.56,323.07 451.45,312.62 	"/>
	<polygon class="st0" points="449.44,339.76 469.56,328.07 469.56,323.07 449.4,334.71 	"/>
	<polygon class="st68" points="449.4,334.71 431.29,324.26 431.29,332.78 434.32,331.03 449.44,339.76 	"/>
	<polygon class="st5" points="394.24,413.37 469.51,456.99 506.4,435.65 431.13,392.04 	"/>
	<polygon class="st5" points="466.3,399.99 439.97,414.53 364.86,371.17 390.95,357.32 	"/>
	<g>
		<polygon class="st57" points="364.86,506.24 439.97,549.6 439.97,414.53 417.08,401.32 417.08,403.45 387.75,386.52 
			387.75,384.39 364.86,371.17 		"/>
		<polygon class="st56" points="387.75,402.14 417.08,419.07 417.08,403.45 387.75,386.52 		"/>
		
			<linearGradient id="SVGID_00000008150260578336030260000008312641381943643051_" gradientUnits="userSpaceOnUse" x1="-1571.4738" y1="401.6573" x2="-1544.0221" y2="401.6573" gradientTransform="matrix(-1 0 0 1 -1154.3987 0)">
			<stop  offset="0" style="stop-color:#313D67"/>
			<stop  offset="0.5" style="stop-color:#313D67"/>
			<stop  offset="1" style="stop-color:#313D67"/>
		</linearGradient>
		<polygon style="fill:url(#SVGID_00000008150260578336030260000008312641381943643051_);" points="389.62,401.54 417.08,417.39 
			417.08,401.77 389.62,385.93 		"/>
		<g>
			<path class="st56" d="M387.66,434.92l-0.1-0.06v-29.49l29.61,17.09l0.1,0.06v29.49L387.66,434.92z M387.94,406.04v28.61
				l28.94,16.71v-28.61L387.94,406.04z"/>
		</g>
		<polygon class="st57" points="387.75,389.13 417.08,406.06 417.08,403.45 387.75,386.52 		"/>
		<polygon class="st56" points="387.75,386.52 417.08,403.45 417.08,401.77 389.62,385.93 		"/>
	</g>
	<polygon class="st1" points="443.16,412.69 439.97,414.53 439.97,534.04 469.51,516.99 469.51,435.73 466.3,404.85 	"/>
	<g>
		<path class="st57" d="M466.73,440.15c0.52-0.3,0.99-0.33,1.33-0.13l0.02,0.01l1.79,1.03c-0.34-0.16-0.78-0.11-1.26,0.17
			c-1.04,0.6-1.88,2.05-1.88,3.25c0,0.52,0.16,0.92,0.43,1.13l-1.66-0.95l-0.18-0.1c-0.3-0.21-0.47-0.61-0.47-1.16
			C464.85,442.21,465.69,440.75,466.73,440.15z"/>
		<path class="st58" d="M466.73,444.49c0,0.52,0.16,0.92,0.43,1.13c0,0,0,0,0.01,0.01l0.24,0.14c0,0,0,0,0,0
			c0.32,0.12,0.74,0.06,1.19-0.2c1.04-0.6,1.88-2.05,1.88-3.25c0-0.61-0.22-1.04-0.57-1.23c-0.01-0.01-0.03-0.02-0.04-0.02
			c-0.34-0.16-0.78-0.11-1.26,0.17C467.57,441.84,466.73,443.29,466.73,444.49z"/>
	</g>
	<polygon class="st0" points="466.3,508.24 446.14,519.88 446.14,409.64 466.3,398 	"/>
	<polygon class="st1" points="469.51,516.98 506.4,495.65 506.4,435.65 469.51,456.99 	"/>
	<g>
		<path class="st10" d="M469.32,502.97l37.27-21.56v14.34l-37.27,21.56V502.97z M506.21,482.08L469.7,503.2v13.46l36.51-21.12
			V482.08z"/>
	</g>
	<polygon class="st68" points="443.16,412.86 428.03,404.13 428.03,399.12 446.14,409.58 446.14,519.88 443.16,518.1 	"/>
	<polygon class="st68" points="428.03,399.12 446.14,409.58 466.3,397.94 448.19,387.48 	"/>
	<polygon class="st68" points="364.86,362.65 382.97,373.11 403.13,361.47 385.02,351.01 	"/>
	<polygon class="st0" points="383.01,378.15 403.13,366.47 403.13,361.47 382.97,373.11 	"/>
	<polygon class="st68" points="382.97,373.11 364.86,362.65 364.86,371.17 367.89,369.42 383.01,378.15 	"/>
	<g>
		<path class="st94" d="M473.39,495.98c-0.12-0.07-0.19-0.19-0.19-0.33v-35.93c0-0.14,0.07-0.26,0.19-0.33l28.75-16.63
			c0.12-0.07,0.26-0.07,0.38,0c0.12,0.07,0.19,0.19,0.19,0.33v35.93c0,0.14-0.07,0.26-0.19,0.33l-28.75,16.63
			c-0.06,0.03-0.13,0.05-0.19,0.05C473.51,496.03,473.45,496.01,473.39,495.98z M501.95,443.75l-27.99,16.19v35.05l27.99-16.19
			V443.75z"/>
	</g>
	<polygon class="st5" points="327.81,451.77 403.08,495.38 439.97,474.05 364.7,430.43 	"/>
	<polygon class="st5" points="399.87,438.38 373.54,452.93 298.43,409.56 324.52,395.72 	"/>
	<g>
		<polygon class="st57" points="298.43,544.63 373.54,588 373.54,452.93 350.64,439.71 350.64,441.85 321.32,424.92 321.32,422.78 
			298.43,409.56 		"/>
		<polygon class="st56" points="321.32,440.53 350.64,457.46 350.64,441.85 321.32,424.92 		"/>
		
			<linearGradient id="SVGID_00000109008496221988775070000016476312282111357602_" gradientUnits="userSpaceOnUse" x1="-1505.0436" y1="440.0507" x2="-1477.5919" y2="440.0507" gradientTransform="matrix(-1 0 0 1 -1154.3987 0)">
			<stop  offset="0" style="stop-color:#313D67"/>
			<stop  offset="0.5" style="stop-color:#313D67"/>
			<stop  offset="1" style="stop-color:#313D67"/>
		</linearGradient>
		<polygon style="fill:url(#SVGID_00000109008496221988775070000016476312282111357602_);" points="323.19,439.94 350.64,455.78 
			350.64,440.16 323.19,424.32 		"/>
		<g>
			<path class="st56" d="M321.23,473.31l-0.1-0.06v-29.49l29.61,17.09l0.1,0.06v29.49L321.23,473.31z M321.51,444.43v28.61
				l28.94,16.71v-28.61L321.51,444.43z"/>
		</g>
		<polygon class="st57" points="321.32,427.52 350.64,444.45 350.64,441.85 321.32,424.92 		"/>
		<polygon class="st56" points="321.32,424.92 350.64,441.85 350.64,440.16 323.19,424.32 		"/>
	</g>
	<polygon class="st1" points="376.73,451.09 373.54,452.93 373.54,572.44 403.07,555.38 403.07,474.13 399.87,443.24 	"/>
	<g>
		<path class="st57" d="M400.3,478.55c0.52-0.3,0.99-0.33,1.33-0.13l0.02,0.01l1.79,1.03c-0.34-0.16-0.78-0.11-1.26,0.17
			c-1.04,0.6-1.88,2.05-1.88,3.25c0,0.52,0.16,0.92,0.43,1.13l-1.66-0.95l-0.18-0.1c-0.3-0.21-0.47-0.61-0.47-1.16
			C398.42,480.6,399.26,479.15,400.3,478.55z"/>
		<path class="st58" d="M400.3,482.88c0,0.52,0.16,0.92,0.43,1.13c0,0,0,0,0.01,0.01l0.24,0.14c0,0,0,0,0,0
			c0.32,0.12,0.74,0.06,1.19-0.2c1.04-0.6,1.88-2.05,1.88-3.25c0-0.61-0.22-1.04-0.57-1.23c-0.01-0.01-0.03-0.02-0.04-0.02
			c-0.34-0.16-0.78-0.11-1.26,0.17C401.14,480.23,400.3,481.68,400.3,482.88z"/>
	</g>
	<polygon class="st0" points="399.87,546.64 379.71,558.28 379.71,448.03 399.87,436.39 	"/>
	<polygon class="st1" points="403.08,555.38 439.97,534.04 439.97,474.05 403.08,495.38 	"/>
	<g>
		<path class="st10" d="M402.89,541.37l37.27-21.56v14.34l-37.27,21.56V541.37z M439.78,520.47l-36.51,21.12v13.46l36.51-21.12
			V520.47z"/>
	</g>
	<polygon class="st68" points="376.73,451.25 361.6,442.52 361.6,437.52 379.71,447.97 379.71,558.28 376.73,556.49 	"/>
	<polygon class="st68" points="361.6,437.52 379.71,447.97 399.87,436.33 381.76,425.88 	"/>
	<polygon class="st68" points="298.43,401.05 316.54,411.5 336.7,399.86 318.59,389.4 	"/>
	<polygon class="st0" points="316.58,416.55 336.7,404.86 336.7,399.86 316.54,411.5 	"/>
	<polygon class="st68" points="316.54,411.5 298.43,401.05 298.43,409.56 301.46,407.82 316.58,416.55 	"/>
	<g>
		<path class="st94" d="M406.96,534.37c-0.12-0.07-0.19-0.19-0.19-0.33v-35.93c0-0.14,0.07-0.26,0.19-0.33l28.75-16.63
			c0.12-0.07,0.26-0.07,0.38,0c0.12,0.07,0.19,0.19,0.19,0.33v35.93c0,0.14-0.07,0.26-0.19,0.33l-28.75,16.63
			c-0.06,0.03-0.13,0.05-0.19,0.05C407.08,534.42,407.02,534.41,406.96,534.37z M435.52,482.14l-27.99,16.19v35.05l27.99-16.19
			V482.14z"/>
	</g>
	<polygon class="st5" points="261.38,490.16 336.65,533.78 373.54,512.44 298.27,468.82 	"/>
	<polygon class="st5" points="333.44,476.77 307.11,491.32 232,447.96 258.09,434.11 	"/>
	<g>
		<polygon class="st57" points="232,583.03 307.11,626.39 307.11,491.32 284.21,478.1 284.21,480.24 254.89,463.31 254.89,461.17 
			232,447.96 		"/>
		<polygon class="st56" points="254.89,478.93 284.21,495.86 284.21,480.24 254.89,463.31 		"/>
		
			<linearGradient id="SVGID_00000111877647409052276800000010971994429241584265_" gradientUnits="userSpaceOnUse" x1="-1438.6133" y1="478.4441" x2="-1411.1616" y2="478.4441" gradientTransform="matrix(-1 0 0 1 -1154.3987 0)">
			<stop  offset="0" style="stop-color:#313D67"/>
			<stop  offset="0.5" style="stop-color:#313D67"/>
			<stop  offset="1" style="stop-color:#313D67"/>
		</linearGradient>
		<polygon style="fill:url(#SVGID_00000111877647409052276800000010971994429241584265_);" points="256.76,478.33 284.21,494.17 
			284.21,478.56 256.76,462.71 		"/>
		<g>
			<path class="st56" d="M254.8,511.7l-0.1-0.06v-29.49l29.61,17.09l0.1,0.06v29.49L254.8,511.7z M255.08,482.82v28.61l28.94,16.71
				v-28.61L255.08,482.82z"/>
		</g>
		<polygon class="st57" points="254.89,465.92 284.21,482.85 284.21,480.24 254.89,463.31 		"/>
		<polygon class="st56" points="254.89,463.31 284.21,480.24 284.21,478.56 256.76,462.71 		"/>
	</g>
	<polygon class="st1" points="310.29,489.48 307.11,491.32 307.11,610.83 336.64,593.77 336.64,512.52 333.44,481.64 	"/>
	<g>
		<path class="st57" d="M333.87,516.94c0.52-0.3,0.99-0.33,1.33-0.13l0.02,0.01l1.79,1.03c-0.34-0.16-0.78-0.11-1.26,0.17
			c-1.04,0.6-1.88,2.05-1.88,3.25c0,0.52,0.16,0.92,0.43,1.13l-1.66-0.95l-0.18-0.1c-0.3-0.21-0.47-0.61-0.47-1.16
			C331.99,518.99,332.83,517.54,333.87,516.94z"/>
		<path class="st58" d="M333.87,521.27c0,0.52,0.16,0.92,0.43,1.13c0,0,0,0,0.01,0.01l0.24,0.14c0,0,0,0,0,0
			c0.32,0.12,0.74,0.06,1.19-0.2c1.04-0.6,1.88-2.05,1.88-3.25c0-0.61-0.22-1.04-0.57-1.23c-0.01-0.01-0.03-0.02-0.04-0.02
			c-0.34-0.16-0.78-0.11-1.26,0.17C334.71,518.62,333.87,520.08,333.87,521.27z"/>
	</g>
	<polygon class="st0" points="333.44,585.03 313.28,596.67 313.28,486.43 333.44,474.79 	"/>
	<polygon class="st1" points="336.65,593.77 373.54,572.44 373.54,512.44 336.65,533.78 	"/>
	<g>
		<path class="st10" d="M336.46,579.76l37.27-21.56v14.34l-37.27,21.56V579.76z M373.35,558.87l-36.51,21.12v13.46l36.51-21.12
			V558.87z"/>
	</g>
	<polygon class="st68" points="310.29,489.64 295.17,480.91 295.17,475.91 313.28,486.37 313.28,596.67 310.29,594.89 	"/>
	<polygon class="st68" points="295.17,475.91 313.28,486.37 333.44,474.73 315.33,464.27 	"/>
	<polygon class="st68" points="232,439.44 250.11,449.89 270.27,438.25 252.16,427.8 	"/>
	<polygon class="st0" points="250.15,454.94 270.27,443.25 270.27,438.25 250.11,449.89 	"/>
	<polygon class="st68" points="250.11,449.89 232,439.44 232,447.96 235.03,446.21 250.15,454.94 	"/>
	<g>
		<path class="st94" d="M340.53,572.77c-0.12-0.07-0.19-0.19-0.19-0.33v-35.93c0-0.14,0.07-0.26,0.19-0.33l28.75-16.63
			c0.12-0.07,0.26-0.07,0.38,0c0.12,0.07,0.19,0.19,0.19,0.33v35.93c0,0.14-0.07,0.26-0.19,0.33l-28.75,16.63
			c-0.06,0.03-0.13,0.05-0.19,0.05S340.59,572.8,340.53,572.77z M369.09,520.54l-27.99,16.19v35.05l27.99-16.19V520.54z"/>
	</g>
	<polygon class="st5" points="194.95,528.56 270.22,572.17 307.11,550.83 231.84,507.22 	"/>
	<polygon class="st5" points="267.01,515.17 240.68,529.71 165.57,486.35 191.66,472.5 	"/>
	<g>
		<polygon class="st57" points="165.57,621.42 240.68,664.79 240.68,529.71 217.78,516.5 217.78,518.63 188.46,501.7 188.46,499.57 
			165.57,486.35 		"/>
		<polygon class="st56" points="188.46,517.32 217.78,534.25 217.78,518.63 188.46,501.7 		"/>
		
			<linearGradient id="SVGID_00000165914041081194865820000005407083117139985071_" gradientUnits="userSpaceOnUse" x1="-1372.1831" y1="516.8376" x2="-1344.7314" y2="516.8376" gradientTransform="matrix(-1 0 0 1 -1154.3987 0)">
			<stop  offset="0" style="stop-color:#313D67"/>
			<stop  offset="0.5" style="stop-color:#313D67"/>
			<stop  offset="1" style="stop-color:#313D67"/>
		</linearGradient>
		<polygon style="fill:url(#SVGID_00000165914041081194865820000005407083117139985071_);" points="190.33,516.72 217.78,532.57 
			217.78,516.95 190.33,501.11 		"/>
		<g>
			<path class="st56" d="M188.37,550.1l-0.1-0.06v-29.49l29.61,17.1l0.1,0.06v29.49L188.37,550.1z M188.65,521.22v28.61l28.94,16.71
				v-28.61L188.65,521.22z"/>
		</g>
		<polygon class="st57" points="188.46,504.31 217.78,521.24 217.78,518.63 188.46,501.7 		"/>
		<polygon class="st56" points="188.46,501.7 217.78,518.63 217.78,516.95 190.33,501.11 		"/>
	</g>
	<polygon class="st1" points="243.86,527.87 240.68,529.71 240.68,649.22 270.21,632.17 270.21,550.91 267.01,520.03 	"/>
	<g>
		<path class="st57" d="M267.44,555.33c0.52-0.3,0.99-0.33,1.33-0.13l0.02,0.01l1.79,1.03c-0.34-0.16-0.78-0.11-1.26,0.17
			c-1.04,0.6-1.88,2.05-1.88,3.25c0,0.52,0.16,0.92,0.43,1.13l-1.66-0.95l-0.18-0.1c-0.3-0.21-0.47-0.61-0.47-1.16
			C265.56,557.39,266.4,555.93,267.44,555.33z"/>
		<path class="st58" d="M267.44,559.67c0,0.52,0.16,0.92,0.43,1.13c0,0,0,0,0.01,0.01l0.24,0.14c0,0,0,0,0,0
			c0.32,0.12,0.74,0.06,1.19-0.2c1.04-0.6,1.88-2.05,1.88-3.25c0-0.61-0.22-1.04-0.57-1.23c-0.01-0.01-0.03-0.02-0.04-0.03
			c-0.34-0.16-0.78-0.11-1.26,0.17C268.28,557.02,267.44,558.47,267.44,559.67z"/>
	</g>
	<polygon class="st0" points="267.01,623.42 246.85,635.06 246.85,524.82 267.01,513.18 	"/>
	<polygon class="st1" points="270.22,632.17 307.11,610.83 307.11,550.83 270.22,572.17 	"/>
	<g>
		<path class="st10" d="M270.03,618.16l37.27-21.56v14.34l-37.27,21.56V618.16z M306.92,597.26l-36.51,21.12v13.46l36.51-21.12
			V597.26z"/>
	</g>
	<polygon class="st68" points="243.86,528.04 228.74,519.31 228.74,514.3 246.85,524.76 246.85,635.06 243.86,633.28 	"/>
	<polygon class="st68" points="228.74,514.3 246.85,524.76 267.01,513.12 248.9,502.66 	"/>
	<polygon class="st68" points="165.57,477.83 183.68,488.29 203.84,476.65 185.73,466.19 	"/>
	<polygon class="st0" points="183.72,493.33 203.84,481.65 203.84,476.65 183.68,488.29 	"/>
	<polygon class="st68" points="183.68,488.29 165.57,477.83 165.57,486.35 168.6,484.6 183.72,493.33 	"/>
	<g>
		<path class="st94" d="M274.1,611.16c-0.12-0.07-0.19-0.19-0.19-0.33V574.9c0-0.14,0.07-0.26,0.19-0.33l28.75-16.63
			c0.12-0.07,0.26-0.07,0.38,0c0.12,0.07,0.19,0.19,0.19,0.33v35.93c0,0.14-0.07,0.26-0.19,0.33l-28.75,16.63
			c-0.06,0.03-0.13,0.05-0.19,0.05C274.22,611.21,274.16,611.19,274.1,611.16z M302.66,558.93l-27.99,16.19v35.05l27.99-16.19
			V558.93z"/>
	</g>
	<polygon class="st1" points="240.68,664.79 198.63,689.13 198.63,613.57 240.68,589.56 	"/>
	<polygon class="st5" points="123.35,569.96 198.63,613.57 240.51,589.31 165.24,545.69 	"/>
	<g>
		
			<rect x="120.21" y="629.48" transform="matrix(0.9191 -0.394 0.394 0.9191 -235.0537 114.3899)" class="st98" width="81.72" height="0.38"/>
	</g>
	<g>
		
			<rect x="160.88" y="559.34" transform="matrix(0.8454 -0.5341 0.5341 0.8454 -311.4146 183.3675)" class="st98" width="0.38" height="140.65"/>
	</g>
	<polygon class="st68" points="204.8,682.48 207.88,684.26 207.88,608.47 189.78,598.01 189.78,601.46 204.8,610.25 	"/>
	<polygon class="st0" points="148.16,652.35 187.05,674.8 187.05,617.66 148.16,595.2 	"/>
	<polygon class="st57" points="232.62,678.26 224.96,673.85 224.96,658.28 232.62,662.7 	"/>
	<path class="st22" d="M129.69,566.63l-6.17,3.58L129.69,566.63z"/>
	<path class="st22" d="M148.16,652.35l-6.53,3.88L148.16,652.35z"/>
	<polygon class="st1" points="232.62,678.26 543.25,498.78 543.25,483.22 232.62,662.7 	"/>
	<g>
		
			<rect x="202.93" y="491.1" transform="matrix(0.5 -0.866 0.866 0.5 -338.4027 429.9016)" class="st56" width="0.38" height="33.86"/>
	</g>
	<polygon class="st57" points="180.52,678.68 198.63,689.13 198.63,613.57 180.52,603.12 	"/>
	<polygon class="st57" points="123.52,645.77 141.63,656.22 141.63,580.67 123.52,570.21 	"/>
	<polygon class="st5" points="141.63,599.08 180.52,621.53 180.52,607.99 141.63,585.54 	"/>
	<g>
		<polygon class="st57" points="180.33,603.23 141.82,581 141.82,585.43 180.33,607.66 		"/>
		<path class="st58" d="M142.01,581.33l38.13,22.01v3.99l-38.13-22.01V581.33L142.01,581.33z M141.63,580.67v4.87l38.89,22.45v-4.87
			L141.63,580.67L141.63,580.67z"/>
	</g>
	<polygon class="st58" points="148.16,602.85 141.63,599.08 141.63,656.22 148.16,652.35 	"/>
	<polygon class="st68" points="144.92,571.86 144.92,575.42 129.69,566.63 126.81,568.41 126.81,561.41 	"/>
	<polygon class="st68" points="189.78,598.01 207.88,608.47 228.05,596.82 209.94,586.37 	"/>
	<polygon class="st68" points="126.81,561.41 144.92,571.86 165.08,560.22 146.97,549.76 	"/>
	<polygon class="st68" points="144.92,575.42 165.08,563.78 165.08,560.22 144.92,571.86 	"/>
	<g>
		<polygon class="st5" points="194.31,594.69 208.14,602.68 216.46,576.38 202.62,568.39 		"/>
		<polygon id="XMLID_00000170248453068195342480000014667732600935512220_" class="st58" points="191.79,594.69 205.63,602.68 
			213.94,576.38 200.11,568.39 		"/>
		<polygon class="st99" points="198.15,583.25 207.36,588.56 210.87,577.45 201.66,572.14 		"/>
		<g>
			<polygon class="st57" points="204.57,590.51 206.41,591.57 206.82,590.28 204.98,589.22 			"/>
			<path class="st58" d="M204.34,590.6l0.53-1.67l2.18,1.26l-0.53,1.67L204.34,590.6z M205.09,589.5l-0.29,0.92l1.5,0.87l0.29-0.92
				L205.09,589.5z"/>
		</g>
		<g>
			<polygon class="st57" points="203.85,592.78 205.69,593.84 206.1,592.55 204.26,591.48 			"/>
			<path class="st58" d="M203.62,592.87l0.53-1.67l2.18,1.26l-0.53,1.67L203.62,592.87z M204.37,591.77l-0.29,0.92l1.5,0.87
				l0.29-0.92L204.37,591.77z"/>
		</g>
		<g>
			<polygon class="st57" points="201.9,588.98 203.74,590.04 204.15,588.74 202.31,587.68 			"/>
			<path class="st58" d="M201.68,589.06l0.53-1.67l2.18,1.26l-0.53,1.67L201.68,589.06z M202.42,587.96l-0.29,0.92l1.5,0.87
				l0.29-0.92L202.42,587.96z"/>
		</g>
		<g>
			<polygon class="st57" points="201.19,591.24 203.03,592.31 203.44,591.01 201.6,589.95 			"/>
			<path class="st58" d="M200.96,591.33l0.53-1.67l2.18,1.26l-0.53,1.67L200.96,591.33z M201.71,590.23l-0.29,0.92l1.5,0.87
				l0.29-0.92L201.71,590.23z"/>
		</g>
		<g>
			<polygon class="st57" points="203.13,595.05 204.97,596.11 205.38,594.82 203.54,593.75 			"/>
			<path class="st58" d="M202.9,595.14l0.53-1.67l2.18,1.26l-0.53,1.67L202.9,595.14z M203.65,594.04l-0.29,0.92l1.5,0.87l0.29-0.92
				L203.65,594.04z"/>
		</g>
		<polygon class="st1" points="200.11,568.39 202.62,568.39 216.46,576.38 213.94,576.38 		"/>
		<polygon class="st21" points="216.46,576.38 213.94,576.38 205.63,602.68 208.14,602.68 		"/>
	</g>
	<polygon class="st5" points="535.94,478.59 224.96,658.28 232.62,662.7 543.25,483.22 	"/>
	<polygon class="st0" points="228.05,672.62 207.88,684.26 207.88,608.47 228.05,596.82 	"/>
	<g>
		<polygon class="st5" points="579.43,388.55 553.52,403.27 542.89,369.44 568.8,354.72 		"/>
		<polygon id="XMLID_00000017515737866853931360000014033858052355738032_" class="st10" points="581.94,388.55 556.03,403.27 
			545.4,369.44 571.31,354.72 		"/>
		<polygon class="st21" points="575.59,377.1 554.31,389.15 548.47,370.51 569.76,358.47 		"/>
		<polygon class="st58" points="557.1,391.1 555.26,392.16 554.85,390.86 556.69,389.8 		"/>
		<polygon class="st58" points="557.81,393.37 555.98,394.43 555.57,393.13 557.41,392.07 		"/>
		<polygon class="st58" points="559.76,389.56 557.92,390.62 557.51,389.33 559.35,388.26 		"/>
		<polygon class="st58" points="560.48,391.83 558.64,392.89 558.23,391.6 560.07,390.53 		"/>
		<polygon class="st58" points="558.53,395.64 556.69,396.7 556.28,395.4 558.12,394.34 		"/>
		<polygon class="st1" points="571.31,354.72 568.8,354.72 542.89,369.44 545.4,369.44 		"/>
		<polygon class="st22" points="542.89,369.44 545.4,369.44 556.03,403.27 553.52,403.27 		"/>
		
			<linearGradient id="SVGID_00000130627731444683271410000002795112661154397360_" gradientUnits="userSpaceOnUse" x1="-1725.7351" y1="373.8084" x2="-1707.1251" y2="373.8084" gradientTransform="matrix(-1 0 0 1 -1154.3987 0)">
			<stop  offset="0" style="stop-color:#B17786"/>
			<stop  offset="0.5" style="stop-color:#B17786"/>
			<stop  offset="1" style="stop-color:#B17786"/>
		</linearGradient>
		<polygon style="fill:url(#SVGID_00000130627731444683271410000002795112661154397360_);" points="571.34,376.07 556.73,384.34 
			552.73,371.55 567.33,363.28 		"/>
	</g>
</g>
</svg>
