<?xml version="1.0" encoding="utf-8"?>
<!-- Generator: Adobe Illustrator 28.3.0, SVG Export Plug-In . SVG Version: 6.00 Build 0)  -->
<svg version="1.1" id="Layer_1" xmlns="http://www.w3.org/2000/svg" xmlns:xlink="http://www.w3.org/1999/xlink" x="0px" y="0px"
	 viewBox="245.15 388.74 275.96 238.52" style="enable-background:new 245.15 388.74 275.96 238.52;" xml:space="preserve">
<style type="text/css">
	.st0{fill:#D3DFD5;}
	.st1{fill:#A8AEBF;}
	.st2{fill:url(#SVGID_1_);}
	.st3{fill:url(#SVGID_00000140014932741394874290000000503432202908332178_);}
	.st4{opacity:0.4;}
	.st5{fill:#838BA4;}
	.st6{fill:url(#SVGID_00000071537903908387117520000007988569159871264697_);}
	.st7{fill:#EB9288;}
	.st8{fill-rule:evenodd;clip-rule:evenodd;fill:#E16253;}
	.st9{fill:#E07C70;}
	.st10{fill:#D2D4DE;}
	.st11{fill:#E6E8ED;}
	.st12{fill:#B0AB83;}
	.st13{fill:url(#SVGID_00000033334818838517839560000017295907500118020786_);}
	.st14{fill:url(#SVGID_00000059993777108606404260000017622146234908319619_);}
	.st15{fill:#C9CDD7;}
	.st16{fill:url(#SVGID_00000113324635809467854730000012835338116707793575_);}
	.st17{fill:url(#SVGID_00000172417599191504826230000016377040931464535182_);}
	.st18{fill:url(#SVGID_00000159430858804183632370000003385320078571227830_);}
	.st19{opacity:0.13;fill:#AC969B;}
	.st20{fill:#F6EEF0;}
	.st21{fill:#FFFFFF;}
	.st22{fill:#BDC1CE;}
	.st23{fill:#EADADE;}
	.st24{fill:#EEB3AC;}
	.st25{fill:url(#SVGID_00000081609384654871875390000009346471029608172990_);}
	.st26{fill:url(#SVGID_00000049217326269389443750000014803364416643202484_);}
	.st27{fill:url(#SVGID_00000118360195126010028920000001414565220822780600_);}
	.st28{fill:url(#SVGID_00000105403776845804461120000000674418742601161604_);}
	.st29{fill:url(#SVGID_00000083071510257200614620000016538417391728782504_);}
	.st30{fill:url(#SVGID_00000041269143485558746560000017763790135688156568_);}
	.st31{fill:#231F20;}
	.st32{fill:#EBAAA2;}
	.st33{fill:#E89A91;}
	.st34{fill:#E28175;}
	.st35{fill:#F3CDC8;}
	.st36{fill:#F9E6E3;}
	.st37{fill:#F9F9FA;}
	.st38{fill:#F5F5F7;}
	.st39{fill:#F3F3F6;}
	.st40{fill:#ECEEF1;}
	.st41{fill:#A0596B;}
	.st42{fill:#AC969B;}
	.st43{fill:#B98491;}
	.st44{fill:url(#SVGID_00000015322004882678914690000001361566463996899983_);}
	.st45{fill:#D4B4BC;}
	.st46{fill:#E3CDD3;}
	.st47{fill:#F1E6E9;}
	.st48{fill:#E4887D;}
	.st49{fill:#EBA8A0;}
	.st50{fill:#F9E4E2;}
	.st51{fill:#FAEAE8;}
	.st52{fill:#FBEEED;}
	.st53{fill:#FCF4F3;}
	.st54{fill:#FEF9F9;}
	.st55{fill:#444E75;}
	.st56{fill:#5C6687;}
	.st57{fill:#717996;}
	.st58{fill:#969CB1;}
	.st59{fill:#F1F1F4;}
	.st60{fill:#A46969;}
	.st61{fill-rule:evenodd;clip-rule:evenodd;fill:#A19B6F;}
	.st62{fill-rule:evenodd;clip-rule:evenodd;fill:url(#SVGID_00000156569797329726110330000014723118164771839660_);}
	.st63{fill:#FCB4AC;}
	.st64{opacity:0.22;}
	.st65{fill:#B57070;}
	.st66{fill:#F7A197;}
	.st67{fill-rule:evenodd;clip-rule:evenodd;fill:url(#SVGID_00000103963009021938666560000012589585604965414573_);}
	.st68{fill:#02384C;}
	.st69{fill-rule:evenodd;clip-rule:evenodd;fill:#B0AB83;}
	.st70{fill:#948F6A;}
	.st71{fill:url(#SVGID_00000037659919339434119780000018038688286101344408_);}
	.st72{fill:#F0A39A;}
	.st73{fill:url(#SVGID_00000025434372386193940710000015959208520260846984_);}
	.st74{fill:url(#SVGID_00000017515533396018104240000000226034632233636008_);}
	.st75{fill:#FDDAC6;}
	.st76{opacity:0.41;}
	.st77{fill:url(#SVGID_00000161605712579907626370000005187336610277331898_);}
	.st78{fill:url(#SVGID_00000139997170217433561080000003541279737774791089_);}
	.st79{fill:url(#SVGID_00000170240487034270050220000006741998700690788792_);}
	.st80{fill:url(#SVGID_00000118374499700410097840000018385058749765698709_);}
	.st81{fill:url(#SVGID_00000122683366382226075180000012794411514247949713_);}
	.st82{fill:url(#SVGID_00000112628539028917406420000012376161120489564348_);}
	.st83{fill:url(#SVGID_00000018922343399342508320000009506361199514155940_);}
	.st84{fill:url(#SVGID_00000149355077870031840840000006311290258413559429_);}
	.st85{fill:url(#SVGID_00000054947868726602273930000012899593329133684159_);}
	.st86{fill-rule:evenodd;clip-rule:evenodd;fill:#C396A2;}
	.st87{fill-rule:evenodd;clip-rule:evenodd;fill:#B67F8D;}
	.st88{fill:url(#SVGID_00000009572636590670512610000001003734299732110780_);}
	.st89{fill:url(#SVGID_00000051350314512222627860000007743218691690806912_);}
	.st90{fill:#7D859F;}
	.st91{opacity:0.25;fill:#AC969B;}
	.st92{fill:url(#SVGID_00000129922861582166462930000013810291548774048945_);}
	.st93{fill:url(#SVGID_00000182495624637493888070000014336611465508156323_);}
	.st94{fill:#BD8B97;}
	.st95{fill:url(#SVGID_00000160887116808225255850000016059112871968602556_);}
	.st96{fill:url(#SVGID_00000060012365444235461040000008933311506287086494_);}
	.st97{fill:url(#SVGID_00000138565371730952096410000014328197372276012726_);}
	.st98{fill:#858DA5;}
	.st99{fill:#F6D6D3;}
	.st100{fill:url(#SVGID_00000024683307692075114190000003171085042971718045_);}
	
		.st101{opacity:0.33;clip-path:url(#SVGID_00000081643261743532358640000008987073380938260135_);fill:url(#SVGID_00000129188628269349755260000007749688855619612071_);}
	
		.st102{opacity:0.33;clip-path:url(#SVGID_00000089537692310402727310000017680350184916246696_);fill:url(#SVGID_00000010282114148951369560000014892030894900176288_);}
	
		.st103{opacity:0.33;clip-path:url(#SVGID_00000111163740617806057460000011356187320428925620_);fill:url(#SVGID_00000128460949253856831290000000394989242865552792_);}
	.st104{fill:url(#SVGID_00000169520961573483386480000006938986281709670567_);}
	.st105{clip-path:url(#SVGID_00000093141658497828109710000015011345971547670924_);}
	.st106{opacity:0.31;fill:#F5EDEF;}
	.st107{fill:url(#SVGID_00000105399859246600839520000005945640082272374450_);}
	.st108{fill:#35416A;}
	.st109{fill:#697190;}
	.st110{fill:#9AA0B5;}
	.st111{fill:#CCCFD9;}
	.st112{clip-path:url(#SVGID_00000011027697465622361040000011331288862478545813_);fill:#D2D4DE;}
	.st113{opacity:0.08;fill:#AC969B;}
	.st114{fill:#BFA3AA;}
	.st115{fill:#DEC5CC;}
	.st116{fill:#EBDCE0;}
	.st117{clip-path:url(#SVGID_00000024700311537978630090000001863479802422766746_);fill:#8A5F5A;}
	.st118{clip-path:url(#SVGID_00000024700311537978630090000001863479802422766746_);}
	.st119{fill:#B0AB7F;}
	.st120{fill:#969166;}
	.st121{clip-path:url(#SVGID_00000024700311537978630090000001863479802422766746_);fill:#B0AB7F;}
	.st122{clip-path:url(#SVGID_00000024700311537978630090000001863479802422766746_);fill:#969166;}
	.st123{opacity:0.72;clip-path:url(#SVGID_00000173152039713821713320000011658845204612391585_);}
	.st124{fill:#D98C66;}
	.st125{fill:#EFAD8D;}
	.st126{opacity:0.72;clip-path:url(#SVGID_00000114048088806292169030000002384599247121745796_);}
	.st127{clip-path:url(#SVGID_00000152249817862250791320000008828645984051720578_);fill:#8A5F5A;}
	.st128{clip-path:url(#SVGID_00000152249817862250791320000008828645984051720578_);fill:#B0AB7F;}
	.st129{clip-path:url(#SVGID_00000152249817862250791320000008828645984051720578_);fill:#969166;}
	.st130{opacity:0.72;clip-path:url(#SVGID_00000073684194758060339780000012784620876056825273_);}
	.st131{clip-path:url(#SVGID_00000145021045789542778410000013271032940062046849_);fill:#8A5F5A;}
	.st132{clip-path:url(#SVGID_00000145021045789542778410000013271032940062046849_);fill:#B0AB7F;}
	.st133{clip-path:url(#SVGID_00000145021045789542778410000013271032940062046849_);fill:#969166;}
	.st134{fill:url(#SVGID_00000076581679016962335520000000464320406429134756_);}
	.st135{fill:#FAABA2;}
	.st136{fill-rule:evenodd;clip-rule:evenodd;fill:#BD8B97;}
	.st137{opacity:0.12;fill:#AC969B;}
	.st138{fill:url(#SVGID_00000112601409770277779890000004972554052844053946_);}
	.st139{fill:#F5D5D1;}
	.st140{fill:url(#SVGID_00000045606305340231899720000008008275874780736942_);}
	.st141{fill:#E79A71;}
	.st142{fill:#F5B593;}
	
		.st143{opacity:0.39;clip-path:url(#SVGID_00000010991926806239741820000006319936058406101135_);fill:url(#SVGID_00000046313369029454864740000007158101319633051566_);}
	.st144{fill:url(#SVGID_00000121994124054043721730000010953060770769764002_);}
	.st145{fill:url(#SVGID_00000048473167500264634510000004230972822464960947_);}
	.st146{fill:#F6C8C2;}
	.st147{fill-rule:evenodd;clip-rule:evenodd;fill:#D3DFD5;}
	.st148{fill:url(#SVGID_00000136413765484121040010000013237304942833199019_);}
	.st149{opacity:0.46;}
	.st150{opacity:0.25;clip-path:url(#SVGID_00000182530723450331273410000004214150082299119806_);}
	.st151{fill:url(#SVGID_00000000906839138827164160000000272000404418712739_);}
	
		.st152{clip-path:url(#SVGID_00000170263433842825178060000012224343674005319832_);fill:url(#SVGID_00000154405381589386848480000016613651523409586859_);}
	.st153{fill:#492B23;}
	.st154{fill:#BC8779;}
	.st155{fill:#AA7065;}
	.st156{fill:#331B18;}
	.st157{fill:#9E5F5F;}
	.st158{fill:#C93F3F;}
	.st159{fill:#D84C4C;}
	.st160{fill:#B2C1B4;}
	.st161{fill:#844B45;}
	.st162{fill:#A86B65;}
	.st163{fill:#6B443E;}
	.st164{fill:#FFC255;}
	.st165{fill:#353D3B;}
	.st166{fill:url(#SVGID_00000119101607617723311430000005160148970556818093_);}
	.st167{fill:url(#SVGID_00000105402256921372144690000011327320601680933507_);}
	.st168{fill:url(#SVGID_00000145742376829243412280000013948692548035411881_);}
	.st169{fill:url(#SVGID_00000109008868209950528860000017598840409998741897_);}
	.st170{fill:url(#SVGID_00000139974430022032585510000011385644937790653348_);}
	.st171{fill:url(#SVGID_00000091711133310549309790000016325159729893064851_);}
	
		.st172{opacity:0.33;clip-path:url(#SVGID_00000171678843171561135070000011994400615186448543_);fill:url(#SVGID_00000056385462411024661630000005199182694161823884_);}
	
		.st173{opacity:0.33;clip-path:url(#SVGID_00000058555735111540950850000011582312695602913471_);fill:url(#SVGID_00000054962438780176901140000013162057215474913969_);}
	
		.st174{opacity:0.33;clip-path:url(#SVGID_00000072999867518556582090000001311556322919929523_);fill:url(#SVGID_00000056422151270752644820000004683618152698160515_);}
	.st175{fill:url(#SVGID_00000102504871628360749230000012042850602904321185_);}
	.st176{clip-path:url(#SVGID_00000163754533713872324880000002528833535369481405_);}
	.st177{fill:url(#SVGID_00000096027727463385665710000006496694774330181792_);}
	.st178{clip-path:url(#SVGID_00000037685083866152284230000008644869111634163355_);fill:#D2D4DE;}
	.st179{clip-path:url(#SVGID_00000163763153164740297380000001793364685029684629_);fill:#8A5F5A;}
	.st180{clip-path:url(#SVGID_00000163763153164740297380000001793364685029684629_);}
	.st181{clip-path:url(#SVGID_00000163763153164740297380000001793364685029684629_);fill:#B0AB7F;}
	.st182{clip-path:url(#SVGID_00000163763153164740297380000001793364685029684629_);fill:#969166;}
	.st183{opacity:0.72;clip-path:url(#SVGID_00000177473490308082946500000000268231319153735611_);}
	.st184{opacity:0.72;clip-path:url(#SVGID_00000174560769898300701300000003123133600009053083_);}
	.st185{clip-path:url(#SVGID_00000030464417784726412610000001474586055484075393_);fill:#8A5F5A;}
	.st186{clip-path:url(#SVGID_00000030464417784726412610000001474586055484075393_);fill:#B0AB7F;}
	.st187{clip-path:url(#SVGID_00000030464417784726412610000001474586055484075393_);fill:#969166;}
	.st188{opacity:0.72;clip-path:url(#SVGID_00000139980083935372611050000010642057351396847033_);}
	.st189{clip-path:url(#SVGID_00000178894008758120695940000011998953583042883761_);fill:#8A5F5A;}
	.st190{clip-path:url(#SVGID_00000178894008758120695940000011998953583042883761_);fill:#B0AB7F;}
	.st191{clip-path:url(#SVGID_00000178894008758120695940000011998953583042883761_);fill:#969166;}
	.st192{fill:url(#SVGID_00000152253292187609472890000010418851183171716016_);}
	.st193{fill:url(#SVGID_00000115487044438902902110000000987821595718518195_);}
	.st194{fill:url(#SVGID_00000084528872347596414640000001908512040322544566_);}
	
		.st195{opacity:0.39;clip-path:url(#SVGID_00000103986472374045250330000003869235713420113546_);fill:url(#SVGID_00000121247064861112876070000008474212194327210407_);}
	.st196{fill:url(#SVGID_00000163761423630004820070000000306571695402850492_);}
	.st197{fill:url(#SVGID_00000005953198735259765040000011620037264643992205_);}
	.st198{fill:url(#SVGID_00000140708903597295108750000012790568212678178994_);}
	.st199{opacity:0.25;clip-path:url(#SVGID_00000152947983182002036420000010686544333746823558_);}
	.st200{fill:url(#SVGID_00000027574750076700836370000003284011639968890515_);}
	
		.st201{clip-path:url(#SVGID_00000010990894747322564890000017349164060415745198_);fill:url(#SVGID_00000090992832103652439640000015931348967472787129_);}
	.st202{fill:url(#SVGID_00000106117611169320559460000007883176556407245236_);}
	.st203{fill:url(#SVGID_00000126284401814353835460000006867344856588258457_);}
	.st204{fill:url(#SVGID_00000044861114077113858070000009602591243290838158_);}
	.st205{fill:url(#SVGID_00000155143633244157486850000015263556308008042932_);}
	.st206{fill:url(#SVGID_00000070838208664187656580000012888467146317590940_);}
	.st207{fill:url(#SVGID_00000144323256766883531580000005481106617806749063_);}
	.st208{fill:url(#SVGID_00000008116537552480400580000012419452273480735108_);}
	.st209{fill:url(#SVGID_00000034809127365957557680000007035015064791059338_);}
	.st210{fill:url(#SVGID_00000083808018029854097400000009106920696298099368_);}
	.st211{fill:url(#SVGID_00000088090720099607331550000005853354790699224757_);}
	.st212{fill:url(#SVGID_00000178923254658937936780000010199138836729046176_);}
	.st213{fill:url(#SVGID_00000120523470335466039320000012781162900285524668_);}
	.st214{fill:url(#SVGID_00000128486719181936118850000002489625647782971030_);}
	.st215{fill:url(#SVGID_00000159464921856295569970000003851166219786740415_);}
	.st216{fill:url(#SVGID_00000183927407747605350000000002808967194771985057_);}
	.st217{fill:url(#SVGID_00000000206589988653861860000002612807288839630252_);}
	.st218{fill:url(#SVGID_00000049907274685361922500000003220022195195096202_);}
	.st219{fill:url(#SVGID_00000041274371585533021530000012348479061356632215_);}
	.st220{fill:url(#SVGID_00000167356374020976412090000007660811713878462124_);}
	.st221{fill:url(#SVGID_00000118387822187166519330000018280075061080941474_);}
	.st222{fill:url(#SVGID_00000128446605957626244980000011521788387577443460_);}
	.st223{fill:url(#SVGID_00000096780014839283040680000005684603579641425043_);}
	.st224{fill:url(#SVGID_00000108288441025064887070000017418809494944259975_);}
	.st225{fill:url(#SVGID_00000083068731748553746290000012012336763775114662_);}
	.st226{fill:url(#SVGID_00000046301394081904397590000001296898172521477784_);}
	.st227{fill:url(#SVGID_00000011718217692632263310000017728845945495958926_);}
	.st228{fill:url(#SVGID_00000031188967448757262210000000289793970970095747_);}
	.st229{fill:url(#SVGID_00000041289078054831372990000002724971832264313730_);}
	.st230{fill:url(#SVGID_00000182520794503696253150000011514420336222863777_);}
	.st231{fill-rule:evenodd;clip-rule:evenodd;fill:url(#SVGID_00000080164141615075108760000000981504952858898305_);}
	.st232{fill-rule:evenodd;clip-rule:evenodd;fill:url(#SVGID_00000165933514275488735830000002810148631422710176_);}
</style>
<g>
	<polygon class="st22" points="257.04,549.48 257.04,562.56 362.26,623.31 362.26,610.22 	"/>
	<polygon class="st22" points="278.87,503.1 278.87,573.55 338.05,607.72 338.05,537.27 	"/>
	<polygon class="st22" points="249.98,553.44 249.98,566.52 355.2,627.26 355.2,614.18 	"/>
	<polygon class="st22" points="271.81,507.06 271.81,577.51 330.98,611.68 330.98,541.22 	"/>
	<polygon class="st57" points="338.05,596.22 330.98,600.86 330.98,538.45 338.1,534.34 	"/>
	<polygon class="st22" points="410.96,460.49 410.96,473.57 516.18,534.32 516.18,521.24 	"/>
	<polygon class="st22" points="432.79,404.02 432.79,481.81 491.97,515.98 491.97,438.18 	"/>
	<g>
		<polygon class="st22" points="403.9,464.45 403.9,477.53 509.12,538.28 509.12,525.2 		"/>
		<polygon class="st22" points="425.73,407.98 425.73,485.77 484.91,519.94 484.91,442.14 		"/>
		<g>
			
				<rect x="455.13" y="459.47" transform="matrix(0.5075 -0.8617 0.8617 0.5075 -201.2364 635.5582)" class="st90" width="0.38" height="68.66"/>
		</g>
	</g>
	<g>
		
			<rect x="463.38" y="365.56" transform="matrix(0.4999 -0.8661 0.8661 0.4999 -142.2145 617.4836)" class="st34" width="0.38" height="132.64"/>
	</g>
	<polygon class="st57" points="499.46,441.39 338.48,534.34 249.39,482.9 410.37,389.96 	"/>
	<polygon class="st57" points="521.01,465.05 360.02,557.99 245.15,491.67 406.14,398.73 	"/>
	<polygon class="st20" points="499.46,441.39 338.48,534.34 360.02,551.93 521.01,458.99 	"/>
	<polygon class="st0" points="492.04,441.66 338.94,530.05 257.47,483.01 410.57,394.62 	"/>
	<g>
		<polygon class="st21" points="459.99,443.78 342.96,511.35 295.49,483.95 412.52,416.38 		"/>
		<path class="st91" d="M375.18,407.59l6.72,3.88v5.17l26.98,15.65l7.68-4.44l6.21,3.58c0.12-0.54,0.53-1.03,1.05-1.27
			c0.75-0.35,1.62-0.28,2.44-0.15c0.32,0.05,0.64,0.11,0.92,0.25c0.12,0.06,0.22,0.14,0.32,0.23c0.05-0.01,0.09-0.02,0.14-0.02
			c1.36-0.17,3.03,0.13,3.58,1.38c0.37,0.84,0.11,1.8-0.16,2.68c-0.35,1.15-0.7,2.29-1.05,3.44v5.4l-1,0.58l23.9,13.86l4.63-2.67
			l-4.17,8.47V468l-7.38,4.26l-1.9-1.1v-8.26l0.47-0.27l-23.89-13.86l-4.1,2.37L415,452l-11.17-6.42v-1.79l-0.71-0.41v-4.78
			L376.23,423l-7.77,4.49l-6.72-3.88v-8.26L375.18,407.59z"/>
	</g>
	<polygon class="st1" points="503.7,443.84 342.71,536.78 338.48,534.34 499.46,441.39 	"/>
	<polygon class="st10" points="410.37,389.96 249.39,482.9 245.15,481.68 406.14,388.74 	"/>
	<polygon class="st1" points="466.82,460.24 453.38,468 446.65,464.12 460.1,456.35 	"/>
	<polygon class="st1" points="384.46,412.68 371.02,420.45 364.29,416.57 377.74,408.8 	"/>
	<polygon class="st1" points="384.46,404.42 371.02,412.19 364.29,408.3 377.74,400.54 	"/>
	<polygon class="st21" points="245.15,481.68 245.15,491.67 360.02,557.99 360.02,551.93 338.48,534.34 249.39,482.9 	"/>
	<polygon class="st22" points="360.02,551.93 360.02,557.99 521.01,465.05 521.01,458.99 	"/>
	<polygon class="st57" points="384.46,404.42 384.46,412.68 371.02,420.45 371.02,412.19 	"/>
	<polygon class="st21" points="364.29,408.3 371.02,412.19 371.02,420.45 364.29,416.57 	"/>
	<polygon class="st22" points="457.55,451.97 449.2,456.79 374.75,413.62 383.1,408.8 	"/>
	<polygon class="st22" points="457.55,455 449.2,459.82 374.75,416.64 383.1,411.82 	"/>
	<polygon class="st21" points="374.75,413.62 374.75,416.64 449.2,459.82 449.2,456.79 	"/>
	<g>
		
			<rect x="411.79" y="393.87" transform="matrix(0.5024 -0.8646 0.8646 0.5024 -172.7725 573.6298)" class="st57" width="0.38" height="86.1"/>
	</g>
	<polygon class="st1" points="432.58,436.33 419.13,444.1 405.68,436.33 419.13,428.57 	"/>
	<polygon class="st1" points="466.82,451.97 453.38,459.74 446.65,455.86 460.1,448.09 	"/>
	<polygon class="st57" points="466.82,451.97 466.82,460.24 453.38,468 453.38,459.74 	"/>
	<polygon class="st21" points="446.65,455.86 446.65,464.12 453.38,468 453.38,459.74 	"/>
	<g>
		<g>
			<path class="st34" d="M429.37,427.53l0.99-2.54c0.12-0.3,0.27-0.7,0.18-1.11c-0.08-0.34-0.34-0.64-0.71-0.83
				c-0.31-0.16-0.65-0.22-0.98-0.27c-0.85-0.13-1.75-0.2-2.55,0.17c-0.81,0.37-1.45,1.37-1.1,2.25l0.36-0.14
				c-0.27-0.68,0.25-1.47,0.91-1.77c0.71-0.33,1.54-0.26,2.33-0.13c0.31,0.05,0.6,0.1,0.86,0.24c0.27,0.14,0.45,0.35,0.51,0.58
				c0.06,0.26-0.04,0.55-0.16,0.88l-0.99,2.54L429.37,427.53z"/>
		</g>
		<g>
			<path class="st34" d="M429.87,435.45c1.61-0.63,2.27-2.42,2.77-4.05l1.17-3.85c0.3-0.98,0.54-1.94,0.15-2.81
				c-0.61-1.38-2.41-1.67-3.78-1.5c-2.79,0.35-5.41,1.95-6.99,4.28l0.32,0.21c1.52-2.24,4.03-3.78,6.72-4.12
				c1.23-0.15,2.86,0.09,3.38,1.27c0.33,0.75,0.11,1.63-0.17,2.54l-1.17,3.85c-0.47,1.54-1.09,3.24-2.54,3.8L429.87,435.45z"/>
		</g>
		<g>
			<polygon class="st57" points="413.7,445.52 413,447.52 412.3,445.52 412.3,437.26 413.7,437.26 			"/>
		</g>
		<polygon class="st1" points="432.58,428.57 419.13,436.33 405.68,428.57 419.13,420.8 		"/>
		<polygon class="st57" points="432.58,428.57 432.58,436.33 419.13,444.1 419.13,436.33 		"/>
		<polygon class="st21" points="405.68,428.57 419.13,436.33 419.13,444.1 405.68,436.33 		"/>
		<polygon class="st1" points="419.13,438.4 417.56,439.26 406.39,432.68 407.96,431.82 		"/>
		<polygon class="st1" points="419.13,444.1 417.56,444.96 406.39,438.53 407.96,437.67 		"/>
		<polygon class="st57" points="419.13,438.4 419.13,444.1 417.56,444.96 417.56,439.26 		"/>
		<polygon class="st22" points="406.39,432.68 406.39,438.53 417.56,444.96 417.56,439.26 		"/>
	</g>
	<polygon class="st57" points="491.97,507.26 484.91,511.9 484.91,485.89 492.02,481.78 	"/>
	<polygon class="st1" points="330.98,600.86 338.05,596.22 362.26,610.22 355.2,614.18 	"/>
	<polygon class="st1" points="484.91,511.9 491.97,507.26 516.18,521.24 509.12,525.2 	"/>
	<g>
		
			<rect x="301.2" y="549.12" transform="matrix(0.5075 -0.8617 0.8617 0.5075 -354.2937 547.0807)" class="st90" width="0.38" height="68.66"/>
	</g>
	<polygon class="st10" points="271.81,558 257.04,549.48 249.98,553.44 271.81,566.04 	"/>
	<polygon class="st57" points="355.2,614.18 362.26,610.22 362.26,623.31 355.2,627.26 	"/>
	<polygon class="st57" points="509.12,525.2 509.12,538.28 516.18,534.32 516.18,521.24 	"/>
</g>
</svg>
