<?xml version="1.0" standalone="no"?>
<!DOCTYPE svg PUBLIC "-//W3C//DTD SVG 20010904//EN"
 "http://www.w3.org/TR/2001/REC-SVG-20010904/DTD/svg10.dtd">
<svg version="1.0" xmlns="http://www.w3.org/2000/svg"
 width="512.000000pt" height="512.000000pt" viewBox="0 0 512.000000 512.000000"
 preserveAspectRatio="xMidYMid meet">

<g transform="translate(0.000000,512.000000) scale(0.100000,-0.100000)"
fill="#000000" stroke="none">
<path d="M2525 4950 c-71 -16 -88 -34 -194 -212 -45 -75 -89 -139 -99 -142 -9
-3 -87 -21 -172 -41 -85 -19 -166 -44 -180 -54 -34 -25 -68 -77 -76 -116 -12
-64 10 -105 132 -246 l117 -134 -7 -80 c-19 -232 -19 -300 -2 -332 26 -51 80
-86 139 -91 46 -3 69 4 209 62 86 36 162 66 170 66 7 0 83 -30 168 -66 139
-59 160 -66 207 -62 63 5 118 43 140 97 16 36 15 98 -3 326 l-7 80 117 134
c140 162 156 201 117 286 -32 70 -64 89 -218 125 -76 17 -155 36 -175 41 -34
9 -43 20 -119 147 -45 75 -91 148 -103 160 -39 44 -105 65 -161 52z m125 -371
c52 -87 95 -146 110 -154 14 -7 90 -27 170 -45 80 -18 148 -35 152 -39 4 -3
-40 -60 -98 -126 -58 -66 -110 -130 -115 -143 -6 -15 -4 -81 6 -184 8 -89 13
-164 10 -166 -2 -2 -69 23 -148 57 -79 33 -159 61 -176 61 -18 0 -97 -28 -177
-61 -80 -34 -147 -59 -149 -57 -3 2 2 77 10 166 10 103 12 169 6 184 -5 13
-57 77 -115 143 -58 66 -102 123 -98 126 4 3 72 20 152 39 80 18 156 38 170
46 15 7 58 67 110 153 47 78 87 141 90 141 3 0 43 -64 90 -141z"/>
<path d="M1097 4196 c-55 -20 -67 -34 -145 -165 l-70 -117 -140 -32 c-184 -43
-222 -74 -222 -179 0 -59 12 -79 120 -202 72 -83 81 -98 76 -123 -3 -16 -9
-85 -12 -153 -7 -116 -6 -125 16 -159 26 -43 85 -76 135 -76 22 0 88 22 164
54 l127 55 130 -55 c110 -47 136 -54 177 -51 51 4 88 26 121 70 22 30 25 77
13 242 l-8 110 91 104 c96 111 117 154 106 215 -8 40 -46 90 -85 110 -14 8
-83 26 -153 42 l-126 29 -66 111 c-74 123 -107 160 -157 174 -42 12 -45 12
-92 -4z m117 -341 c31 -52 67 -102 79 -109 12 -8 71 -26 130 -40 60 -13 110
-26 113 -28 2 -2 -28 -40 -67 -83 -98 -112 -101 -119 -88 -255 6 -61 9 -114 6
-117 -3 -3 -55 15 -115 41 -60 25 -116 46 -125 46 -8 0 -62 -20 -120 -45 -58
-25 -111 -45 -117 -45 -8 0 -10 9 -7 23 3 12 9 68 13 124 8 119 11 110 -96
232 l-70 79 115 27 c64 15 126 36 140 47 14 10 50 62 81 114 31 51 60 92 64
89 4 -2 33 -47 64 -100z"/>
<path d="M3926 4200 c-45 -14 -80 -55 -152 -175 l-67 -112 -126 -28 c-69 -15
-138 -34 -152 -41 -39 -20 -77 -70 -85 -110 -11 -61 10 -104 106 -215 l91
-104 -8 -110 c-12 -165 -9 -212 13 -242 33 -44 70 -66 121 -70 41 -3 67 4 177
51 l130 55 127 -55 c143 -60 183 -66 243 -31 67 38 79 72 72 214 -4 67 -9 135
-12 151 -5 25 4 40 76 123 109 124 120 143 120 205 0 62 -29 111 -80 136 -19
9 -90 30 -158 45 l-123 27 -66 111 c-36 60 -73 118 -82 129 -35 40 -113 62
-165 46z m108 -334 c31 -52 68 -104 81 -115 14 -11 70 -29 123 -41 53 -12 105
-24 115 -26 14 -4 1 -23 -63 -97 -45 -51 -83 -103 -87 -115 -3 -13 -1 -74 4
-135 6 -62 9 -114 7 -116 -2 -2 -54 17 -116 43 -62 25 -119 46 -126 46 -7 0
-62 -21 -123 -47 -60 -25 -112 -43 -115 -40 -4 3 -1 56 5 117 13 136 10 143
-88 255 -39 43 -69 81 -67 83 3 2 53 15 113 28 59 14 118 32 130 39 12 8 45
54 74 102 51 86 69 113 74 113 1 0 28 -42 59 -94z"/>
<path d="M2343 3046 c-227 -60 -427 -214 -540 -415 -43 -76 -90 -206 -100
-281 l-8 -54 -35 31 c-277 241 -698 225 -960 -37 -269 -269 -277 -699 -18
-976 33 -35 59 -66 57 -67 -2 -1 -38 -19 -79 -39 -125 -62 -224 -163 -289
-294 -52 -104 -63 -163 -68 -367 l-5 -187 -119 0 c-108 0 -120 -2 -144 -22
-34 -30 -44 -88 -20 -124 36 -56 -1 -54 1082 -54 670 0 1011 4 1036 11 26 7
44 21 57 42 28 45 25 81 -9 119 l-29 33 -252 3 -252 3 5 227 c5 246 12 288 66
397 59 119 166 221 292 279 119 55 152 58 584 54 425 -4 417 -3 545 -68 135
-68 247 -202 297 -354 24 -75 26 -97 31 -308 l4 -227 -252 -3 -252 -3 -29 -33
c-34 -38 -37 -74 -9 -119 13 -21 31 -35 57 -42 25 -7 366 -11 1036 -11 1083 0
1046 -2 1082 54 24 36 14 94 -20 123 -24 21 -36 23 -144 23 l-118 0 -6 188
c-6 212 -17 265 -78 383 -66 128 -165 223 -299 290 l-63 31 51 51 c417 429
137 1154 -461 1194 -171 11 -364 -51 -492 -158 l-50 -41 -7 45 c-29 206 -159
423 -331 553 -73 55 -217 127 -302 150 -39 11 -112 18 -205 20 -129 4 -155 1
-237 -20z m376 -191 c243 -58 445 -268 495 -517 20 -98 20 -169 0 -266 -52
-253 -249 -459 -494 -516 -83 -20 -237 -20 -320 0 -290 68 -510 348 -510 649
0 136 56 296 143 411 82 108 232 206 364 238 78 19 243 19 322 1z m-1358 -583
c205 -71 339 -260 339 -476 0 -97 -16 -163 -61 -245 -127 -239 -427 -329 -678
-204 -132 66 -240 221 -263 380 -13 93 5 202 48 292 59 121 216 243 349 270
70 14 199 6 266 -17z m2654 17 c102 -19 179 -61 259 -141 84 -85 119 -150 143
-264 33 -159 -20 -328 -140 -448 -224 -223 -597 -187 -773 75 -57 84 -77 145
-82 256 -6 122 16 206 76 298 67 102 145 164 257 203 95 34 163 39 260 21z
m-2054 -814 c-42 -17 -105 -49 -139 -72 -56 -38 -61 -39 -44 -15 28 39 77 140
91 187 7 22 14 46 17 53 2 9 31 -11 78 -54 l73 -68 -76 -31z m1288 105 c14
-49 63 -149 92 -192 17 -23 10 -20 -49 18 -37 25 -99 57 -139 72 l-71 27 71
67 c40 36 75 63 78 60 3 -4 11 -27 18 -52z m-1732 -503 c10 -6 10 -14 -2 -36
-8 -16 -24 -62 -36 -102 -19 -65 -22 -105 -26 -321 l-5 -248 -475 0 -476 0 6
173 c4 140 8 183 25 229 63 176 202 285 397 312 55 7 580 1 592 -7z m2785 -15
c140 -51 240 -151 290 -290 17 -46 21 -89 25 -229 l6 -173 -477 0 -476 0 0
208 c0 226 -8 300 -46 407 -13 39 -25 74 -26 80 -5 19 72 23 357 21 264 -3
295 -5 347 -24z"/>
<path d="M2520 359 c-62 -25 -80 -104 -35 -157 14 -16 37 -32 52 -35 61 -11
123 43 123 107 0 34 -48 85 -85 91 -16 2 -41 0 -55 -6z"/>
</g>
</svg>
